<?xml version="1.0" encoding="utf-8"?>
<svg version="1.1" xmlns:xlink="http://www.w3.org/1999/xlink" width="12px" height="12px" viewBox="209 1299  12 12" xmlns="http://www.w3.org/2000/svg">
  <path d="M 215 1299  C 218.36 1299  221 1301.64  221 1305  C 221 1308.36  218.36 1311  215 1311  C 211.64 1311  209 1308.36  209 1305  C 209 1301.64  211.64 1299  215 1299  Z " fill-rule="nonzero" fill="#ffffff" stroke="none" />
  <path d="M 215 1299.5  C 218.08 1299.5  220.5 1301.92  220.5 1305  C 220.5 1308.08  218.08 1310.5  215 1310.5  C 211.92 1310.5  209.5 1308.08  209.5 1305  C 209.5 1301.92  211.92 1299.5  215 1299.5  Z " stroke-width="1" stroke="#797979" fill="none" />
  <path d="M 215 1308  C 213.32 1308  212 1306.68  212 1305  C 212 1303.32  213.32 1302  215 1302  C 216.68 1302  218 1303.32  218 1305  C 218 1306.68  216.68 1308  215 1308  " fill-rule="nonzero" fill="#797979" stroke="none" />
</svg>