<?xml version="1.0" encoding="utf-8"?>
<svg version="1.1" xmlns:xlink="http://www.w3.org/1999/xlink" width="12px" height="12px" viewBox="304 1299  12 12" xmlns="http://www.w3.org/2000/svg">
  <path d="M 310 1299  C 313.36 1299  316 1301.64  316 1305  C 316 1308.36  313.36 1311  310 1311  C 306.64 1311  304 1308.36  304 1305  C 304 1301.64  306.64 1299  310 1299  Z " fill-rule="nonzero" fill="#f0f0f0" stroke="none" />
  <path d="M 310 1299.5  C 313.08 1299.5  315.5 1301.92  315.5 1305  C 315.5 1308.08  313.08 1310.5  310 1310.5  C 306.92 1310.5  304.5 1308.08  304.5 1305  C 304.5 1301.92  306.92 1299.5  310 1299.5  Z " stroke-width="1" stroke="#797979" fill="none" />
  <path d="M 310 1308  C 308.32 1308  307 1306.68  307 1305  C 307 1303.32  308.32 1302  310 1302  C 311.68 1302  313 1303.32  313 1305  C 313 1306.68  311.68 1308  310 1308  " fill-rule="nonzero" fill="#797979" stroke="none" />
</svg>