<?xml version="1.0" encoding="utf-8"?>
<svg version="1.1" xmlns:xlink="http://www.w3.org/1999/xlink" width="144px" height="144px" xmlns="http://www.w3.org/2000/svg">
  <g transform="matrix(1 0 0 1 -68 -66 )">
    <path d="M 27 104  L 40 104  L 40 117  L 27 117  L 27 104  Z M 27 27  L 40 27  L 40 40  L 27 40  L 27 27  Z M 104 27  L 117 27  L 117 40  L 104 40  L 104 27  Z M 13 91  L 13 130  L 53 130  L 53 91  L 13 91  Z M 13 13  L 13 53  L 53 53  L 53 13  L 13 13  Z M 91 13  L 91 53  L 131 53  L 131 13  L 91 13  Z M 0 78  L 66 78  L 66 144  L 0 144  L 0 78  Z M 104 131  L 117 131  L 117 144  L 104 144  L 104 131  Z M 131 131  L 144 131  L 144 144  L 131 144  L 131 131  Z M 131 78  L 144 78  L 144 117  L 104 117  L 104 104  L 91 104  L 91 144  L 78 144  L 78 78  L 117 78  L 117 91  L 131 91  L 131 78  Z M 0 0  L 66 0  L 66 66  L 0 66  L 0 0  Z M 78 0  L 144 0  L 144 66  L 78 66  L 78 0  Z " fill-rule="nonzero" fill="#000000" stroke="none" transform="matrix(1 0 0 1 68 66 )" />
  </g>
</svg>