<?xml version="1.0" encoding="utf-8"?>
<svg version="1.1" xmlns:xlink="http://www.w3.org/1999/xlink" width="7px" height="7px" xmlns="http://www.w3.org/2000/svg">
  <g transform="matrix(1 0 0 1 -1297 -397 )">
    <path d="M 3.96055320327524 3.4724672016226  L 6.74108938882211 0.706326187950721  C 6.87256794155649 0.57550196484375  6.87323249196214 0.36351069516226  6.74240825886418 0.232032142427885  C 6.61128754326923 0.100257097205529  6.39966433150541 0.0998890392878607  6.26818577877103 0.230713272385818  L 3.48693393892728 2.99715077854567  L 0.729902356219952 0.231725429161659  C 0.599395067157452 0.100911426832933  0.387107304987981 0.100246876427283  0.255628762244591 0.231060878756009  C 0.124456922776442 0.361874881084735  0.124139988731971 0.574172864032452  0.254964211838942 0.705651416766827  L 3.01133124414062 3.47041221574519  L 0.232134380183293 6.23486630145733  C 0.100645606670673 6.3656905245643  0.0999912770432691 6.5776613526893  0.23079505859375 6.70916034698017  C 0.29619694936899 6.77492006490385  0.382383896709735 6.80807596980168  0.468570844050481 6.80807596980168  C 0.554103471754808 6.80807596980168  0.63966676179387 6.7755846153095  0.705078873347356 6.71047921702224  L 3.48494027771935 3.94536058090445  L 6.26716339122596 6.7359672403095  C 6.3325652820012 6.80173718900241  6.41845573685397 6.83459660141226  6.50463246341647 6.83459660141226  C 6.59050247671274 6.83459660141226  6.67603509442608 6.80173718900241  6.74143698520132 6.73663179071514  C 6.87255770079628 6.60581778838642  6.8729155379357 6.39388786335637  6.74210153560697 6.262409310622  L 3.96055320327524 3.4724672016226  Z " fill-rule="nonzero" fill="#c9c9c9" stroke="none" transform="matrix(1 0 0 1 1297 397 )" />
  </g>
</svg>