<?xml version="1.0" encoding="utf-8"?>
<svg version="1.1" xmlns:xlink="http://www.w3.org/1999/xlink" width="517px" height="78px" xmlns="http://www.w3.org/2000/svg">
  <g transform="matrix(1 0 0 1 -60.5 -428.5 )">
    <path d="M 0 74  C 77.3466494845361 48.3416693046323  90.0943643512451 48.0683760683761  90.0943643512451 48.0683760683761  C 90.0943643512451 48.0683760683761  125.72870249017 48.7008547008547  140.520314547837 43.6410256410256  C 155.311926605505 38.5811965811966  173.713066300955 37.761316872428  188.256880733945 39.2136752136752  C 202.800695166935 40.6660335549224  208.652531380471 35.2392107206922  221.874180865007 28.4615384615385  C 235.095830349543 21.6838662023847  241.574958452122 25.0024269283529  253.474442988204 24.034188034188  C 265.373927524287 23.0659491400232  263.771907216495 10.0962329851219  283.604381443299 9.12799409095706  C 303.436855670103 8.15975519679222  307.746454918863 20.7468608209349  336.173001310616 22.1992191621821  C 364.599547702369 23.6515775034294  348.939777533069 12.9853329112588  387.943643512451 12.017094017094  C 426.947509491832 11.0488551229292  415.509829619921 -0.632478632478633  434.992268041237 0.413844043473679  C 454.474706462553 1.46016671942599  453.330158692627 10.4163764904506  463.246395806029 11.3846153846154  C 473.162632919431 12.3528542787802  474.67627785059 22.9722486018783  486.778505897772 24.034188034188  C 498.880733944954 25.0961274664977  513 21.2309802680173  513 21.2309802680173  " stroke-width="3" stroke="#3399cc" fill="none" transform="matrix(1 0 0 1 62 430 )" />
  </g>
</svg>