<?xml version="1.0" encoding="utf-8"?>
<svg version="1.1" xmlns:xlink="http://www.w3.org/1999/xlink" width="10px" height="17px" xmlns="http://www.w3.org/2000/svg">
  <g transform="matrix(1 0 0 1 -29 -861 )">
    <path d="M 5.908203125 11.7064732142857  C 6.13606770833333 12.022693452381  6.25 12.3705357142857  6.25 12.75  C 6.25 13.2559523809524  6.06770833333333 13.6860119047619  5.703125 14.0401785714286  C 5.33854166666667 14.3943452380952  4.89583333333333 14.5714285714286  4.375 14.5714285714286  C 3.85416666666667 14.5714285714286  3.41145833333333 14.3943452380952  3.046875 14.0401785714286  C 2.68229166666667 13.6860119047619  2.5 13.2559523809524  2.5 12.75  C 2.5 12.3705357142857  2.61393229166667 12.022693452381  2.841796875 11.7064732142857  C 3.06966145833333 11.3902529761905  3.37239583333333 11.1657366071429  3.75 11.0329241071429  L 3.75 7.28571428571429  L 5 7.28571428571429  L 5 11.0329241071429  C 5.37760416666667 11.1657366071429  5.68033854166667 11.3902529761905  5.908203125 11.7064732142857  Z M 6.5869140625 14.8987165178571  C 7.19563802083333 14.307384672619  7.5 13.5911458333333  7.5 12.75  C 7.5 12.2630208333333  7.38932291666667 11.8076636904762  7.16796875 11.3839285714286  C 6.94661458333333 10.960193452381  6.640625 10.6060267857143  6.25 10.3214285714286  L 6.25 3.03571428571429  C 6.25 2.5297619047619  6.06770833333333 2.09970238095238  5.703125 1.74553571428571  C 5.33854166666667 1.39136904761905  4.89583333333333 1.21428571428571  4.375 1.21428571428571  C 3.85416666666667 1.21428571428571  3.41145833333333 1.39136904761905  3.046875 1.74553571428571  C 2.68229166666667 2.09970238095238  2.5 2.5297619047619  2.5 3.03571428571429  L 2.5 10.3214285714286  C 2.109375 10.6060267857143  1.80338541666667 10.960193452381  1.58203125 11.3839285714286  C 1.36067708333333 11.8076636904762  1.25 12.2630208333333  1.25 12.75  C 1.25 13.5911458333333  1.55436197916667 14.307384672619  2.1630859375 14.8987165178571  C 2.77180989583333 15.4900483630952  3.50911458333333 15.7857142857143  4.375 15.7857142857143  C 5.24088541666667 15.7857142857143  5.97819010416667 15.4900483630952  6.5869140625 14.8987165178571  Z M 7.5 9.78069196428571  C 8.33333333333333 10.6091889880952  8.75 11.5989583333333  8.75 12.75  C 8.75 13.9200148809524  8.32194010416667 14.9208519345238  7.4658203125 15.7525111607143  C 6.60970052083333 16.5841703869048  5.57942708333333 17  4.375 17  C 3.17057291666667 17  2.14029947916667 16.5841703869048  1.2841796875 15.7525111607143  C 0.428059895833333 14.9208519345238  0 13.9200148809524  0 12.75  C 0 11.5989583333333  0.416666666666667 10.6091889880952  1.25 9.78069196428571  L 1.25 3.03571428571429  C 1.25 2.19456845238095  1.55436197916667 1.47832961309524  2.1630859375 0.886997767857143  C 2.77180989583333 0.295665922619048  3.50911458333333 0  4.375 0  C 5.24088541666667 0  5.97819010416667 0.295665922619048  6.5869140625 0.886997767857143  C 7.19563802083333 1.47832961309524  7.5 2.19456845238095  7.5 3.03571428571429  L 7.5 9.78069196428571  Z M 8.125 7.28571428571429  L 10 7.28571428571429  L 10 8.5  L 8.125 8.5  L 8.125 7.28571428571429  Z M 8.125 4.85714285714286  L 10 4.85714285714286  L 10 6.07142857142857  L 8.125 6.07142857142857  L 8.125 4.85714285714286  Z M 8.125 2.42857142857143  L 10 2.42857142857143  L 10 3.64285714285714  L 8.125 3.64285714285714  L 8.125 2.42857142857143  Z " fill-rule="nonzero" fill="#000000" stroke="none" transform="matrix(1 0 0 1 29 861 )" />
  </g>
</svg>