<?xml version="1.0" encoding="utf-8"?>
<svg version="1.1" xmlns:xlink="http://www.w3.org/1999/xlink" width="10px" height="18px" xmlns="http://www.w3.org/2000/svg">
  <g transform="matrix(1 0 0 1 -30 -816 )">
    <path d="M 5.908203125 12.3950892857143  C 6.13606770833333 12.7299107142857  6.25 13.0982142857143  6.25 13.5  C 6.25 14.0357142857143  6.06770833333333 14.4910714285714  5.703125 14.8660714285714  C 5.33854166666667 15.2410714285714  4.89583333333333 15.4285714285714  4.375 15.4285714285714  C 3.85416666666667 15.4285714285714  3.41145833333333 15.2410714285714  3.046875 14.8660714285714  C 2.68229166666667 14.4910714285714  2.5 14.0357142857143  2.5 13.5  C 2.5 13.0982142857143  2.61393229166667 12.7299107142857  2.841796875 12.3950892857143  C 3.06966145833333 12.0602678571429  3.37239583333333 11.8225446428571  3.75 11.6819196428571  L 3.75 2.57142857142857  L 5 2.57142857142857  L 5 11.6819196428571  C 5.37760416666667 11.8225446428571  5.68033854166667 12.0602678571429  5.908203125 12.3950892857143  Z M 6.5869140625 15.7751116071429  C 7.19563802083333 15.1489955357143  7.5 14.390625  7.5 13.5  C 7.5 12.984375  7.38932291666667 12.5022321428571  7.16796875 12.0535714285714  C 6.94661458333333 11.6049107142857  6.640625 11.2299107142857  6.25 10.9285714285714  L 6.25 3.21428571428571  C 6.25 2.67857142857143  6.06770833333333 2.22321428571429  5.703125 1.84821428571429  C 5.33854166666667 1.47321428571428  4.89583333333333 1.28571428571429  4.375 1.28571428571429  C 3.85416666666667 1.28571428571429  3.41145833333333 1.47321428571428  3.046875 1.84821428571429  C 2.68229166666667 2.22321428571429  2.5 2.67857142857143  2.5 3.21428571428571  L 2.5 10.9285714285714  C 2.109375 11.2299107142857  1.80338541666667 11.6049107142857  1.58203125 12.0535714285714  C 1.36067708333333 12.5022321428571  1.25 12.984375  1.25 13.5  C 1.25 14.390625  1.55436197916667 15.1489955357143  2.1630859375 15.7751116071429  C 2.77180989583333 16.4012276785714  3.50911458333333 16.7142857142857  4.375 16.7142857142857  C 5.24088541666667 16.7142857142857  5.97819010416667 16.4012276785714  6.5869140625 15.7751116071429  Z M 7.5 10.3560267857143  C 8.33333333333333 11.2332589285714  8.75 12.28125  8.75 13.5  C 8.75 14.7388392857143  8.32194010416667 15.7985491071429  7.4658203125 16.6791294642857  C 6.60970052083333 17.5597098214286  5.57942708333333 18  4.375 18  C 3.17057291666667 18  2.14029947916667 17.5597098214286  1.2841796875 16.6791294642857  C 0.428059895833333 15.7985491071429  0 14.7388392857143  0 13.5  C 0 12.28125  0.416666666666667 11.2332589285714  1.25 10.3560267857143  L 1.25 3.21428571428571  C 1.25 2.32366071428571  1.55436197916667 1.56529017857143  2.1630859375 0.939174107142857  C 2.77180989583333 0.313058035714286  3.50911458333333 0  4.375 0  C 5.24088541666667 0  5.97819010416667 0.313058035714286  6.5869140625 0.939174107142857  C 7.19563802083333 1.56529017857143  7.5 2.32366071428571  7.5 3.21428571428571  L 7.5 10.3560267857143  Z M 8.125 7.71428571428572  L 10 7.71428571428572  L 10 9  L 8.125 9  L 8.125 7.71428571428572  Z M 8.125 5.14285714285714  L 10 5.14285714285714  L 10 6.42857142857143  L 8.125 6.42857142857143  L 8.125 5.14285714285714  Z M 8.125 2.57142857142857  L 10 2.57142857142857  L 10 3.85714285714286  L 8.125 3.85714285714286  L 8.125 2.57142857142857  Z " fill-rule="nonzero" fill="#02a7f0" stroke="none" transform="matrix(1 0 0 1 30 816 )" />
  </g>
</svg>