<?xml version="1.0" encoding="utf-8"?>
<svg version="1.1" xmlns:xlink="http://www.w3.org/1999/xlink" width="12px" height="12px" viewBox="2379 211  12 12" xmlns="http://www.w3.org/2000/svg">
  <path d="M 2385 211  C 2388.36 211  2391 213.64  2391 217  C 2391 220.36  2388.36 223  2385 223  C 2381.64 223  2379 220.36  2379 217  C 2379 213.64  2381.64 211  2385 211  Z " fill-rule="nonzero" fill="#ffffff" stroke="none" />
  <path d="M 2385 211.5  C 2388.08 211.5  2390.5 213.92  2390.5 217  C 2390.5 220.08  2388.08 222.5  2385 222.5  C 2381.92 222.5  2379.5 220.08  2379.5 217  C 2379.5 213.92  2381.92 211.5  2385 211.5  Z " stroke-width="1" stroke="#797979" fill="none" />
  <path d="M 2385 220  C 2383.32 220  2382 218.68  2382 217  C 2382 215.32  2383.32 214  2385 214  C 2386.68 214  2388 215.32  2388 217  C 2388 218.68  2386.68 220  2385 220  " fill-rule="nonzero" fill="#797979" stroke="none" />
</svg>