<?xml version="1.0" encoding="utf-8"?>
<svg version="1.1" xmlns:xlink="http://www.w3.org/1999/xlink" width="7px" height="13px" xmlns="http://www.w3.org/2000/svg">
  <g transform="matrix(1 0 0 1 -54 -48 )">
    <path d="M 6.80314465654481 12.8168124441964  C 7.01100629790684 12.6061467524314  7.01100629790684 12.265986398876  6.80314465654481 12.0556365353954  L 1.30377359043337 6.53253158282844  L 6.78710691516804 0.944363464604592  C 6.99496855653007 0.734013614078444  6.99496855653007 0.393853260522959  6.78710691516804 0.183187555803571  C 6.68799453737555 0.0821678531205031  6.55268552633535 0.0252900205812181  6.41147798588591 0.0252900205812181  C 6.27027044543647 0.0252900205812181  6.13496143439628 0.0821678531205031  6.03584905660377 0.183187555803571  L 0.216981130232901 6.12730806361607  C 0.201257854879127 6.14373178212691  0.201257854879127 6.14373178212691  0.201257867777123 6.15983964644452  C 0.105031458210495 6.25711855369101  0.0411949716244101 6.40303692103795  0.0411949716244101 6.53253158282844  C 0.0411949716244101 6.67813410893654  0.0893081828567216 6.80762877072704  0.200943401754127 6.92101555524554  L 6.05188679798054 12.8168124441964  C 6.25943397331958 13.0274781359614  6.59528302808078 13.0274781359614  6.80345912256781 12.8168124441964  Z " fill-rule="nonzero" fill="#999999" stroke="none" transform="matrix(1 0 0 1 54 48 )" />
  </g>
</svg>