<?xml version="1.0" encoding="utf-8"?>
<svg version="1.1" xmlns:xlink="http://www.w3.org/1999/xlink" width="33px" height="33px" xmlns="http://www.w3.org/2000/svg">
  <g transform="matrix(1 0 0 1 -450 -137 )">
    <path d="M 32.9122340308968 16.5  C 32.9122340308968 7.43573763966921  25.5642623953 0.0877659691032246  16.5 0.0877659691032246  C 7.43573760469997 0.0877659691032246  0.0877659691032246 7.43573760469997  0.0877659691032246 16.5  C 0.0877659691032246 25.5642623953  7.43573763966921 32.9122340308968  16.5 32.9122340308968  C 25.5642623603308 32.9122340308968  32.9122340308968 25.5642623603308  32.9122340308968 16.5  Z M 23.373555518617 17.5908074185298  L 23.3730892736245 17.5896417885638  L 14.0479562832447 23.7442295545213  C 13.8346942900539 23.8848046563432  13.5848799302331 23.9597324097852  13.3294547220176 23.9597324097852  C 12.6085827423891 23.9597324097852  12.024142661635 23.3754597160116  12 22.6545877659574  L 12 10.3465778640085  C 12.0239729067185 9.62558582601226  12.6084627349508 9.04112577836811  13.3294547738829 9.04112577836811  C 13.5850701402431 9.04112577836811  13.8350619623256 9.11616503995332  14.0484225282372 9.25693607544465  L 23.373555518617 15.4115238414021  C 23.7396919815383 15.6531419803644  23.9600055587051 16.0624912238786  23.9600055587051 16.5011656299659  C 23.9600055587051 16.9398400360533  23.7396919815383 17.3491892795675  23.373555518617 17.5908074185298  Z " fill-rule="nonzero" fill="#333333" stroke="none" transform="matrix(1 0 0 1 450 137 )" />
  </g>
</svg>