<?xml version="1.0" encoding="utf-8"?>
<svg version="1.1" xmlns:xlink="http://www.w3.org/1999/xlink" width="23px" height="23px" xmlns="http://www.w3.org/2000/svg">
  <g transform="matrix(1 0 0 1 -1275 -11 )">
    <path d="M 1286.5 11.0833333333333  C 1292.89333333333 11.0833333333333  1297.91666666667 16.1066666666667  1297.91666666667 22.5  C 1297.91666666667 28.8933333333333  1292.89333333333 33.9166666666667  1286.5 33.9166666666667  C 1280.10666666667 33.9166666666667  1275.08333333333 28.8933333333333  1275.08333333333 22.5  C 1275.08333333333 16.1066666666667  1280.10666666667 11.0833333333333  1286.5 11.0833333333333  Z " fill-rule="nonzero" fill="#ffffff" stroke="none" fill-opacity="0" />
    <path d="M 1286.5 11.5416666666667  C 1292.63666666667 11.5416666666667  1297.45833333333 16.3633333333333  1297.45833333333 22.5  C 1297.45833333333 28.6366666666667  1292.63666666667 33.4583333333333  1286.5 33.4583333333333  C 1280.36333333333 33.4583333333333  1275.54166666667 28.6366666666667  1275.54166666667 22.5  C 1275.54166666667 16.3633333333333  1280.36333333333 11.5416666666667  1286.5 11.5416666666667  Z " stroke-width="1.08333333333333" stroke="#000000" fill="none" />
  </g>
</svg>