<?xml version="1.0" encoding="utf-8"?>
<svg version="1.1" xmlns:xlink="http://www.w3.org/1999/xlink" width="13px" height="13px" xmlns="http://www.w3.org/2000/svg">
  <g transform="matrix(1 0 0 1 -295 -284 )">
    <path d="M 10.71484375 5.509765625  C 10.81640625 5.408203125  10.8671875 5.28125  10.8671875 5.12890625  C 10.8671875 4.97092013888889  10.81640625 4.84114583333333  10.71484375 4.73958333333333  L 9.94466145833333 3.97786458333333  C 9.83745659722222 3.87065972222222  9.71050347222222 3.81705729166667  9.56380208333333 3.81705729166667  C 9.41710069444444 3.81705729166667  9.29014756944444 3.87065972222222  9.18294270833333 3.97786458333333  L 5.72981770833333 7.42252604166667  L 3.81705729166667 5.509765625  C 3.70985243055556 5.40256076388889  3.58289930555556 5.34895833333333  3.43619791666667 5.34895833333333  C 3.28949652777778 5.34895833333333  3.16254340277778 5.40256076388889  3.05533854166667 5.509765625  L 2.28515625 6.271484375  C 2.18359375 6.373046875  2.1328125 6.50282118055556  2.1328125 6.66080729166667  C 2.1328125 6.81315104166667  2.18359375 6.94010416666667  2.28515625 7.04166666666667  L 5.34895833333333 10.10546875  C 5.45616319444444 10.2126736111111  5.58311631944444 10.2662760416667  5.72981770833333 10.2662760416667  C 5.88216145833333 10.2662760416667  6.01193576388889 10.2126736111111  6.119140625 10.10546875  L 10.71484375 5.509765625  Z M 12.1282552083333 3.2373046875  C 12.7094184027778 4.23318142361111  13 5.32074652777778  13 6.5  C 13 7.67925347222222  12.7094184027778 8.76681857638889  12.1282552083333 9.7626953125  C 11.5470920138889 10.7585720486111  10.7585720486111 11.5470920138889  9.7626953125 12.1282552083333  C 8.76681857638889 12.7094184027778  7.67925347222222 13  6.5 13  C 5.32074652777778 13  4.23318142361111 12.7094184027778  3.2373046875 12.1282552083333  C 2.24142795138889 11.5470920138889  1.45290798611111 10.7585720486111  0.871744791666667 9.7626953125  C 0.290581597222222 8.76681857638889  0 7.67925347222222  0 6.5  C 0 5.32074652777778  0.290581597222222 4.23318142361111  0.871744791666667 3.2373046875  C 1.45290798611111 2.24142795138889  2.24142795138889 1.45290798611111  3.2373046875 0.871744791666666  C 4.23318142361111 0.290581597222221  5.32074652777778 0  6.5 0  C 7.67925347222222 0  8.76681857638889 0.290581597222221  9.7626953125 0.871744791666666  C 10.7585720486111 1.45290798611111  11.5470920138889 2.24142795138889  12.1282552083333 3.2373046875  Z " fill-rule="nonzero" fill="#000000" stroke="none" transform="matrix(1 0 0 1 295 284 )" />
  </g>
</svg>