<?xml version="1.0" encoding="utf-8"?>
<svg version="1.1" xmlns:xlink="http://www.w3.org/1999/xlink" width="18px" height="10px" xmlns="http://www.w3.org/2000/svg">
  <g transform="matrix(1 0 0 1 -1327 -172 )">
    <path d="M 17.666015625 8.10763888888889  C 17.888671875 8.32754629629629  18 8.58796296296296  18 8.88888888888889  C 18 9.18981481481481  17.888671875 9.45023148148148  17.666015625 9.67013888888889  C 17.443359375 9.8900462962963  17.1796875 10  16.875 10  L 1.125 10  C 0.8203125 10  0.556640625 9.8900462962963  0.333984375 9.67013888888889  C 0.111328125 9.45023148148148  0 9.18981481481481  0 8.88888888888889  C 0 8.58796296296296  0.111328125 8.32754629629629  0.333984375 8.10763888888889  L 8.208984375 0.329861111111112  C 8.431640625 0.109953703703702  8.6953125 0  9 0  C 9.3046875 0  9.568359375 0.109953703703702  9.791015625 0.329861111111112  L 17.666015625 8.10763888888889  Z " fill-rule="nonzero" fill="#aaaaaa" stroke="none" transform="matrix(1 0 0 1 1327 172 )" />
  </g>
</svg>