<?xml version="1.0" encoding="UTF-8"?>
<svg width="46px" height="46px" viewBox="0 0 46 46" version="1.1" xmlns="http://www.w3.org/2000/svg" xmlns:xlink="http://www.w3.org/1999/xlink">
    <title>待付款</title>
    <g id="社区食堂20260729" stroke="none" stroke-width="1" fill="none" fill-rule="evenodd">
        <g id="2-4-订单确认-自取-待支付" transform="translate(-275.000000, -210.000000)" fill="#EF4033" fill-rule="nonzero">
            <g id="待付款" transform="translate(275.000000, 210.000000)">
                <path d="M23,46 C10.3277419,46 0,35.6722581 0,23 C0,10.3277419 10.3277419,0 23,0 C35.6722581,0 46,10.3277419 46,23 C46,35.6722581 35.6722581,46 23,46 Z M23,4.4516129 C12.7612903,4.4516129 4.4516129,12.7612903 4.4516129,23 C4.4516129,33.2387097 12.7612903,41.5483871 23,41.5483871 C33.2387097,41.5483871 41.5483871,33.2387097 41.5483871,23 C41.5483871,12.7612903 33.2387097,4.4516129 23,4.4516129 Z" id="形状"></path>
                <path d="M31.9032258,31.1612926 C31.458251,31.1619347 31.0235777,31.027393 30.6567742,30.7754839 L21.7535484,24.84 C21.1374603,24.4312785 20.7691592,23.7393189 20.7741426,23 L20.7741426,14.0967742 C20.7741426,12.88 21.7832258,11.8709677 23,11.8709677 C24.2167742,11.8709677 25.2258065,12.88 25.2258065,14.0967742 L25.2258065,21.8129032 L33.1496774,27.0954839 C34.1587097,27.7780645 34.4554839,29.1729032 33.7729032,30.1819355 C33.3574194,30.8348387 32.6451613,31.1612926 31.9329032,31.1612926 L31.9032258,31.1612926 Z" id="路径"></path>
            </g>
        </g>
    </g>
</svg>