<?xml version="1.0" encoding="utf-8"?>
<svg version="1.1" xmlns:xlink="http://www.w3.org/1999/xlink" width="78px" height="44px" xmlns="http://www.w3.org/2000/svg">
  <g transform="matrix(1 0 0 1 -181 -1526 )">
    <path d="M 181 1526  L 259 1526  L 259 1570  L 181 1570  L 181 1526  " fill-rule="nonzero" fill="#cccccc" stroke="none" />
    <path d="M 184 1529  L 256 1529  L 256 1567  L 184 1567  L 184 1529  " fill-rule="nonzero" fill="#ffffff" stroke="none" />
    <path d="M 224.86 1539.2  C 223.012 1539.2  221.56 1537.748  221.56 1535.9  C 221.56 1534.052  223.012 1532.6  224.86 1532.6  C 226.708 1532.6  228.16 1534.052  228.16 1535.9  C 228.16 1537.748  226.708 1539.2  224.86 1539.2  " fill-rule="nonzero" fill="#cccccc" stroke="none" />
    <path d="M 185 1566  L 185 1546.2  L 202.5 1537.2  L 227 1553.81538461538  L 241 1542.6  L 255 1553.81538461538  L 255 1566  L 185 1566  " fill-rule="nonzero" fill="#169bd5" stroke="none" />
  </g>
</svg>