<?xml version="1.0" encoding="utf-8"?>
<svg version="1.1" xmlns:xlink="http://www.w3.org/1999/xlink" width="19px" height="19px" xmlns="http://www.w3.org/2000/svg">
  <g transform="matrix(1 0 0 1 -337 -91 )">
    <path d="M 18.9935633974609 11.9272952919922  C 18.0164478554688 11.5510084189453  17.3201329423828 10.6096836259766  17.3201329423828 9.5  C 17.3201329423828 8.39031637402344  18.0164478369141 7.44891563671875  18.9935633603516 7.07270470800781  C 18.7600976503906 6.15743026953125  18.4000827373047 5.29518687207031  17.9295057851563 4.5032527890625  C 16.9724786425781 4.92827961621094  15.8144348027344 4.75504106738281  15.0296398955078 3.97026516015625  C 14.2449778955078 3.185489234375  14.0716254208984 2.02735045019531  14.4966902294922 1.0703612890625  C 13.7047181835938 0.599898262695312  12.8425127675781 0.239902331054687  11.9272003476563 0.0064366210937493  C 11.5510274003906 0.983552144531249  10.6095886816406 1.67975311328125  9.49999998144532 1.67975311328125  C 8.39027837402344 1.67975311328125  7.44883967382813 0.983552144531249  7.07266670800781 0.0064366210937493  C 6.15735430664063 0.239902349609375  5.295148890625 0.59987928125  4.50317684472656 1.0703612890625  C 4.92824165332031 2.02735045019531  4.75490817871094 3.185489234375  3.97022717871094 3.97026516015625  C 3.18541329003906 4.7550410859375  2.02736943164062 4.92827963476562  1.0703612890625 4.5032527890625  C 0.599784336914062 5.29518685351562  0.239902331054687 6.15743025097656  0.00643662109374983 7.07270470800781  C 0.98355214453125 7.44891563671875  1.67971513183594 8.39031637402344  1.67971513183594 9.5  C 1.67971513183594 10.6096836259766  0.98355214453125 11.5510084189453  0.0064366396484375 11.9272952919922  C 0.239902349609375 12.8425697304688  0.599917262695313 13.7048131279297  1.07036130761719 14.4967472109375  C 2.02738845019531 14.0717203837891  3.18543229003906 14.2449589326172  3.97022719726563 15.0297348398437  C 4.75488919726563 15.8144348212891  4.928241671875 16.9725546054688  4.50317686328125 17.9296007294922  C 5.29514890917969 18.4000637558594  6.15735432519531 18.7600976503906  7.07266674511719 18.9935633603516  C 7.44883969238281 18.0164098740234  8.39027841113281 17.3201709238281  9.50000001855469 17.3201709238281  C 10.6095697373047 17.3201709238281  11.5510084375 18.0164098740234  11.9272003847656 18.9935633603516  C 12.8425128046875 18.7600976503906  13.7047182207031 18.4000827373047  14.4966902666016 17.9296007294922  C 14.0716254580078 16.9725356240234  14.2449589326172 15.8144348027344  15.0296399326172 15.0297348398437  C 15.8144538212891 14.2449589140625  16.9724786796875 14.0717203652344  17.9295058222656 14.4967472109375  C 18.3999498671875 13.7048131464844  18.7599647802734 12.8425697490234  18.9935633974609 11.9272952919922  Z M 12.1068565546875 9.5  C 12.1068565546875 10.9397748193359  10.9396798935547 12.1069514804687  9.5 12.1069514804687  C 8.06016819921875 12.1069514804687  6.89301053808594 10.9397748193359  6.89301053808594 9.5  C 6.89301053808594 8.06022518066406  8.06018719921875 6.89304851953125  9.5 6.89304851953125  C 10.9396798935547 6.89304851953125  12.1068565546875 8.06022518066406  12.1068565546875 9.5  Z " fill-rule="nonzero" fill="#000000" stroke="none" transform="matrix(1 0 0 1 337 91 )" />
  </g>
</svg>