<?xml version="1.0" encoding="utf-8"?>
<svg version="1.1" xmlns:xlink="http://www.w3.org/1999/xlink" width="13px" height="10px" xmlns="http://www.w3.org/2000/svg">
  <g transform="matrix(1 0 0 1 -26 -377 )">
    <path d="M 6.26513671875 7.22330729166667  C 6.42171223958333 7.03884548611111  6.5 6.80772569444444  6.5 6.52994791666667  C 6.5 6.25217013888889  6.48095703125 5.99717881944444  6.44287109375 5.76497395833333  C 6.40478515625 5.53276909722222  6.34236653645833 5.30924479166667  6.255615234375 5.09440104166667  C 6.16886393229167 4.87955729166667  6.04085286458333 4.71028645833333  5.87158203125 4.58658854166667  C 5.70231119791667 4.462890625  5.4970703125 4.40104166666667  5.255859375 4.40104166666667  C 5.23046875 4.41840277777778  5.1669921875 4.45746527777778  5.0654296875 4.51822916666667  C 4.9638671875 4.57899305555555  4.884521484375 4.62565104166667  4.827392578125 4.658203125  C 4.770263671875 4.69075520833333  4.69514973958333 4.72873263888889  4.60205078125 4.77213541666667  C 4.50895182291667 4.81553819444444  4.41796875 4.84700520833333  4.3291015625 4.86653645833333  C 4.240234375 4.88606770833333  4.1513671875 4.89583333333333  4.0625 4.89583333333333  C 3.9736328125 4.89583333333333  3.884765625 4.88606770833333  3.7958984375 4.86653645833333  C 3.70703125 4.84700520833333  3.61604817708333 4.81553819444444  3.52294921875 4.77213541666667  C 3.42985026041667 4.72873263888889  3.354736328125 4.69075520833333  3.297607421875 4.658203125  C 3.240478515625 4.62565104166667  3.1611328125 4.57899305555555  3.0595703125 4.51822916666667  C 2.9580078125 4.45746527777778  2.89453125 4.41840277777778  2.869140625 4.40104166666667  C 2.6279296875 4.40104166666667  2.42268880208333 4.462890625  2.25341796875 4.58658854166667  C 2.08414713541667 4.71028645833333  1.95613606770833 4.87955729166667  1.869384765625 5.09440104166667  C 1.78263346354167 5.30924479166667  1.72021484375 5.53276909722222  1.68212890625 5.76497395833333  C 1.64404296875 5.99717881944444  1.625 6.25217013888889  1.625 6.52994791666667  C 1.625 6.80772569444444  1.70328776041667 7.03884548611111  1.85986328125 7.22330729166667  C 2.01643880208333 7.40776909722222  2.208984375 7.5  2.4375 7.5  L 5.6875 7.5  C 5.916015625 7.5  6.10856119791667 7.40776909722222  6.26513671875 7.22330729166667  Z M 5.081298828125 4.189453125  C 5.36271158854167 3.90082465277778  5.50341796875 3.55251736111111  5.50341796875 3.14453125  C 5.50341796875 2.73654513888889  5.36271158854167 2.38823784722222  5.081298828125 2.099609375  C 4.79988606770833 1.81098090277778  4.46028645833333 1.66666666666667  4.0625 1.66666666666667  C 3.66471354166667 1.66666666666667  3.32511393229167 1.81098090277778  3.043701171875 2.099609375  C 2.76228841145833 2.38823784722222  2.62158203125 2.73654513888889  2.62158203125 3.14453125  C 2.62158203125 3.55251736111111  2.76228841145833 3.90082465277778  3.043701171875 4.189453125  C 3.32511393229167 4.47808159722222  3.66471354166667 4.62239583333333  4.0625 4.62239583333333  C 4.46028645833333 4.62239583333333  4.79988606770833 4.47808159722222  5.081298828125 4.189453125  Z M 11.31787109375 6.60807291666667  C 11.35595703125 6.56901041666667  11.375 6.51909722222222  11.375 6.45833333333333  L 11.375 6.04166666666667  C 11.375 5.98090277777778  11.35595703125 5.93098958333333  11.31787109375 5.89192708333333  C 11.27978515625 5.85286458333333  11.2311197916667 5.83333333333333  11.171875 5.83333333333333  L 7.515625 5.83333333333333  C 7.45638020833333 5.83333333333333  7.40771484375 5.85286458333333  7.36962890625 5.89192708333333  C 7.33154296875 5.93098958333333  7.3125 5.98090277777778  7.3125 6.04166666666667  L 7.3125 6.45833333333333  C 7.3125 6.51909722222222  7.33154296875 6.56901041666667  7.36962890625 6.60807291666667  C 7.40771484375 6.64713541666667  7.45638020833333 6.66666666666667  7.515625 6.66666666666667  L 11.171875 6.66666666666667  C 11.2311197916667 6.66666666666667  11.27978515625 6.64713541666667  11.31787109375 6.60807291666667  Z M 11.308349609375 4.931640625  C 11.352783203125 4.88606770833333  11.375 4.83072916666667  11.375 4.765625  L 11.375 4.40104166666667  C 11.375 4.3359375  11.352783203125 4.28059895833333  11.308349609375 4.23502604166667  C 11.263916015625 4.189453125  11.2099609375 4.16666666666667  11.146484375 4.16666666666667  L 7.541015625 4.16666666666667  C 7.4775390625 4.16666666666667  7.423583984375 4.189453125  7.379150390625 4.23502604166667  C 7.334716796875 4.28059895833333  7.3125 4.3359375  7.3125 4.40104166666667  L 7.3125 4.765625  C 7.3125 4.83072916666667  7.334716796875 4.88606770833333  7.379150390625 4.931640625  C 7.423583984375 4.97721354166667  7.4775390625 5  7.541015625 5  L 11.146484375 5  C 11.2099609375 5  11.263916015625 4.97721354166667  11.308349609375 4.931640625  Z M 11.31787109375 3.27473958333333  C 11.35595703125 3.23567708333333  11.375 3.18576388888889  11.375 3.125  L 11.375 2.70833333333333  C 11.375 2.64756944444444  11.35595703125 2.59765625  11.31787109375 2.55859375  C 11.27978515625 2.51953125  11.2311197916667 2.5  11.171875 2.5  L 7.515625 2.5  C 7.45638020833333 2.5  7.40771484375 2.51953125  7.36962890625 2.55859375  C 7.33154296875 2.59765625  7.3125 2.64756944444444  7.3125 2.70833333333333  L 7.3125 3.125  C 7.3125 3.18576388888889  7.33154296875 3.23567708333333  7.36962890625 3.27473958333333  C 7.40771484375 3.31380208333333  7.45638020833333 3.33333333333333  7.515625 3.33333333333333  L 11.171875 3.33333333333333  C 11.2311197916667 3.33333333333333  11.27978515625 3.31380208333333  11.31787109375 3.27473958333333  Z M 12.70166015625 0.305989583333334  C 12.9005533854167 0.509982638888888  13 0.755208333333334  13 1.04166666666667  L 13 8.95833333333333  C 13 9.24479166666667  12.9005533854167 9.49001736111111  12.70166015625 9.69401041666667  C 12.5027669270833 9.89800347222222  12.263671875 10  11.984375 10  L 9.75 10  L 9.75 9.375  C 9.75 9.31423611111111  9.73095703125 9.26432291666667  9.69287109375 9.22526041666667  C 9.65478515625 9.18619791666667  9.60611979166667 9.16666666666667  9.546875 9.16666666666667  L 9.140625 9.16666666666667  C 9.08138020833333 9.16666666666667  9.03271484375 9.18619791666667  8.99462890625 9.22526041666667  C 8.95654296875 9.26432291666667  8.9375 9.31423611111111  8.9375 9.375  L 8.9375 10  L 4.0625 10  L 4.0625 9.375  C 4.0625 9.31423611111111  4.04345703125 9.26432291666667  4.00537109375 9.22526041666667  C 3.96728515625 9.18619791666667  3.91861979166667 9.16666666666667  3.859375 9.16666666666667  L 3.453125 9.16666666666667  C 3.39388020833333 9.16666666666667  3.34521484375 9.18619791666667  3.30712890625 9.22526041666667  C 3.26904296875 9.26432291666667  3.25 9.31423611111111  3.25 9.375  L 3.25 10  L 1.015625 10  C 0.736328125 10  0.497233072916667 9.89800347222222  0.29833984375 9.69401041666667  C 0.0994466145833333 9.49001736111111  0 9.24479166666667  0 8.95833333333333  L 0 1.04166666666667  C 0 0.755208333333334  0.0994466145833333 0.509982638888888  0.29833984375 0.305989583333334  C 0.497233072916667 0.101996527777777  0.736328125 0  1.015625 0  L 11.984375 0  C 12.263671875 0  12.5027669270833 0.101996527777777  12.70166015625 0.305989583333334  Z " fill-rule="nonzero" fill="#000000" stroke="none" transform="matrix(1 0 0 1 26 377 )" />
  </g>
</svg>