<?xml version="1.0" encoding="utf-8"?>
<svg version="1.1" xmlns:xlink="http://www.w3.org/1999/xlink" width="14px" height="14px" xmlns="http://www.w3.org/2000/svg">
  <g transform="matrix(1 0 0 1 -22 -414 )">
    <path d="M 9.25130208333333 11.5846354166667  C 9.30598958333333 11.5299479166667  9.33333333333333 11.4600694444444  9.33333333333333 11.375  L 9.33333333333333 9.91666666666667  C 9.33333333333333 9.83159722222222  9.30598958333333 9.76171875  9.25130208333333 9.70703125  C 9.19661458333333 9.65234375  9.12673611111111 9.625  9.04166666666667 9.625  L 8.16666666666667 9.625  L 8.16666666666667 4.95833333333333  C 8.16666666666667 4.87326388888889  8.13932291666667 4.80338541666667  8.08463541666667 4.74869791666667  C 8.02994791666667 4.69401041666667  7.96006944444445 4.66666666666667  7.875 4.66666666666667  L 4.95833333333333 4.66666666666667  C 4.87326388888889 4.66666666666667  4.80338541666667 4.69401041666667  4.74869791666667 4.74869791666667  C 4.69401041666667 4.80338541666667  4.66666666666667 4.87326388888889  4.66666666666667 4.95833333333333  L 4.66666666666667 6.41666666666667  C 4.66666666666667 6.50173611111111  4.69401041666667 6.57161458333333  4.74869791666667 6.62630208333333  C 4.80338541666667 6.68098958333333  4.87326388888889 6.70833333333333  4.95833333333333 6.70833333333333  L 5.83333333333333 6.70833333333333  L 5.83333333333333 9.625  L 4.95833333333333 9.625  C 4.87326388888889 9.625  4.80338541666667 9.65234375  4.74869791666667 9.70703125  C 4.69401041666667 9.76171875  4.66666666666667 9.83159722222222  4.66666666666667 9.91666666666667  L 4.66666666666667 11.375  C 4.66666666666667 11.4600694444444  4.69401041666667 11.5299479166667  4.74869791666667 11.5846354166667  C 4.80338541666667 11.6393229166667  4.87326388888889 11.6666666666667  4.95833333333333 11.6666666666667  L 9.04166666666667 11.6666666666667  C 9.12673611111111 11.6666666666667  9.19661458333333 11.6393229166667  9.25130208333333 11.5846354166667  Z M 8.08463541666667 3.41796875  C 8.13932291666667 3.36328125  8.16666666666667 3.29340277777778  8.16666666666667 3.20833333333333  L 8.16666666666667 1.75  C 8.16666666666667 1.66493055555555  8.13932291666667 1.59505208333333  8.08463541666667 1.54036458333333  C 8.02994791666667 1.48567708333333  7.96006944444445 1.45833333333333  7.875 1.45833333333333  L 6.125 1.45833333333333  C 6.03993055555556 1.45833333333333  5.97005208333333 1.48567708333333  5.91536458333333 1.54036458333333  C 5.86067708333333 1.59505208333333  5.83333333333333 1.66493055555555  5.83333333333333 1.75  L 5.83333333333333 3.20833333333333  C 5.83333333333333 3.29340277777778  5.86067708333333 3.36328125  5.91536458333333 3.41796875  C 5.97005208333333 3.47265625  6.03993055555556 3.5  6.125 3.5  L 7.875 3.5  C 7.96006944444445 3.5  8.02994791666667 3.47265625  8.08463541666667 3.41796875  Z M 13.0611979166667 3.486328125  C 13.6870659722222 4.55881076388889  14 5.73003472222222  14 7  C 14 8.26996527777778  13.6870659722222 9.44118923611111  13.0611979166667 10.513671875  C 12.4353298611111 11.5861545138889  11.5861545138889 12.4353298611111  10.513671875 13.0611979166667  C 9.44118923611111 13.6870659722222  8.26996527777778 14  7 14  C 5.73003472222222 14  4.55881076388889 13.6870659722222  3.486328125 13.0611979166667  C 2.41384548611111 12.4353298611111  1.56467013888889 11.5861545138889  0.938802083333333 10.513671875  C 0.312934027777778 9.44118923611111  0 8.26996527777778  0 7  C 0 5.73003472222222  0.312934027777778 4.55881076388889  0.938802083333333 3.486328125  C 1.56467013888889 2.41384548611111  2.41384548611111 1.56467013888889  3.486328125 0.938802083333333  C 4.55881076388889 0.312934027777777  5.73003472222222 0  7 0  C 8.26996527777778 0  9.44118923611111 0.312934027777777  10.513671875 0.938802083333333  C 11.5861545138889 1.56467013888889  12.4353298611111 2.41384548611111  13.0611979166667 3.486328125  Z " fill-rule="nonzero" fill="#000000" stroke="none" transform="matrix(1 0 0 1 22 414 )" />
  </g>
</svg>