<?xml version="1.0" encoding="utf-8"?>
<svg version="1.1" xmlns:xlink="http://www.w3.org/1999/xlink" width="18px" height="15px" xmlns="http://www.w3.org/2000/svg">
  <g transform="matrix(1 0 0 1 -78 -738 )">
    <path d="M 15.4126394052045 8.56975837879969  C 15.4200743494424 8.58534684333593  15.4237918215613 8.6087295401403  15.4237918215613 8.63990646921278  L 15.4237918215613 14.2517537022603  C 15.4237918215613 14.4544037412315  15.3531598513011 14.6297739672642  15.2118959107807 14.7778643803585  C 15.0706319702602 14.9259547934528  14.9033457249071 15  14.7100371747212 15  L 10.4275092936803 15  L 10.4275092936803 10.510522213562  L 7.5724907063197 10.510522213562  L 7.5724907063197 15  L 3.28996282527881 15  C 3.09665427509294 15  2.92936802973978 14.9259547934528  2.78810408921933 14.7778643803585  C 2.64684014869889 14.6297739672642  2.57620817843866 14.4544037412315  2.57620817843866 14.2517537022603  L 2.57620817843866 8.63990646921278  C 2.57620817843866 8.63211223694466  2.57806691449814 8.62042088854248  2.5817843866171 8.60483242400623  C 2.58550185873606 8.58924395946999  2.58736059479554 8.57755261106781  2.58736059479554 8.56975837879969  L 9 3.02805923616524  L 15.4126394052045 8.56975837879969  Z M 17.9888475836431 7.55845674201091  C 17.996282527881 7.66367887763055  17.9702602230483 7.75526110678098  17.910780669145 7.8332034294622  L 17.2193308550186 8.6983632112237  C 17.1598513011152 8.76851130163679  17.0817843866171 8.81137957911146  16.9851301115242 8.8269680436477  L 16.9516728624535 8.8269680436477  C 16.8550185873606 8.8269680436477  16.7769516728625 8.79968823070927  16.7174721189591 8.74512860483242  L 9 1.99922057677319  L 1.28252788104089 8.74512860483242  C 1.19330855018587 8.8074824629774  1.10408921933086 8.83476227591582  1.01486988847584 8.8269680436477  C 0.9182156133829 8.81137957911146  0.840148698884759 8.76851130163679  0.780669144981413 8.6983632112237  L 0.0892193308550186 7.8332034294622  C 0.0297397769516729 7.75526110678098  0.00371747211895913 7.66367887763055  0.0111524163568773 7.55845674201091  C 0.0185873605947956 7.45323460639127  0.0594795539033457 7.36944660950896  0.133828996282528 7.30709275136399  L 8.15241635687732 0.303975058456742  C 8.39033457249071 0.101325019485579  8.6728624535316 0  9 0  C 9.3271375464684 0  9.6096654275093 0.101325019485579  9.84758364312268 0.303975058456742  L 12.5687732342007 2.68901013250195  L 12.5687732342007 0.409197194076383  C 12.5687732342007 0.30007794232268  12.6022304832714 0.210444271239282  12.6691449814126 0.140296180826189  C 12.7360594795539 0.0701480904130947  12.82156133829 0.0350740452065473  12.9256505576208 0.0350740452065473  L 15.0669144981413 0.0350740452065473  C 15.1710037174721 0.0350740452065473  15.2565055762082 0.0701480904130947  15.3234200743494 0.140296180826189  C 15.3903345724907 0.210444271239282  15.4237918215613 0.30007794232268  15.4237918215613 0.409197194076383  L 15.4237918215613 5.1792673421668  L 17.8661710037175 7.30709275136399  C 17.9405204460967 7.36944660950896  17.9814126394052 7.45323460639127  17.9888475836431 7.55845674201091  Z " fill-rule="nonzero" fill="#ffffff" stroke="none" transform="matrix(1 0 0 1 78 738 )" />
  </g>
</svg>