<?xml version="1.0" encoding="utf-8"?>
<svg version="1.1" xmlns:xlink="http://www.w3.org/1999/xlink" width="8px" height="9px" xmlns="http://www.w3.org/2000/svg">
  <defs>
    <mask fill="white" id="clip51">
      <path d="M 7.041984375 4.30505859375  C 7.041984375 6.426140625  5.50859375 8.151205078125  3.6231875 8.151205078125  C 1.737984375 8.151205078125  0.2041875 6.4252265625  0.2041875 4.30505859375  C 0.2041875 2.184205078125  1.73778125 0.458455078124998  3.6231875 0.458455078124998  C 5.50778125 0.458455078124998  7.041984375 2.183748046875  7.041984375 4.30505859375  Z " fill-rule="evenodd" />
    </mask>
  </defs>
  <g transform="matrix(1 0 0 1 -344 -41 )">
    <path d="M 7.041984375 4.30505859375  C 7.041984375 6.426140625  5.50859375 8.151205078125  3.6231875 8.151205078125  C 1.737984375 8.151205078125  0.2041875 6.4252265625  0.2041875 4.30505859375  C 0.2041875 2.184205078125  1.73778125 0.458455078124998  3.6231875 0.458455078124998  C 5.50778125 0.458455078124998  7.041984375 2.183748046875  7.041984375 4.30505859375  Z " fill-rule="nonzero" fill="#ffffff" stroke="none" transform="matrix(1 0 0 1 344 41 )" />
    <path d="M 7.041984375 4.30505859375  C 7.041984375 6.426140625  5.50859375 8.151205078125  3.6231875 8.151205078125  C 1.737984375 8.151205078125  0.2041875 6.4252265625  0.2041875 4.30505859375  C 0.2041875 2.184205078125  1.73778125 0.458455078124998  3.6231875 0.458455078124998  C 5.50778125 0.458455078124998  7.041984375 2.183748046875  7.041984375 4.30505859375  Z " stroke-width="2" stroke="#ffffff" fill="none" transform="matrix(1 0 0 1 344 41 )" mask="url(#clip51)" />
  </g>
</svg>