<?xml version="1.0" encoding="utf-8"?>
<svg version="1.1" xmlns:xlink="http://www.w3.org/1999/xlink" width="16px" height="18px" xmlns="http://www.w3.org/2000/svg">
  <defs>
    <mask fill="white" id="clip69">
      <path d="M 7.7109375 17.47265625  C 11.917859375 17.47265625  15.328125 13.636107421875  15.328125 8.9033203125  C 15.328125 4.17076171875  11.917859375 0.333984375  7.7109375 0.333984375  C 3.50421875 0.333984375  0.09375 4.17076171875  0.09375 8.9033203125  C 0.09375 13.636107421875  3.50421875 17.47265625  7.7109375 17.47265625  Z M 14.319 8.9033203125  C 14.319 13.00243359375  11.35459375 16.337390625  7.7109375 16.337390625  C 4.06728125 16.337390625  1.102875 13.002205078125  1.102875 8.9033203125  C 1.102875 4.80420703125  4.067078125 1.46925  7.7109375 1.46925  C 11.35459375 1.46925  14.319 4.80420703125  14.319 8.9033203125  Z " fill-rule="evenodd" />
    </mask>
  </defs>
  <g transform="matrix(1 0 0 1 -340 -36 )">
    <path d="M 7.7109375 17.47265625  C 11.917859375 17.47265625  15.328125 13.636107421875  15.328125 8.9033203125  C 15.328125 4.17076171875  11.917859375 0.333984375  7.7109375 0.333984375  C 3.50421875 0.333984375  0.09375 4.17076171875  0.09375 8.9033203125  C 0.09375 13.636107421875  3.50421875 17.47265625  7.7109375 17.47265625  Z M 14.319 8.9033203125  C 14.319 13.00243359375  11.35459375 16.337390625  7.7109375 16.337390625  C 4.06728125 16.337390625  1.102875 13.002205078125  1.102875 8.9033203125  C 1.102875 4.80420703125  4.067078125 1.46925  7.7109375 1.46925  C 11.35459375 1.46925  14.319 4.80420703125  14.319 8.9033203125  Z " fill-rule="nonzero" fill="#ffffff" stroke="none" transform="matrix(1 0 0 1 340 36 )" />
    <path d="M 7.7109375 17.47265625  C 11.917859375 17.47265625  15.328125 13.636107421875  15.328125 8.9033203125  C 15.328125 4.17076171875  11.917859375 0.333984375  7.7109375 0.333984375  C 3.50421875 0.333984375  0.09375 4.17076171875  0.09375 8.9033203125  C 0.09375 13.636107421875  3.50421875 17.47265625  7.7109375 17.47265625  Z " stroke-width="2" stroke="#ffffff" fill="none" transform="matrix(1 0 0 1 340 36 )" mask="url(#clip69)" />
    <path d="M 14.319 8.9033203125  C 14.319 13.00243359375  11.35459375 16.337390625  7.7109375 16.337390625  C 4.06728125 16.337390625  1.102875 13.002205078125  1.102875 8.9033203125  C 1.102875 4.80420703125  4.067078125 1.46925  7.7109375 1.46925  C 11.35459375 1.46925  14.319 4.80420703125  14.319 8.9033203125  Z " stroke-width="2" stroke="#ffffff" fill="none" transform="matrix(1 0 0 1 340 36 )" mask="url(#clip69)" />
  </g>
</svg>