<?xml version="1.0" encoding="utf-8"?>
<svg version="1.1" xmlns:xlink="http://www.w3.org/1999/xlink" width="9px" height="10px" xmlns="http://www.w3.org/2000/svg">
  <defs>
    <mask fill="white" id="clip70">
      <path d="M 0.726562500000001 4.99980034722222  C 0.726562500000001 7.31536922021071  2.41598801431037 9.19250868055556  4.5 9.19250868055556  C 6.58401198568964 9.19250868055556  8.2734375 7.31536922021071  8.2734375 4.99980034722222  C 8.2734375 2.68423147423374  6.58401198568964 0.807092013888891  4.5 0.807092013888891  C 2.41598801431037 0.807092013888891  0.726562500000001 2.68423147423374  0.726562500000001 4.99980034722222  Z " fill-rule="evenodd" />
    </mask>
  </defs>
  <g transform="matrix(1 0 0 1 -307 -40 )">
    <path d="M 0.726562500000001 4.99980034722222  C 0.726562500000001 7.31536922021071  2.41598801431037 9.19250868055556  4.5 9.19250868055556  C 6.58401198568964 9.19250868055556  8.2734375 7.31536922021071  8.2734375 4.99980034722222  C 8.2734375 2.68423147423374  6.58401198568964 0.807092013888891  4.5 0.807092013888891  C 2.41598801431037 0.807092013888891  0.726562500000001 2.68423147423374  0.726562500000001 4.99980034722222  Z " fill-rule="nonzero" fill="#ffffff" stroke="none" transform="matrix(1 0 0 1 307 40 )" />
    <path d="M 0.726562500000001 4.99980034722222  C 0.726562500000001 7.31536922021071  2.41598801431037 9.19250868055556  4.5 9.19250868055556  C 6.58401198568964 9.19250868055556  8.2734375 7.31536922021071  8.2734375 4.99980034722222  C 8.2734375 2.68423147423374  6.58401198568964 0.807092013888891  4.5 0.807092013888891  C 2.41598801431037 0.807092013888891  0.726562500000001 2.68423147423374  0.726562500000001 4.99980034722222  Z " stroke-width="2" stroke="#ffffff" fill="none" transform="matrix(1 0 0 1 307 40 )" mask="url(#clip70)" />
  </g>
</svg>