<?xml version="1.0" encoding="utf-8"?>
<svg version="1.1" xmlns:xlink="http://www.w3.org/1999/xlink" width="7px" height="8px" xmlns="http://www.w3.org/2000/svg">
  <defs>
    <mask fill="white" id="clip61">
      <path d="M 0.710937499999996 4.0000000918018  C 0.710937499999996 5.70123436583415  1.91767001022169 7.08035723465894  3.40625 7.08035723465894  C 4.89482998977831 7.08035723465894  6.1015625 5.70123436583415  6.1015625 4.0000000918018  C 6.1015625 2.29876563416585  4.89482998977831 0.91964276534106  3.40625 0.91964276534106  C 1.91767001022169 0.91964276534106  0.710937499999996 2.29876563416585  0.710937499999996 3.9999999081982  Z " fill-rule="evenodd" />
    </mask>
  </defs>
  <g transform="matrix(1 0 0 1 -316 -41 )">
    <path d="M 0.710937499999996 4.0000000918018  C 0.710937499999996 5.70123436583415  1.91767001022169 7.08035723465894  3.40625 7.08035723465894  C 4.89482998977831 7.08035723465894  6.1015625 5.70123436583415  6.1015625 4.0000000918018  C 6.1015625 2.29876563416585  4.89482998977831 0.91964276534106  3.40625 0.91964276534106  C 1.91767001022169 0.91964276534106  0.710937499999996 2.29876563416585  0.710937499999996 3.9999999081982  Z " fill-rule="nonzero" fill="#ffffff" stroke="none" transform="matrix(1 0 0 1 316 41 )" />
    <path d="M 0.710937499999996 4.0000000918018  C 0.710937499999996 5.70123436583415  1.91767001022169 7.08035723465894  3.40625 7.08035723465894  C 4.89482998977831 7.08035723465894  6.1015625 5.70123436583415  6.1015625 4.0000000918018  C 6.1015625 2.29876563416585  4.89482998977831 0.91964276534106  3.40625 0.91964276534106  C 1.91767001022169 0.91964276534106  0.710937499999996 2.29876563416585  0.710937499999996 3.9999999081982  Z " stroke-width="2" stroke="#ffffff" fill="none" transform="matrix(1 0 0 1 316 41 )" mask="url(#clip61)" />
  </g>
</svg>