<?xml version="1.0" encoding="utf-8"?>
<svg version="1.1" xmlns:xlink="http://www.w3.org/1999/xlink" width="7px" height="8px" xmlns="http://www.w3.org/2000/svg">
  <defs>
    <mask fill="white" id="clip96">
      <path d="M 0.905625 4  C 0.905625 5.70123427403235  2.11235751022169 7.08035714285714  3.6009375 7.08035714285714  C 5.08951748977831 7.08035714285714  6.29625 5.70123427403235  6.29625 4  C 6.29625 2.29876572596765  5.08951748977831 0.919642857142857  3.6009375 0.919642857142857  C 2.11235751022169 0.919642857142857  0.905625 2.29876572596765  0.905625 4  Z " fill-rule="evenodd" />
    </mask>
  </defs>
  <g transform="matrix(1 0 0 1 -300 -41 )">
    <path d="M 0.905625 4  C 0.905625 5.70123427403235  2.11235751022169 7.08035714285714  3.6009375 7.08035714285714  C 5.08951748977831 7.08035714285714  6.29625 5.70123427403235  6.29625 4  C 6.29625 2.29876572596765  5.08951748977831 0.919642857142857  3.6009375 0.919642857142857  C 2.11235751022169 0.919642857142857  0.905625 2.29876572596765  0.905625 4  Z " fill-rule="nonzero" fill="#ffffff" stroke="none" transform="matrix(1 0 0 1 300 41 )" />
    <path d="M 0.905625 4  C 0.905625 5.70123427403235  2.11235751022169 7.08035714285714  3.6009375 7.08035714285714  C 5.08951748977831 7.08035714285714  6.29625 5.70123427403235  6.29625 4  C 6.29625 2.29876572596765  5.08951748977831 0.919642857142857  3.6009375 0.919642857142857  C 2.11235751022169 0.919642857142857  0.905625 2.29876572596765  0.905625 4  Z " stroke-width="2" stroke="#ffffff" fill="none" transform="matrix(1 0 0 1 300 41 )" mask="url(#clip96)" />
  </g>
</svg>