<?xml version="1.0" encoding="utf-8"?>
<svg version="1.1" xmlns:xlink="http://www.w3.org/1999/xlink" width="8px" height="10px" xmlns="http://www.w3.org/2000/svg">
  <g transform="matrix(1 0 0 1 -181 -109 )">
    <path d="M 7.95983647176471 3.77054315296053  C 7.95983647176471 6.26060309594298  4.43510806952941 9.91782740822369  4.00243183317647 9.91782740822369  C 3.57620469470588 9.91782740822369  0.0450271947058822 6.26060309594298  0.0450271947058822 3.77054315296053  C 0.0450391114136049 1.73352019933845  1.81682602884594 0.0821927119655209  4.00243183323529 0.0821927119655209  C 6.18804606403722 0.0821927119655209  7.95983647182353 1.7335324560646  7.95983647182353 3.77056326328131  Z M 6.20098997035294 3.97545262247807  C 6.20098997035294 2.84376883830908  5.21666196395543 1.92635786743421  4.00243183317647 1.92635786743421  C 2.78820170239751 1.92635786743421  1.803873696 2.84376883830908  1.803873696 3.97545262247807  C 1.803873696 5.10713640664706  2.78820170239751 6.02454737752193  4.00243183317647 6.02454737752193  C 5.21666196395543 6.02454737752193  6.20098997035294 5.10713640664706  6.20098997035294 3.97545262247807  Z M 5.32156670917647 3.97545262247807  C 5.32156670917647 4.65446289242839  4.73096990581728 5.20490947450658  4.00243182794118 5.20490947450658  C 3.27389375006507 5.20490947450658  2.68329694670588 4.65446289242839  2.68329694670588 3.97545262247807  C 2.68329694670588 3.29644235252775  3.27389375006507 2.74599577044956  4.00243182794118 2.74599577044956  C 4.73096990581728 2.74599577044956  5.32156670917647 3.29644235252775  5.32156670917647 3.97545262247807  Z " fill-rule="nonzero" fill="#000000" stroke="none" transform="matrix(1 0 0 1 181 109 )" />
  </g>
</svg>