<?xml version="1.0" encoding="utf-8"?>
<svg version="1.1" xmlns:xlink="http://www.w3.org/1999/xlink" width="9px" height="9px" xmlns="http://www.w3.org/2000/svg">
  <defs>
    <mask fill="white" id="clip16">
      <path d="M 0.726562500000001 4.4998203125  C 0.726562500000001 6.58383229818964  2.41598801431037 8.2732578125  4.5 8.2732578125  C 6.58401198568964 8.2732578125  8.2734375 6.58383229818964  8.2734375 4.4998203125  C 8.2734375 2.41580832681037  6.58401198568964 0.726382812500002  4.5 0.726382812500002  C 2.41598801431037 0.726382812500002  0.726562500000001 2.41580832681037  0.726562500000001 4.4998203125  Z " fill-rule="evenodd" />
    </mask>
  </defs>
  <g transform="matrix(1 0 0 1 -307 -36 )">
    <path d="M 0.726562500000001 4.4998203125  C 0.726562500000001 6.58383229818964  2.41598801431037 8.2732578125  4.5 8.2732578125  C 6.58401198568964 8.2732578125  8.2734375 6.58383229818964  8.2734375 4.4998203125  C 8.2734375 2.41580832681037  6.58401198568964 0.726382812500002  4.5 0.726382812500002  C 2.41598801431037 0.726382812500002  0.726562500000001 2.41580832681037  0.726562500000001 4.4998203125  Z " fill-rule="nonzero" fill="#ffffff" stroke="none" transform="matrix(1 0 0 1 307 36 )" />
    <path d="M 0.726562500000001 4.4998203125  C 0.726562500000001 6.58383229818964  2.41598801431037 8.2732578125  4.5 8.2732578125  C 6.58401198568964 8.2732578125  8.2734375 6.58383229818964  8.2734375 4.4998203125  C 8.2734375 2.41580832681037  6.58401198568964 0.726382812500002  4.5 0.726382812500002  C 2.41598801431037 0.726382812500002  0.726562500000001 2.41580832681037  0.726562500000001 4.4998203125  Z " stroke-width="2" stroke="#ffffff" fill="none" transform="matrix(1 0 0 1 307 36 )" mask="url(#clip16)" />
  </g>
</svg>