<?xml version="1.0" encoding="utf-8"?>
<svg version="1.1" xmlns:xlink="http://www.w3.org/1999/xlink" width="7px" height="7px" xmlns="http://www.w3.org/2000/svg">
  <defs>
    <mask fill="white" id="clip17">
      <path d="M 0.710937499999996 3.50000008032657  C 0.710937499999996 4.98858007010488  1.91767001022169 6.19531258032657  3.40625 6.19531258032657  C 4.89482998977831 6.19531258032657  6.1015625 4.98858007010488  6.1015625 3.50000008032657  C 6.1015625 2.01141992989512  4.89482998977831 0.804687419673428  3.40625 0.804687419673428  C 1.91767001022169 0.804687419673428  0.710937499999996 2.01141992989512  0.710937499999996 3.49999991967343  Z " fill-rule="evenodd" />
    </mask>
  </defs>
  <g transform="matrix(1 0 0 1 -316 -37 )">
    <path d="M 0.710937499999996 3.50000008032657  C 0.710937499999996 4.98858007010488  1.91767001022169 6.19531258032657  3.40625 6.19531258032657  C 4.89482998977831 6.19531258032657  6.1015625 4.98858007010488  6.1015625 3.50000008032657  C 6.1015625 2.01141992989512  4.89482998977831 0.804687419673428  3.40625 0.804687419673428  C 1.91767001022169 0.804687419673428  0.710937499999996 2.01141992989512  0.710937499999996 3.49999991967343  Z " fill-rule="nonzero" fill="#ffffff" stroke="none" transform="matrix(1 0 0 1 316 37 )" />
    <path d="M 0.710937499999996 3.50000008032657  C 0.710937499999996 4.98858007010488  1.91767001022169 6.19531258032657  3.40625 6.19531258032657  C 4.89482998977831 6.19531258032657  6.1015625 4.98858007010488  6.1015625 3.50000008032657  C 6.1015625 2.01141992989512  4.89482998977831 0.804687419673428  3.40625 0.804687419673428  C 1.91767001022169 0.804687419673428  0.710937499999996 2.01141992989512  0.710937499999996 3.49999991967343  Z " stroke-width="2" stroke="#ffffff" fill="none" transform="matrix(1 0 0 1 316 37 )" mask="url(#clip17)" />
  </g>
</svg>