<?xml version="1.0" encoding="utf-8"?>
<svg version="1.1" xmlns:xlink="http://www.w3.org/1999/xlink" width="37px" height="30px" xmlns="http://www.w3.org/2000/svg">
  <g transform="matrix(1 0 0 1 -169 -193 )">
    <path d="M 11.2541666666667 6.09375  C 11.9736111111111 6.82291666666666  12.3333333333333 7.70833333333333  12.3333333333333 8.75  C 12.3333333333333 9.79166666666666  11.9736111111111 10.6770833333333  11.2541666666667 11.40625  C 10.5347222222222 12.1354166666667  9.66111111111111 12.5  8.63333333333333 12.5  C 7.60555555555556 12.5  6.73194444444445 12.1354166666667  6.0125 11.40625  C 5.29305555555556 10.6770833333333  4.93333333333333 9.79166666666666  4.93333333333333 8.75  C 4.93333333333333 7.70833333333333  5.29305555555556 6.82291666666666  6.0125 6.09375  C 6.73194444444445 5.36458333333333  7.60555555555556 5  8.63333333333333 5  C 9.66111111111111 5  10.5347222222222 5.36458333333333  11.2541666666667 6.09375  Z M 24.05 8.125  L 32.0666666666667 16.25  L 32.0666666666667 25  L 4.93333333333333 25  L 4.93333333333333 21.25  L 11.1 15  L 14.1833333333333 18.125  L 24.05 8.125  Z M 34.3502604166667 2.685546875  C 34.2282118055556 2.56184895833333  34.0836805555556 2.5  33.9166666666667 3  L 3.08333333333333 3  C 2.91631944444444 2.5  2.77178819444444 2.56184895833333  2.64973958333333 2.685546875  C 2.52769097222222 2.80924479166666  2.46666666666667 2.95572916666666  3 3.125  L 3 26.875  C 2.46666666666667 27.0442708333333  2.52769097222222 27.1907552083333  2.64973958333333 27.314453125  C 2.77178819444444 27.4381510416667  2.91631944444444 27.5  3.08333333333333 27  L 33.9166666666667 27  C 34.0836805555556 27.5  34.2282118055556 27.4381510416667  34.3502604166667 27.314453125  C 34.4723090277778 27.1907552083333  34.5333333333333 27.0442708333333  34 26.875  L 34 3.125  C 34.5333333333333 2.95572916666666  34.4723090277778 2.80924479166666  34.3502604166667 2.685546875  Z M 36.0942708333333 0.917968750000001  C 36.6980902777778 1.52994791666667  37 2.265625  37 3.125  L 37 26.875  C 37 27.734375  36.6980902777778 28.4700520833333  36.0942708333333 29.08203125  C 35.4904513888889 29.6940104166667  34.7645833333333 30  33.9166666666667 30  L 3.08333333333333 30  C 2.23541666666667 30  1.50954861111111 29.6940104166667  0.905729166666667 29.08203125  C 0.301909722222222 28.4700520833333  0 27.734375  0 26.875  L 0 3.125  C 0 2.265625  0.301909722222222 1.52994791666667  0.905729166666667 0.917968750000001  C 1.50954861111111 0.30598958333333  2.23541666666667 0  3.08333333333333 0  L 33.9166666666667 0  C 34.7645833333333 0  35.4904513888889 0.30598958333333  36.0942708333333 0.917968750000001  Z " fill-rule="nonzero" fill="#aaaaaa" stroke="none" transform="matrix(1 0 0 1 169 193 )" />
  </g>
</svg>