<?xml version="1.0" encoding="utf-8"?>
<svg version="1.1" xmlns:xlink="http://www.w3.org/1999/xlink" width="15px" height="21px" xmlns="http://www.w3.org/2000/svg">
  <g transform="matrix(1 0 0 1 -1590 -930 )">
    <path d="M 14.9246933845588 7.9181406212171  C 14.9246933845588 13.1472665014803  8.31582763036765 20.8274375572697  7.50455968720588 20.8274375572697  C 6.70538380257353 20.8274375572697  0.0844259900735292 13.1472665014803  0.0844259900735292 7.9181406212171  C 0.0844483339005092 3.64039241861073  3.40654880408614 0.172604695127594  7.50455968731618 0.172604695127594  C 11.6025863700698 0.172604695127594  14.9246933846691 3.64041815773567  14.9246933846691 7.91818285289075  Z M 11.6268561944118 8.34845050720395  C 11.6268561944118 5.97191456044907  9.78124118241644 4.04535152161184  7.50455968720588 4.04535152161184  C 5.22787819199533 4.04535152161184  3.38226318 5.97191456044907  3.38226318 8.34845050720395  C 3.38226318 10.7249864539588  5.22787819199533 12.6515494927961  7.50455968720588 12.6515494927961  C 9.78124118241644 12.6515494927961  11.6268561944118 10.7249864539588  11.6268561944118 8.34845050720395  Z M 9.97793757970588 8.34845050720395  C 9.97793757970588 9.77437207409962  8.87056857340741 10.9303098964638  7.5045596773897 10.9303098964638  C 6.138550781372 10.9303098964638  5.03118177507353 9.77437207409962  5.03118177507353 8.34845050720395  C 5.03118177507353 6.92252894030827  6.138550781372 5.76659111794408  7.5045596773897 5.76659111794408  C 8.87056857340741 5.76659111794408  9.97793757970588 6.92252894030827  9.97793757970588 8.34845050720395  Z " fill-rule="nonzero" fill="#000000" stroke="none" transform="matrix(1 0 0 1 1590 930 )" />
  </g>
</svg>