<?xml version="1.0" encoding="utf-8"?>
<svg version="1.1" xmlns:xlink="http://www.w3.org/1999/xlink" width="13px" height="18px" xmlns="http://www.w3.org/2000/svg">
  <g transform="matrix(1 0 0 1 -7 -33 )">
    <path d="M 12.9347342666176 6.78697767532895  C 12.9347342666176 11.2690855726974  7.20705061298529 17.8520893348026  6.50395172891176 17.8520893348026  C 5.81133262889706 17.8520893348026  0.0731691913970586 11.2690855726974  0.0731691913970586 6.78697767532895  C 0.073188556047108 3.1203363588092  2.95234229687465 0.147946881537938  6.50395172900735 0.147946881537938  C 10.0555748540605 0.147946881537938  12.9347342667132 3.12035842091629  12.9347342667132 6.78701387390636  Z M 10.0766087018235 7.15581472046053  C 10.0766087018235 5.11878390895635  8.47707569142758 3.46744416138158  6.50395172891176 3.46744416138158  C 4.53082776639595 3.46744416138158  2.931294756 5.11878390895635  2.931294756 7.15581472046053  C 2.931294756 9.19284553196471  4.53082776639595 10.8441852795395  6.50395172891176 10.8441852795395  C 8.47707569142758 10.8441852795395  10.0766087018235 9.19284553196471  10.0766087018235 7.15581472046053  Z M 8.64754590241176 7.15581472046053  C 8.64754590241176 8.3780332063711  7.68782609695309 9.36883705411184  6.50395172040441 9.36883705411184  C 5.32007734385573 9.36883705411184  4.36035753839706 8.3780332063711  4.36035753839706 7.15581472046053  C 4.36035753839706 5.93359623454995  5.32007734385573 4.94279238680921  6.50395172040441 4.94279238680921  C 7.68782609695309 4.94279238680921  8.64754590241176 5.93359623454995  8.64754590241176 7.15581472046053  Z " fill-rule="nonzero" fill="#ffffff" stroke="none" transform="matrix(1 0 0 1 7 33 )" />
  </g>
</svg>