<?xml version="1.0" encoding="utf-8"?>
<svg version="1.1" xmlns:xlink="http://www.w3.org/1999/xlink" width="126px" height="17px" xmlns="http://www.w3.org/2000/svg">
  <defs>
    <mask fill="white" id="clip13">
      <path d="M 0 13  L 0 4  C 0 1.75999999999999  1.75999999999999 0  4 0  L 68.1621621621622 0  L 122 0  C 124.24 0  126 1.75999999999999  126 4  L 126 13  C 126 15.24  124.24 17  122 17  L 4 17  C 1.75999999999999 17  0 15.24  0 13  Z " fill-rule="evenodd" />
    </mask>
  </defs>
  <g transform="matrix(1 0 0 1 -944 -316 )">
    <path d="M 0 13  L 0 4  C 0 1.75999999999999  1.75999999999999 0  4 0  L 68.1621621621622 0  L 122 0  C 124.24 0  126 1.75999999999999  126 4  L 126 13  C 126 15.24  124.24 17  122 17  L 4 17  C 1.75999999999999 17  0 15.24  0 13  Z " fill-rule="nonzero" fill="#f2f2f2" stroke="none" transform="matrix(1 0 0 1 944 316 )" />
    <path d="M 0 13  L 0 4  C 0 1.75999999999999  1.75999999999999 0  4 0  L 68.1621621621622 0  L 122 0  C 124.24 0  126 1.75999999999999  126 4  L 126 13  C 126 15.24  124.24 17  122 17  L 4 17  C 1.75999999999999 17  0 15.24  0 13  Z " stroke-width="2" stroke="#797979" fill="none" transform="matrix(1 0 0 1 944 316 )" mask="url(#clip13)" />
  </g>
</svg>