<?xml version="1.0" encoding="utf-8"?>
<svg version="1.1" xmlns:xlink="http://www.w3.org/1999/xlink" width="20px" height="20px" xmlns="http://www.w3.org/2000/svg">
  <g transform="matrix(1 0 0 1 -2315 -136 )">
    <path d="M 20 3.75  C 20 3.05859375  19.439453125 2.5  18.75 2.5  L 16.26953125 2.5  C 16.26953125 1.46484375  15.4296875 0.625  14.39453125 0.625  L 14.08203125 0.625  C 13.046875 0.625  12.20703125 1.46484375  12.20703125 2.5  L 7.8125 2.5  C 7.8125 1.982421875  7.603515625 1.513671875  7.263671875 1.173828125  C 6.923828125 0.833984375  6.455078125 0.625  5.9375 0.625  L 5.625 0.625  C 4.58984375 0.625  3.75 1.46484375  3.75 2.5  L 1.25 2.5  C 0.560546875 2.5  0 3.05859375  0 3.75  L 0 18.125  C 0 18.814453125  0.560546875 19.375  1.25 19  L 18.75 19  C 19.439453125 19.375  20 18.814453125  20 18.125  L 20 3.75  Z M 13.45703125 4.21875  L 13.45703125 2.65625  C 13.45703125 2.224609375  13.806640625 1.875  14.23828125 1.875  C 14.669921875 1.875  15.01953125 2.224609375  15.01953125 2.65625  L 15.01953125 4.21875  C 15.01953125 4.650390625  14.669921875 5  14.23828125 5  C 14.0234375 5  13.828125 4.912109375  13.685546875 4.771484375  C 13.544921875 4.62890625  13.45703125 4.43359375  13.45703125 4.21875  Z M 5 4.21875  L 5 2.65625  C 5 2.224609375  5.349609375 1.875  5.78125 1.875  C 6.212890625 1.875  6.5625 2.224609375  6.5625 2.65625  L 6.5625 4.21875  C 6.5625 4.650390625  6.212890625 5  5.78125 5  C 5.56640625 5  5.37109375 4.912109375  5.228515625 4.771484375  C 5.087890625 4.62890625  5 4.43359375  5 4.21875  Z M 18.75 9  L 18.75 17.5  C 18.75 17.845703125  18.470703125 18.125  18.125 18  L 1.875 18  C 1.529296875 18.125  1.25 17.845703125  1.25 17.5  L 1.25 9  L 18.75 9  Z " fill-rule="nonzero" fill="#d7d7d7" stroke="none" transform="matrix(1 0 0 1 2315 136 )" />
  </g>
</svg>