<?xml version="1.0" encoding="utf-8"?>
<svg version="1.1" xmlns:xlink="http://www.w3.org/1999/xlink" width="147px" height="149px" xmlns="http://www.w3.org/2000/svg">
  <g transform="matrix(1 0 0 1 -1819 -554 )">
    <path d="M 1820 558  A 3 3 0 0 1 1823 555 L 1962 555  A 3 3 0 0 1 1965 558 L 1965 699  A 3 3 0 0 1 1962 702 L 1823 702  A 3 3 0 0 1 1820 699 L 1820 558  Z " fill-rule="nonzero" fill="#f2f2f2" stroke="none" />
    <path d="M 1819.5 558  A 3.5 3.5 0 0 1 1823 554.5 L 1962 554.5  A 3.5 3.5 0 0 1 1965.5 558 L 1965.5 699  A 3.5 3.5 0 0 1 1962 702.5 L 1823 702.5  A 3.5 3.5 0 0 1 1819.5 699 L 1819.5 558  Z " stroke-width="1" stroke-dasharray="3,1" stroke="#aaaaaa" fill="none" stroke-dashoffset="0.5" />
  </g>
</svg>