<?xml version="1.0" encoding="utf-8"?>
<svg version="1.1" xmlns:xlink="http://www.w3.org/1999/xlink" width="27px" height="27px" xmlns="http://www.w3.org/2000/svg">
  <g transform="matrix(1 0 0 1 -2603 -808 )">
    <path d="M 21.041015625 15.416015625  C 21.263671875 15.193359375  21.375 14.9296875  21.375 14.625  L 21.375 12.375  C 21.375 12.0703125  21.263671875 11.806640625  21.041015625 11.583984375  C 20.818359375 11.361328125  20.5546875 11.25  20.25 11.25  L 6.75 11.25  C 6.4453125 11.25  6.181640625 11.361328125  5.958984375 11.583984375  C 5.736328125 11.806640625  5.625 12.0703125  5.625 12.375  L 5.625 14.625  C 5.625 14.9296875  5.736328125 15.193359375  5.958984375 15.416015625  C 6.181640625 15.638671875  6.4453125 15.75  6.75 15.75  L 20.25 15.75  C 20.5546875 15.75  20.818359375 15.638671875  21.041015625 15.416015625  Z M 25.189453125 6.7236328125  C 26.396484375 8.7919921875  27 11.05078125  27 13.5  C 27 15.94921875  26.396484375 18.2080078125  25.189453125 20.2763671875  C 23.982421875 22.3447265625  22.3447265625 23.982421875  20.2763671875 25.189453125  C 18.2080078125 26.396484375  15.94921875 27  13.5 27  C 11.05078125 27  8.7919921875 26.396484375  6.7236328125 25.189453125  C 4.6552734375 23.982421875  3.017578125 22.3447265625  1.810546875 20.2763671875  C 0.603515625 18.2080078125  0 15.94921875  0 13.5  C 0 11.05078125  0.603515625 8.7919921875  1.810546875 6.7236328125  C 3.017578125 4.6552734375  4.6552734375 3.017578125  6.7236328125 1.810546875  C 8.7919921875 0.603515624999998  11.05078125 0  13.5 0  C 15.94921875 0  18.2080078125 0.603515624999998  20.2763671875 1.810546875  C 22.3447265625 3.017578125  23.982421875 4.6552734375  25.189453125 6.7236328125  Z " fill-rule="nonzero" fill="#000000" stroke="none" transform="matrix(1 0 0 1 2603 808 )" />
  </g>
</svg>