<?xml version="1.0" encoding="utf-8"?>
<svg version="1.1" xmlns:xlink="http://www.w3.org/1999/xlink" width="62px" height="54px" xmlns="http://www.w3.org/2000/svg">
  <defs>
    <mask fill="white" id="clip1766">
      <path d="M 0 40.1739130434783  L 0 3.82608695652174  C 0 1.68347826086956  0.291464968152865 0  0.662420382165605 0  L 51.3375796178344 0  C 51.7085350318471 0  52 1.68347826086956  52 3.82608695652174  L 52 40.1739130434783  C 52 42.3165217391304  51.7085350318471 44  51.3375796178344 44  L 33.3016792125072 44  L 0.662420382165605 44  C 0.291464968152865 44  0 42.3165217391304  0 40.1739130434783  Z " fill-rule="evenodd" />
    </mask>
    <filter x="1272px" y="302px" width="62px" height="54px" filterUnits="userSpaceOnUse" id="filter1767">
      <feOffset dx="3" dy="3" in="SourceAlpha" result="shadowOffsetInner" />
      <feGaussianBlur stdDeviation="2.5" in="shadowOffsetInner" result="shadowGaussian" />
      <feComposite in2="shadowGaussian" operator="atop" in="SourceAlpha" result="shadowComposite" />
      <feColorMatrix type="matrix" values="0 0 0 0 0  0 0 0 0 0  0 0 0 0 0  0 0 0 0.349019607843137 0  " in="shadowComposite" />
    </filter>
    <g id="widget1768">
      <path d="M 0 40.1739130434783  L 0 3.82608695652174  C 0 1.68347826086956  0.291464968152865 0  0.662420382165605 0  L 51.3375796178344 0  C 51.7085350318471 0  52 1.68347826086956  52 3.82608695652174  L 52 40.1739130434783  C 52 42.3165217391304  51.7085350318471 44  51.3375796178344 44  L 33.3016792125072 44  L 0.662420382165605 44  C 0.291464968152865 44  0 42.3165217391304  0 40.1739130434783  Z " fill-rule="nonzero" fill="#ffffff" stroke="none" transform="matrix(1 0 0 1 1274 304 )" />
      <path d="M 0 40.1739130434783  L 0 3.82608695652174  C 0 1.68347826086956  0.291464968152865 0  0.662420382165605 0  L 51.3375796178344 0  C 51.7085350318471 0  52 1.68347826086956  52 3.82608695652174  L 52 40.1739130434783  C 52 42.3165217391304  51.7085350318471 44  51.3375796178344 44  L 33.3016792125072 44  L 0.662420382165605 44  C 0.291464968152865 44  0 42.3165217391304  0 40.1739130434783  Z " stroke-width="2" stroke="#adb0c1" fill="none" transform="matrix(1 0 0 1 1274 304 )" mask="url(#clip1766)" />
    </g>
  </defs>
  <g transform="matrix(1 0 0 1 -1272 -302 )">
    <use xlink:href="#widget1768" filter="url(#filter1767)" />
    <use xlink:href="#widget1768" />
  </g>
</svg>