<?xml version="1.0" encoding="utf-8"?>
<svg version="1.1" xmlns:xlink="http://www.w3.org/1999/xlink" width="19px" height="19px" xmlns="http://www.w3.org/2000/svg">
  <g transform="matrix(1 0 0 1 -1328 -238 )">
    <path d="M 18.9836574977679 9.56045549889381  C 18.9836575189732 4.36909411615044  14.7377019877232 0.160691911504425  9.49998914285714 0.160691911504425  C 4.26227631919643 0.160691911504425  0.0162990948660708 4.36909411615044  0.0162990948660708 9.56045549889381  C 0.0162990948660708 14.751795380531  4.26229801227679 18.9602406084071  9.49998914285714 18.9602406084071  C 14.7377019665179 18.9602406084071  18.9836574977679 14.751795380531  18.9836574977679 9.56045549889381  Z M 6.67455279241072 9.55935864823009  C 6.67455279241072 10.3611167809735  6.01881338392857 11.0110531858407  5.20989669642857 11.0110531858407  C 4.40100170200893 11.0110531858407  3.74524060044643 10.3610952798673  3.74524060044643 9.55935864823009  C 3.74524060044643 8.75762201659292  4.40098000892857 8.10766411061947  5.20989669642857 8.10766411061947  C 6.01881338392857 8.10766411061947  6.67455279241072 8.75760051548672  6.67455279241072 9.55935864823009  Z M 11.0466913314732 9.55935864823009  C 11.0466913314732 10.3611167809735  10.3909302299107 11.0110531858407  9.58203523549107 11.0110531858407  C 8.77314024107143 11.0110531858407  8.11737913950893 10.3610952798673  8.11737913950893 9.55935864823009  C 8.11737913950893 8.75762201659292  8.77311854799107 8.10766411061947  9.58203523549107 8.10766411061947  C 10.3909519229911 8.10766411061947  11.0466913314732 8.75760051548672  11.0466913314732 9.55935864823009  Z M 15.3755392399554 9.55935864823009  C 15.3755392399554 10.3611167809735  14.7197998314732 11.0110531858407  13.9108831439732 11.0110531858407  C 13.1019881495536 11.0110531858407  12.4462270479911 10.3610952798673  12.4462270479911 9.55935864823009  C 12.4462270479911 8.75762201659292  13.1019881495536 8.10766411061947  13.9108831439732 8.10766411061947  C 14.7197781383929 8.10766411061947  15.3755392399554 8.75760051548672  15.3755392399554 9.55935864823009  Z " fill-rule="nonzero" fill="#02a7f0" stroke="none" transform="matrix(1 0 0 1 1328 238 )" />
  </g>
</svg>