<?xml version="1.0" encoding="utf-8"?>
<svg version="1.1" xmlns:xlink="http://www.w3.org/1999/xlink" width="14px" height="14px" xmlns="http://www.w3.org/2000/svg">
  <g transform="matrix(1 0 0 1 -1262 -210 )">
    <path d="M 13.9602272727273 8.77889737215909  C 13.2440074573864 8.50390625  12.7328657670455 7.81409801136364  12.7328657670455 7  C 12.7328657670455 6.18590198863636  13.2440074573864 5.49609375  13.9602272727273 5.22110262784091  C 13.7893288352273 4.54993785511364  13.5252130681818 3.91761363636364  13.1803089488636 3.33655894886364  C 12.4780717329545 3.64883700284091  11.6297940340909 3.52143998579546  11.0549538352273 2.94504616477273  C 10.4801136363636 2.37020596590909  10.3527166193182 1.52037464488636  10.6649946732955 0.819691051136363  C 10.0823863636364 0.474786931818182  9.45006214488636 0.210671164772727  8.77889737215909 0.0397727272727273  C 8.50235262784091 0.755992542613636  7.81254438920454 1.26713423295455  7 1.26713423295455  C 6.18590198863636 1.26713423295455  5.49609375 0.755992542613636  5.22110262784091 0.0397727272727273  C 4.54993785511364 0.210671164772727  3.91761363636364 0.474786931818182  3.33655894886364 0.819691051136364  C 3.64883700284091 1.52192826704545  3.52143998579545 2.37020596590909  2.94659978693182 2.94504616477273  C 2.37175958806818 3.51988636363636  1.52192826704545 3.64728338068182  0.821244673295454 3.33655894886364  C 0.474786931818182 3.91761363636364  0.210671164772727 4.54993785511364  0.0397727272727273 5.22110262784091  C 0.755992542613636 5.49764737215909  1.26713423295455 6.18745561079545  1.26713423295455 7  C 1.26713423295455 7.81409801136364  0.755992542613636 8.50390625  0.0397727272727273 8.77889737215909  C 0.210671164772727 9.45006214488636  0.474786931818182 10.0823863636364  0.819691051136364 10.6634410511364  C 1.52192826704545 10.3511629971591  2.37020596590909 10.4785600142045  2.94504616477273 11.0549538352273  C 3.51988636363636 11.6297940340909  3.64728338068182 12.4796253551136  3.33500532670455 13.1803089488636  C 3.91761363636364 13.5252130681818  4.54993785511364 13.7893288352273  5.22110262784091 13.9602272727273  C 5.49764737215909 13.2440074573864  6.18745561079545 12.7328657670455  7 12.7328657670455  C 7.81409801136364 12.7328657670455  8.50390625 13.2440074573864  8.77889737215909 13.9602272727273  C 9.45006214488636 13.7893288352273  10.0823863636364 13.5252130681818  10.6634410511364 13.1803089488636  C 10.3511629971591 12.4780717329545  10.4785600142045 11.6297940340909  11.0534002130682 11.0549538352273  C 11.6282404119318 10.4801136363636  12.4780717329545 10.3527166193182  13.1787553267045 10.6634410511364  C 13.5252130681818 10.0823863636364  13.7893288352273 9.45006214488636  13.9602272727273 8.77889737215909  Z M 8.91095525568182 7  C 8.91095525568182 8.05490944602273  8.05490944602273 8.91095525568182  7 8.91095525568182  C 5.94509055397727 8.91095525568182  5.08904474431818 8.05490944602273  5.08904474431818 7  C 5.08904474431818 5.94509055397727  5.94509055397727 5.08904474431818  7 5.08904474431818  C 8.05490944602273 5.08904474431818  8.91095525568182 5.94509055397727  8.91095525568182 7  Z " fill-rule="nonzero" fill="#02a7f0" stroke="none" transform="matrix(1 0 0 1 1262 210 )" />
  </g>
</svg>