<?xml version="1.0" encoding="utf-8"?>
<svg version="1.1" xmlns:xlink="http://www.w3.org/1999/xlink" width="15px" height="20px" xmlns="http://www.w3.org/2000/svg">
  <g transform="matrix(1 0 0 1 -666 -373 )">
    <path d="M 14.9246933845588 7.54108630592105  C 14.9246933845588 12.521206191886  8.31582763036765 19.8356548164474  7.50455968720588 19.8356548164474  C 6.70538380257353 19.8356548164474  0.0844259900735292 12.521206191886  0.0844259900735292 7.54108630592105  C 0.0844483339005092 3.46704039867689  3.40654880408614 0.164385423931042  7.50455968731618 0.164385423931042  C 11.6025863700698 0.164385423931042  14.9246933846691 3.46706491212921  14.9246933846691 7.54112652656262  Z M 11.6268561944118 7.95090524495614  C 11.6268561944118 5.68753767661816  9.78124118241644 3.85271573486842  7.50455968720588 3.85271573486842  C 5.22787819199533 3.85271573486842  3.38226318 5.68753767661816  3.38226318 7.95090524495614  C 3.38226318 10.2142728132941  5.22787819199533 12.0490947550439  7.50455968720588 12.0490947550439  C 9.78124118241644 12.0490947550439  11.6268561944118 10.2142728132941  11.6268561944118 7.95090524495614  Z M 9.97793757970588 7.95090524495614  C 9.97793757970588 9.30892578485678  8.87056857340741 10.4098189490132  7.5045596773897 10.4098189490132  C 6.138550781372 10.4098189490132  5.03118177507353 9.30892578485678  5.03118177507353 7.95090524495614  C 5.03118177507353 6.5928847050555  6.138550781372 5.49199154089912  7.5045596773897 5.49199154089912  C 8.87056857340741 5.49199154089912  9.97793757970588 6.5928847050555  9.97793757970588 7.95090524495614  Z " fill-rule="nonzero" fill="#d9001b" stroke="none" transform="matrix(1 0 0 1 666 373 )" />
  </g>
</svg>