<?xml version="1.0" encoding="utf-8"?>
<svg version="1.1" xmlns:xlink="http://www.w3.org/1999/xlink" width="10px" height="23px" xmlns="http://www.w3.org/2000/svg">
  <g transform="matrix(1 0 0 1 -663 -441 )">
    <path d="M 9.824135875 20.7405857192982  C 9.860624775 19.3602492686404  7.838531875 18.7007551875  5.624872325 18.6056653442982  L 5.624872325 9.43409644627193  C 7.835491175 9.12122018311404  9.54742845 7.17341207127193  9.547428425 4.84831198464912  C 9.577835825 2.27168392324562  7.491887375 0.198111836622808  4.97111295 0.198111836622808  C 2.450338525 0.198111836622808  0.361349325 2.27168394846491  0.361349325 4.84831198464912  C 0.361349325 7.17341207127193  2.0732866 9.12122018311404  4.28390545 9.43409644627193  L 4.28390545 18.6363394758772  C 2.103694025 18.7621034758772  0.11200855 19.4215975570175  0.11200855 20.7405857192982  C 0.11200855 22.1853378815789  2.54156075 22.8448319627193  4.968072225 22.8448319627193  C 7.397624425 22.8448319627193  9.8241359 22.1853378815789  9.824135875 20.7405857192982  Z M 8.52269865 20.7129789857456  C 8.273357875 20.9614395372807  7.09050955 21.4951696436403  5.0045611 21.4951696436403  C 2.91861265 21.4951696436403  1.735764325 20.9921136940789  1.486423575 20.7099115877193  C 1.70535695 20.4583836129386  2.6692719 20.0504175065789  4.32039435 19.9553276633772  L 4.32039435 20.3663611677632  C 4.32039435 20.7436531425439  4.60014255 21.0258552489035  4.9741537 21.0258552489035  C 5.34816485 21.0258552489035  5.62791305 20.7436531173246  5.62791305 20.3663611677632  L 5.62791305 19.9583950614035  C 7.309442925 20.0534849046053  8.306806025 20.4921251677632  8.52269865 20.7129789857456  Z " fill-rule="nonzero" fill="#f59a23" stroke="none" transform="matrix(1 0 0 1 663 441 )" />
  </g>
</svg>