<?xml version="1.0" encoding="utf-8"?>
<svg version="1.1" xmlns:xlink="http://www.w3.org/1999/xlink" width="9px" height="21px" xmlns="http://www.w3.org/2000/svg">
  <g transform="matrix(1 0 0 1 -742 -547 )">
    <path d="M 8.8417222875 18.9370565263158  C 8.8745622975 17.6767493322368  7.0546786875 17.0746025625  5.0623850925 16.9877814013158  L 5.0623850925 8.61374023355263  C 7.0519420575 8.32807060197369  8.592685605 6.54963710855263  8.5926855825 4.4267196381579  C 8.6200522425 2.07414619078947  6.7426986375 0.180884720394738  4.474001655 0.180884720394738  C 2.2053046725 0.180884720394738  0.3252143925 2.07414621381579  0.3252143925 4.4267196381579  C 0.3252143925 6.54963710855263  1.86595794 8.32807060197369  3.855514905 8.61374023355263  L 3.855514905 17.0157882171053  C 1.8933246225 17.1306162171053  0.100807695 17.7327629868421  0.100807695 18.9370565263158  C 0.100807695 20.2561780657895  2.287404675 20.8583248355263  4.4712650025 20.8583248355263  C 6.6578619825 20.8583248355263  8.84172231 20.2561780657895  8.8417222875 18.9370565263158  Z M 7.670428785 18.9118503782895  C 7.4460220875 19.1387056644737  6.381458595 19.6260244572368  4.50410499 19.6260244572368  C 2.626751385 19.6260244572368  1.5621878925 19.1667125032895  1.3377812175 18.9090497105263  C 1.534821255 18.6793937335526  2.40234471 18.3069029407895  3.888354915 18.2200817796053  L 3.888354915 18.5953732401316  C 3.888354915 18.9398572171053  4.140128295 19.1975200098684  4.47673833 19.1975200098684  C 4.813348365 19.1975200098684  5.065121745 18.9398571940789  5.065121745 18.5953732401316  L 5.065121745 18.2228824473684  C 6.5784986325 18.3097036085526  7.4761254225 18.7102012401316  7.670428785 18.9118503782895  Z " fill-rule="nonzero" fill="#f59a23" stroke="none" transform="matrix(1 0 0 1 742 547 )" />
  </g>
</svg>