<?xml version="1.0" encoding="utf-8"?>
<svg version="1.1" xmlns:xlink="http://www.w3.org/1999/xlink" width="9px" height="20px" xmlns="http://www.w3.org/2000/svg">
  <g transform="matrix(1 0 0 1 -822 -341 )">
    <path d="M 8.8417222875 18.0352919298246  C 8.8745622975 16.8349993640351  7.0546786875 16.26152625  5.0623850925 16.1788394298246  L 5.0623850925 8.20356212719298  C 7.0519420575 7.93149581140351  8.592685605 6.23774962719298  8.5926855825 4.21592346491228  C 8.6200522425 1.9753773245614  6.7426986375 0.172271162280703  4.474001655 0.172271162280703  C 2.2053046725 0.172271162280703  0.3252143925 1.97537734649123  0.3252143925 4.21592346491228  C 0.3252143925 6.23774962719298  1.86595794 7.93149581140351  3.855514905 8.20356212719298  L 3.855514905 16.2055125877193  C 1.8933246225 16.3148725877193  0.100807695 16.8883457017544  0.100807695 18.0352919298246  C 0.100807695 19.2915981578947  2.287404675 19.8650712719298  4.4712650025 19.8650712719298  C 6.6578619825 19.8650712719298  8.84172231 19.2915981578947  8.8417222875 18.0352919298246  Z M 7.670428785 18.0112860745614  C 7.4460220875 18.2273387280702  6.381458595 18.6914518640351  4.50410499 18.6914518640351  C 2.626751385 18.6914518640351  1.5621878925 18.2540119078947  1.3377812175 18.0086187719298  C 1.534821255 17.7898987938596  2.40234471 17.4351456578947  3.888354915 17.3524588377193  L 3.888354915 17.7098792763158  C 3.888354915 18.037959254386  4.140128295 18.2833523903509  4.47673833 18.2833523903509  C 4.813348365 18.2833523903509  5.065121745 18.0379592324561  5.065121745 17.7098792763158  L 5.065121745 17.3551261403509  C 6.5784986325 17.4378129605263  7.4761254225 17.8192392763158  7.670428785 18.0112860745614  Z " fill-rule="nonzero" fill="#f59a23" stroke="none" transform="matrix(1 0 0 1 822 341 )" />
  </g>
</svg>