<?xml version="1.0" encoding="utf-8"?>
<svg version="1.1" xmlns:xlink="http://www.w3.org/1999/xlink" width="25px" height="25px" xmlns="http://www.w3.org/2000/svg">
  <defs>
    <mask fill="white" id="clip234">
      <path d="M 0 7.5  C 0 6.78597658949286  0.0953762540523257 6.09796488463644  0.274336402295376 5.447757245292  C 1.1480484935903 2.27333946611247  4.01402341050698 0  7.5 0  C 11.7 0  15 3.29999999999995  15 7.5  C 15 8.81722833626509  14.6754082416928 10.0459316475374  14.1002613418339 11.1120733170617  C 12.8415447323048 13.4453384843952  10.382771663735 15  7.5 15  C 3.29999999999995 15  0 11.7  0 7.5  Z " fill-rule="evenodd" />
    </mask>
    <filter x="1337px" y="686px" width="25px" height="25px" filterUnits="userSpaceOnUse" id="filter235">
      <feOffset dx="1" dy="1" in="SourceAlpha" result="shadowOffsetInner" />
      <feGaussianBlur stdDeviation="2.5" in="shadowOffsetInner" result="shadowGaussian" />
      <feComposite in2="shadowGaussian" operator="atop" in="SourceAlpha" result="shadowComposite" />
      <feColorMatrix type="matrix" values="0 0 0 0 0  0 0 0 0 0  0 0 0 0 0  0 0 0 0.698039215686274 0  " in="shadowComposite" />
    </filter>
    <g id="widget236">
      <path d="M 0 7.5  C 0 6.78597658949286  0.0953762540523257 6.09796488463644  0.274336402295376 5.447757245292  C 1.1480484935903 2.27333946611247  4.01402341050698 0  7.5 0  C 11.7 0  15 3.29999999999995  15 7.5  C 15 8.81722833626509  14.6754082416928 10.0459316475374  14.1002613418339 11.1120733170617  C 12.8415447323048 13.4453384843952  10.382771663735 15  7.5 15  C 3.29999999999995 15  0 11.7  0 7.5  Z " fill-rule="nonzero" fill="#009dd9" stroke="none" transform="matrix(1 0 0 1 1341 690 )" />
      <path d="M 0 7.5  C 0 6.78597658949286  0.0953762540523257 6.09796488463644  0.274336402295376 5.447757245292  C 1.1480484935903 2.27333946611247  4.01402341050698 0  7.5 0  C 11.7 0  15 3.29999999999995  15 7.5  C 15 8.81722833626509  14.6754082416928 10.0459316475374  14.1002613418339 11.1120733170617  C 12.8415447323048 13.4453384843952  10.382771663735 15  7.5 15  C 3.29999999999995 15  0 11.7  0 7.5  Z " stroke-width="2" stroke="#ffffff" fill="none" transform="matrix(1 0 0 1 1341 690 )" mask="url(#clip234)" />
    </g>
  </defs>
  <g transform="matrix(1 0 0 1 -1337 -686 )">
    <use xlink:href="#widget236" filter="url(#filter235)" />
    <use xlink:href="#widget236" />
  </g>
</svg>