<?xml version="1.0" encoding="utf-8"?>
<svg version="1.1" xmlns:xlink="http://www.w3.org/1999/xlink" width="812px" height="349px" xmlns="http://www.w3.org/2000/svg">
  <g transform="matrix(1 0 0 1 -1487.5 -3542.5 )">
    <path d="M 0 345  C 121.824742268041 232.12962962963  169.721649484536 278.981481481481  169.721649484536 278.981481481481  C 169.721649484536 278.981481481481  221.783505154639 368.425925925926  231.154639175258 244.907407407407  C 240.525773195876 121.388888888889  260.309278350515 110.740740740741  283.216494845361 117.12962962963  C 306.123711340206 123.518518518519  329.030927835052 110.740740740741  349.855670103093 80.9259259259259  C 370.680412371134 51.1111111111111  385.257731958763 48.9814814814815  404 44.7222222222222  C 422.742268041237 40.462962962963  415.453608247423 63.8888888888889  446.690721649485 59.6296296296296  C 477.927835051546 55.3703703703704  461.268041237113 21.2962962962963  506.041237113402 27.6851851851852  C 550.814432989691 34.0740740740741  529.989690721649 55.3703703703704  591.422680412371 51.1111111111111  C 652.855670103093 46.8518518518518  617.453608247423 -38.3333333333333  685.134020618557 21.2962962962963  C 752.814432989691 80.9259259259259  735.113402061856 89.4444444444444  750.731958762887 93.7037037037037  C 766.350515463918 97.962962962963  799.670103092784 40.462962962963  802.79381443299 80.9259259259259  C 805.917525773196 121.388888888889  808 112.87037037037  808 112.87037037037  " stroke-width="3" stroke="#ffda44" fill="none" transform="matrix(1 0 0 1 1489 3544 )" />
  </g>
</svg>