<?xml version="1.0" encoding="utf-8"?>
<svg version="1.1" xmlns:xlink="http://www.w3.org/1999/xlink" width="812px" height="121px" xmlns="http://www.w3.org/2000/svg">
  <g transform="matrix(1 0 0 1 -1497.5 -3663.5 )">
    <path d="M 0 117  C 121.824742268041 76.4320987654321  141.903014416776 76  141.903014416776 76  C 141.903014416776 76  198.028833551769 77  221.326343381389 69  C 244.623853211009 61  273.606544973044 59.7037037037037  296.51376146789 62  C 319.420977962735 64.2962962962963  328.637905176258 55.7160493827161  349.462647444299 45  C 370.28738971234 34.2839506172839  380.492332220886 39.5308641975309  399.234600262123 38  C 417.97686830336 36.4691358024691  415.453608247423 15.9629629629629  446.690721649484 14.4320987654321  C 477.927835051546 12.9012345679012  484.7156638878 32.8024691358025  529.488859764089 35.0987654320988  C 574.262055640378 37.3950617283951  549.597154477037 20.5308641975308  611.030144167759 19  C 672.463133858481 17.4691358024691  654.448230668414 -1  685.134020618557 0.65432098765433  C 715.819810568699 2.30864197530866  714.017092053884 16.4691358024692  729.635648754915 18  C 745.254205455946 19.5308641975309  747.638269986894 36.320987654321  766.699868938401 38  C 785.761467889908 39.6790123456788  808 33.5679012345679  808 33.5679012345679  " stroke-width="3" stroke="#a5d790" fill="none" transform="matrix(1 0 0 1 1499 3665 )" />
  </g>
</svg>