<?xml version="1.0" encoding="utf-8"?>
<svg version="1.1" xmlns:xlink="http://www.w3.org/1999/xlink" width="13px" height="12px" xmlns="http://www.w3.org/2000/svg">
  <g transform="matrix(1 0 0 1 -2344 -2245 )">
    <path d="M 7.35531309179687 5.95280091706731  L 12.5191660078125 1.21084489362981  C 12.7633404628906 0.986574796875  12.7645746279297 0.623161191706731  12.5216153378906 0.397769387019231  C 12.2781054375 0.171869309495193  11.8850909013672 0.171238353064904  11.6409164462891 0.395508466947116  L 6.47573445800781 5.13797276322115  L 1.35553294726563 0.397243592848557  C 1.11316226757813 0.172991017427884  0.71891356640625 0.171851788161057  0.474739129882813 0.39610436358173  C 0.23113428515625 0.620356939002403  0.230545693359375 0.984296338341346  0.47350496484375 1.20968814302885  L 5.59247231054687 5.94927808413462  L 0.431106706054687 10.6883422310697  C 0.18691326953125 10.9126123278245  0.1856980859375 11.2759908903245  0.42861939453125 11.5014177376803  C 0.550080048828125 11.6141486826923  0.710141522460937 11.6709873768029  0.87020299609375 11.6709873768029  C 1.0290493046875 11.6709873768029  1.18795255761719 11.6152879119591  1.30943219335937 11.5036786577524  L 6.47203194433594 6.76347528155048  L 11.6390177265625 11.5473724119591  C 11.7604783808594 11.6601208954327  11.9199892255859 11.7164513167067  12.0800317177734 11.7164513167067  C 12.2395045996094 11.7164513167067  12.3983508896484 11.6601208954327  12.5198115439453 11.548511641226  C 12.7633214443359 11.3242590658053  12.7639859990234 10.9609506228966  12.5210457089844 10.7355588182091  L 7.35531309179687 5.95280091706731  Z " fill-rule="nonzero" fill="#c9c9c9" stroke="none" transform="matrix(1 0 0 1 2344 2245 )" />
  </g>
</svg>