<?xml version="1.0" encoding="utf-8"?>
<svg version="1.1" xmlns:xlink="http://www.w3.org/1999/xlink" width="830px" height="354px" xmlns="http://www.w3.org/2000/svg">
  <defs>
    <linearGradient gradientUnits="userSpaceOnUse" x1="413.5" y1="0" x2="413.5" y2="351" id="LinearGradient249">
      <stop id="Stop250" stop-color="#3d87b7" stop-opacity="0.8" offset="0" />
      <stop id="Stop251" stop-color="#ffffff" stop-opacity="0" offset="1" />
    </linearGradient>
  </defs>
  <g transform="matrix(1 0 0 1 -1468 -2420 )">
    <path d="M 827 250.505715374357  L 827 351  L 0.258760951189031 351  L 0 267.613259668508  L 16.54 236.585635359116  L 35.1475 221.07182320442  L 66.16 87.2651933701657  L 100.27375 108.298954902975  L 135.42125 153.198895027624  L 169.535 122.171270718232  L 206.75 176.469613259669  L 243.965 145.441988950276  L 280.14625 104.003361184443  L 313.22625 58.1767955801105  L 349.818560253889 0.227676019922224  L 381.45375 62.0552486187845  L 413.130341498302 104.003361184443  L 449.800464866798 106.942451623438  L 481.147505810835 105.133780584057  L 517.226175576613 108.298954902975  C 517.226175576613 108.298954902975  549.804576183421 109.155662289394  550.051850527445 109.203290422666  C 551.054921850249 109.396494512772  586.130520293224 113.951051901042  586.130520293224 113.951051901042  L 619.547648846773 99.6324061726043  L 655.034865009834 75.9689600740277  L 687.860539960665 81.16888931225  L 756.099499374218 99.6324061726043  L 794.913642052566 162.672128024386  L 827 250.505715374357  Z " fill-rule="nonzero" fill="url(#LinearGradient249)" stroke="none" transform="matrix(1 0 0 1 1469 2421 )" />
  </g>
</svg>