<?xml version="1.0" encoding="utf-8"?>
<svg version="1.1" xmlns:xlink="http://www.w3.org/1999/xlink" width="830px" height="273px" xmlns="http://www.w3.org/2000/svg">
  <g transform="matrix(1 0 0 1 -1468 -2428 )">
    <path d="M 0 268.834532374101  L 19.64125 231.539568345324  L 35.3542500000001 216  L 67.5383333333333 86.1151079136691  L 99.24 104.244604316547  L 135.076666666667 150.21582733813  L 168.845833333333 119.136690647482  L 205.71625 172.230215827338  L 249.13375 137.913669064748  L 297.375416666667 78.3453237410073  L 348.37375 0  L 363.190833333333 26.546762589928  L 374.2175 45.9712230215827  L 379.38625 56.3309352517986  L 413.5 100.804798876599  L 448.6475 101.713288492261  L 478.970833333333 100.804798876599  L 512.395416666667 101.713288492261  C 512.395416666667 101.713288492261  550.052618082239 104.196757401825  550.299583333333 104.244604316547  C 551.301400816983 104.438695896213  585.1025 110.719424460432  585.1025 110.719424460432  L 620.594583333333 94.5323741007194  L 655.742083333333 71.2230215827338  L 688.132916666667 75.7553956834532  L 756.015833333333 94.5323741007194  L 793.575416666666 156.043165467626  L 827 246.690647482014  " stroke-width="2" stroke="#3399cc" fill="none" transform="matrix(1 0 0 1 1469 2429 )" />
  </g>
</svg>