<?xml version="1.0" encoding="utf-8"?>
<svg version="1.1" xmlns:xlink="http://www.w3.org/1999/xlink" width="8px" height="14px" xmlns="http://www.w3.org/2000/svg">
  <g transform="matrix(1 0 0 1 -2069 -5172 )">
    <path d="M 7.77502246462264 13.80272109375  C 8.01257862617924 13.5758503487723  8.01257862617924 13.2095238141741  7.77502246462264 12.9829931919643  L 1.49002696049528 7.03503401227679  L 7.75669361733491 1.01700680803571  C 7.99424977889151 0.790476199776786  7.99424977889151 0.424149665178571  7.75669361733491 0.19727890625  C 7.6434223284292 0.0884884572066957  7.48878345866898 0.0272354067797734  7.32740341244104 0.0272354067797734  C 7.1660233662131 0.0272354067797734  7.01138449645289 0.0884884572066957  6.89811320754717 0.19727890625  L 0.247978434551887 6.598639453125  C 0.230008977004717 6.61632653459821  0.230008977004717 6.61632653459821  0.230008991745283 6.63367346540179  C 0.120035952240566 6.73843536551339  0.0470799675707544 6.89557822265625  0.0470799675707544 7.03503401227679  C 0.0470799675707544 7.19183673270089  0.102066494693396 7.33129252232143  0.229649602004717 7.4534013671875  L 6.91644205483491 13.80272109375  C 7.15363882665094 14.0295918387277  7.5374663178066 14.0295918387277  7.77538185436321 13.80272109375  Z " fill-rule="nonzero" fill="#999999" stroke="none" transform="matrix(1 0 0 1 2069 5172 )" />
  </g>
</svg>