<?xml version="1.0" encoding="utf-8"?>
<svg version="1.1" xmlns:xlink="http://www.w3.org/1999/xlink" width="80px" height="68px" xmlns="http://www.w3.org/2000/svg">
  <g transform="matrix(1 0 0 1 -141 -305 )">
    <path d="M 141 305  L 221 305  L 221 373  L 141 373  L 141 305  " fill-rule="nonzero" fill="#cccccc" stroke="none" />
    <path d="M 146 310  L 216 310  L 216 368  L 146 368  L 146 310  " fill-rule="nonzero" fill="#ffffff" stroke="none" />
    <path d="M 187.7 325.4  C 184.844 325.4  182.6 323.156  182.6 320.3  C 182.6 317.444  184.844 315.2  187.7 315.2  C 190.556 315.2  192.8 317.444  192.8 320.3  C 192.8 323.156  190.556 325.4  187.7 325.4  " fill-rule="nonzero" fill="#cccccc" stroke="none" />
    <path d="M 148 367  L 148 336.75  L 164.75 323  L 188.2 338.95  L 201.6 331.25  L 215 338.95  L 215 367  L 148 367  " fill-rule="nonzero" fill="#169bd5" stroke="none" />
  </g>
</svg>