<?xml version="1.0" encoding="utf-8"?>
<svg version="1.1" xmlns:xlink="http://www.w3.org/1999/xlink" width="130px" height="130px" xmlns="http://www.w3.org/2000/svg">
  <g transform="matrix(1 0 0 1 -1111 -485 )">
    <path d="M 1176 485.5  C 1212.12 485.5  1240.5 513.88  1240.5 550  C 1240.5 586.12  1212.12 614.5  1176 614.5  C 1139.88 614.5  1111.5 586.12  1111.5 550  C 1111.5 513.88  1139.88 485.5  1176 485.5  Z " fill-rule="nonzero" fill="#02a7f0" stroke="none" fill-opacity="0.231372549019608" />
    <path d="M 1176 485.5  C 1212.12 485.5  1240.5 513.88  1240.5 550  C 1240.5 586.12  1212.12 614.5  1176 614.5  C 1139.88 614.5  1111.5 586.12  1111.5 550  C 1111.5 513.88  1139.88 485.5  1176 485.5  Z " stroke-width="1" stroke="#02a7f0" fill="none" stroke-opacity="0.596078431372549" />
  </g>
</svg>