<?xml version="1.0" encoding="utf-8"?>
<svg version="1.1" xmlns:xlink="http://www.w3.org/1999/xlink" width="10px" height="20px" xmlns="http://www.w3.org/2000/svg">
  <g transform="matrix(1 0 0 1 -1238 -611 )">
    <path d="M 4.92293233082705 2.96316964285734  C 4.58082706766913 3.30171130952385  4.16917293233087 3.47098214285734  3.68796992481202 3.47098214285734  C 3.20676691729318 3.47098214285734  2.79323308270682 3.30171130952385  2.44736842105272 2.96316964285734  C 2.10150375939838 2.62462797619037  1.92857142857133 2.21354166666652  1.92857142857133 1.72991071428578  C 1.92857142857133 1.25372023809541  2.10150375939838 0.846354166666515  2.44736842105272 0.5078125  C 2.79323308270682 0.169270833333485  3.20676691729318 0  3.68796992481202 0  C 4.16917293233087 0  4.58082706766913 0.169270833333485  4.92293233082705 0.5078125  C 5.26503759398497 0.846354166666515  5.43609022556393 1.25372023809541  5.43609022556393 1.72991071428578  C 5.43609022556393 2.21354166666652  5.26503759398497 2.62462797619037  4.92293233082705 2.96316964285734  Z M 9.82330827067676 10.3125  C 9.87593984962405 10.4092261904761  9.9022556390978 10.5171130952381  9.9022556390978 10.6361607142858  C 9.9022556390978 11.0081845238096  9.78947368421063 11.2593005952381  9.56390977443607 11.3895089285716  C 9.33834586466173 11.5197172619046  9.09962406015029 11.5438988095239  8.8477443609022 11.4620535714284  C 8.5958646616541 11.3802083333335  8.41729323308277 11.2537202380954  8.31203007518798 11.0825892857142  L 4.17293233082705 6.19419642857156  C 4.12030075187977 6.10491071428578  4.06766917293226 6.04724702380963  4.01503759398497 6.02120535714266  C 3.96240601503769 5.99516369047615  3.92105263157896 5.98958333333348  3.89097744360902 6.00446428571422  L 3.85714285714289 6.03794642857156  C 3.80451127819538 6.09747023809541  3.81954887218035 6.17559523809541  3.9022556390978 6.27232142857156  L 5.27819548872185 7.82366071428578  L 5.28947368421063 11.7745535714284  L 3.47368421052624 16.875  C 2.96992481203006 18.3035714285716  2.62406015037595 19.1741071428573  2.43609022556393 19.4866071428573  C 2.32330827067676 19.6800595238096  2.21804511278197 19.7991071428573  2.12030075187977 19.84375  C 1.74436090225572 20.0372023809523  1.35714285714289 20.0409226190477  0.958646616541273 19.8549107142858  C 0.740601503759308 19.7581845238096  0.58458646616532 19.5982142857142  0.490601503759308 19.375  C 0.396616541353296 19.1517857142858  0.360902255639076 18.9397321428573  0.383458646616646 18.7388392857142  C 0.398496240601617 18.6123511904761  1.13909774436092 16.3132440476193  2.6052631578948 11.8415178571427  L 2.66165413533827 7.19866071428578  L 1.70300751879699 9.02901785714266  L 2.0977443609022 11.5066964285716  C 2.12781954887214 11.6852678571427  2.12406015037595 11.8415178571427  2.08646616541364 11.9754464285716  C 2.0488721804511 12.109375  1.99624060150381 12.2116815476193  1.92857142857133 12.2823660714284  C 1.86090225563908 12.3530505952381  1.78947368421063 12.4125744047619  1.71428571428578 12.4609375  C 1.63909774436092 12.5093005952381  1.57518796992485 12.5372023809523  1.52255639097734 12.5446428571427  L 1.4436090225563 12.5669642857142  C 1.30075187969919 12.5892857142858  1.17105263157896 12.578125  1.05451127819538 12.5334821428573  C 0.937969924812023 12.4888392857142  0.847744360902198 12.4293154761904  0.783834586466128 12.3549107142858  C 0.719924812030058 12.2805059523807  0.667293233082773 12.1986607142858  0.625939849624046 12.109375  C 0.58458646616532 12.0200892857142  0.556390977443698 11.9475446428573  0.541353383458727 11.8917410714284  C 0.526315789473756 11.8359375  0.518796992481157 11.8005952380954  0.518796992481157 11.7857142857142  L 0 8.44866071428578  L 2.37969924812023 4.19642857142844  C 2.55263157894728 3.94345238095229  2.97744360902266 3.81696428571422  3.6541353383459 3.81696428571422  C 4.21804511278197 3.81696428571422  4.62030075187977 3.96577380952385  4.86090225563908 4.26339285714266  L 9.64285714285711 10.078125  C 9.69548872180462 10.1153273809523  9.74812030075191 10.1785714285716  9.80075187969919 10.2678571428573  L 9.83458646616532 10.3013392857142  L 9.82330827067676 10.3125  Z M 4.33082706766913 15.1339285714284  L 5.35714285714289 12.3102678571427  C 5.68045112781965 13.1510416666665  6.01315789473688 13.9880952380954  6.3552631578948 14.8214285714284  C 6.69736842105272 15.6547619047619  6.95864661654127 16.2797619047619  7.13909774436092 16.6964285714284  L 7.40977443609017 17.3102678571427  C 7.68045112781965 18.0022321428573  7.83834586466173 18.4672619047619  7.88345864661665 18.7053571428573  C 7.96616541353387 19.2261904761904  7.83082706766913 19.5870535714284  7.47744360902266 19.7879464285716  C 7.21428571428578 19.9516369047619  6.96616541353387 20.0111607142858  6.73308270676694 19.9665178571427  C 6.5 19.921875  6.30827067669179 19.8400297619046  6.15789473684208 19.7209821428573  C 6.00751879699237 19.6019345238096  5.89849624060162 19.4717261904761  5.83082706766913 19.3303571428573  L 5.81954887218035 19.3303571428573  C 5.77443609022566 19.2113095238096  5.74436090225572 19.1183035714284  5.72932330827075 19.0513392857142  L 4.33082706766913 15.1339285714284  Z " fill-rule="nonzero" fill="#d9001b" stroke="none" transform="matrix(1 0 0 1 1238 611 )" />
  </g>
</svg>