<?xml version="1.0" encoding="utf-8"?>
<svg version="1.1" xmlns:xlink="http://www.w3.org/1999/xlink" width="14px" height="15px" xmlns="http://www.w3.org/2000/svg">
  <g transform="matrix(1 0 0 1 -441 -162 )">
    <path d="M 8.5859375 9.19921875  C 9.32351762820513 8.40895432692308  9.69230769230769 7.45793269230769  9.69230769230769 6.34615384615385  C 9.69230769230769 5.234375  9.32351762820513 4.28335336538461  8.5859375 3.49308894230769  C 7.84835737179487 2.70282451923077  6.96073717948718 2.30769230769231  5.92307692307692 2.30769230769231  C 4.88541666666667 2.30769230769231  3.99779647435898 2.70282451923077  3.26021634615385 3.49308894230769  C 2.52263621794872 4.28335336538461  2.15384615384615 5.234375  2.15384615384615 6.34615384615385  C 2.15384615384615 7.45793269230769  2.52263621794872 8.40895432692308  3.26021634615385 9.19921875  C 3.99779647435898 9.98948317307692  4.88541666666667 10.3846153846154  5.92307692307692 10.3846153846154  C 6.96073717948718 10.3846153846154  7.84835737179487 9.98948317307692  8.5859375 9.19921875  Z M 13.6887019230769 13.0348557692308  C 13.896233974359 13.2572115384615  14 13.5276442307692  14 13.8461538461538  C 14 14.1586538461538  13.8934294871795 14.4290865384615  13.6802884615385 14.6574519230769  C 13.4671474358974 14.8858173076923  13.2147435897436 15  12.9230769230769 15  C 12.6201923076923 15  12.3677884615385 14.8858173076923  12.1658653846154 14.6574519230769  L 9.28004807692308 11.5745192307692  C 8.27604166666667 12.3197115384615  7.15705128205128 12.6923076923077  5.92307692307692 12.6923076923077  C 5.12099358974359 12.6923076923077  4.35396634615385 12.5255408653846  3.62199519230769 12.1920072115385  C 2.89002403846154 11.8584735576923  2.25901442307692 11.4077524038462  1.72896634615385 10.83984375  C 1.19891826923077 10.2719350961538  0.778245192307693 9.59585336538461  0.466947115384615 8.81159855769231  C 0.155649038461538 8.02734375  0 7.20552884615384  0 6.34615384615385  C 0 5.48677884615384  0.155649038461538 4.66496394230769  0.466947115384615 3.88070913461538  C 0.778245192307693 3.09645432692308  1.19891826923077 2.42037259615385  1.72896634615385 1.85246394230769  C 2.25901442307692 1.28455528846154  2.89002403846154 0.833834134615384  3.62199519230769 0.500300480769231  C 4.35396634615385 0.166766826923077  5.12099358974359 0  5.92307692307692 0  C 6.72516025641026 0  7.4921875 0.166766826923077  8.22415865384615 0.500300480769231  C 8.95612980769231 0.833834134615384  9.58713942307692 1.28455528846154  10.1171875 1.85246394230769  C 10.6472355769231 2.42037259615385  11.0679086538462 3.09645432692308  11.3792067307692 3.88070913461538  C 11.6905048076923 4.66496394230769  11.8461538461538 5.48677884615384  11.8461538461538 6.34615384615385  C 11.8461538461538 7.66826923076923  11.4983974358974 8.8671875  10.8028846153846 9.94290865384615  L 13.6887019230769 13.0348557692308  Z " fill-rule="nonzero" fill="#d7d7d7" stroke="none" transform="matrix(1 0 0 1 441 162 )" />
  </g>
</svg>