<?xml version="1.0" encoding="utf-8"?>
<svg version="1.1" xmlns:xlink="http://www.w3.org/1999/xlink" width="6px" height="8px" xmlns="http://www.w3.org/2000/svg">
  <g transform="matrix(1 0 0 1 -392 -324 )">
    <path d="M 5.8729921875 1.9996328125  C 5.8729921875 1.8615625  5.7610625 1.7496328125  5.6229921875 1.7496328125  L 4.0049921875 1.7496328125  C 3.9805234375 1.2111875  3.534859375 0.78065625  2.9904765625 0.78065625  C 2.44609375 0.78065625  2.0004296875 1.2111875  1.9759609375 1.7496328125  L 0.3535625 1.7496328125  C 0.2154921875 1.7496328125  0.1035625 1.8615625  0.1035625 1.9996328125  C 0.1035625 2.137703125  0.2154921875 2.2496328125  0.3535625 2.2496328125  L 5.6229921875 2.2496328125  C 5.7610625 2.2496328125  5.8729921875 2.137703125  5.8729921875 1.9996328125  Z M 2.4770625 1.749625  C 2.5007265625 1.4871015625  2.721890625 1.2806484375  2.9904765625 1.2806484375  C 3.2590625 1.2806484375  3.480234375 1.4871015625  3.5038984375 1.749625  L 2.4770625 1.749625  Z M 5.2479921875 2.998359375  C 5.2479921875 2.8602890625  5.1360625 2.748359375  4.9979921875 2.748359375  C 4.859921875 2.748359375  4.7479921875 2.8602890625  4.7479921875 2.998359375  L 4.7479921875 6.7340859375  L 1.252 6.7340859375  L 1.252 2.998359375  C 1.252 2.8602890625  1.1400703125 2.748359375  1.002 2.748359375  C 0.8639296875 2.748359375  0.752 2.8602890625  0.752 2.998359375  L 0.752 6.9840859375  C 0.752 7.12215625  0.8639296875 7.2340859375  1.002 7.2340859375  L 4.9979921875 7.2340859375  C 5.1360625 7.2340859375  5.2479921875 7.12215625  5.2479921875 6.9840859375  L 5.2479921875 2.998359375  Z " fill-rule="nonzero" fill="#333333" stroke="none" transform="matrix(1 0 0 1 392 324 )" />
  </g>
</svg>