<?xml version="1.0" encoding="utf-8"?>
<svg version="1.1" xmlns:xlink="http://www.w3.org/1999/xlink" width="6px" height="6px" xmlns="http://www.w3.org/2000/svg">
  <g transform="matrix(1 0 0 1 -392 -300 )">
    <path d="M 5.84513818359375 1.18318212890625  C 5.84513818359375 1.23639111328125  5.82532983398437 1.289771484375  5.78465844726562 1.33042309570313  L 2.89569140625 4.21937036132812  L 1.85471484375 4.21937036132812  L 1.85471484375 3.17836743164063  L 4.74368188476562 0.289453125  C 4.7843203125 0.248814697265625  4.83751611328125 0.228973388671875  4.89077783203125 0.228973388671875  C 4.94417138671875 0.228973388671875  4.99746606445312 0.248814697265625  5.0381044921875 0.289453125  L 5.78465844726563 1.03595434570313  C 5.82532983398437 1.07662573242188  5.84513818359375 1.12982153320312  5.84513818359375 1.18318212890625  Z M 5.23790185546875 1.18317553710938  L 4.89090966796875 0.83618994140625  L 2.375203125 3.35185693359375  L 2.375203125 3.6989150390625  L 2.7221953125 3.6989150390625  L 5.23790185546875 1.18317553710938  Z M 3.24270336914062 0.83618994140625  C 3.24270336914062 0.979858154296875  3.126193359375 1.09646704101563  2.98245922851563 1.09646704101563  L 0.813744873046875 1.09646704101563  L 0.813744873046875 5.26034692382813  L 4.97765771484375 5.26034692382813  L 4.97765771484375 3.09161938476563  C 4.97765771484375 2.94798413085937  5.09410180664062 2.831408203125  5.23790185546875 2.831408203125  C 5.38163598632813 2.831408203125  5.49814599609375 2.94798413085937  5.49814599609375 3.09161938476563  L 5.49814599609375 5.43384301757813  C 5.49814599609375 5.62549951171875  5.34277734375 5.7808681640625  5.15115380859375 5.7808681640625  L 0.640248779296875 5.7808681640625  C 0.448625244140625 5.7808681640625  0.293256591796875 5.62549951171875  0.293256591796875 5.43384301757813  L 0.293256591796875 0.92293798828125  C 0.293256591796875 0.731314453125  0.448625244140625 0.57594580078125  0.640248779296875 0.57594580078125  L 2.98245922851563 0.57594580078125  C 3.126193359375 0.57594580078125  3.24270336914062 0.692521728515625  3.24270336914062 0.83618994140625  Z " fill-rule="nonzero" fill="#000000" stroke="none" transform="matrix(1 0 0 1 392 300 )" />
  </g>
</svg>