<?xml version="1.0" encoding="utf-8"?>
<svg version="1.1" xmlns:xlink="http://www.w3.org/1999/xlink" width="29px" height="27px" xmlns="http://www.w3.org/2000/svg">
  <g transform="matrix(1 0 0 1 -551 -1006 )">
    <path d="M 17.5150240384615 13.166015625  C 17.7357772435897 12.943359375  17.8461538461538 12.6796875  17.8461538461538 12.375  C 17.8461538461538 12.0703125  17.7357772435897 11.806640625  17.5150240384615 11.583984375  C 17.2942708333333 11.361328125  17.0328525641026 11.25  16.7307692307692 11.25  L 12.2692307692308 11.25  C 11.9671474358974 11.25  11.7057291666667 11.361328125  11.4849759615385 11.583984375  C 11.2642227564103 11.806640625  11.1538461538462 12.0703125  11.1538461538462 12.375  C 11.1538461538462 12.6796875  11.2642227564103 12.943359375  11.4849759615385 13.166015625  C 11.7057291666667 13.388671875  11.9671474358974 13.5  12.2692307692308 13.5  L 16.7307692307692 13.5  C 17.0328525641026 13.5  17.2942708333333 13.388671875  17.5150240384615 13.166015625  Z M 27.5534855769231 8.208984375  C 27.7742387820513 8.431640625  27.8846153846154 8.6953125  27.8846153846154 9  L 27.8846153846154 25.875  C 27.8846153846154 26.1796875  27.7742387820513 26.443359375  27.5534855769231 26.666015625  C 27.3327323717949 26.888671875  27.0713141025641 27  26.7692307692308 27  L 2.23076923076923 27  C 1.9286858974359 27  1.66726762820513 26.888671875  1.44651442307692 26.666015625  C 1.22576121794872 26.443359375  1.11538461538462 26.1796875  1.11538461538462 25.875  L 1.11538461538462 9  C 1.11538461538462 8.6953125  1.22576121794872 8.431640625  1.44651442307692 8.208984375  C 1.66726762820513 7.986328125  1.9286858974359 7.875  2.23076923076923 8  L 26.7692307692308 8  C 27.0713141025641 7.875  27.3327323717949 7.986328125  27.5534855769231 8.208984375  Z M 28.6688701923077 0.333984374999999  C 28.8896233974359 0.556640624999996  29 0.820312499999996  29 1.125  L 29 5.625  C 29 5.9296875  28.8896233974359 6.193359375  28.6688701923077 6.416015625  C 28.4481169871795 6.638671875  28.1866987179487 6.75  27.8846153846154 7  L 1.11538461538462 7  C 0.813301282051282 6.75  0.551883012820513 6.638671875  0.331129807692308 6.416015625  C 0.110376602564103 6.193359375  0 5.9296875  0 5.625  L 0 1.125  C 0 0.820312499999996  0.110376602564103 0.556640624999996  0.331129807692308 0.333984374999999  C 0.551883012820513 0.111328124999999  0.813301282051282 0  1.11538461538462 0  L 27.8846153846154 0  C 28.1866987179487 0  28.4481169871795 0.111328124999999  28.6688701923077 0.333984374999999  Z " fill-rule="nonzero" fill="#02a7f0" stroke="none" transform="matrix(1 0 0 1 551 1006 )" />
  </g>
</svg>