<?xml version="1.0" encoding="utf-8"?>
<svg version="1.1" xmlns:xlink="http://www.w3.org/1999/xlink" width="23px" height="23px" xmlns="http://www.w3.org/2000/svg">
  <g transform="matrix(1 0 0 1 -831 -222 )">
    <path d="M 22.9802169709821 11.5731829723451  C 22.9802169966518 5.28890340376106  17.8403760904018 0.19452178761062  11.4999868571429 0.19452178761062  C 5.15959764955357 0.19452178761062  0.0197304832589278 5.28890340376106  0.0197304832589278 11.5731829723451  C 0.0197304832589278 17.8574365132743  5.15962390959821 22.951870210177  11.4999868571429 22.951870210177  C 17.8403760647321 22.951870210177  22.9802169709821 17.8574365132743  22.9802169709821 11.5731829723451  Z M 8.07972180133929 11.5718552057522  C 8.07972180133929 12.5424045243363  7.28593199107143 13.3291696460177  6.30671705357143 13.3291696460177  C 5.32752837611607 13.3291696460177  4.53371230580357 12.5423784966814  4.53371230580357 11.5718552057522  C 4.53371230580357 10.601331914823  5.32750211607143 9.81454076548672  6.30671705357143 9.81454076548672  C 7.28593199107143 9.81454076548672  8.07972180133929 10.6013058871681  8.07972180133929 11.5718552057522  Z M 13.3723105591518 11.5718552057522  C 13.3723105591518 12.5424045243363  12.5784944888393 13.3291696460177  11.5993058113839 13.3291696460177  C 10.6201171339286 13.3291696460177  9.82630106361607 12.5423784966814  9.82630106361607 11.5718552057522  C 9.82630106361607 10.601331914823  10.6200908738839 9.81454076548672  11.5993058113839 9.81454076548672  C 12.5785207488839 9.81454076548672  13.3723105591518 10.6013058871681  13.3723105591518 11.5718552057522  Z M 18.6124948694196 11.5718552057522  C 18.6124948694196 12.5424045243363  17.8187050591518 13.3291696460177  16.8394901216518 13.3291696460177  C 15.8603014441964 13.3291696460177  15.0664853738839 12.5423784966814  15.0664853738839 11.5718552057522  C 15.0664853738839 10.601331914823  15.8603014441964 9.81454076548672  16.8394901216518 9.81454076548672  C 17.8186787991071 9.81454076548672  18.6124948694196 10.6013058871681  18.6124948694196 11.5718552057522  Z " fill-rule="nonzero" fill="#000000" stroke="none" transform="matrix(1 0 0 1 831 222 )" />
  </g>
</svg>