<?xml version="1.0" encoding="utf-8"?>
<svg version="1.1" xmlns:xlink="http://www.w3.org/1999/xlink" width="41px" height="32px" xmlns="http://www.w3.org/2000/svg">
  <g transform="matrix(1 0 0 1 -489 -167 )">
    <path d="M 12.4708333333333 6.5  C 13.2680555555556 7.27777777777778  13.6666666666667 8.22222222222222  13.6666666666667 9.33333333333333  C 13.6666666666667 10.4444444444444  13.2680555555556 11.3888888888889  12.4708333333333 12.1666666666667  C 11.6736111111111 12.9444444444444  10.7055555555556 13.3333333333333  9.56666666666667 13.3333333333333  C 8.42777777777778 13.3333333333333  7.45972222222222 12.9444444444444  6.6625 12.1666666666667  C 5.86527777777778 11.3888888888889  5.46666666666667 10.4444444444444  5.46666666666667 9.33333333333333  C 5.46666666666667 8.22222222222222  5.86527777777778 7.27777777777778  6.6625 6.5  C 7.45972222222222 5.72222222222222  8.42777777777778 5.33333333333333  9.56666666666667 5.33333333333333  C 10.7055555555556 5.33333333333333  11.6736111111111 5.72222222222222  12.4708333333333 6.5  Z M 26.65 8.66666666666667  L 35.5333333333333 17.3333333333333  L 35.5333333333333 26.6666666666667  L 5.46666666666667 26.6666666666667  L 5.46666666666667 22.6666666666667  L 12.3 16  L 15.7166666666667 19.3333333333333  L 26.65 8.66666666666667  Z M 38.0638020833333 2.86458333333333  C 37.9285590277778 2.73263888888889  37.7684027777778 2.66666666666667  37.5833333333333 3  L 3.41666666666667 3  C 3.23159722222222 2.66666666666667  3.07144097222222 2.73263888888889  2.93619791666667 2.86458333333333  C 2.80095486111111 2.99652777777778  2.73333333333333 3.15277777777778  3 3.33333333333333  L 3 28.6666666666667  C 2.73333333333333 28.8472222222222  2.80095486111111 29.0034722222222  2.93619791666667 29.1354166666667  C 3.07144097222222 29.2673611111111  3.23159722222222 29.3333333333333  3.41666666666667 29  L 37.5833333333333 29  C 37.7684027777778 29.3333333333333  37.9285590277778 29.2673611111111  38.0638020833333 29.1354166666667  C 38.1990451388889 29.0034722222222  38.2666666666667 28.8472222222222  38 28.6666666666667  L 38 3.33333333333333  C 38.2666666666667 3.15277777777778  38.1990451388889 2.99652777777778  38.0638020833333 2.86458333333333  Z M 39.9963541666667 0.979166666666668  C 40.6654513888889 1.63194444444444  41 2.41666666666667  41 3.33333333333333  L 41 28.6666666666667  C 41 29.5833333333333  40.6654513888889 30.3680555555556  39.9963541666667 31.0208333333333  C 39.3272569444444 31.6736111111111  38.5229166666667 32  37.5833333333333 32  L 3.41666666666667 32  C 2.47708333333333 32  1.67274305555556 31.6736111111111  1.00364583333333 31.0208333333333  C 0.334548611111111 30.3680555555556  0 29.5833333333333  0 28.6666666666667  L 0 3.33333333333333  C 0 2.41666666666667  0.334548611111111 1.63194444444444  1.00364583333333 0.979166666666668  C 1.67274305555556 0.326388888888886  2.47708333333333 0  3.41666666666667 0  L 37.5833333333333 0  C 38.5229166666667 0  39.3272569444444 0.326388888888886  39.9963541666667 0.979166666666668  Z " fill-rule="nonzero" fill="#000000" stroke="none" transform="matrix(1 0 0 1 489 167 )" />
  </g>
</svg>