<?xml version="1.0" encoding="utf-8"?>
<svg version="1.1" xmlns:xlink="http://www.w3.org/1999/xlink" width="18px" height="18px" xmlns="http://www.w3.org/2000/svg">
  <g transform="matrix(1 0 0 1 -357 -340 )">
    <path d="M 12.8571428571429 3.85714285714286  L 17.0357142857143 3.85714285714286  C 17.3035714285714 3.85714285714286  17.53125 3.95089285714286  17.71875 4.13839285714286  C 17.90625 4.32589285714285  18 4.55357142857143  18 4.82142857142857  L 18 17.0357142857143  C 18 17.3035714285714  17.90625 17.53125  17.71875 17.71875  C 17.53125 17.90625  17.3035714285714 18  17.0357142857143 18  L 7.39285714285714 18  C 7.125 18  6.89732142857143 17.90625  6.70982142857143 17.71875  C 6.52232142857143 17.53125  6.42857142857143 17.3035714285714  6.42857142857143 17.0357142857143  L 6.42857142857143 14.1428571428571  L 0.964285714285714 14.1428571428571  C 0.696428571428572 14.1428571428571  0.46875 14.0491071428571  0.28125 13.8616071428571  C 0.09375 13.6741071428571  0 13.4464285714286  0 13.1785714285714  L 0 6.42857142857143  C 0 6.16071428571429  0.0669642857142857 5.86607142857143  0.200892857142857 5.54464285714286  C 0.334821428571429 5.22321428571428  0.495535714285714 4.96875  0.683035714285714 4.78125  L 4.78125 0.683035714285715  C 4.96875 0.495535714285714  5.22321428571429 0.334821428571428  5.54464285714286 0.200892857142857  C 5.86607142857143 0.0669642857142865  6.16071428571429 0  6.42857142857143 0  L 10.6071428571429 0  C 10.875 0  11.1026785714286 0.0937500000000007  11.2901785714286 0.28125  C 11.4776785714286 0.468749999999999  11.5714285714286 0.696428571428571  11.5714285714286 0.964285714285715  L 11.5714285714286 4.25892857142857  C 12.0267857142857 3.99107142857143  12.4553571428571 3.85714285714286  12.8571428571429 3.85714285714286  Z M 11.5714285714286 9  L 11.5714285714286 5.99665178571428  L 8.56808035714286 9  L 11.5714285714286 9  Z M 5.14285714285714 5.14285714285714  L 5.14285714285714 2.13950892857143  L 2.13950892857143 5.14285714285714  L 5.14285714285714 5.14285714285714  Z M 6.62946428571429 9.40178571428572  C 6.76339285714286 9.08035714285714  6.92410714285714 8.82589285714286  7.11160714285714 8.63839285714286  L 10.2857142857143 5.46428571428572  L 10.2857142857143 1.28571428571429  L 6.42857142857143 1.28571428571429  L 6.42857142857143 5.46428571428572  C 6.42857142857143 5.73214285714285  6.33482142857143 5.95982142857143  6.14732142857143 6.14732142857143  C 5.95982142857143 6.33482142857143  5.73214285714286 6.42857142857143  5.46428571428571 6.42857142857143  L 1.28571428571429 6.42857142857143  L 1.28571428571429 12.8571428571429  L 6.42857142857143 12.8571428571429  L 6.42857142857143 10.2857142857143  C 6.42857142857143 10.0178571428571  6.49553571428572 9.72321428571428  6.62946428571429 9.40178571428572  Z M 7.71428571428571 16.7142857142857  L 16.7142857142857 16.7142857142857  L 16.7142857142857 5.14285714285714  L 12.8571428571429 5.14285714285714  L 12.8571428571429 9.32142857142857  C 12.8571428571429 9.58928571428571  12.7633928571429 9.81696428571428  12.5758928571429 10.0044642857143  C 12.3883928571429 10.1919642857143  12.1607142857143 10.2857142857143  11.8928571428571 10.2857142857143  L 7.71428571428571 10.2857142857143  L 7.71428571428571 16.7142857142857  Z " fill-rule="nonzero" fill="#000000" stroke="none" transform="matrix(1 0 0 1 357 340 )" />
  </g>
</svg>