<?xml version="1.0" encoding="utf-8"?>
<svg version="1.1" xmlns:xlink="http://www.w3.org/1999/xlink" width="22px" height="22px" xmlns="http://www.w3.org/2000/svg">
  <g transform="matrix(1 0 0 1 -678 -416 )">
    <path d="M 18.5625 22  C 18.5625 21.6197265625  18.4078125 21.2759765625  18.1607421875 21.0267578125  C 17.973828125 20.83984375  17.733203125 20.706640625  17.4646484375 20.6529296875  C 17.303515625 20.620703125  17.1875 20.483203125  17.1875 20.319921875  L 17.1875 12.422265625  C 17.1875 9.00625  14.3923828125 6.174609375  10.9763671875 6.1875  C 7.57109375 6.200390625  4.8125 8.9654296875  4.8125 12.375  L 4.8125 20.319921875  C 4.8125 20.483203125  4.696484375 20.620703125  4.5353515625 20.6529296875  C 3.9080078125 20.7818359375  3.4375 21.3361328125  3.4375 22  L 18.5625 22  Z M 8.59375 15.1830078125  L 12.1880859375 9.96875  L 11.7712890625 13.6919921875  L 13.40625 13.6919921875  L 9.8140625 18.90625  L 10.230859375 15.1830078125  L 8.59375 15.1830078125  Z M 11.6875 3.78125  C 11.6875 4.1615234375  11.3802734375 4.46875  11 4.46875  C 10.6197265625 4.46875  10.3125 4.1615234375  10.3125 3.78125  L 10.3125 0.6875  C 10.3125 0.3072265625  10.6197265625 0  11 0  C 11.3802734375 0  11.6875 0.3072265625  11.6875 0.6875  L 11.6875 3.78125  Z M 6.2669921875 5.42265625  C 6.4560546875 5.7513671875  6.3443359375 6.1703125  6.015625 6.3615234375  C 5.6869140625 6.5505859375  5.2658203125 6.4388671875  5.0767578125 6.11015625  L 3.5298828125 3.4310546875  C 3.3408203125 3.10234375  3.4525390625 2.68125  3.78125 2.4921875  C 4.1099609375 2.303125  4.5310546875 2.41484375  4.7201171875 2.7435546875  L 6.2669921875 5.42265625  Z M 15.7330078125 5.42265625  C 15.5439453125 5.7513671875  15.6556640625 6.1703125  15.984375 6.3615234375  C 16.3130859375 6.5505859375  16.7341796875 6.4388671875  16.9232421875 6.11015625  L 18.4701171875 3.4310546875  C 18.6591796875 3.10234375  18.5474609375 2.68125  18.21875 2.4921875  C 17.8900390625 2.303125  17.4689453125 2.41484375  17.2798828125 2.7435546875  L 15.7330078125 5.42265625  Z M 3.862890625 8.718359375  C 4.2302734375 8.8150390625  4.447265625 9.191015625  4.3505859375 9.5583984375  C 4.2517578125 9.92578125  3.87578125 10.1427734375  3.5083984375 10.0439453125  L 0.519921875 9.2447265625  C 0.1525390625 9.1458984375  -0.064453125 8.769921875  0.0322265625 8.4025390625  C 0.1310546875 8.03515625  0.50703125 7.8181640625  0.8744140625 7.9169921875  L 3.862890625 8.718359375  Z M 18.1349609375 8.7162109375  C 17.7697265625 8.8150390625  17.552734375 9.191015625  17.6494140625 9.5583984375  C 17.7482421875 9.92578125  18.12421875 10.1427734375  18.4916015625 10.0439453125  L 21.480078125 9.242578125  C 21.8474609375 9.14375  22.064453125 8.7677734375  21.965625 8.400390625  C 21.866796875 8.0330078125  21.4908203125 7.816015625  21.1234375 7.91484375  L 18.1349609375 8.7162109375  Z " fill-rule="nonzero" fill="#d9001b" stroke="none" transform="matrix(1 0 0 1 678 416 )" />
  </g>
</svg>