<?xml version="1.0" encoding="utf-8"?>
<svg version="1.1" xmlns:xlink="http://www.w3.org/1999/xlink" width="12px" height="12px" viewBox="1711 333  12 12" xmlns="http://www.w3.org/2000/svg">
  <path d="M 1717 333  C 1720.36 333  1723 335.64  1723 339  C 1723 342.36  1720.36 345  1717 345  C 1713.64 345  1711 342.36  1711 339  C 1711 335.64  1713.64 333  1717 333  Z " fill-rule="nonzero" fill="#f0f0f0" stroke="none" />
  <path d="M 1717 333.5  C 1720.08 333.5  1722.5 335.92  1722.5 339  C 1722.5 342.08  1720.08 344.5  1717 344.5  C 1713.92 344.5  1711.5 342.08  1711.5 339  C 1711.5 335.92  1713.92 333.5  1717 333.5  Z " stroke-width="1" stroke="#797979" fill="none" />
  <path d="M 1717 342  C 1715.32 342  1714 340.68  1714 339  C 1714 337.32  1715.32 336  1717 336  C 1718.68 336  1720 337.32  1720 339  C 1720 340.68  1718.68 342  1717 342  " fill-rule="nonzero" fill="#797979" stroke="none" />
</svg>