<?xml version="1.0" encoding="utf-8"?>
<svg version="1.1" xmlns:xlink="http://www.w3.org/1999/xlink" width="12px" height="12px" viewBox="1826 333  12 12" xmlns="http://www.w3.org/2000/svg">
  <path d="M 1832 333  C 1835.36 333  1838 335.64  1838 339  C 1838 342.36  1835.36 345  1832 345  C 1828.64 345  1826 342.36  1826 339  C 1826 335.64  1828.64 333  1832 333  Z " fill-rule="nonzero" fill="#ffffff" stroke="none" />
  <path d="M 1832 333.5  C 1835.08 333.5  1837.5 335.92  1837.5 339  C 1837.5 342.08  1835.08 344.5  1832 344.5  C 1828.92 344.5  1826.5 342.08  1826.5 339  C 1826.5 335.92  1828.92 333.5  1832 333.5  Z " stroke-width="1" stroke="#797979" fill="none" />
  <path d="M 1832 342  C 1830.32 342  1829 340.68  1829 339  C 1829 337.32  1830.32 336  1832 336  C 1833.68 336  1835 337.32  1835 339  C 1835 340.68  1833.68 342  1832 342  " fill-rule="nonzero" fill="#797979" stroke="none" />
</svg>