<?xml version="1.0" encoding="utf-8"?>
<svg version="1.1" xmlns:xlink="http://www.w3.org/1999/xlink" width="12px" height="12px" viewBox="1682 611  12 12" xmlns="http://www.w3.org/2000/svg">
  <path d="M 1688 611  C 1691.36 611  1694 613.64  1694 617  C 1694 620.36  1691.36 623  1688 623  C 1684.64 623  1682 620.36  1682 617  C 1682 613.64  1684.64 611  1688 611  Z " fill-rule="nonzero" fill="#ffffff" stroke="none" />
  <path d="M 1688 611.5  C 1691.08 611.5  1693.5 613.92  1693.5 617  C 1693.5 620.08  1691.08 622.5  1688 622.5  C 1684.92 622.5  1682.5 620.08  1682.5 617  C 1682.5 613.92  1684.92 611.5  1688 611.5  Z " stroke-width="1" stroke="#797979" fill="none" />
  <path d="M 1688 620  C 1686.32 620  1685 618.68  1685 617  C 1685 615.32  1686.32 614  1688 614  C 1689.68 614  1691 615.32  1691 617  C 1691 618.68  1689.68 620  1688 620  " fill-rule="nonzero" fill="#797979" stroke="none" />
</svg>