<?xml version="1.0" encoding="utf-8"?>
<svg version="1.1" xmlns:xlink="http://www.w3.org/1999/xlink" width="12px" height="12px" viewBox="1707 431  12 12" xmlns="http://www.w3.org/2000/svg">
  <path d="M 1713 431  C 1716.36 431  1719 433.64  1719 437  C 1719 440.36  1716.36 443  1713 443  C 1709.64 443  1707 440.36  1707 437  C 1707 433.64  1709.64 431  1713 431  Z " fill-rule="nonzero" fill="#f0f0f0" stroke="none" />
  <path d="M 1713 431.5  C 1716.08 431.5  1718.5 433.92  1718.5 437  C 1718.5 440.08  1716.08 442.5  1713 442.5  C 1709.92 442.5  1707.5 440.08  1707.5 437  C 1707.5 433.92  1709.92 431.5  1713 431.5  Z " stroke-width="1" stroke="#797979" fill="none" />
  <path d="M 1713 440  C 1711.32 440  1710 438.68  1710 437  C 1710 435.32  1711.32 434  1713 434  C 1714.68 434  1716 435.32  1716 437  C 1716 438.68  1714.68 440  1713 440  " fill-rule="nonzero" fill="#797979" stroke="none" />
</svg>