<?xml version="1.0" encoding="utf-8"?>
<svg version="1.1" xmlns:xlink="http://www.w3.org/1999/xlink" width="12px" height="12px" viewBox="1822 431  12 12" xmlns="http://www.w3.org/2000/svg">
  <path d="M 1828 431  C 1831.36 431  1834 433.64  1834 437  C 1834 440.36  1831.36 443  1828 443  C 1824.64 443  1822 440.36  1822 437  C 1822 433.64  1824.64 431  1828 431  Z " fill-rule="nonzero" fill="#f0f0f0" stroke="none" />
  <path d="M 1828 431.5  C 1831.08 431.5  1833.5 433.92  1833.5 437  C 1833.5 440.08  1831.08 442.5  1828 442.5  C 1824.92 442.5  1822.5 440.08  1822.5 437  C 1822.5 433.92  1824.92 431.5  1828 431.5  Z " stroke-width="1" stroke="#797979" fill="none" />
  <path d="M 1828 440  C 1826.32 440  1825 438.68  1825 437  C 1825 435.32  1826.32 434  1828 434  C 1829.68 434  1831 435.32  1831 437  C 1831 438.68  1829.68 440  1828 440  " fill-rule="nonzero" fill="#797979" stroke="none" />
</svg>