<?xml version="1.0" encoding="utf-8"?>
<svg version="1.1" xmlns:xlink="http://www.w3.org/1999/xlink" width="81px" height="65px" xmlns="http://www.w3.org/2000/svg">
  <g transform="matrix(1 0 0 1 -1040 -1659 )">
    <path d="M 1040 1659  L 1121 1659  L 1121 1724  L 1040 1724  L 1040 1659  " fill-rule="nonzero" fill="#cccccc" stroke="none" />
    <path d="M 1045 1664  L 1116 1664  L 1116 1719  L 1045 1719  L 1045 1664  " fill-rule="nonzero" fill="#ffffff" stroke="none" />
    <path d="M 1086.995 1678.5  C 1084.265 1678.5  1082.12 1676.355  1082.12 1673.625  C 1082.12 1670.895  1084.265 1668.75  1086.995 1668.75  C 1089.725 1668.75  1091.87 1670.895  1091.87 1673.625  C 1091.87 1676.355  1089.725 1678.5  1086.995 1678.5  " fill-rule="nonzero" fill="#cccccc" stroke="none" />
    <path d="M 1047 1718  L 1047 1689.4  L 1064 1676.4  L 1087.8 1692.96296296296  L 1101.4 1684.2  L 1115 1692.96296296296  L 1115 1718  L 1047 1718  " fill-rule="nonzero" fill="#169bd5" stroke="none" />
  </g>
</svg>