<?xml version="1.0" encoding="utf-8"?>
<svg version="1.1" xmlns:xlink="http://www.w3.org/1999/xlink" width="32px" height="32px" xmlns="http://www.w3.org/2000/svg">
  <g transform="matrix(1 0 0 1 -577 -1039 )">
    <path d="M 26.4375 20.4023361453602  C 27.0347222222222 18.9971879731776  27.3333333333333 17.5262816353017  27.3333333333333 15.9896171317326  C 27.3333333333333 13.7607614103396  26.7291666666667 11.718797317759  25.5208333333333 9.86372485399092  L 9.8125 25.5003244646334  C 11.7152777777778 26.7324248323599  13.7777777777778 27.3484750162232  16 27.3484750162232  C 17.5416666666667 27.3484750162232  19.0104166666667 27.0473718364698  20.40625 26.445165476963  C 21.8020833333333 25.8429591174562  23.0069444444444 25.0365563486913  24.0208333333333 24.0259571706684  C 25.0347222222222 23.0153579926455  25.8402777777778 21.8074843175427  26.4375 20.4023361453602  Z M 4.66666666666667 15.9896171317326  C 4.66666666666667 18.2323166774822  5.28472222222222 20.3019684187757  6.52083333333333 22.1985723556132  L 22.25 6.54120700843608  C 20.375 5.28141899199654  18.2916666666667 4.65152498377677  16 4.65152498377677  C 13.9444444444444 4.65152498377677  12.0486111111111 5.15682457278823  10.3125 6.16742375081116  C 8.57638888888889 7.17802292883409  7.20138888888889 8.5554834523037  6.1875 10.29980532122  C 5.17361111111111 12.0441271901363  4.66666666666667 13.9407311269738  4.66666666666667 15.9896171317326  Z M 30.7291666666667 9.77027903958469  C 31.5763888888889 11.7430240103829  32 13.8161367077655  32 15.9896171317326  C 32 18.1630975556998  31.5763888888889 20.2396712091715  30.7291666666667 22.219338092148  C 29.8819444444444 24.1990049751244  28.7465277777778 25.9017953709712  27.3229166666667 27.3277092796885  C 25.8993055555556 28.7536231884058  24.1979166666667 29.888816785637  22.21875 30.7332900713822  C 20.2395833333333 31.5777633571274  18.1666666666667 32  16 32  C 13.8333333333333 32  11.7604166666667 31.5777633571274  9.78125 30.7332900713822  C 7.80208333333333 29.888816785637  6.10069444444445 28.7536231884058  4.67708333333333 27.3277092796885  C 3.25347222222222 25.9017953709712  2.11805555555556 24.1990049751244  1.27083333333333 22.219338092148  C 0.423611111111111 20.2396712091715  0 18.1630975556998  0 15.9896171317326  C 0 13.8161367077655  0.423611111111111 11.7430240103829  1.27083333333333 9.77027903958469  C 2.11805555555556 7.7975340687865  3.25347222222222 6.09820462902877  4.67708333333333 4.67229072031149  C 6.10069444444445 3.2463768115942  7.80208333333333 2.11118321436296  9.78125 1.26670992861778  C 11.7604166666667 0.422236642872591  13.8333333333333 0  16 0  C 18.1666666666667 0  20.2395833333333 0.422236642872591  22.21875 1.26670992861778  C 24.1979166666667 2.11118321436296  25.8993055555556 3.2463768115942  27.3229166666667 4.67229072031149  C 28.7465277777778 6.09820462902877  29.8819444444444 7.7975340687865  30.7291666666667 9.77027903958469  Z " fill-rule="nonzero" fill="#aaaaaa" stroke="none" transform="matrix(1 0 0 1 577 1039 )" />
  </g>
</svg>