<?xml version="1.0" encoding="utf-8"?>
<svg version="1.1" xmlns:xlink="http://www.w3.org/1999/xlink" width="35px" height="32px" xmlns="http://www.w3.org/2000/svg">
  <g transform="matrix(1 0 0 1 -1045 -851 )">
    <path d="M 21.1388221153846 15.6041666666667  C 21.4052483974359 15.3402777777778  21.5384615384615 15.0277777777778  21.5384615384615 14.6666666666667  C 21.5384615384615 14.3055555555556  21.4052483974359 13.9930555555556  21.1388221153846 13.7291666666667  C 20.8723958333333 13.4652777777778  20.556891025641 13.3333333333333  20.1923076923077 13.3333333333333  L 14.8076923076923 13.3333333333333  C 14.443108974359 13.3333333333333  14.1276041666667 13.4652777777778  13.8611778846154 13.7291666666667  C 13.5947516025641 13.9930555555556  13.4615384615385 14.3055555555556  13.4615384615385 14.6666666666667  C 13.4615384615385 15.0277777777778  13.5947516025641 15.3402777777778  13.8611778846154 15.6041666666667  C 14.1276041666667 15.8680555555556  14.443108974359 16  14.8076923076923 16  L 20.1923076923077 16  C 20.556891025641 16  20.8723958333333 15.8680555555556  21.1388221153846 15.6041666666667  Z M 33.2542067307692 9.72916666666667  C 33.5206330128205 9.99305555555555  33.6538461538462 10.3055555555556  33 10.6666666666667  L 33 30.6666666666667  C 33.6538461538462 31.0277777777778  33.5206330128205 31.3402777777778  33.2542067307692 31.6041666666667  C 32.9877804487179 31.8680555555556  32.6722756410256 32  32.3076923076923 32  L 2.69230769230769 32  C 2.32772435897436 32  2.01221955128205 31.8680555555556  1.74579326923077 31.6041666666667  C 1.47936698717949 31.3402777777778  1.34615384615385 31.0277777777778  2 30.6666666666667  L 2 10.6666666666667  C 1.34615384615385 10.3055555555556  1.47936698717949 9.99305555555555  1.74579326923077 9.72916666666667  C 2.01221955128205 9.46527777777778  2.32772435897436 9.33333333333333  2.69230769230769 9.33333333333333  L 32.3076923076923 9.33333333333333  C 32.6722756410256 9.33333333333333  32.9877804487179 9.46527777777778  33.2542067307692 9.72916666666667  Z M 34.6003605769231 0.395833333333332  C 34.8667868589744 0.659722222222218  35 0.972222222222218  35 1.33333333333333  L 35 6.66666666666667  C 35 7.02777777777778  34.8667868589744 7.34027777777778  34.6003605769231 7.60416666666667  C 34.3339342948718 7.86805555555555  34.0184294871795 8  33.6538461538462 8  L 1.34615384615385 8  C 0.981570512820513 8  0.666065705128206 7.86805555555555  0.399639423076923 7.60416666666667  C 0.133213141025641 7.34027777777778  0 7.02777777777778  0 6.66666666666667  L 0 1.33333333333333  C 0 0.972222222222218  0.133213141025641 0.659722222222218  0.399639423076923 0.395833333333332  C 0.666065705128206 0.131944444444443  0.981570512820513 0  1.34615384615385 0  L 33.6538461538462 0  C 34.0184294871795 0  34.3339342948718 0.131944444444443  34.6003605769231 0.395833333333332  Z " fill-rule="nonzero" fill="#000000" stroke="none" transform="matrix(1 0 0 1 1045 851 )" />
  </g>
</svg>