<?xml version="1.0" encoding="utf-8"?>
<svg version="1.1" xmlns:xlink="http://www.w3.org/1999/xlink" width="29px" height="25px" xmlns="http://www.w3.org/2000/svg">
  <g transform="matrix(1 0 0 1 -108 -855 )">
    <path d="M 15.9292209965252 0.475171652400755  C 16.3520548031784 0.674231343822184  16.6950200020471 0.972820880954327  16.9581165931313 1.37094026379718  C 17.0144944340471 1.46573059297302  17.207118723771 1.79275722877096  17.535989462303 2.352020171191  C 17.864860200835 2.91128311361104  18.2782977008485 3.61747106643841  18.7763019623434 4.47058402967311  C 19.2743062238384 5.3236969929078  19.8333864795151 6.29055835113177  20.4535427293737 7.37116810434499  C 21.0736989792323 8.45177785755822  21.7126478429091 9.55608519322844  22.370389320404 10.6840901113557  C 23.028130797899 11.8120950294829  23.6811741218047 12.9306209144317  24.3295192921212 14.039667766202  C 24.9778644624377 15.1487146179723  25.5698317919461 16.1677106573191  26.1054212806465 17.0966558842423  C 26.6410107693468 18.0256011111655  27.1014298034209 18.8218398767425  27.4866783828687 19.4853721809733  C 27.8719269623165 20.1489044852042  28.1397217066667 20.6038980654874  28.2900626159192 20.8503529218228  C 28.5719518204983 21.3243045679194  28.7457834966195 21.7982562141246  28.8115576442828 22.2722078604386  C 28.8773317919461 22.7461595067525  28.8491428714882 23.1727159883699  28.7269908829091 23.5518773052906  C 28.60483889433 23.9310386222114  28.3887238375219 24.2391071921959  28.0786457124848 24.4760830152442  C 27.7685675874478 24.7130588382924  27.388017161266 24.8220677168555  26.9369944339394 24.8031096509334  C 26.7114830702761 24.8031096509334  26.2322714225993 24.7983701345072  25.4993594909091 24.7888911016549  C 24.7664475592189 24.7794120688025  23.8831947182761 24.7746725523763  22.8496009680808 24.7746725523763  L 19.3259859112727 24.7746725523763  L 15.3513481273535 24.7746725523763  C 13.9982799455892 24.7746725523763  12.6546080705724 24.7794120688025  11.320332502303 24.7888911016549  C 9.98605693403367 24.7983701345072  8.74574443399326 24.8031096509334  7.59939500218181 24.8031096509334  L 4.58318051361616 24.8031096509334  L 2.66633392258586 24.8031096509334  C 1.95221460439057 24.8031096509334  1.40253065556902 24.6798822229831  1.01728207612121 24.4334273670824  C 0.632033496673397 24.1869725111818  0.373635059178448 23.8694249082362  0.24208676363636 23.4807845582457  C 0.110538468094272 23.0921442082552  0.0964440078653157 22.6703272431727  0.199803382949491 22.2153336629983  C 0.303162758033667 21.7603400828238  0.486390741010097 21.3337836012065  0.749487331878784 20.9356642181463  C 0.881035627420871 20.7271254938725  1.13943406491582 20.3005690123638  1.52468264436363 19.6559947736203  C 1.90993122381144 19.0114205348768  2.37504841125925 18.229400318687  2.92003420670707 17.309934125051  C 3.46502000215488 16.3904679314149  4.06638363851851 15.3762114084943  4.72412511579798 14.2671645562892  C 5.38186659307744 13.1581177040841  6.04900437721212 12.0301127861743  6.72553846820202 10.8831498025597  C 7.40207255919192 9.73618681894515  8.05981403647138 8.62240045042255  8.6987629000404 7.54179069699194  C 9.33771176360942 6.46118094356132  9.91088647951515 5.4848405523763  10.4182870477576 4.61276952343687  C 10.925687616 3.74069849449744  11.3485214227609 3.02029199239152  11.6867884680404 2.45155001711911  L 12.2787557976566 1.45625156012065  C 12.5418523885252 1.03917411157306  12.8848175873939 0.72162650862749  13.3076513942626 0.503608751283939  C 13.7304852011313 0.285590993940388  14.167413468229 0.176582115268612  14.6184361955556 0.176582115268612  C 15.0694589228822 0.176582115268612  15.5063871898721 0.276111960979327  15.9292209965252 0.475171652400755  Z M 16.253393581899 14.4235685996576  L 16.253393581899 6.94461162272764  C 16.253393581899 6.71711483253173  16.2017138943569 6.50383659183175  16.0983545192727 6.3047769006277  C 15.9949951441886 6.10571720942366  15.8587486952727 5.92561558381566  15.6896151725252 5.7644720238037  C 15.5204816497778 5.60332846379175  15.3278573600539 5.47536151930654  15.1117423033535 5.38057119034809  C 14.8956272466532 5.28578086138964  14.6748140364714 5.23838569680172  14.4493026728081 5.23838569658433  C 14.0170725591919 5.23838569658433  13.6177295194074 5.40900828923127  13.2512735534545 5.75025347452515  C 12.8848175875017 6.09149865981903  12.7015896045253 6.48013900970082  12.7015896045253 6.91617452417054  L 12.7015896045253 14.3666944022173  C 12.7015896045253 14.802729916687  12.8848175875017 15.196109782995  13.2512735534545 15.5468340011413  C 13.6177295194074 15.8975582192875  14.0170725591919 16.0729203283606  14.4493026728081 16.0729203283606  C 14.9003254001347 16.0729203283606  15.3137629000404 15.9070372521399  15.6896151725252 15.5752710996984  C 16.0654674450101 15.2435049472569  16.253393581468 14.8596041139099  16.253393581899 14.4235685996576  Z M 15.6896151725252 18.2625769338877  C 15.3513481263838 17.9213317494633  14.9379106264781 17.7507091568164  14.4493026728081 17.7507091559469  C 13.9606947182761 17.7507091559469  13.5425590647811 17.9213317485938  13.1948957123232 18.2625769338877  C 12.8472323598653 18.6038221191815  12.6734006837441 19.0208995677291  12.6734006839596 19.5138092795304  C 12.6734006841751 20.0067189913318  12.8472323602963 20.4285359565229  13.1948957123232 20.7792601751039  C 13.5425590643502 21.1299843936849  13.9606947178451 21.3053465027581  14.4493026728081 21.3053465023233  C 14.937910627771 21.3053465018885  15.3513481276768 21.1299843928154  15.6896151725252 20.7792601751039  C 16.0278822173737 20.4285359573925  16.1970157401212 20.0067189922013  16.1970157407677 19.5138092795304  C 16.1970157414141 19.0208995668596  16.0278822186667 18.603822118312  15.6896151725252 18.2625769338877  Z " fill-rule="nonzero" fill="#000000" stroke="none" transform="matrix(1 0 0 1 108 855 )" />
  </g>
</svg>