<?xml version="1.0" encoding="utf-8"?>
<svg version="1.1" xmlns:xlink="http://www.w3.org/1999/xlink" width="12px" height="12px" xmlns="http://www.w3.org/2000/svg">
  <g transform="matrix(1 0 0 1 -475 -906 )">
    <path d="M 11.4093939375 10.5559090898437  L 6.86030302734375 6.00696969140625  L 11.4093939375 1.4580303046875  C 11.63909090625 1.2283333359375  11.63909090625 0.849848484375  11.4093939375 0.620151515625  L 11.384545453125 0.59530303125  C 11.154848484375 0.3656060625  10.7763636328125 0.3656060625  10.5466666640625 0.59530303125  L 5.99757575390625 5.1506060625  L 1.4486363671875 0.59530303125  C 1.2189393984375 0.3656060625  0.840454546875 0.3656060625  0.610757578125 0.59530303125  L 0.58590909375 0.620151515625  C 0.350151515625 0.849848484375  0.350151515625 1.2283333359375  0.58590909375 1.4580303046875  L 5.13500000390625 6.00712121484375  L 0.58590909375 10.5560606015625  C 0.35636363671875 10.7857575703125  0.35636363671875 11.164242421875  0.58590909375 11.393939390625  L 0.610757578125 11.418787875  C 0.840454546875 11.64848484375  1.2189393984375 11.64848484375  1.4486363671875 11.418787875  L 5.99757575390625 6.86969696484375  L 10.5466666640625 11.4186363632812  C 10.7763636328125 11.6483333320312  11.154848484375 11.6483333320312  11.384545453125 11.4186363632812  L 11.4093939375 11.3937878789063  C 11.63909090625 11.1640909101563  11.63909090625 10.7856060585937  11.4093939375 10.5559090898437  Z " fill-rule="nonzero" fill="#7f7f7f" stroke="none" transform="matrix(1 0 0 1 475 906 )" />
  </g>
</svg>