<?xml version="1.0" encoding="utf-8"?>
<svg version="1.1" xmlns:xlink="http://www.w3.org/1999/xlink" width="16px" height="16px" xmlns="http://www.w3.org/2000/svg">
  <defs>
    <mask fill="white" id="clip15">
      <path d="M 7.7109375 15.53125  C 11.917859375 15.53125  15.328125 12.120984375  15.328125 7.9140625  C 15.328125 3.70734375  11.917859375 0.296875  7.7109375 0.296875  C 3.50421875 0.296875  0.09375 3.70734375  0.09375 7.9140625  C 0.09375 12.120984375  3.50421875 15.53125  7.7109375 15.53125  Z M 14.319 7.9140625  C 14.319 11.55771875  11.35459375 14.522125  7.7109375 14.522125  C 4.06728125 14.522125  1.102875 11.557515625  1.102875 7.9140625  C 1.102875 4.27040625  4.067078125 1.306  7.7109375 1.306  C 11.35459375 1.306  14.319 4.27040625  14.319 7.9140625  Z " fill-rule="evenodd" />
    </mask>
  </defs>
  <g transform="matrix(1 0 0 1 -340 -33 )">
    <path d="M 7.7109375 15.53125  C 11.917859375 15.53125  15.328125 12.120984375  15.328125 7.9140625  C 15.328125 3.70734375  11.917859375 0.296875  7.7109375 0.296875  C 3.50421875 0.296875  0.09375 3.70734375  0.09375 7.9140625  C 0.09375 12.120984375  3.50421875 15.53125  7.7109375 15.53125  Z M 14.319 7.9140625  C 14.319 11.55771875  11.35459375 14.522125  7.7109375 14.522125  C 4.06728125 14.522125  1.102875 11.557515625  1.102875 7.9140625  C 1.102875 4.27040625  4.067078125 1.306  7.7109375 1.306  C 11.35459375 1.306  14.319 4.27040625  14.319 7.9140625  Z " fill-rule="nonzero" fill="#ffffff" stroke="none" transform="matrix(1 0 0 1 340 33 )" />
    <path d="M 7.7109375 15.53125  C 11.917859375 15.53125  15.328125 12.120984375  15.328125 7.9140625  C 15.328125 3.70734375  11.917859375 0.296875  7.7109375 0.296875  C 3.50421875 0.296875  0.09375 3.70734375  0.09375 7.9140625  C 0.09375 12.120984375  3.50421875 15.53125  7.7109375 15.53125  Z " stroke-width="2" stroke="#ffffff" fill="none" transform="matrix(1 0 0 1 340 33 )" mask="url(#clip15)" />
    <path d="M 14.319 7.9140625  C 14.319 11.55771875  11.35459375 14.522125  7.7109375 14.522125  C 4.06728125 14.522125  1.102875 11.557515625  1.102875 7.9140625  C 1.102875 4.27040625  4.067078125 1.306  7.7109375 1.306  C 11.35459375 1.306  14.319 4.27040625  14.319 7.9140625  Z " stroke-width="2" stroke="#ffffff" fill="none" transform="matrix(1 0 0 1 340 33 )" mask="url(#clip15)" />
  </g>
</svg>