<?xml version="1.0" encoding="utf-8"?>
<svg version="1.1" xmlns:xlink="http://www.w3.org/1999/xlink" width="8px" height="8px" xmlns="http://www.w3.org/2000/svg">
  <defs>
    <mask fill="white" id="clip14">
      <path d="M 7.041984375 3.82671875  C 7.041984375 5.712125  5.50859375 7.245515625  3.6231875 7.245515625  C 1.737984375 7.245515625  0.2041875 5.7113125  0.2041875 3.82671875  C 0.2041875 1.941515625  1.73778125 0.407515624999998  3.6231875 0.407515624999998  C 5.50778125 0.407515624999998  7.041984375 1.941109375  7.041984375 3.82671875  Z " fill-rule="evenodd" />
    </mask>
  </defs>
  <g transform="matrix(1 0 0 1 -344 -37 )">
    <path d="M 7.041984375 3.82671875  C 7.041984375 5.712125  5.50859375 7.245515625  3.6231875 7.245515625  C 1.737984375 7.245515625  0.2041875 5.7113125  0.2041875 3.82671875  C 0.2041875 1.941515625  1.73778125 0.407515624999998  3.6231875 0.407515624999998  C 5.50778125 0.407515624999998  7.041984375 1.941109375  7.041984375 3.82671875  Z " fill-rule="nonzero" fill="#ffffff" stroke="none" transform="matrix(1 0 0 1 344 37 )" />
    <path d="M 7.041984375 3.82671875  C 7.041984375 5.712125  5.50859375 7.245515625  3.6231875 7.245515625  C 1.737984375 7.245515625  0.2041875 5.7113125  0.2041875 3.82671875  C 0.2041875 1.941515625  1.73778125 0.407515624999998  3.6231875 0.407515624999998  C 5.50778125 0.407515624999998  7.041984375 1.941109375  7.041984375 3.82671875  Z " stroke-width="2" stroke="#ffffff" fill="none" transform="matrix(1 0 0 1 344 37 )" mask="url(#clip14)" />
  </g>
</svg>