<?xml version="1.0" encoding="utf-8"?>
<svg version="1.1" xmlns:xlink="http://www.w3.org/1999/xlink" width="7px" height="7px" xmlns="http://www.w3.org/2000/svg">
  <defs>
    <mask fill="white" id="clip18">
      <path d="M 0.905625 3.5  C 0.905625 4.98857998977831  2.11235751022169 6.1953125  3.6009375 6.1953125  C 5.08951748977831 6.1953125  6.29625 4.98857998977831  6.29625 3.5  C 6.29625 2.01142001022169  5.08951748977831 0.8046875  3.6009375 0.8046875  C 2.11235751022169 0.8046875  0.905625 2.01142001022169  0.905625 3.5  Z " fill-rule="evenodd" />
    </mask>
  </defs>
  <g transform="matrix(1 0 0 1 -300 -37 )">
    <path d="M 0.905625 3.5  C 0.905625 4.98857998977831  2.11235751022169 6.1953125  3.6009375 6.1953125  C 5.08951748977831 6.1953125  6.29625 4.98857998977831  6.29625 3.5  C 6.29625 2.01142001022169  5.08951748977831 0.8046875  3.6009375 0.8046875  C 2.11235751022169 0.8046875  0.905625 2.01142001022169  0.905625 3.5  Z " fill-rule="nonzero" fill="#ffffff" stroke="none" transform="matrix(1 0 0 1 300 37 )" />
    <path d="M 0.905625 3.5  C 0.905625 4.98857998977831  2.11235751022169 6.1953125  3.6009375 6.1953125  C 5.08951748977831 6.1953125  6.29625 4.98857998977831  6.29625 3.5  C 6.29625 2.01142001022169  5.08951748977831 0.8046875  3.6009375 0.8046875  C 2.11235751022169 0.8046875  0.905625 2.01142001022169  0.905625 3.5  Z " stroke-width="2" stroke="#ffffff" fill="none" transform="matrix(1 0 0 1 300 37 )" mask="url(#clip18)" />
  </g>
</svg>