<?xml version="1.0" encoding="utf-8"?>
<svg version="1.1" xmlns:xlink="http://www.w3.org/1999/xlink" width="37px" height="23px" xmlns="http://www.w3.org/2000/svg">
  <g transform="matrix(1 0 0 1 -81 -309 )">
    <path d="M 11.2541666666667 4.671875  C 11.9736111111111 5.23090277777778  12.3333333333333 5.90972222222222  12.3333333333333 6.70833333333333  C 12.3333333333333 7.50694444444444  11.9736111111111 8.18576388888889  11.2541666666667 8.74479166666667  C 10.5347222222222 9.30381944444445  9.66111111111111 9.58333333333333  8.63333333333333 9.58333333333333  C 7.60555555555556 9.58333333333333  6.73194444444445 9.30381944444445  6.0125 8.74479166666667  C 5.29305555555556 8.18576388888889  4.93333333333333 7.50694444444444  4.93333333333333 6.70833333333333  C 4.93333333333333 5.90972222222222  5.29305555555556 5.23090277777778  6.0125 4.671875  C 6.73194444444445 4.11284722222222  7.60555555555556 3.83333333333333  8.63333333333333 3.83333333333333  C 9.66111111111111 3.83333333333333  10.5347222222222 4.11284722222222  11.2541666666667 4.671875  Z M 24.05 6.22916666666667  L 32.0666666666667 12.4583333333333  L 32.0666666666667 19  L 4.93333333333333 19  L 4.93333333333333 16.2916666666667  L 11.1 11.5  L 14.1833333333333 13.8958333333333  L 24.05 6.22916666666667  Z M 34.3502604166667 2.05891927083333  C 34.2282118055556 1.96408420138889  34.0836805555556 1.91666666666667  33.9166666666667 2  L 3.08333333333333 2  C 2.91631944444444 1.91666666666667  2.77178819444444 1.96408420138889  2.64973958333333 2.05891927083333  C 2.52769097222222 2.15375434027778  2.46666666666667 2.26605902777778  3 2.39583333333333  L 3 20.6041666666667  C 2.46666666666667 20.7339409722222  2.52769097222222 20.8462456597222  2.64973958333333 20.9410807291667  C 2.77178819444444 21.0359157986111  2.91631944444444 21.0833333333333  3.08333333333333 21  L 33.9166666666667 21  C 34.0836805555556 21.0833333333333  34.2282118055556 21.0359157986111  34.3502604166667 20.9410807291667  C 34.4723090277778 20.8462456597222  34.5333333333333 20.7339409722222  34 20.6041666666667  L 34 2.39583333333333  C 34.5333333333333 2.26605902777778  34.4723090277778 2.15375434027778  34.3502604166667 2.05891927083333  Z M 36.0942708333333 0.703776041666668  C 36.6980902777778 1.17296006944444  37 1.73697916666667  37 2.39583333333333  L 37 20.6041666666667  C 37 21.2630208333333  36.6980902777778 21.8270399305556  36.0942708333333 22.2962239583333  C 35.4904513888889 22.7654079861111  34.7645833333333 23  33.9166666666667 23  L 3.08333333333333 23  C 2.23541666666667 23  1.50954861111111 22.7654079861111  0.905729166666667 22.2962239583333  C 0.301909722222222 21.8270399305556  0 21.2630208333333  0 20.6041666666667  L 0 2.39583333333333  C 0 1.73697916666667  0.301909722222222 1.17296006944444  0.905729166666667 0.703776041666668  C 1.50954861111111 0.234592013888887  2.23541666666667 0  3.08333333333333 0  L 33.9166666666667 0  C 34.7645833333333 0  35.4904513888889 0.234592013888887  36.0942708333333 0.703776041666668  Z " fill-rule="nonzero" fill="#02a7f0" stroke="none" transform="matrix(1 0 0 1 81 309 )" />
  </g>
</svg>