<?xml version="1.0" encoding="utf-8"?>
<svg version="1.1" xmlns:xlink="http://www.w3.org/1999/xlink" width="25px" height="21px" xmlns="http://www.w3.org/2000/svg">
  <g transform="matrix(1 0 0 1 -1095 -1582 )">
    <path d="M 9.04447115384615 17.7485795454545  C 9.42508012820513 18.1264204545455  9.61538461538462 18.5738636363636  9.61538461538462 19.0909090909091  C 9.61538461538462 19.6079545454545  9.42508012820513 20.0553977272727  9.04447115384615 20.4332386363636  C 8.66386217948718 20.8110795454545  8.21314102564103 21  7.69230769230769 21  C 7.17147435897436 21  6.72075320512821 20.8110795454545  6.34014423076923 20.4332386363636  C 5.95953525641026 20.0553977272727  5.76923076923077 19.6079545454545  5.76923076923077 19.0909090909091  C 5.76923076923077 18.5738636363636  5.95953525641026 18.1264204545455  6.34014423076923 17.7485795454545  C 6.72075320512821 17.3707386363636  7.17147435897436 17.1818181818182  7.69230769230769 17.1818181818182  C 8.21314102564103 17.1818181818182  8.66386217948718 17.3707386363636  9.04447115384615 17.7485795454545  Z M 22.5060096153846 17.7485795454545  C 22.8866185897436 18.1264204545455  23.0769230769231 18.5738636363636  23.0769230769231 19.0909090909091  C 23.0769230769231 19.6079545454545  22.8866185897436 20.0553977272727  22.5060096153846 20.4332386363636  C 22.1254006410256 20.8110795454545  21.6746794871795 21  21.1538461538462 21  C 20.6330128205128 21  20.1822916666667 20.8110795454545  19.8016826923077 20.4332386363636  C 19.4210737179487 20.0553977272727  19.2307692307692 19.6079545454545  19.2307692307692 19.0909090909091  C 19.2307692307692 18.5738636363636  19.4210737179487 18.1264204545455  19.8016826923077 17.7485795454545  C 20.1822916666667 17.3707386363636  20.6330128205128 17.1818181818182  21.1538461538462 17.1818181818182  C 21.6746794871795 17.1818181818182  22.1254006410256 17.3707386363636  22.5060096153846 17.7485795454545  Z M 24.7145432692308 2.19247159090909  C 24.9048477564103 2.38139204545454  25 2.60511363636363  25 2.86363636363636  L 25 10.5  C 25 10.7386363636364  24.9173677884615 10.9499289772727  24.7521033653846 11.1338778409091  C 24.5868389423077 11.3178267045455  24.3840144230769 11.4247159090909  24.1436298076923 11.4545454545455  L 8.45853365384615 13.2741477272727  C 8.58874198717949 13.8707386363636  8.65384615384615 14.21875  8.65384615384615 14.3181818181818  C 8.65384615384615 14.4772727272727  8.53365384615385 14.7954545454545  8.29326923076923 15  L 22.1153846153846 15  C 22.3758012820513 15.2727272727273  22.6011618589744 15.3671875  22.7914663461538 15.5561079545455  C 22.9817708333333 15.7450284090909  23.0769230769231 15.96875  23.0769230769231 16.2272727272727  C 23.0769230769231 16.4857954545455  22.9817708333333 16.7095170454545  22.7914663461538 16.8984375  C 22.6011618589744 17.0873579545455  22.3758012820513 17.1818181818182  22.1153846153846 17  L 6.73076923076923 17  C 6.47035256410256 17.1818181818182  6.24499198717949 17.0873579545455  6.0546875 16.8984375  C 5.86438301282051 16.7095170454545  5.76923076923077 16.4857954545455  5.76923076923077 16.2272727272727  C 5.76923076923077 16.1178977272727  5.80929487179487 15.9612926136364  5.88942307692308 15.7574573863636  C 5.96955128205128 15.5536221590909  6.04967948717949 15.3746448863636  6.12980769230769 15.2205255681818  C 6.2099358974359 15.06640625  6.31760817307692 14.8675426136364  6.45282451923077 14.6239346590909  C 6.58804086538462 14.3803267045454  6.66566506410256 14.2336647727273  6.68569711538462 14.1839488636364  L 4.02644230769231 1.90909090909091  L 0.961538461538462 1.90909090909091  C 0.701121794871795 1.90909090909091  0.475761217948718 1.81463068181818  0.285456730769231 1.62571022727273  C 0.0951522435897436 1.43678977272727  0 1.21306818181818  0 0.954545454545454  C 0 0.696022727272726  0.0951522435897436 0.472301136363633  0.285456730769231 0.283380681818183  C 0.475761217948718 0.0944602272727253  0.701121794871795 0  0.961538461538462 0  L 4.80769230769231 0  C 4.96794871794872 0  5.11067708333333 0.0323153409090895  5.23587740384615 0.0969460227272732  C 5.36107772435898 0.161576704545454  5.45873397435898 0.238636363636363  5.52884615384615 0.328125  C 5.59895833333333 0.417613636363637  5.6640625 0.53941761363636  5.72415865384615 0.693536931818183  C 5.78425480769231 0.847656249999998  5.82431891025641 0.976917613636363  5.84435096153846 1.08132102272727  C 5.86438301282051 1.18572443181818  5.89192708333333 1.33238636363636  5.92698317307692 1.52130681818182  C 5.96203926282051 1.71022727272727  5.98457532051282 1.83948863636363  5.99459134615385 2  L 24.0384615384615 2  C 24.2988782051282 1.90909090909091  24.5242387820513 2.00355113636363  24.7145432692308 2.19247159090909  Z " fill-rule="nonzero" fill="#000000" stroke="none" transform="matrix(1 0 0 1 1095 1582 )" />
  </g>
</svg>