<?xml version="1.0" encoding="utf-8"?>
<svg version="1.1" xmlns:xlink="http://www.w3.org/1999/xlink" width="13px" height="13px" xmlns="http://www.w3.org/2000/svg">
  <g transform="matrix(1 0 0 1 -1587 -1052 )">
    <path d="M 3.02625975869411 9.97159090909091  C 3.37071208895198 10.3162878787879  3.54293825408091 10.7348484848485  3.54293825408091 11.2272727272727  C 3.54293825408091 11.719696969697  3.37071208895198 12.1382575757576  3.02625975869411 12.4829545454545  C 2.68180742843624 12.8276515151515  2.26354388455169 13  1.77146912704045 13  C 1.27939436952922 13  0.861130825644665 12.8276515151515  0.516678495386799 12.4829545454545  C 0.172226165128933 12.1382575757576  0 11.719696969697  0 11.2272727272727  C 0 10.7348484848485  0.172226165128933 10.3162878787879  0.516678495386799 9.97159090909091  C 0.861130825644665 9.62689393939394  1.27939436952922 9.45454545454546  1.77146912704045 9.45454545454546  C 2.26354388455169 9.45454545454546  2.68180742843624 9.62689393939394  3.02625975869411 9.97159090909091  Z M 7.52413058907026 9.53764204545454  C 7.93931866572037 10.4363162878788  8.18689377809321 11.3780776515152  8.26685592618879 12.3629261363636  C 8.27915779512657 12.5352746212121  8.226874852141 12.6830018939394  8.11000709723208 12.8061079545455  C 7.99929027679205 12.9353693181818  7.85474331677313 13  7.6763662171753 13  L 6.43080198722498 13  C 6.27702862550272 13  6.14478353442158 12.94921875  6.03406671398155 12.84765625  C 5.92334989354152 12.74609375  5.86184054885261 12.6183712121212  5.84953867991483 12.4644886363636  C 5.71421812159924 11.0549242424242  5.1467944168441 9.85002367424243  4.1472675656494 8.84978693181818  C 3.1477407144547 7.84955018939394  1.94369529216939 7.28172348484848  0.535131298793471 7.14630681818182  C 0.381357937071209 7.13399621212121  0.253726046841732 7.07244318181818  0.152235628105039 6.96164772727273  C 0.0507452093683463 6.85085227272727  0 6.71851325757576  0 6.56463068181818  L 0 5.31818181818182  C 0 5.13967803030303  0.0645848119233499 4.99502840909091  0.19375443577005 4.88423295454546  C 0.298320321741188 4.7795928030303  0.430565412822333 4.72727272727273  0.590489709013485 4.72727272727273  L 0.636621717530163 4.72727272727273  C 1.62077123255264 4.80729166666667  2.56186420629288 5.05504261363636  3.45990063875089 5.47052556818182  C 4.3579370712089 5.88600852272727  5.15448308493021 6.44460227272727  5.84953867991483 7.14630681818182  C 6.55074520936835 7.84185606060606  7.10894251242016 8.6389678030303  7.52413058907026 9.53764204545454  Z M 11.8836053938964 7.75106534090909  C 12.5417553820677 9.22526041666666  12.9108114502011 10.7687026515152  12.9907735982967 12.3813920454545  C 13.0030754672344 12.5475852272727  12.9477170570144 12.6922348484848  12.8246983676366 12.8153409090909  C 12.7139815471966 12.938446969697  12.5725100544121 13  12.4002838892832 13  L 11.0809084457062 13  C 10.920984149515 13  10.7841258575822 12.9461410984848  10.6703335699077 12.8384232954545  C 10.5565412822333 12.7307054924242  10.4965696711616 12.5999053030303  10.4904187366927 12.4460227272727  C 10.416607523066 11.1226325757576  10.105985332387 9.86541193181818  9.55855216465578 8.67436079545454  C 9.01111899692453 7.48330965909091  8.29914833215046 6.44921875  7.42264017033357 5.57208806818182  C 6.54613200851668 4.69495738636364  5.51277501774308 3.98248106060606  4.32256919801277 3.43465909090909  C 3.13236337828247 2.88683712121212  1.87603501301159 2.57291666666666  0.553584102200142 2.49289772727273  C 0.39981074047788 2.48674242424242  0.269103383013958 2.42672821969697  0.161462029808375 2.31285511363636  C 0.0538206766027916 2.19898200757576  0 2.06510416666666  0 1.91122159090909  L 0 0.59090909090909  C 0 0.418560606060605  0.0615093446889047 0.276988636363637  0.184528034066714 0.166193181818182  C 0.295244854506742 0.0553977272727274  0.430565412822333 0  0.590489709013485 0  L 0.618168914123492 0  C 2.22971374497279 0.0800189393939373  3.77206056304708 0.44933712121212  5.24520936834635 1.10795454545455  C 6.71835817364561 1.76657196969697  8.02696948190206 2.67140151515151  9.17104329311568 3.82244318181818  C 10.3212680387982 4.96732954545454  11.2254554057251 6.27687026515151  11.8836053938964 7.75106534090909  Z " fill-rule="nonzero" fill="#aaaaaa" stroke="none" transform="matrix(1 0 0 1 1587 1052 )" />
  </g>
</svg>