<?xml version="1.0" encoding="utf-8"?>
<svg version="1.1" xmlns:xlink="http://www.w3.org/1999/xlink" width="20px" height="20px" xmlns="http://www.w3.org/2000/svg">
  <g transform="matrix(1 0 0 1 -397 -294 )">
    <path d="M 17 17.752  C 17.044 18.7  16.264 19.468  15.328 19.468  L 4.672 19.468  C 3.724 19.468  2.956 18.7  3 17.752  L 3 4.48  C 2.956 4.096  3.268 3.796  3.64 3.796  C 4.012 3.796  4.324 4.108  4.324 4.48  L 4.324 17.752  C 4.324 17.944  4.48 18.1  4.672 18  L 15.316 18  C 15.508 18.1  15.664 17.944  15.664 17.752  L 15.664 4.48  C 15.664 4.096  15.976 3.796  16.348 3.796  C 16.72 3.796  17.032 4.108  17 4.48  L 17 17.752  Z M 19.132 3.964  C 19.132 4.336  18.82 4.648  18.436 5  L 1.564 5  C 1.18 4.648  0.88 4.336  0.88 3.964  C 0.88 3.58  1.192 3.28  1.564 3.28  L 18.448 3.28  C 18.832 3.28  19.132 3.592  19.132 3.964  Z M 8.872 15.7  C 8.872 16.072  8.56 16.384  8.188 16.384  C 7.804 16.384  7.504 16.072  7.504 15.7  L 7.504 6.772  C 7.504 6.388  7.816 6.088  8.188 6.088  C 8.56 6.088  8.872 6.4  8.872 6.772  L 8.872 15.7  Z M 12.928 15.7  C 12.94 16.072  12.628 16.384  12.244 16.384  C 11.86 16.384  11.56 16.072  11.56 15.7  L 11.56 6.772  C 11.56 6.388  11.872 6.088  12.244 6.088  C 12.616 6.088  12.928 6.4  12.928 6.772  L 12.928 15.7  Z M 12.064 1.216  C 12.064 1.588  11.752 1.9  11.368 1.9  L 8.632 1.9  C 8.248 1.9  7.948 1.588  7.948 1.216  C 7.948 0.844  8.26 0.532  8.632 0.532  L 11.38 0.532  C 11.764 0.532  12.064 0.844  12.064 1.216  Z " fill-rule="nonzero" fill="#000000" stroke="none" transform="matrix(1 0 0 1 397 294 )" />
  </g>
</svg>