<?xml version="1.0" encoding="utf-8"?>
<svg version="1.1" xmlns:xlink="http://www.w3.org/1999/xlink" width="224px" height="29px" xmlns="http://www.w3.org/2000/svg">
  <defs>
    <mask fill="white" id="clip31">
      <path d="M 0 25  L 0 4  C 0 1.76000000000022  1.75999999999999 0  4 0  L 220 0  C 222.24 0  224 1.76000000000022  224 4  L 224 25  C 224 27.2399999999998  222.24 29  220 29  L 4 29  C 1.75999999999999 29  0 27.2399999999998  0 25  Z " fill-rule="evenodd" />
    </mask>
  </defs>
  <g transform="matrix(1 0 0 1 -831 -945 )">
    <path d="M 0 25  L 0 4  C 0 1.76000000000022  1.75999999999999 0  4 0  L 220 0  C 222.24 0  224 1.76000000000022  224 4  L 224 25  C 224 27.2399999999998  222.24 29  220 29  L 4 29  C 1.75999999999999 29  0 27.2399999999998  0 25  Z " fill-rule="nonzero" fill="#ffffff" stroke="none" transform="matrix(1 0 0 1 831 945 )" />
    <path d="M 0 25  L 0 4  C 0 1.76000000000022  1.75999999999999 0  4 0  L 220 0  C 222.24 0  224 1.76000000000022  224 4  L 224 25  C 224 27.2399999999998  222.24 29  220 29  L 4 29  C 1.75999999999999 29  0 27.2399999999998  0 25  Z " stroke-width="2" stroke="#797979" fill="none" transform="matrix(1 0 0 1 831 945 )" mask="url(#clip31)" />
  </g>
</svg>