<?xml version="1.0" encoding="utf-8"?>
<svg version="1.1" xmlns:xlink="http://www.w3.org/1999/xlink" width="22px" height="22px" xmlns="http://www.w3.org/2000/svg">
  <g transform="matrix(1 0 0 1 -468 -1316 )">
    <path d="M 21.2037513732031 6.88389663664062  C 21.3668983458594 5.83036270109375  20.6785499571875 5.43870696992187  20.0938575741406 6.0232551575  L 19.0345764160156 7.0826805115625  C 17.9054222107812 8.21183471679688  16.0686798096875 8.21183471679688  14.9395256042188 7.0826805115625  C 13.81037139875 5.95352630632813  13.8103713989844 4.11678390523438  14.9395256042188 2.98762969976563  C 14.9395256042188 2.98762969976563  15.4142791746875 2.51435928359375  15.9989509582812 1.92832794195313  C 16.583499145625 1.34365615859375  16.1933059692969 0.655328369140626  15.1397514342969 0.818434143359376  C 14.0671012878125 0.986071777578126  13.0358764648438 1.4802093509375  12.2109954832813 2.30517272960938  C 10.8964469909375 3.61974182140625  10.4200866696875 5.45807037359375  10.7747253417969 7.15391311648438  L 1.89174346929688 16.0383575440625  C 0.762692260859375 17.1659255982031  0.762692260859375 19.0027709960938  1.89174346929688 20.1319046021094  C 3.0208770753125 21.2609558105469  4.857763671875 21.2609558105469  5.98531112679687 20.1319046021094  L 14.8697555541406 11.2474601745312  C 16.5655570983594 11.6020164490625  18.4024436949219 11.1257797240625  19.7169921875 9.81271438601562  C 20.5419967650781 8.9878334046875  21.0375762938281 7.95658798226562  21.2037513732031 6.88389663664062  Z M 4.62025299078125 17.4017883300781  C 4.99868392953125 17.7787361145312  4.99868392953125 18.3900222778906  4.62025299078125 18.7668464660938  C 4.24342880257812 19.14369125375  3.63218383789062 19.14369125375  3.25533905023437 18.7668464660938  C 2.87849426257812 18.3900222778906  2.87849426257812 17.7802192688281  3.25533905023437 17.4017883300781  C 3.6321632384375 17.024964141875  4.2419662475 17.024964141875  4.62025299078125 17.4017883300781  Z M 3.65591430664063 6.19985351539063  L 7.00013885492188 9.54564361578125  L 8.3651969909375 8.1805648803125  L 5.02089004507812 4.8348777771875  L 4.27160873421875 3.40305709835937  L 1.88290634164062 1.6968116759375  L 0.51786880484375 3.06176681515625  L 2.22411422726563 5.45057220453125  L 3.65593490609375 6.19985351539063  Z M 19.6784301757812 18.1273803710938  L 14.8489501953125 13.2979209900781  C 14.6605895996094 13.109436798125  14.3549568176562 13.109436798125  14.1664726257031 13.2979209900781  L 12.1189575195313 15.3454154967969  C 11.9306175232812 15.53389968875  11.9306175232812 15.8395530701562  12.1189575195313 16.0278930664063  L 16.9484375 20.8574142455469  C 17.7022300721094 21.6097030639063  18.926223755 21.6097030639063  19.6784301757812 20.8574142455469  C 20.4322433471094 20.1051666258594  20.4322433471094 18.8810699459375  19.6784301757812 18.1273803710938  Z " fill-rule="nonzero" fill="#000000" stroke="none" transform="matrix(1 0 0 1 468 1316 )" />
  </g>
</svg>