<?xml version="1.0" encoding="utf-8"?>
<svg version="1.1" xmlns:xlink="http://www.w3.org/1999/xlink" width="20px" height="20px" xmlns="http://www.w3.org/2000/svg">
  <g transform="matrix(1 0 0 1 -788 -1314 )">
    <path d="M 18.0053125 7.165234375  L 18.0053125 7.16734375  C 18.821640625 7.16734375  19.483984375 7.8296875  19.483984375 8.646015625  L 19.483984375 18.4984375  C 19.483984375 19.314765625  18.821640625 19.977109375  18.0053125 19.977109375  L 16.035625 19.977109375  C 15.219296875 19.977109375  14.55671875 19.314765625  14.55671875 18.4984375  L 14.55671875 8.644140625  C 14.55671875 7.8278125  15.2190625 7.165234375  16.035625 7.165234375  L 18.0053125 7.165234375  Z M 4.211171875 9.134921875  L 4.211171875 9.13703125  C 5.0275 9.13703125  5.68984375 9.799375  5.68984375 10.615703125  L 5.68984375 18.4965625  C 5.68984375 19.312890625  5.0275 19.97546875  4.211171875 19.97546875  L 2.241484375 19.97546875  C 1.42515625 19.97546875  0.762812499999999 19.313125  0.762812499999999 18.4965625  L 0.762812499999999 10.613828125  C 0.762812499999999 9.7975  1.42515625 9.134921875  2.241484375 9.134921875  L 4.211171875 9.134921875  Z M 9.1384375 11.10671875  L 11.108125 11.10671875  C 11.924453125 11.10671875  12.586796875 11.7690625  12.586796875 12.585390625  L 12.586796875 18.4965625  C 12.586796875 19.312890625  11.924453125 19.97546875  11.108125 19.97546875  L 9.1384375 19.97546875  C 8.322109375 19.97546875  7.65953125 19.313125  7.65953125 18.4965625  L 7.65953125 12.585390625  C 7.65953125 11.7690625  8.321875 11.10671875  9.1384375 11.10671875  Z M 9.958984375 7.76125  L 16.208828125 1.51328125  L 15.045625 1.521015625  C 14.63828125 1.523125  14.305234375 1.195703125  14.301484375 0.786484375000001  C 14.2975 0.381250000000001  14.626796875 0.0482031250000006  15.034140625 0.0442187500000002  L 17.99921875 0.0226562500000003  C 18.190234375 0.0207812500000002  18.38125 0.0929687500000003  18.527265625 0.238984375  C 18.599453125 0.311171875  18.653828125 0.394843750000001  18.688984375 0.4825  C 18.72203125 0.5603125  18.74359375 0.6578125  18.74359375 0.761171875  L 18.74359375 3.73046875  C 18.74359375 4.1378125  18.412421875 4.468984375  18.0053125 4.468984375  C 17.598203125 4.468984375  17.266796875 4.1378125  17.266796875 3.73046875  L 17.266796875 2.5459375  L 10.64640625 9.16609375  C 10.430078125 9.382421875  10.102890625 9.442890625  9.82421875 9.31796875  L 0.955703125 5.37859375  C 0.583515625 5.212890625  0.4140625 4.776484375  0.579765625 4.402421875  C 0.745234375 4.030234375  1.181875 3.86078125  1.5559375 4.026484375  L 9.958984375 7.76125  Z " fill-rule="nonzero" fill="#040000" stroke="none" transform="matrix(1 0 0 1 788 1314 )" />
  </g>
</svg>