<?xml version="1.0" encoding="utf-8"?>
<svg version="1.1" xmlns:xlink="http://www.w3.org/1999/xlink" width="22px" height="22px" xmlns="http://www.w3.org/2000/svg">
  <g transform="matrix(1 0 0 1 -470 -1508 )">
    <path d="M 17.509765625 13.40625  L 17.53125 13.40625  L 17.509765625 13.40625  Z M 21.3125 20.625  C 21.6927734375 20.625  22 20.9322265625  22 21.3125  C 22 21.6927734375  21.6927734375 22  21.3125 22  L 5.1626953125 22  L 5.1626953125 21.987109375  L 5.15625 22  L 5.134765625 22  C 4.3634765625 22  3.63515625 21.69921875  3.080859375 21.1513671875  C 2.522265625 20.594921875  2.212890625 19.86015625  2.212890625 19.078125  C 2.212890625 18.29609375  2.522265625 17.561328125  3.080859375 17.0048828125  C 3.639453125 16.4505859375  4.3763671875 16.1498046875  5.15625 16  L 17.509765625 16  C 17.8814453125 16.15625  18.197265625 15.8404296875  18.197265625 15.46875  C 18.197265625 15.094921875  17.8814453125 14.78125  17.509765625 14.78125  L 9.28125 14.78125  L 10.3125 13.40625  L 17.53125 13.40625  C 18.6591796875 13.4169921875  19.572265625 14.338671875  19.572265625 15.46875  C 19.572265625 16.598828125  18.6591796875 17.5205078125  17.53125 17.53125  L 5.134765625 17.53125  C 4.7287109375 17.53125  4.3419921875 17.690234375  4.0498046875 17.982421875  C 3.7533203125 18.2767578125  3.587890625 18.665625  3.587890625 19.078125  C 3.587890625 19.490625  3.751171875 19.8794921875  4.0498046875 20.173828125  C 4.344140625 20.466015625  4.7287109375 20.625  5.134765625 20.625  L 5.1498046875 20.625  L 5.15625 20.637890625  L 5.15625 20.625  L 21.3125 20.625  Z M 5.1626953125 21.987109375  L 5.1626953125 22  L 5.15625 22  L 5.1626953125 21.987109375  Z M 17.509765625 17.53125  L 17.53125 17.53125  L 17.509765625 17.53125  Z M 12.375 6.191796875  C 12.375 2.7779296875  9.6078125 0.00859375  6.1939453125 0.00859375  C 2.7822265625 0.00859375  0.0150390625 2.7779296875  0.0150390625 6.1896484375  C 0.0150390625 7.5453125  0.4533203125 8.8  1.1966796875 9.8248046875  L 6.1939453125 16.534375  L 11.07734375 9.9751953125  C 11.8873046875 8.9267578125  12.375 7.6205078125  12.375 6.191796875  Z M 7.90625 6.269140625  C 7.90625 7.2166015625  7.1349609375 7.987890625  6.1875 7.987890625  C 5.2400390625 7.987890625  4.46875 7.2166015625  4.46875 6.269140625  C 4.46875 5.3216796875  5.2400390625 4.550390625  6.1875 4.550390625  C 7.1349609375 4.550390625  7.90625 5.3216796875  7.90625 6.269140625  Z " fill-rule="nonzero" fill="#000000" stroke="none" transform="matrix(1 0 0 1 470 1508 )" />
  </g>
</svg>