<?xml version="1.0" encoding="utf-8"?>
<svg version="1.1" xmlns:xlink="http://www.w3.org/1999/xlink" width="20px" height="20px" xmlns="http://www.w3.org/2000/svg">
  <g transform="matrix(1 0 0 1 -1281 -5680 )">
    <path d="M 17.9166666666667 7.36111112141927  L 16.2013888785807 5.64583333333333  L 12.2430555452474 9.60416666666667  L 10.3958333333333 7.7569444547526  L 14.3541666666667 3.79861112141927  L 12.6388888785807 2.08333333333333  L 11.3194444547526 0.76388887858073  L 19.2361111214193 0.76388887858073  L 19.2361111214193 8.6805555452474  L 17.9166666666667 7.36111112141927  Z M 17.9166666666667 2.08333333333333  L 14.4861111214193 2.08333333333333  L 17.9166666666667 2.08333333333333  L 17.9166666666667 5.51388887858073  L 17.9166666666667 2.08333333333333  Z M 11.3194444547526 3.40277778808594  L 3.40277778808594 3.40277778808594  L 3.40277778808594 16.5972222119141  L 16.5972222119141 16.5972222119141  L 16.5972222119141 8.6805555452474  L 19.2361111214193 11.3194444547526  L 19.2361111214193 19  L 1 19  L 1 0.76388887858073  L 8.6805555452474 0.76388887858073  L 11.3194444547526 3.40277778808594  Z " fill-rule="nonzero" fill="#02a7f0" stroke="none" transform="matrix(1 0 0 1 1281 5680 )" />
  </g>
</svg>