<?xml version="1.0" encoding="utf-8"?>
<svg version="1.1" xmlns:xlink="http://www.w3.org/1999/xlink" width="26px" height="21px" xmlns="http://www.w3.org/2000/svg">
  <g transform="matrix(1 0 0 1 -312 -237 )">
    <path d="M 12.1255605381166 15.75  L 12.9417040358744 15.75  L 14.6322869955157 14.0198863636364  L 12.4170403587444 11.7528409090909  L 10.7264573991031 13.4829545454545  L 10.7264573991031 14.3181818181818  L 12.1255605381166 14.3181818181818  L 12.1255605381166 15.75  Z M 19.3396860986547 5.50355113636364  C 19.5048579970105 5.33451704545454  19.5097159940209 5.17045454545454  19.3542600896861 5.01136363636364  C 19.1988041853513 4.85227272727272  19.038490284006 4.85724431818182  18.8733183856502 5.02627840909091  L 13.7724215246637 10.2464488636364  C 13.6072496263079 10.4154829545455  13.6023916292975 10.5795454545455  13.7578475336323 10.7386363636364  C 13.9133034379671 10.8977272727273  14.0736173393124 10.8927556818182  14.2387892376682 10.7237215909091  L 19.3396860986547 5.50355113636364  Z M 20.2286995515695 13.4382102272727  C 20.423019431988 13.5177556818182  20.5201793721973 13.6619318181818  20.5201793721973 13.8707386363636  L 20.5201793721973 16.7045454545455  C 20.5201793721973 17.8877840909091  20.1096786248132 18.8995028409091  19.2886771300448 19.7397017045455  C 18.4676756352765 20.5799005681818  17.4790732436472 21  16.322869955157 21  L 4.19730941704036 21  C 3.04110612855008 21  2.05250373692078 20.5799005681818  1.23150224215247 19.7397017045455  C 0.410500747384155 18.8995028409091  0 17.8877840909091  0 16.7045454545455  L 0 4.29545454545455  C 0 3.11221590909091  0.410500747384155 2.10049715909091  1.23150224215247 1.26029829545455  C 2.05250373692078 0.42009943181818  3.04110612855008 0  4.19730941704036 0  L 16.322869955157 0  C 16.9349775784753 0  17.5033632286996 0.124289772727272  18.0280269058296 0.372869318181817  C 18.1737668161435 0.442471590909089  18.2612107623318 0.556818181818181  18.2903587443946 0.71590909090909  C 18.3195067264574 0.884943181818181  18.2757847533632 1.02911931818182  18.1591928251121 1.1484375  L 17.445067264574 1.87926136363636  C 17.309043348281 2.01846590909091  17.1535874439462 2.05823863636364  16.9786995515695 1.99857954545455  C 16.7552316890882 1.93892045454545  16.5366218236173 1.90909090909091  16.322869955157 2  L 4.19730941704036 2  C 3.55605381165919 1.90909090909091  3.00710014947683 2.14275568181818  2.55044843049327 2.61008522727273  C 2.09379671150972 3.07741477272727  1.86547085201794 3.63920454545455  2 4.29545454545455  L 2 16.7045454545455  C 1.86547085201794 17.3607954545455  2.09379671150972 17.9225852272727  2.55044843049327 18.3899147727273  C 3.00710014947683 18.8572443181818  3.55605381165919 19.0909090909091  4.19730941704036 19  L 16.322869955157 19  C 16.9641255605381 19.0909090909091  17.5130792227205 18.8572443181818  17.969730941704 18.3899147727273  C 18.4263826606876 17.9225852272727  18.6547085201794 17.3607954545455  18.6547085201794 16.7045454545455  L 18.6547085201794 14.8252840909091  C 18.6547085201794 14.6960227272727  18.6984304932735 14.5866477272727  18.7858744394619 14.4971590909091  L 19.7186098654709 13.5426136363636  C 19.8643497757848 13.3934659090909  20.034379671151 13.3586647727273  20.2286995515695 13.4382102272727  Z M 9.32735426008969 12.8863636363636  L 19.1210762331839 2.86363636363636  L 23.3183856502242 7.15909090909091  L 13.52466367713 17.1818181818182  L 9.32735426008969 17.1818181818182  L 9.32735426008969 12.8863636363636  Z M 26 3.81818181818182  C 26 4.21590909090909  25.863976083707 4.55397727272727  25.5919282511211 4.83238636363636  L 24.2511210762332 6.20454545454545  L 20.0538116591928 1.90909090909091  L 21.3946188340807 0.536931818181817  C 21.6666666666667 0.258522727272725  21.9970104633782 0.119318181818183  22.3856502242152 0.119318181818183  C 22.7742899850523 0.119318181818183  23.1046337817638 0.258522727272725  23.3766816143498 0.536931818181817  L 25.5919282511211 2.80397727272727  C 25.863976083707 3.08238636363636  26 3.42045454545454  26 3.81818181818182  Z " fill-rule="nonzero" fill="#000000" stroke="none" transform="matrix(1 0 0 1 312 237 )" />
  </g>
</svg>