<?xml version="1.0" encoding="utf-8"?>
<svg version="1.1" xmlns:xlink="http://www.w3.org/1999/xlink" width="30px" height="40px" xmlns="http://www.w3.org/2000/svg">
  <g transform="matrix(1 0 0 1 -427 -191 )">
    <path d="M 29.8493867691176 15.0821726118421  C 29.8493867691176 25.0424123837719  16.6316552607353 39.6713096328947  15.0091193744118 39.6713096328947  C 13.4107676051471 39.6713096328947  0.168851980147058 25.0424123837719  0.168851980147058 15.0821726118421  C 0.168896667801018 6.93408079735378  6.81309760817227 0.328770847862084  15.0091193746324 0.328770847862084  C 23.2051727401396 0.328770847862084  29.8493867693382 6.93412982425841  29.8493867693382 15.0822530531252  Z M 23.2537123888235 15.9018104899123  C 23.2537123888235 11.3750753532363  19.5624823648329 7.70543146973684  15.0091193744118 7.70543146973684  C 10.4557563839907 7.70543146973684  6.76452636 11.3750753532363  6.76452636 15.9018104899123  C 6.76452636 20.4285456265882  10.4557563839907 24.0981895100877  15.0091193744118 24.0981895100877  C 19.5624823648329 24.0981895100877  23.2537123888235 20.4285456265882  23.2537123888235 15.9018104899123  Z M 19.9558751594118 15.9018104899123  C 19.9558751594118 18.6178515697136  17.7411371468148 20.8196378980263  15.0091193547794 20.8196378980263  C 12.277101562744 20.8196378980263  10.0623635501471 18.6178515697136  10.0623635501471 15.9018104899123  C 10.0623635501471 13.185769410111  12.277101562744 10.9839830817982  15.0091193547794 10.9839830817982  C 17.7411371468148 10.9839830817982  19.9558751594118 13.185769410111  19.9558751594118 15.9018104899123  Z " fill-rule="nonzero" fill="#555555" stroke="none" transform="matrix(1 0 0 1 427 191 )" />
  </g>
</svg>