<?xml version="1.0" encoding="utf-8"?>
<svg version="1.1" xmlns:xlink="http://www.w3.org/1999/xlink" width="198px" height="32px" xmlns="http://www.w3.org/2000/svg">
  <g transform="matrix(1 0 0 1 -1122.5 -342.5 )">
    <path d="M 0 28  C 29.25 18.2914424395906  34.0707732634338 18.1880341880342  34.0707732634338 18.1880341880342  C 34.0707732634338 18.1880341880342  47.5465268676278 18.4273504273504  53.1402359108781 16.5128205128205  C 58.7339449541284 14.5982905982906  65.6926605504587 14.2880658436214  71.1926605504587 14.8376068376068  C 76.6926605504587 15.3871478315923  78.9056356487549 13.3337554078295  83.9056356487549 10.7692307692308  C 88.9056356487549 8.20470613063206  91.3558322411534 9.46037775667406  95.8558322411533 9.09401709401709  C 100.355832241153 8.72765643136013  99.75 3.8201962646407  107.25 3.45383560198375  C 114.75 3.08747493932679  116.379750982962 7.85016355386726  127.129750982962 8.3997045478527  C 137.879750982962 8.94924554183814  131.957732634338 4.9133692096655  146.707732634338 4.54700854700855  C 161.457732634338 4.18064788435158  157.132372214941 -0.239316239316239  164.5 0.156589638071122  C 171.867627785059 0.552495515458483  171.434796854522 3.94133164503536  175.184796854522 4.30769230769231  C 178.934796854522 4.67405297034927  179.507208387942 8.69220217368366  184.083879423329 9.09401709401709  C 188.660550458716 9.49583201435047  194 8.03334388519574  194 8.03334388519574  " stroke-width="3" stroke="#3399cc" fill="none" transform="matrix(1 0 0 1 1124 344 )" />
  </g>
</svg>