<?xml version="1.0" encoding="utf-8"?>
<svg version="1.1" xmlns:xlink="http://www.w3.org/1999/xlink" width="3px" height="3px" xmlns="http://www.w3.org/2000/svg">
  <g transform="matrix(1 0 0 1 -394 -327 )">
    <path d="M 0.260203125 2.9750078125  C 0.3982734375 2.9750078125  0.510203125 2.8630859375  0.510203125 2.725015625  L 0.510203125 0.501625  C 0.510203125 0.3635546875  0.3982734375 0.251625  0.260203125 0.251625  C 0.1221328125 0.251625  0.0102031249999999 0.3635546875  0.0102031249999999 0.501625  L 0.0102031249999999 2.7250078125  C 0.0102031249999999 2.863078125  0.1221328125 2.9750078125  0.260203125 2.9750078125  Z M 1.7565625 2.9750078125  C 1.8946328125 2.9750078125  2.0065625 2.8630859375  2.0065625 2.725015625  L 2.0065625 0.501625  C 2.0065625 0.3635546875  1.8946328125 0.251625  1.7565625 0.251625  C 1.6184921875 0.251625  1.5065625 0.3635546875  1.5065625 0.501625  L 1.5065625 2.7250078125  C 1.5065625 2.863078125  1.6184921875 2.9750078125  1.7565625 2.9750078125  Z " fill-rule="nonzero" fill="#333333" stroke="none" transform="matrix(1 0 0 1 394 327 )" />
  </g>
</svg>