<?xml version="1.0" encoding="utf-8"?>
<svg version="1.1" xmlns:xlink="http://www.w3.org/1999/xlink" width="13px" height="9px" xmlns="http://www.w3.org/2000/svg">
  <g transform="matrix(1 0 0 1 -584 -1039 )">
    <path d="M 1.83014470880682 3.59130031779661  C 2.85875355113636 4.61172537076271  3.87726384943182 5.64406779661017  4.93184037642046 6.70322431144068  C 5.19151722301136 6.46040783898305  5.39637340198864 6.2771782309322  5.59113103693182 6.08352092161017  C 7.45503373579546 4.23036943855932  9.32182173295454 2.37870762711864  11.1785111860795 0.519597457627118  C 11.6286177201705 0.0697166313559317  12.0989213423295 -0.156713453389831  12.6500133167614 0.314022775423728  C 13.1116610440341 0.707296080508474  13.0424138849432 1.25549523305085  12.4682395241477 1.8290188029661  C 10.2681995738636 4.02777409957627  8.06094637784091 6.22503972457627  5.85225053267046 8.41783633474576  C 5.15977894176136 9.1045749470339  4.78324751420454 9.10904396186441  4.103759765625 8.4401814088983  C 2.90491832386364 7.25738215042373  1.71906072443182 6.05968617584746  0.518776633522728 4.87837658898305  C 0.0657848011363636 4.43296477754237  -0.163596413352273 3.96371822033898  0.308149857954545 3.41402939618644  C 0.703435724431818 2.95372086864407  1.25452769886364 3.0207560911017  1.83014470880682 3.59130031779661  Z " fill-rule="nonzero" fill="#ffffff" stroke="none" transform="matrix(1 0 0 1 584 1039 )" />
  </g>
</svg>