<?xml version="1.0" encoding="utf-8"?>
<svg version="1.1" xmlns:xlink="http://www.w3.org/1999/xlink" width="517px" height="223px" xmlns="http://www.w3.org/2000/svg">
  <g transform="matrix(1 0 0 1 -222.5 -466.5 )">
    <path d="M 0 219  C 77.3466494845361 147.351851851852  107.756443298969 177.092592592593  107.756443298969 177.092592592593  C 107.756443298969 177.092592592593  140.810567010309 233.87037037037  146.760309278351 155.462962962963  C 152.710051546392 77.0555555555556  165.270618556701 70.2962962962963  179.814432989691 74.3518518518518  C 194.35824742268 78.4074074074074  208.90206185567 70.2962962962963  222.123711340206 51.3703703703704  C 235.345360824742 32.4444444444444  244.600515463918 31.0925925925926  256.5 28.3888888888889  C 268.399484536082 25.6851851851852  263.771907216495 40.5555555555556  283.604381443299 37.8518518518518  C 303.436855670103 35.1481481481481  292.859536082474 13.5185185185185  321.286082474227 17.5740740740741  C 349.712628865979 21.6296296296296  336.490979381443 35.1481481481481  375.494845360825 32.4444444444444  C 414.498711340206 29.7407407407407  392.021907216495 -24.3333333333333  434.992268041237 13.5185185185185  C 477.962628865979 51.3703703703704  466.724226804124 56.7777777777778  476.640463917526 59.4814814814815  C 486.556701030928 62.1851851851852  507.711340206186 25.6851851851852  509.694587628866 51.3703703703704  C 511.677835051546 77.0555555555556  513 71.6481481481482  513 71.6481481481482  " stroke-width="3" stroke="#6a708c" fill="none" transform="matrix(1 0 0 1 224 468 )" />
  </g>
</svg>