<?xml version="1.0" encoding="utf-8"?>
<svg version="1.1" xmlns:xlink="http://www.w3.org/1999/xlink" width="13px" height="17px" xmlns="http://www.w3.org/2000/svg">
  <g transform="matrix(1 0 0 1 -42 -544 )">
    <path d="M 12.9347342666176 6.40992336003289  C 12.9347342666176 10.6430252631031  7.20705061298529 16.8603065939803  6.50395172891176 16.8603065939803  C 5.81133262889706 16.8603065939803  0.0731691913970586 10.6430252631031  0.0731691913970586 6.40992336003289  C 0.073188556047108 2.94698433887536  2.95234229687465 0.139727610341386  6.50395172900735 0.139727610341386  C 10.0555748540605 0.139727610341386  12.9347342667132 2.94700517530983  12.9347342667132 6.40995754757823  Z M 10.0766087018235 6.75826945821272  C 10.0766087018235 4.83440702512544  8.47707569142758 3.27480837463816  6.50395172891176 3.27480837463816  C 4.53082776639595 3.27480837463816  2.931294756 4.83440702512544  2.931294756 6.75826945821272  C 2.931294756 8.6821318913  4.53082776639595 10.2417305417873  6.50395172891176 10.2417305417873  C 8.47707569142758 10.2417305417873  10.0766087018235 8.6821318913  10.0766087018235 6.75826945821272  Z M 8.64754590241176 6.75826945821272  C 8.64754590241176 7.91258691712826  7.68782609695309 8.84834610666118  6.50395172040441 8.84834610666118  C 5.32007734385573 8.84834610666118  4.36035753839706 7.91258691712826  4.36035753839706 6.75826945821272  C 4.36035753839706 5.60395199929717  5.32007734385573 4.66819280976425  6.50395172040441 4.66819280976425  C 7.68782609695309 4.66819280976425  8.64754590241176 5.60395199929717  8.64754590241176 6.75826945821272  Z " fill-rule="nonzero" fill="#000000" stroke="none" transform="matrix(1 0 0 1 42 544 )" />
  </g>
</svg>