<?xml version="1.0" encoding="utf-8"?>
<svg version="1.1" xmlns:xlink="http://www.w3.org/1999/xlink" width="18px" height="16px" xmlns="http://www.w3.org/2000/svg">
  <g transform="matrix(1 0 0 1 -43 -879 )">
    <path d="M 18 5.46875  C 18 2.828515625  15.858984375 0.6875  13.21875 0.6875  C 11.3923828125 0.6875  9.805078125 1.7123046875  9 3.2169921875  C 8.194921875 1.7123046875  6.6076171875 0.6875  4.78125 0.6875  C 2.141015625 0.6875  0 2.828515625  0 5.46875  C 0 5.65859375  0.0087890625 5.844921875  0.0263671875 6.03125  C 0.06328125 6.4126953125  0.1353515625 6.7888671875  0.2408203125 7.15625  C 1.6716796875 12.21171875  9 15.875  9 15.875  C 9 15.875  16.3283203125 12.21171875  17.7591796875 7.15625  C 17.862890625 6.7888671875  17.93671875 6.4126953125  17.9736328125 6.03125  C 17.9912109375 5.844921875  18 5.6568359375  18 5.46875  Z M 16.70625 6.7361328125  C 16.64296875 6.983984375  16.421484375 7.15625  16.1666015625 7.15625  L 13.809375 7.15625  L 11.4978515625 10.7861328125  L 10.065234375 8.207421875  L 7.1384765625 12.3048828125  L 4.9376953125 5.978515625  L 4.264453125 7.15625  L 1.8333984375 7.15625  C 1.578515625 7.15625  1.35703125 6.983984375  1.29375 6.737890625  C 1.2919921875 6.734375  1.2919921875 6.730859375  1.290234375 6.72734375  C 1.198828125 6.37578125  1.466015625 6.0330078125  1.8298828125 6.0330078125  L 3.610546875 6.0330078125  L 5.1873046875 3.2732421875  L 7.4865234375 9.8826171875  L 10.184765625 6.105078125  L 11.5646484375 8.5888671875  L 13.190625 6.03125  L 16.1701171875 6.03125  C 16.533984375 6.03125  16.801171875 6.3740234375  16.709765625 6.7255859375  C 16.7080078125 6.7291015625  16.7080078125 6.7326171875  16.70625 6.7361328125  Z " fill-rule="nonzero" fill="#000000" stroke="none" transform="matrix(1 0 0 1 43 879 )" />
  </g>
</svg>