<?xml version="1.0" encoding="utf-8"?>
<svg version="1.1" xmlns:xlink="http://www.w3.org/1999/xlink" width="98px" height="29px" xmlns="http://www.w3.org/2000/svg">
  <defs>
    <mask fill="white" id="clip38">
      <path d="M 0 25  L 0 4  C 0 1.76000000000022  0.769999999999996 0  1.75 0  L 96.25 0  C 97.23 0  98 1.76000000000022  98 4  L 98 25  C 98 27.2399999999998  97.23 29  96.25 29  L 1.75 29  C 0.769999999999996 29  0 27.2399999999998  0 25  Z " fill-rule="evenodd" />
    </mask>
  </defs>
  <g transform="matrix(1 0 0 1 -1108 -1611 )">
    <path d="M 0 25  L 0 4  C 0 1.76000000000022  0.769999999999996 0  1.75 0  L 96.25 0  C 97.23 0  98 1.76000000000022  98 4  L 98 25  C 98 27.2399999999998  97.23 29  96.25 29  L 1.75 29  C 0.769999999999996 29  0 27.2399999999998  0 25  Z " fill-rule="nonzero" fill="#ffffff" stroke="none" transform="matrix(1 0 0 1 1108 1611 )" />
    <path d="M 0 25  L 0 4  C 0 1.76000000000022  0.769999999999996 0  1.75 0  L 96.25 0  C 97.23 0  98 1.76000000000022  98 4  L 98 25  C 98 27.2399999999998  97.23 29  96.25 29  L 1.75 29  C 0.769999999999996 29  0 27.2399999999998  0 25  Z " stroke-width="2" stroke="#797979" fill="none" transform="matrix(1 0 0 1 1108 1611 )" mask="url(#clip38)" />
  </g>
</svg>