<?xml version="1.0" encoding="utf-8"?>
<svg version="1.1" xmlns:xlink="http://www.w3.org/1999/xlink" width="85px" height="95px" xmlns="http://www.w3.org/2000/svg">
  <defs>
    <mask fill="white" id="clip42">
      <path d="M 0 77.6086956521739  L 0 7.39130434782609  C 0 3.25217391304346  0.420382165605093 0  0.955414012738854 0  L 74.0445859872611 0  C 74.5796178343949 0  75 3.25217391304346  75 7.39130434782609  L 75 77.6086956521739  C 75 81.7478260869565  74.5796178343949 85  74.0445859872611 85  L 48.0312680949623 85  L 0.955414012738854 85  C 0.420382165605093 85  0 81.7478260869565  0 77.6086956521739  Z " fill-rule="evenodd" />
    </mask>
    <filter x="288px" y="117px" width="85px" height="95px" filterUnits="userSpaceOnUse" id="filter43">
      <feOffset dx="3" dy="3" in="SourceAlpha" result="shadowOffsetInner" />
      <feGaussianBlur stdDeviation="2.5" in="shadowOffsetInner" result="shadowGaussian" />
      <feComposite in2="shadowGaussian" operator="atop" in="SourceAlpha" result="shadowComposite" />
      <feColorMatrix type="matrix" values="0 0 0 0 0  0 0 0 0 0  0 0 0 0 0  0 0 0 0.349019607843137 0  " in="shadowComposite" />
    </filter>
    <g id="widget44">
      <path d="M 0 77.6086956521739  L 0 7.39130434782609  C 0 3.25217391304346  0.420382165605093 0  0.955414012738854 0  L 74.0445859872611 0  C 74.5796178343949 0  75 3.25217391304346  75 7.39130434782609  L 75 77.6086956521739  C 75 81.7478260869565  74.5796178343949 85  74.0445859872611 85  L 48.0312680949623 85  L 0.955414012738854 85  C 0.420382165605093 85  0 81.7478260869565  0 77.6086956521739  Z " fill-rule="nonzero" fill="#ffffff" stroke="none" transform="matrix(1 0 0 1 290 119 )" />
      <path d="M 0 77.6086956521739  L 0 7.39130434782609  C 0 3.25217391304346  0.420382165605093 0  0.955414012738854 0  L 74.0445859872611 0  C 74.5796178343949 0  75 3.25217391304346  75 7.39130434782609  L 75 77.6086956521739  C 75 81.7478260869565  74.5796178343949 85  74.0445859872611 85  L 48.0312680949623 85  L 0.955414012738854 85  C 0.420382165605093 85  0 81.7478260869565  0 77.6086956521739  Z " stroke-width="2" stroke="#adb0c1" fill="none" transform="matrix(1 0 0 1 290 119 )" mask="url(#clip42)" />
    </g>
  </defs>
  <g transform="matrix(1 0 0 1 -288 -117 )">
    <use xlink:href="#widget44" filter="url(#filter43)" />
    <use xlink:href="#widget44" />
  </g>
</svg>