<?xml version="1.0" encoding="utf-8"?>
<svg version="1.1" xmlns:xlink="http://www.w3.org/1999/xlink" width="10px" height="16px" xmlns="http://www.w3.org/2000/svg">
  <g transform="matrix(1 0 0 1 -1314 -2032 )">
    <path d="M 3.0601036203125 15.519170984375  C 3.0601036203125 15.274346109375  3.6736120109375 15.07796890625  4.51502590507812 15.0215626875  L 4.51502590507812 9.9236145  C 2.06429015820313 9.674080828125  0.150259066015625 7.553326421875  0.150259066015625 4.974093265625  C 0.150259066015625 2.226984453125  2.3215689078125 0  5 0  C 7.6784310921875 0  9.84974093398437 2.226984453125  9.84974093398437 4.974093265625  C 9.84974093398437 7.553326421875  7.93570984179687 9.67406425  5.48497409492188 9.92363109375  L 5.48497409492188 15.0202694375  C 6.31681783085938 15.07493471875  6.9398963796875 15.27245596875  6.9398963796875 15.519170984375  C 6.9398963796875 15.77730984375  6.07137244296875 16  5.0161658046875 16  C 3.92862757226563 16  3.06010363554688 15.77730984375  3.0601036203125 15.519170984375  Z M 3.0601036203125 4.974093265625  C 3.0601036203125 6.072936796875  3.92862755703125 6.963730578125  5 6.9637305625  C 6.07137242773437 6.9637305625  6.9398963796875 6.07293678125  6.9398963796875 4.974093265625  C 6.9398963796875 3.87524975  6.07137244296875 2.984455953125  5 2.984455953125  C 3.92862755703125 2.984455953125  3.0601036203125 3.875249734375  3.0601036203125 4.974093265625  Z " fill-rule="nonzero" fill="#d9001b" stroke="none" transform="matrix(1 0 0 1 1314 2032 )" />
  </g>
</svg>