<?xml version="1.0" encoding="utf-8"?>
<svg version="1.1" xmlns:xlink="http://www.w3.org/1999/xlink" width="10px" height="14px" xmlns="http://www.w3.org/2000/svg">
  <g transform="matrix(1 0 0 1 -1300 -2048 )">
    <path d="M 9.94979558970588 5.27876041414474  C 9.94979558970588 8.76484433432018  5.54388508691176 13.8849583715132  5.00303979147059 13.8849583715132  C 4.47025586838235 13.8849583715132  0.0562839933823528 8.76484433432018  0.0562839933823528 5.27876041414474  C 0.0562988892670061 2.42692827907382  2.27103253605742 0.115069796751729  5.00303979154412 0.115069796751729  C 7.73505758004652 0.115069796751729  9.94979558977941 2.42694543849045  9.94979558977941 5.27878856859383  Z M 7.75123746294118 5.5656336714693  C 7.75123746294118 3.98127637363271  6.52082745494429 2.69690101440789  5.00303979147059 2.69690101440789  C 3.48525212799689 2.69690101440789  2.25484212 3.98127637363271  2.25484212 5.5656336714693  C 2.25484212 7.14999096930588  3.48525212799689 8.4343663285307  5.00303979147059 8.4343663285307  C 6.52082745494429 8.4343663285307  7.75123746294118 7.14999096930588  7.75123746294118 5.5656336714693  Z M 6.65195838647059 5.5656336714693  C 6.65195838647059 6.51624804939974  5.9137123822716 7.28687326430921  5.00303978492647 7.28687326430921  C 4.09236718758133 7.28687326430921  3.35412118338235 6.51624804939974  3.35412118338235 5.5656336714693  C 3.35412118338235 4.61501929353885  4.09236718758133 3.84439407862938  5.00303978492647 3.84439407862938  C 5.9137123822716 3.84439407862938  6.65195838647059 4.61501929353885  6.65195838647059 5.5656336714693  Z " fill-rule="nonzero" fill="#f59a23" stroke="none" transform="matrix(1 0 0 1 1300 2048 )" />
  </g>
</svg>