<?xml version="1.0" encoding="utf-8"?>
<svg version="1.1" xmlns:xlink="http://www.w3.org/1999/xlink" width="170px" height="170px" xmlns="http://www.w3.org/2000/svg">
  <g transform="matrix(1 0 0 1 -1960 -1948 )">
    <path d="M 2045 1948  C 2092.6 1948  2130 1985.4  2130 2033  C 2130 2080.6  2092.6 2118  2045 2118  C 1997.4 2118  1960 2080.6  1960 2033  C 1960 1985.4  1997.4 1948  2045 1948  Z " fill-rule="nonzero" fill="#02a7f0" stroke="none" fill-opacity="0.4" />
    <path d="M 2045 1948.5  C 2092.32 1948.5  2129.5 1985.68  2129.5 2033  C 2129.5 2080.32  2092.32 2117.5  2045 2117.5  C 1997.68 2117.5  1960.5 2080.32  1960.5 2033  C 1960.5 1985.68  1997.68 1948.5  2045 1948.5  Z " stroke-width="1" stroke="#02a7f0" fill="none" />
  </g>
</svg>