<?xml version="1.0" encoding="utf-8"?>
<svg version="1.1" xmlns:xlink="http://www.w3.org/1999/xlink" width="16px" height="13px" xmlns="http://www.w3.org/2000/svg">
  <g transform="matrix(1 0 0 1 -39 -408 )">
    <path d="M 7.97699359179687 7.00868811132812  C 7.46479086523438 7.00868811132812  6.95248020898438 7.06072683203125  6.44018755273438 7.16491218554687  L 6.44018755273438 5.89472137304688  C 6.58293876757812 5.84417565039062  6.7264814375 5.79821679882813  6.87180491210938 5.75430857617188  C 7.36713508203125 5.6027613203125  7.34563965429687 5.14132017578125  7.3533923984375 4.10997143359375  L 7.3533923984375 1.29899927148437  C 7.3533923984375 0.85520415625  8.6005588203125 0.85520415625  8.6005588203125 1.29899927148437  L 8.6005588203125 4.10997143359375  C 8.60829358203125 5.14132017578125  8.58681613671875 5.6027613203125  9.08214630664062 5.75430857617187  C 9.22748776367188 5.79821679882812  9.37101245117188 5.84417565039062  9.51376366601562 5.89472137304687  L 9.51376366601562 7.16491218554687  C 9.00147100976563 7.06072683203125  8.48926828320313 7.00868811132812  7.97699359179687 7.00868811132812  Z M 11.1638928886719 3.10520867382813  C 10.5294630253906 3.08855195898437  10.1317706738281 3.44248  10.1373648769531 4.126322359375  L 10.1373648769531 10.8691767109375  C 10.1402609082031 11.6097525917969  10.5050715664062 12.030793140625  11.1638928886719 12.1149040996094  L 14.6627726503906 12.6300928046875  C 15.2583308632812 12.72456475  15.7892049335938 12.3936071347656  15.8369085898438 11.63069040625  C 15.8814823554688 7.13134694921875  12.8295995292969 3.14958458007813  11.1638928886719 3.10520867382813  Z M 0.117060611328125 11.63069040625  C 0.0724868457031249 7.13134694921875  3.12435168945312 3.14958458007813  4.79016625976563 3.10520867382813  C 5.42450617578125 3.08855195898437  5.8221805625 3.44248  5.81660434179688 4.126322359375  L 5.81660434179688 10.8691767109375  C 5.81379824023437 11.6097525917969  5.44889765234375 12.030793140625  4.79016625976563 12.1149040996094  L 1.29130448046875 12.6300928046875  C 0.695656337890625 12.72456475  0.164764267578125 12.3936071347656  0.117060611328125 11.63069040625  Z " fill-rule="nonzero" fill="#000000" stroke="none" transform="matrix(1 0 0 1 39 408 )" />
  </g>
</svg>