<?xml version="1.0" encoding="utf-8"?>
<svg version="1.1" xmlns:xlink="http://www.w3.org/1999/xlink" width="15px" height="15px" xmlns="http://www.w3.org/2000/svg">
  <g transform="matrix(1 0 0 1 -253 -379 )">
    <path d="M 7.63097426470588 3.65263097426471  L 7.63097426470588 8.26947380514706  L 10.9708180147059 8.26947380514706  C 11.2601565372243 8.26947380514706  11.4947150735294 8.50403234145221  11.4947150735294 8.79337086397059  C 11.4947150735294 9.08270938648897  11.2601565372243 9.31726792279412  10.9708180147059 9.31726792279412  L 7.10707720588235 9.31726792279412  C 6.81773868336397 9.31726792279412  6.58318014705882 9.08270938648897  6.58318014705882 8.79337086397059  C 6.58318014705882 8.79063677619485  6.58319651884191 8.78790268841912  6.58324563419118 8.78518497242647  C 6.5832029114561 8.7824565490619  6.58318108177202 8.77972783855109  6.58318014705882 8.77699908088235  L 6.58318014705882 3.65263097426471  C 6.58318014705882 3.36329245174632  6.81773868336397 3.12873391544118  7.10707720588235 3.12873391544118  C 7.39641572840074 3.12873391544118  7.63097426470588 3.36329245174632  7.63097426470588 3.65263097426471  Z M 14.8345588235294 7.5  C 14.8345588235294 11.5507720588235  11.5507720588235 14.8345588235294  7.5 14.8345588235294  C 3.44922794117647 14.8345588235294  0.165441176470588 11.5507720588235  0.165441176470588 7.5  C 0.165441176470588 3.44922794117647  3.44922794117647 0.165441176470588  7.5 0.165441176470588  C 11.5507720588235 0.165441176470588  14.8345588235294 3.44922794117647  14.8345588235294 7.5  Z M 1.21323529411765 7.5  C 1.21323529411765 10.9720786420037  4.02792135799632 13.7867647058824  7.5 13.7867647058824  C 10.9720786420037 13.7867647058824  13.7867647058824 10.9720786420037  13.7867647058824 7.5  C 13.7867647058824 4.02792135799632  10.9720786420037 1.21323529411765  7.5 1.21323529411765  C 4.02792135799632 1.21323529411765  1.21323529411765 4.02792135799632  1.21323529411765 7.5  Z " fill-rule="nonzero" fill="#d7d7d7" stroke="none" transform="matrix(1 0 0 1 253 379 )" />
  </g>
</svg>