<?xml version="1.0" encoding="UTF-8"?>
<svg width="18px" height="18px" viewBox="0 0 18 18" version="1.1" xmlns="http://www.w3.org/2000/svg" xmlns:xlink="http://www.w3.org/1999/xlink">
    <title>icon/待定</title>
    <g id="页面-1" stroke="none" stroke-width="1" fill="none" fill-rule="evenodd">
        <g id="6-房间标记" transform="translate(-202.000000, -79.000000)">
            <g id="页头/小/1级+tab" transform="translate(81.000000, 76.000000)">
                <g id="编组" transform="translate(52.000000, 0.000000)">
                    <g id="question-circle" transform="translate(68.000000, 2.000000)">
                        <rect id="矩形" fill="#000000" fill-rule="nonzero" opacity="0" x="0" y="0" width="20" height="20"></rect>
                        <path d="M10,1.25 C5.16796875,1.25 1.25,5.16796875 1.25,10 C1.25,14.8320312 5.16796875,18.75 10,18.75 C14.8320312,18.75 18.75,14.8320312 18.75,10 C18.75,5.16796875 14.8320312,1.25 10,1.25 Z M10,17.265625 C5.98828125,17.265625 2.734375,14.0117187 2.734375,10 C2.734375,5.98828125 5.98828125,2.734375 10,2.734375 C14.0117187,2.734375 17.265625,5.98828125 17.265625,10 C17.265625,14.0117187 14.0117187,17.265625 10,17.265625 Z" id="形状" fill="#C0C2C9"></path>
                        <path d="M12.1796875,6.18554688 C11.59375,5.671875 10.8203125,5.390625 10,5.390625 C9.1796875,5.390625 8.40625,5.67382812 7.8203125,6.18554688 C7.2109375,6.71875 6.875,7.43554688 6.875,8.203125 L6.875,8.3515625 C6.875,8.4375 6.9453125,8.5078125 7.03125,8.5078125 L7.96875,8.5078125 C8.0546875,8.5078125 8.125,8.4375 8.125,8.3515625 L8.125,8.203125 C8.125,7.34179688 8.96679688,6.640625 10,6.640625 C11.0332031,6.640625 11.875,7.34179688 11.875,8.203125 C11.875,8.81054688 11.4453125,9.3671875 10.7792969,9.62304688 C10.3652344,9.78125 10.0136719,10.0585938 9.76171875,10.421875 C9.50585937,10.7929688 9.37304688,11.2382812 9.37304688,11.6894531 L9.37304688,12.109375 C9.37304688,12.1953125 9.44335938,12.265625 9.52929688,12.265625 L10.4667969,12.265625 C10.5527344,12.265625 10.6230469,12.1953125 10.6230469,12.109375 L10.6230469,11.6660156 C10.6230469,11.28125 10.8652344,10.9296875 11.2265625,10.7910156 C12.3789062,10.3476562 13.1230553,9.33203125 13.1230553,8.203125 C13.125,7.43554688 12.7890625,6.71875 12.1796875,6.18554688 Z" id="路径" fill="#C0C2C9"></path>
                        <path d="M9.21875,14.296875 C9.21875,14.7283475 9.56852754,15.078125 10,15.078125 C10.4314725,15.078125 10.78125,14.7283475 10.78125,14.296875 C10.78125,13.8654025 10.4314725,13.515625 10,13.515625 C9.56852754,13.515625 9.21875,13.8654025 9.21875,14.296875 Z" id="路径" fill="#C0C2C9"></path>
                    </g>
                </g>
            </g>
        </g>
    </g>
</svg>