<?xml version="1.0" encoding="utf-8"?>
<svg version="1.1" xmlns:xlink="http://www.w3.org/1999/xlink" width="21px" height="21px" xmlns="http://www.w3.org/2000/svg">
  <g transform="matrix(1 0 0 1 -12 -101 )">
    <path d="M 17.71875 21  C 17.71875 20.63701171875  17.57109375 20.30888671875  17.33525390625 20.07099609375  C 17.1568359375 19.892578125  16.9271484375 19.7654296875  16.67080078125 19.71416015625  C 16.5169921875 19.6833984375  16.40625 19.5521484375  16.40625 19.3962890625  L 16.40625 11.8576171875  C 16.40625 8.596875  13.73818359375 5.8939453125  10.47744140625 5.90625  C 7.226953125 5.9185546875  4.59375 8.55791015625  4.59375 11.8125  L 4.59375 19.3962890625  C 4.59375 19.5521484375  4.4830078125 19.6833984375  4.32919921875 19.71416015625  C 3.73037109375 19.83720703125  3.28125 20.36630859375  3.28125 21  L 17.71875 21  Z M 8.203125 14.49287109375  L 11.63408203125 9.515625  L 11.23623046875 13.06962890625  L 12.796875 13.06962890625  L 9.36796875 18.046875  L 9.7658203125 14.49287109375  L 8.203125 14.49287109375  Z M 11.15625 3.609375  C 11.15625 3.97236328125  10.86298828125 4.265625  10.5 4.265625  C 10.13701171875 4.265625  9.84375 3.97236328125  9.84375 3.609375  L 9.84375 0.65625  C 9.84375 0.29326171875  10.13701171875 0  10.5 0  C 10.86298828125 0  11.15625 0.29326171875  11.15625 0.65625  L 11.15625 3.609375  Z M 5.98212890625 5.176171875  C 6.16259765625 5.48994140625  6.05595703125 5.88984375  5.7421875 6.07236328125  C 5.42841796875 6.25283203125  5.02646484375 6.14619140625  4.84599609375 5.832421875  L 3.36943359375 3.27509765625  C 3.18896484375 2.961328125  3.29560546875 2.559375  3.609375 2.37890625  C 3.92314453125 2.1984375  4.32509765625 2.305078125  4.50556640625 2.61884765625  L 5.98212890625 5.176171875  Z M 15.01787109375 5.176171875  C 14.83740234375 5.48994140625  14.94404296875 5.88984375  15.2578125 6.07236328125  C 15.57158203125 6.25283203125  15.97353515625 6.14619140625  16.15400390625 5.832421875  L 17.63056640625 3.27509765625  C 17.81103515625 2.961328125  17.70439453125 2.559375  17.390625 2.37890625  C 17.07685546875 2.1984375  16.67490234375 2.305078125  16.49443359375 2.61884765625  L 15.01787109375 5.176171875  Z M 3.6873046875 8.3220703125  C 4.03798828125 8.41435546875  4.2451171875 8.7732421875  4.15283203125 9.12392578125  C 4.05849609375 9.474609375  3.699609375 9.68173828125  3.34892578125 9.58740234375  L 0.4962890625 8.82451171875  C 0.14560546875 8.73017578125  -0.0615234375 8.3712890625  0.03076171875 8.02060546875  C 0.12509765625 7.669921875  0.483984375 7.46279296875  0.83466796875 7.55712890625  L 3.6873046875 8.3220703125  Z M 17.31064453125 8.32001953125  C 16.96201171875 8.41435546875  16.7548828125 8.7732421875  16.84716796875 9.12392578125  C 16.94150390625 9.474609375  17.300390625 9.68173828125  17.65107421875 9.58740234375  L 20.5037109375 8.8224609375  C 20.85439453125 8.728125  21.0615234375 8.36923828125  20.9671875 8.0185546875  C 20.8728515625 7.66787109375  20.51396484375 7.4607421875  20.16328125 7.555078125  L 17.31064453125 8.32001953125  Z " fill-rule="nonzero" fill="#ffffff" stroke="none" transform="matrix(1 0 0 1 12 101 )" />
  </g>
</svg>