<?xml version="1.0" encoding="utf-8"?>
<svg version="1.1" xmlns:xlink="http://www.w3.org/1999/xlink" width="21px" height="21px" xmlns="http://www.w3.org/2000/svg">
  <g transform="matrix(1 0 0 1 -12 -72 )">
    <path d="M 20.5227216796875 18.8753588709677  L 19.568185546875 18.8753588709677  L 19.568185546875 7.05132157258064  C 19.568185546875 5.96745060483871  18.7090927734375 5.08064516129032  17.6590927734375 5.08064516129032  L 13.8409072265625 5.08064516129032  L 13.8409072265625 18.8753588709677  L 12.88637109375 18.8753588709677  L 12.88637109375 2.12464112903226  C 12.88637109375 1.04077016129032  12.0272783203125 0.153964717741936  10.9772783203125 0.153964717741936  L 3.3409072265625 0.153964717741936  C 2.2909072265625 0.153964717741936  1.4318349609375 1.04074899193548  1.4318349609375 2.12461995967742  L 1.4318349609375 18.8753588709677  L 0.4772578125 18.8753588709677  C 0.1909072265625 18.8753588709677  0 19.0724455645161  0 19.3680544354839  L 0 20.3534032258065  C 0 20.6489909274194  0.190927734375 20.8460564516129  0.4772783203125 20.8460564516129  L 20.5227216796875 20.8460564516129  C 20.8090927734375 20.8460564516129  21 20.6489909274194  21 20.3534032258065  L 21 19.3680544354839  C 21 19.0724455645161  20.809072265625 18.8753800403226  20.5227216796875 18.8753800403226  Z M 6.2045361328125 13.4560040322581  L 6.2045361328125 14.4413528225806  C 6.2045361328125 14.7369405241935  6.01362890625 14.9340272177419  5.7272783203125 14.9340272177419  L 3.818185546875 14.9340272177419  C 3.531814453125 14.9340272177419  3.3409072265625 14.7369405241936  3.3409072265625 14.4413528225806  L 3.3409072265625 13.4560040322581  C 3.3409072265625 13.1604163306452  3.5318349609375 12.9633508064516  3.818185546875 12.9633508064516  L 5.7272578125 12.9633508064516  C 6.01362890625 12.9633508064516  6.2045361328125 13.1604163306452  6.2045361328125 13.4560040322581  Z M 6.2045361328125 9.51467237903226  L 6.2045361328125 10.5  C 6.2045361328125 10.7956088709677  6.01362890625 10.9926743951613  5.7272783203125 10.9926743951613  L 3.818185546875 10.9926743951613  C 3.531814453125 10.9926743951613  3.3409072265625 10.7955877016129  3.3409072265625 10.5  L 3.3409072265625 9.51467237903226  C 3.3409072265625 9.21906350806452  3.5318349609375 9.02199798387097  3.818185546875 9.02199798387097  L 5.7272578125 9.02199798387097  C 6.01362890625 9.02199798387097  6.2045361328125 9.21906350806452  6.2045361328125 9.51467237903226  Z M 6.2045361328125 5.57331955645161  L 6.2045361328125 6.55864717741935  C 6.2045361328125 6.8542560483871  6.01362890625 7.05132157258064  5.7272783203125 7.05132157258064  L 3.818185546875 7.05132157258064  C 3.531814453125 7.05132157258064  3.3409072265625 6.85423487903226  3.3409072265625 6.55864717741935  L 3.3409072265625 5.57331955645161  C 3.3409072265625 5.27771068548387  3.5318349609375 5.08064516129032  3.818185546875 5.08064516129032  L 5.7272578125 5.08064516129032  C 6.01362890625 5.08064516129032  6.2045361328125 5.27773185483871  6.2045361328125 5.57331955645161  Z M 10.9772783203125 13.4560040322581  L 10.9772783203125 14.4413528225806  C 10.9772783203125 14.7369405241935  10.7863505859375 14.9340272177419  10.5 14.9340272177419  L 8.590927734375 14.9340272177419  C 8.3045361328125 14.9340272177419  8.11362890625 14.7369405241936  8.11362890625 14.4413528225806  L 8.11362890625 13.4560040322581  C 8.11362890625 13.1604163306452  8.304556640625 12.9633508064516  8.5909072265625 12.9633508064516  L 10.5 12.9633508064516  C 10.78637109375 12.9633508064516  10.9772783203125 13.1604163306452  10.9772783203125 13.4560040322581  Z M 10.9772783203125 9.51467237903226  L 10.9772783203125 10.5  C 10.9772783203125 10.7956088709677  10.7863505859375 10.9926743951613  10.5 10.9926743951613  L 8.590927734375 10.9926743951613  C 8.3045361328125 10.9926743951613  8.11362890625 10.7955877016129  8.11362890625 10.5  L 8.11362890625 9.51467237903226  C 8.11362890625 9.21906350806452  8.304556640625 9.02199798387097  8.5909072265625 9.02199798387097  L 10.5 9.02199798387097  C 10.78637109375 9.02199798387097  10.9772783203125 9.21906350806452  10.9772783203125 9.51467237903226  Z M 10.9772783203125 5.57331955645161  L 10.9772783203125 6.55864717741935  C 10.9772783203125 6.8542560483871  10.7863505859375 7.05132157258064  10.5 7.05132157258064  L 8.590927734375 7.05132157258064  C 8.3045361328125 7.05132157258064  8.11362890625 6.85423487903226  8.11362890625 6.55864717741935  L 8.11362890625 5.57331955645161  C 8.11362890625 5.27771068548387  8.304556640625 5.08064516129032  8.5909072265625 5.08064516129032  L 10.5 5.08064516129032  C 10.78637109375 5.08064516129032  10.9772783203125 5.27773185483871  10.9772783203125 5.57331955645161  Z M 18.1363505859375 14.4413528225806  C 18.1363505859375 14.7369405241935  17.9454638671875 14.9340272177419  17.6590927734375 14.9340272177419  L 15.75 14.9340272177419  C 15.46362890625 14.9340272177419  15.2727216796875 14.7369405241936  15.2727216796875 14.4413528225806  L 15.2727216796875 13.4560040322581  C 15.2727216796875 13.1604163306452  15.4636494140625 12.9633508064516  15.75 12.9633508064516  L 17.659072265625 12.9633508064516  C 17.9454638671875 12.9633508064516  18.13637109375 13.1604163306452  18.13637109375 13.4560040322581  L 18.13637109375 14.4413528225806  Z M 18.1363505859375 10.5  C 18.1363505859375 10.7956088709677  17.9454638671875 10.9926743951613  17.6590927734375 10.9926743951613  L 15.75 10.9926743951613  C 15.46362890625 10.9926743951613  15.2727216796875 10.7955877016129  15.2727216796875 10.5  L 15.2727216796875 9.51467237903226  C 15.2727216796875 9.21906350806452  15.4636494140625 9.02199798387097  15.75 9.02199798387097  L 17.659072265625 9.02199798387097  C 17.9454638671875 9.02199798387097  18.13637109375 9.21906350806452  18.13637109375 9.51467237903226  L 18.13637109375 10.5  Z " fill-rule="nonzero" fill="#ffffff" stroke="none" transform="matrix(1 0 0 1 12 72 )" />
  </g>
</svg>