<?xml version="1.0" encoding="utf-8"?>
<svg version="1.1" xmlns:xlink="http://www.w3.org/1999/xlink" width="17px" height="17px" xmlns="http://www.w3.org/2000/svg">
  <g transform="matrix(1 0 0 1 -2742 -283 )">
    <path d="M 13 3.4377685546875  L 13 14.6151637027138  C 13.2219739082532 15.195650442023  12.7615998096955 15.6681178042763  12.1960399138622 15.6681178042763  L 4.80396008613782 15.6681178042763  C 4.23837890625 15.6681178042763  3.77802609174679 15.1956285978618  4 14.6151637027138  L 4 3.4377685546875  L 13 3.4377685546875  Z M 5.82991536458333 2.18234092310855  L 5.82991536458333 1.54787726151316  C 5.82991536458333 1.42638003700658  5.92199018429487 1.33188219572368  6.04037209535256 1.33188219572368  L 10.9727814503205 1.33188219572368  C 11.0911633613782 1.33188219572368  11.1832381810897 1.42638003700658  11.1832381810897 1.54787726151316  L 11.1832381810897 2.18234092310855  L 5.82991536458333 2.18234092310855  Z M 16.9180138221154 2.8033048930921  C 16.9180138221154 2.45231291118421  16.6417893629808 2.18234092310855  16.2998184595353 2.18234092310855  L 12.4064753605769 2.18234092310855  L 12.4064753605769 1.54787726151316  C 12.4064753605769 0.737895764802632  11.7619941907051 0.0764545641447373  10.9727814503205 0.0764545641447373  L 6.04037209535256 0.0764545641447373  C 5.25115935496795 0.0764545641447373  4.60667818509615 0.737895764802632  4.60667818509615 1.54787726151316  L 4.60667818509615 2.18234092310855  L 0.70020282451923 2.18234092310855  C 0.35821063701923 2.18234092310855  0.0819861778846152 2.46583444695724  0.0819861778846152 2.81680458470395  C 0.0819861778846152 3.16777472245066  0.358210637019231 3.45126824629934  0.700181540464743 3.45126824629934  L 2.54163536658654 3.45126824629934  L 2.54163536658654 14.6151637027138  C 2.54163536658654 15.8976125616776  3.55441581530449 16.9370451274671  4.80396008613782 16.9370451274671  L 12.1960399138622 16.9370451274671  C 13.4455841846955 16.9370451274671  14.4583646334135 15.8976125616776  14.4583646334135 14.6151637027138  L 14.4583646334135 3.4377685546875  L 16.2998184595353 3.4377685546875  C 16.6417893629808 3.4377685546875  16.9180138221154 3.154296875  16.9180138221154 2.8033048930921  Z M 7.88180463741987 13.1302413137336  C 7.88180463741987 13.4812332956414  8.1580078125 13.7647268194901  8.5 13.7647268194901  C 8.8419921875 13.7647268194901  9.11819536258013 13.4812332956415  9.11819536258013 13.1302413137336  L 9.11819536258013 6.38061394942434  C 9.11819536258013 6.02962196751645  8.8419921875 5.74615028782895  8.5 5.74615028782895  C 8.1580078125 5.74615028782895  7.88180463741987 6.02962196751645  7.88180463741987 6.38061394942434  L 7.88180463741987 13.1302413137336  Z M 5.00126327123397 13.1302413137336  C 5.01441681690705 13.4812332956414  5.29064127604166 13.7647268194901  5.6194586338141 13.7647268194901  C 5.9614508213141 13.7647268194901  6.23765399639423 13.4812332956415  6.23765399639423 13.1302413137336  L 6.23765399639423 6.38061394942434  C 6.23765399639423 6.02962196751645  5.9614508213141 5.74615028782895  5.6194586338141 5.74615028782895  C 5.2774664463141 5.74615028782895  5.00126327123397 6.02962196751645  5.00126327123397 6.38061394942434  L 5.00126327123397 13.1302413137336  Z M 10.7623460036058 13.1302413137336  C 10.7623460036058 13.4812332956414  11.0385491786859 13.7647268194901  11.3805413661859 13.7647268194901  C 11.7225122696314 13.7647268194901  11.998736728766 13.4812332956415  11.998736728766 13.1302413137336  L 11.998736728766 6.38061394942434  C 11.998736728766 6.02962196751645  11.7225122696314 5.74615028782895  11.3805413661859 5.74615028782895  C 11.0385704627404 5.74615028782895  10.7623460036058 6.02962196751645  10.7623460036058 6.38061394942434  L 10.7623460036058 13.1302413137336  Z " fill-rule="nonzero" fill="#1f2429" stroke="none" transform="matrix(1 0 0 1 2742 283 )" />
  </g>
</svg>