<?xml version="1.0" encoding="utf-8"?>
<svg version="1.1" xmlns:xlink="http://www.w3.org/1999/xlink" width="65px" height="43px" xmlns="http://www.w3.org/2000/svg">
  <g transform="matrix(1 0 0 1 -898 -212 )">
    <path d="M 898 212  L 963 212  L 963 255  L 898 255  L 898 212  " fill-rule="nonzero" fill="#cccccc" stroke="none" />
    <path d="M 901 215  L 960 215  L 960 252  L 901 252  L 901 215  " fill-rule="nonzero" fill="#ffffff" stroke="none" />
    <path d="M 935.025 224.9  C 933.219 224.9  931.8 223.481  931.8 221.675  C 931.8 219.869  933.219 218.45  935.025 218.45  C 936.831 218.45  938.25 219.869  938.25 221.675  C 938.25 223.481  936.831 224.9  935.025 224.9  " fill-rule="nonzero" fill="#cccccc" stroke="none" />
    <path d="M 902 251  L 902 231.75  L 916.25 223  L 936.2 237.107692307692  L 947.6 228.25  L 959 237.107692307692  L 959 251  L 902 251  " fill-rule="nonzero" fill="#169bd5" stroke="none" />
  </g>
</svg>