<?xml version="1.0" encoding="utf-8"?>
<svg version="1.1" xmlns:xlink="http://www.w3.org/1999/xlink" width="65px" height="43px" xmlns="http://www.w3.org/2000/svg">
  <g transform="matrix(1 0 0 1 -842 -212 )">
    <path d="M 842 212  L 907 212  L 907 255  L 842 255  L 842 212  " fill-rule="nonzero" fill="#cccccc" stroke="none" />
    <path d="M 845 215  L 904 215  L 904 252  L 845 252  L 845 215  " fill-rule="nonzero" fill="#ffffff" stroke="none" />
    <path d="M 879.025 224.9  C 877.219 224.9  875.8 223.481  875.8 221.675  C 875.8 219.869  877.219 218.45  879.025 218.45  C 880.831 218.45  882.25 219.869  882.25 221.675  C 882.25 223.481  880.831 224.9  879.025 224.9  " fill-rule="nonzero" fill="#cccccc" stroke="none" />
    <path d="M 846 251  L 846 231.75  L 860.25 223  L 880.2 237.107692307692  L 891.6 228.25  L 903 237.107692307692  L 903 251  L 846 251  " fill-rule="nonzero" fill="#169bd5" stroke="none" />
  </g>
</svg>