<?xml version="1.0" encoding="utf-8"?>
<svg version="1.1" xmlns:xlink="http://www.w3.org/1999/xlink" width="30px" height="41px" xmlns="http://www.w3.org/2000/svg">
  <g transform="matrix(1 0 0 1 -695 -235 )">
    <path d="M 29.8493867691176 15.4592269271382  C 29.8493867691176 25.6684726933662  16.6316552607353 40.6630923737171  15.0091193744118 40.6630923737171  C 13.4107676051471 40.6630923737171  0.168851980147058 25.6684726933662  0.168851980147058 15.4592269271382  C 0.168896667801018 7.10743281728763  6.81309760817227 0.336990119058636  15.0091193746324 0.336990119058636  C 23.2051727401396 0.336990119058636  29.8493867693382 7.10748306986487  29.8493867693382 15.4593093794534  Z M 23.2537123888235 16.2993557521601  C 23.2537123888235 11.6594522370672  19.5624823648329 7.89806725648026  15.0091193744118 7.89806725648026  C 10.4557563839907 7.89806725648026  6.76452636 11.6594522370672  6.76452636 16.2993557521601  C 6.76452636 20.9392592672529  10.4557563839907 24.7006442478399  15.0091193744118 24.7006442478399  C 19.5624823648329 24.7006442478399  23.2537123888235 20.9392592672529  23.2537123888235 16.2993557521601  Z M 19.9558751594118 16.2993557521601  C 19.9558751594118 19.0832978589564  17.7411371468148 21.340128845477  15.0091193547794 21.340128845477  C 12.277101562744 21.340128845477  10.0623635501471 19.0832978589564  10.0623635501471 16.2993557521601  C 10.0623635501471 13.5154136453638  12.277101562744 11.2585826588432  15.0091193547794 11.2585826588432  C 17.7411371468148 11.2585826588432  19.9558751594118 13.5154136453638  19.9558751594118 16.2993557521601  Z " fill-rule="nonzero" fill="#d9001b" stroke="none" transform="matrix(1 0 0 1 695 235 )" />
  </g>
</svg>