<?xml version="1.0" encoding="utf-8"?>
<svg version="1.1" xmlns:xlink="http://www.w3.org/1999/xlink" width="17px" height="5px" xmlns="http://www.w3.org/2000/svg">
  <g transform="matrix(1 0 0 1 -1113 -700 )">
    <path d="M 16.6619318181818 0.364583333333333  C 16.8873106060606 0.607638888888887  17 0.902777777777777  17 1.25  L 17 3.75  C 17 4.09722222222222  16.8873106060606 4.39236111111111  16.6619318181818 4.63541666666667  C 16.436553030303 4.87847222222222  16.1628787878788 5  15.8409090909091 5  L 1.15909090909091 5  C 0.837121212121212 5  0.56344696969697 4.87847222222222  0.338068181818182 4.63541666666667  C 0.112689393939394 4.39236111111111  0 4.09722222222222  0 3.75  L 0 1.25  C 0 0.902777777777777  0.112689393939394 0.607638888888887  0.338068181818182 0.364583333333333  C 0.56344696969697 0.121527777777777  0.837121212121212 0  1.15909090909091 0  L 15.8409090909091 0  C 16.1628787878788 0  16.436553030303 0.121527777777777  16.6619318181818 0.364583333333333  Z " fill-rule="nonzero" fill="#000000" stroke="none" transform="matrix(1 0 0 1 1113 700 )" />
  </g>
</svg>