<?xml version="1.0" encoding="utf-8"?>
<svg version="1.1" xmlns:xlink="http://www.w3.org/1999/xlink" width="17px" height="20px" xmlns="http://www.w3.org/2000/svg">
  <g transform="matrix(1 0 0 1 -534 -2929 )">
    <path d="M 16.1936726236979 7.53826654296875  C 16.3396820812407 7.6357609375  16.3771709984189 7.8307497265625  16.2804890520368 7.97309154296875  C 16.1838071056548 8.115433359375  15.9884701369513 8.15443111328125  15.8424606596447 8.05888662109375  L 15.8404875639416 8.05888662109375  C 15.8029986467634 8.03548796875  15.7576173270089 8.07253583984375  15.7753752278646 8.11153359375  C 15.9470350086031 8.51126060546875  16.0299052257719 8.94413572265625  16.0180666317894 9.378960703125  C 16.0003087309338 9.97562638671875  15.8029986467634 10.5508433203125  15.4478404913039 11.042215078125  C 15.422190187872 11.0773130664062  15.3965398646763 11.1124110351562  15.3689164655413 11.1475090234375  C 14.8736681594122 11.7753729296875  14.5658644194103 12.5260797460937  14.5066714099702 13.3196841210937  C 14.5046983142671 13.3372331054687  14.5046983142671 13.3567319921875  14.5027251988002 13.3742809765625  C 14.4218280575707 14.3375255859375  14.1712442510696 15.2773715429687  13.7549199904669 16.164570546875  C 13.6542918526786 16.3966072070312  13.537878889974 16.626693984375  13.4096273332868 16.8470312890625  C 12.8315087902251 17.835624453125  11.9574251209077 18.7072243359375  10.9452243966239 19.3019401367187  C 10.1697957693917 19.75821390625  9.40225954473587 20  8.76692108793713 20  C 8.60315370977493 20  8.44727875395276 19.9844008984375  8.30126927664621 19.9512528125  C 8.28153826032366 19.9473530273438  7.83759058082218 19.844008984375  7.25552584635417 19.6080725390625  C 6.93982970377605 19.4793799414063  6.73068102562314 19.3896850976563  6.49982821568081 19.2278443945313  C 6.24332510230655 19.0484547070313  6.1131004499163 18.9002632226562  5.98879510439919 18.7559715234375  C 5.92960207519532 18.6877254492188  5.86843595028832 18.6175294921875  5.78359261765253 18.5336843164062  C 5.56457842145648 18.315296875  5.43435376906622 18.243151015625  5.30807532784599 18.1729550585938  C 5.13246935570127 18.0754606640625  4.91345515950521 17.9565175  4.7141719796317 17.628936328125  C 4.50896949288505 17.2916057226563  4.4892384765625 17.014721640625  4.4754267671131 16.8119333203125  C 4.46556126883371 16.6773910546875  4.46161505766369 16.6110948632813  4.40636823962984 16.5019011328125  C 4.29587458379837 16.2874134570312  4.10448380650112 16.1704201953125  3.89928131975447 16.047577265625  C 3.85981930687314 16.0241786132813  3.82035729399182 15.998830078125  3.78089528111049 15.97543140625  C 2.75290975167411 15.32611875  2.26950003952753 14.249780625  1.98142731584822 13.6063176367187  C 1.93999220726377 13.5146729101562  1.90447638578869 13.4347275  1.87290677548363 13.3703812109375  C 1.80187515229725 13.2221897265625  1.5591837483724 12.6840206835938  1.44474390113468 11.9703616992187  C 1.35595435732887 11.4165935351562  1.36779297107515 10.8862240429688  1.47631351143974 10.3968021875  C 1.11326295340402 10.0867700195313  0.775862718563992 9.65584478515625  0.708777286783858 9.10012673828125  C 0.631826356724334 8.46446328125  0.931737674386164 7.77810275390625  1.53156032947359 7.2126352734375  C 2.04259344075521 6.73101296875  2.73909804222471 6.3702837109375  3.52439216773624 6.175294921875  C 3.63488582356771 6.147996484375  3.74932567080543 6.12264794921875  3.86179240257627 6.1031490625  C 3.88744270600819 6.09729939453125  3.915066124907 6.09339962890625  3.94071644810268 6.08949986328125  L 3.94268954380581 6.08949986328125  C 4.09461830822173 6.064151328125  4.21695055803572 5.95300771484375  4.25838568638393 5.80676611328125  C 4.27417049153646 5.75021935546875  4.28995529668899 5.6956225  4.30771319754465 5.64102564453125  C 4.21300436662947 5.59617822265625  4.11434932454427 5.5552305859375  4.01569428245908 5.5162328125  C 3.91703924037389 5.4772350390625  3.81838419828869 5.4421370703125  3.71775604073661 5.4109388671875  C 3.52241905226935 5.3485424609375  3.32116277669271 5.29589548828125  3.11596028994606 5.256897734375  C 2.24976902320499 5.0931071484375  1.34411574358259 5.16135322265625  0.424650754510792 5.46163595703125  C 0.258910280645465 5.5162328125  0.0813312127976229 5.42653796875  0.0260843947637687 5.2627473828125  C -0.0291624232700855 5.098956796875  0.0616002162388431 4.92346689453125  0.227340670340406 4.8688700390625  C 1.25138000837054 4.53543921875  2.26358073265439 4.45939357421875  3.23631944405692 4.6446329296875  C 3.47309154110863 4.6894803515625  3.70789054245722 4.749926875  3.94071644810268 4.82792240234375  C 4.03937149018788 4.86107048828125  4.13999962797619 4.8961684765625  4.23865467006139 4.93516623046875  C 4.33533661644346 4.974163984375  4.43201854306176 5.01316173828125  4.52870048944383 5.05800916015625  C 4.79112290969122 4.46914302734375  5.15417344796317 3.9407233984375  5.62771766183036 3.52344740234375  C 5.52906261974517 3.468850546875  5.43040757765997 3.41815345703125  5.3337256312779 3.36940625  C 5.23112439778646 3.31870916015625  5.12852314453125 3.26996197265625  5.02789500674293 3.22511455078125  C 4.01569428245908 2.778590234375  3.05282106933594 2.612849765625  2.31882755068825 2.56215267578125  C 2.14519467424665 2.55045333984375  2.01299692615328 2.40031197265625  2.02680863560268 2.22872185546875  C 2.03864724934896 2.05713171875  2.19057601376488 1.92648923828125  2.36420887044271 1.9401384375  C 3.02322455473401 1.984985859375  3.67632093215216 2.10587890625  4.30968629324777 2.2969679296875  C 4.74179537876674 2.42761041015625  5.15811965913319 2.58945111328125  5.55668601888021 2.78249  C 5.66520655924479 2.83513697265625  5.77175400390625 2.889733828125  5.87632835286459 2.9462805859375  C 5.98090270182292 3.00282734375  6.08350393531436 3.05937408203125  6.18413209286645 3.1217705078125  C 6.47023172084264 2.95018037109375  6.785927843657 2.81563810546875  7.13122048107329 2.72399337890625  C 7.47454002278646 2.11172859375  7.62252259579613 1.24207859375  7.51202895972843 0.175489902343751  C 7.50216346144904 0.0838451757812506  7.57516818033855 0.00389976562500061  7.66987701125372 0.00389978515625063  L 9.24243837774368 0.00389978515625063  C 9.3193893078032 0.00389978515625063  9.38647473958334 0.0584966406250006  9.39831335332962 0.134542265625001  C 9.51867250744048 0.898898320312501  9.50091458682106 1.8348444921875  9.15956814081101 2.57970166015625  C 9.75741770019532 1.988885625  10.2329349900019 1.2771765625  10.6433399634952 0.501121191406251  C 10.7084522995722 0.376328359375001  10.8505155459449 0.310032187500001  10.9906057163784 0.339280488281251  L 12.4191307210286 0.641513105468751  C 12.6105214983259 0.682460742187501  12.7210151541574 0.88524908203125  12.646037319801 1.0646387890625  C 12.2810136660621 1.936238671875  11.7463033470517 2.75714146484375  11.0438794387091 3.579994140625  C 11.3063018589565 3.83932923828125  11.6259441929409 4.2137076953125  11.8449583693731 4.5997855078125  C 11.9475596028646 4.5685873046875  12.0521339518229 4.539338984375  12.156708320545 4.51204056640625  C 12.2612826695033 4.48474212890625  12.3658570184617 4.4574437109375  12.4704313476563 4.4340450390625  C 13.5142016822452 4.194208828125  14.5836223400298 4.12401287109375  15.6629084960938 4.22735693359375  C 15.8365413725353 4.24490591796875  15.9628198137556 4.3969971875  15.9470350086031 4.5685873046875  C 15.9312502034505 4.74017744140625  15.7753752278646 4.86497025390625  15.6017423711868 4.84937115234375  C 14.6368960623605 4.75772642578125  13.6819152518136 4.81232328125  12.7486385532924 5.01316173828125  C 12.6440642043341 5.036560390625  12.5394898553757 5.05995904296875  12.4349155261812 5.08725748046875  C 12.3303411772228 5.112606015625  12.2277399437314 5.1418543359375  12.1251386904762 5.17110265625  L 12.5730325811477 6.1011991796875  C 12.6716876232329 6.278638984375  12.7131227318173 6.4287803515625  12.7052303490048 6.55942283203125  C 12.6854993326823 6.941600859375  12.2612826695033 7.14438919921875  11.6792179152716 7.2750316796875  C 11.5272891508557 7.308179765625  11.383252789016 7.349127421875  11.2471088297526 7.380325625  C 11.1109648704892 7.411523828125  10.9866595249721 7.43492248046875  10.8741927734375 7.4349225  C 10.674909593564 7.4349225  10.5150884265718 7.362776640625  10.4144602690197 7.134639765625  C 10.4045947707403 7.11514087890625  10.3967023681641 7.09369212890625  10.3888099655878 7.07224333984375  L 10.0178670049758 6.0700009765625  L 9.81069142252604 5.512333046875  C 9.8047721156529 5.5006337109375  9.79885280877976 5.48893439453125  9.7909604062035 5.47723505859375  C 9.46737186104911 4.898118359375  9.01158556780134 4.63878326171875  8.54001448916481 4.63878326171875  C 8.39597812732515 4.63878326171875  8.24996866978237 4.6621819140625  8.10593230794271 4.70897923828125  C 7.91059531947545 4.77137564453125  7.7192045421782 4.87666958984375  7.53767926316034 5.0170615234375  C 7.13319359654018 5.332943359375  6.78000853678386 5.830164765625  6.57085985863095 6.46582822265625  C 6.49588202427455 6.69396509765625  6.43866211053757 6.9396509765625  6.4031462890625 7.2009359375  C 6.33408776157924 7.70595689453125  6.34987256673177 8.2694744921875  6.4781241234189 8.87393974609375  C 6.59453706635975 9.4530564453125  5.99866062244234 9.71824119140625  5.38699935360863 9.71824119140625  C 4.86412762858073 9.71824119140625  4.33336350097656 9.52325240234375  4.23273536318824 9.15862337890625  C 4.22089674944196 9.11377595703125  4.20905815545945 9.06892853515625  4.19919265718006 9.02408111328125  C 4.10448382626488 8.63020376953125  4.04726389276414 8.2168275390625  4.03147908761161 7.797601640625  C 4.02161358933222 7.5402164453125  4.02753287644159 7.27893146484375  4.04726389276414 7.0195963671875  C 3.93874335239955 7.03909525390625  3.83022279227121 7.06249390625  3.72564846307664 7.08979234375  C 3.61515480724516 7.11709078125  3.50860736258371 7.1502388671875  3.40403301362537 7.1853368359375  C 2.92456951264881 7.349127421875  2.50429904087612 7.5889636328125  2.18662980259487 7.8892463671875  C 1.81174065057664 8.24412595703125  1.61048435523623 8.6555523046875  1.65191948358445 8.988983125  C 1.67165049990699 9.150823828125  1.74860142996652 9.3009651953125  1.85120266345796 9.433557578125  C 1.86896056431362 9.402359375  1.88671848493304 9.371161171875  1.90644948149182 9.34191283203125  C 2.253715234375 8.78229501953125  2.77066765252976 8.32602125  3.41192541620164 8.00818953125  C 3.44152193080357 8.4586136328125  3.51255355398995 8.90123818359375  3.62502030552455 9.316564296875  L 3.62502030552455 9.32046408203125  C 3.62502030552455 9.32241396484375  3.62699340122768 9.32631375  3.62699342099144 9.330213515625  C 3.72564846307664 9.6772935546875  3.99793638160342 9.9639270703125  4.39255653018043 10.141366875  C 4.67865615815662 10.2700594726563  5.03184119814918 10.3402554296875  5.38897244931176 10.3402554296875  C 6.01839161900112 10.3402554296875  6.55112884230841 10.131617421875  6.85498637114025 9.7669883984375  C 7.08781227678571 9.48620455078125  7.17462870512463 9.123525390625  7.09965087076823 8.74914693359375  L 7.09965087076823 8.7452471484375  C 7.04243093726748 8.47031294921875  7.0088882312593 8.19927853515625  7.00099582868304 7.9340937890625  C 7.28117614978609 8.33187091796875  7.49032482793899 8.7140489453125  7.62054950009301 9.03578044921875  C 7.84350988769531 9.59149849609375  7.79615547223772 9.85083357421875  7.76261276622954 9.89763087890625  C 7.6600115327381 10.0380228125  7.69158114304315 10.2330116015625  7.83364438941592 10.3324558789063  C 7.88889120744978 10.3714536328125  7.95400354352679 10.3909525195313  8.01911585984003 10.3909525195313  C 8.11777090192522 10.3909525195313  8.2124797328404 10.3461050976563  8.27561897321429 10.262259921875  C 8.55185308314732 9.8839816796875  8.39203191615513 9.26196744140625  8.20853354143415 8.805693671875  C 7.96978834867932 8.21097787109375  7.57516818033854 7.58311396484375  7.08189296991257 7.0059471484375  C 7.18054801199777 6.5399239453125  7.36799259788877 6.1226479296875  7.63830740094866 5.79506677734375  C 7.73498934733073 5.67807349609375  7.8395636765253 5.5766793359375  7.94808423665365 5.49478404296875  C 8.15920603027344 5.29784537109375  8.26969966634115 5.22374962890625  8.42557464192708 5.19840109375  C 8.51831037713914 5.1828019921875  8.61301922781808 5.19060154296875  8.70378184756324 5.215950078125  L 8.79849069824219 5.2412986328125  C 8.97804288155692 5.32904359375  9.05894000302269 5.39533978515625  9.1615412562779 5.5318319140625  L 9.24835768461681 5.7073218359375  C 9.37660924130394 5.99785513671875  9.37660924130394 6.15189626953125  9.47329118768601 6.41123134765625  L 9.79490661737351 7.28088134765625  C 9.81463763369606 7.3335283203125  9.83634172595796 7.38422541015625  9.86001893368675 7.43297259765625  C 9.39634023786272 7.71765623046876  9.0569668875558 8.00623962890625  8.85768372744606 8.19732865234375  L 8.69983565615699 8.34747001953125  L 8.78665208449591 8.54635859375  C 8.94844634719122 8.91683728515625  9.04512829357329 9.30291509765625  9.07669790387835 9.69679244140625  C 9.09248270903088 9.8878814453125  9.09248270903088 10.0809203515625  9.07669790387835 10.2700594726563  L 9.05696690731957 10.5137954492188  L 9.0865634219215 10.5235449023438  C 9.05104760044643 10.6502876171875  9.10037513137091 10.7906795507813  9.21678807431176 10.86672515625  C 9.94683538178944 11.3424977929688  10.0178670049758 11.750024375  10.0218132161458 11.8650677539063  C 10.0336518298921 12.2043482421875  9.74360599074591 12.60602515625  9.24638458891369 12.9433557617188  C 8.64064262695313 13.3528322265625  7.78234376278832 13.6316661914063  6.83130916341146 13.7291605664063  C 6.65767628696987 13.7467095507813  6.53139784574963 13.900750703125  6.54915574660528 14.0723408398438  C 6.56494055175781 14.232231640625  6.70305760672433 14.3531246875  6.86287877371652 14.3531246875  C 6.8747173874628 14.3531246875  6.88458288574219 14.3531246875  6.89642149948847 14.3511748046875  C 7.95005735212053 14.2439309765625  8.91095744977678 13.928049140625  9.60351584007626 13.4600760546875  C 9.68835917271205 13.4015794140625  9.76925631394159 13.3430827734375  9.84620724400112 13.2806863671875  C 9.79293352167039 13.5751194335938  9.70019778645834 13.8578531835938  9.57391932547433 14.1288875976563  C 8.85571063174293 15.6459003710938  7.26341824893043 16.123622890625  6.79184715053014 16.2328166210938  C 6.62216048525856 16.271814375  6.51758613630023 16.4395047460938  6.55704814918155 16.6091449804688  C 6.59059085518973 16.7534366796875  6.72081552734375 16.8489811914063  6.86485186941965 16.8489811914063  C 6.88852907714844 16.8489811914063  6.91417938058036 16.8470313085938  6.93785660807292 16.841181640625  C 7.47848623395648 16.7144389257813  9.30755071382069 16.164570546875  10.146118561663 14.39407234375  C 10.365132757859 13.93194890625  10.4933843145461 13.4347275  10.5269270205543 12.9141074414063  C 10.7696184244792 13.0252510546875  11.0557180524554 13.2163400585938  11.1898888962519 13.5361216796875  C 11.2964363409133 13.7915569921875  11.2293509091332 14.0645412890625  11.1839696091425 14.2439309765625  L 11.1760772065662 14.2790289648438  C 11.1050455833798 14.569562265625  10.955089914667 14.8444964453125  10.7419950055804 15.0726333203125  C 10.6275551583426 15.19547625  10.6255820626395 15.3865652734375  10.7419950055804 15.5055084375  C 10.8682734665644 15.6361509179688  11.0793952404204 15.6322511523438  11.2017275099981 15.5016086523438  C 11.4898002336775 15.1935263671875  11.693029624721 14.8230476757813  11.7897115513393 14.4272204296875  L 11.7976039539156 14.3960222265625  C 11.8548238874163 14.1678853515625  11.9613713320778 13.7428097851563  11.7739267461868 13.2982353515625  C 11.5193967482794 12.6937701171875  10.9689016043527 12.39933703125  10.5940124523345 12.264794765625  C 10.6374206763858 12.1244028320313  10.6571516729446 11.9840109179688  10.6512323660714 11.843618984375  C 10.6453130591983 11.6739787304688  10.5821738385882 11.3112995898438  10.2171501848493 10.8959734765625  L 11.1839696091425 11.2138052148438  C 11.2175123151507 11.2255045507813  11.2510550409226 11.2294043164063  11.2845977469308 11.2294043164063  C 11.4167954950242 11.2294043164063  11.5391277448382 11.1475090234375  11.5845090645926 11.0168665234375  C 11.6397558826265 10.8530759375  11.5509663585845 10.6775860351563  11.3852258847191 10.6229891796875  L 9.71795568731399 10.0731208007813  C 9.72190189848401 9.930778984375  9.71598259161087 9.78648728515625  9.70611707356771 9.6460953515625  C 9.67454746326265 9.25806765625  9.58773101515997 8.87588962890625  9.44961396019346 8.5073608203125  C 9.64889714006697 8.33382080078125  9.93105055687315 8.115433359375  10.2881818277995 7.9067953515625  C 10.4578684930711 8.00623962890625  10.6551785772415 8.05693671875  10.8741927734375 8.05693671875  C 11.1149110816592 8.05693671875  11.3536562744141 7.9964901953125  11.5825359688895 7.93799357421875  C 11.659486898949 7.9184946875  11.7403840401786 7.8970459375  11.8173349702381 7.87949693359375  C 12.2435247488839 7.783952421875  12.8176971005394 7.60846251953125  13.1255008207775 7.17753728515625  C 13.166935929362 7.11904064453125  13.2044248465402 7.05469435546875  13.2359944568452 6.98644828125  C 13.2419137637184 6.9708491796875  13.2498061662946 6.955250078125  13.2557254731678 6.9396509765625  C 13.3464881126767 6.713463984375  13.5852333054316 6.58282150390625  13.8279247093564 6.61986935546875  L 13.8318709205264 6.61986935546875  C 14.1751904622396 6.6744662109375  14.4908866048177 6.75636150390625  14.7769862130301 6.851906015625  C 15.4024591715495 7.0605440234375  15.8878419793992 7.335478203125  16.1936726236979 7.53826654296875  Z " fill-rule="nonzero" fill="#000000" stroke="none" transform="matrix(1 0 0 1 534 2929 )" />
  </g>
</svg>