<?xml version="1.0" encoding="utf-8"?>
<svg version="1.1" xmlns:xlink="http://www.w3.org/1999/xlink" width="16px" height="12px" xmlns="http://www.w3.org/2000/svg">
  <g transform="matrix(1 0 0 1 -534 -2994 )">
    <path d="M 0.521 11.95  L 0.521 2.491  L 2.456 2.491  L 2.456 11.95  L 0.521 11.95  Z M 1.439 10  L 1.439 8  L 15.632 8  L 15.632 10  L 1.439 10  Z M 13.697 11.95  L 13.697 8.26  L 15.632 8.26  L 15.632 11.95  L 13.697 11.95  Z M 7.739 7.765  L 7.739 3.985  L 9.548 3.985  L 9.548 6.28  L 15.695 6.28  L 15.695 7.765  L 7.739 7.765  Z M 7.181 2.122  C 7.181 2.95208397899568  7.85391602100432 3.625  8.684 3.625  C 9.51408397899568 3.625  10.187 2.95208397899568  10.187 2.122  C 10.187 1.29191602100432  9.51408397899568 0.619  8.684 0.619  C 7.85391602100432 0.619  7.181 1.29191602100432  7.181 2.122  Z " fill-rule="nonzero" fill="#000000" stroke="none" transform="matrix(1 0 0 1 534 2994 )" />
  </g>
</svg>