<?xml version="1.0" encoding="utf-8"?>
<svg version="1.1" xmlns:xlink="http://www.w3.org/1999/xlink" width="18px" height="15px" xmlns="http://www.w3.org/2000/svg">
  <g transform="matrix(1 0 0 1 -642 -2990 )">
    <path d="M 0.442241611196319 13.8938004486196  L 7.79497160659509 13.8938004486196  L 7.60779485352761 12.6368214394172  L 9.12122849693251 12.6368214394172  C 9.69301693941718 12.6368214394172  10.4868318611963 12.2321149547546  10.4868318611963 11.2200676825153  L 10.4868318611963 9.41715647469325  L 11.9444778404908 9.41715647469325  L 10.8375774907975 6.60191694708589  C 10.8156558865031 3.1754020053681  8.29143967177914 0.825153374233129  4.96863076610429 0.825153374233129  C 1.72423373466258 0.825153374233129  -0.498419936349693 2.97515660659509  0.0964143006134969 6.4918873803681  C 0.0964143006134969 6.4918873803681  0.539062021472393 9.58269267101227  2.27410057285276 10.7598545682515  C 2.27410057285276 11.8910654133436  1.18195514110429 12.9747794578221  0.442241611196319 13.8938004486196  Z M 14.7549395728528 13.5424927369632  C 14.7549395728528 13.193152345092  15.0379530697853 12.9101388481595  15.3872934746933 12.9101388481595  C 15.7366338665644 12.9101388481595  16.0196473634969 13.193152345092  16.0196473634969 13.5424927369632  C 16.0196473634969 13.8918331288344  15.7366338665644 14.1748466257669  15.3872934746933 14.1748466257669  C 15.038054052374 14.1748466257669  14.7549395728528 13.8917321462457  14.7549395728528 13.5424927369632  Z M 12.9984009884969 12.4885695889571  C 13.3476403977794 12.4885695889571  13.6307548773006 12.7716840684783  13.6307548773006 13.1209234777607  C 13.6307548773006 13.4701628870432  13.3476403977794 13.7532773665644  12.9984009884969 13.7532773665644  C 12.6491615792145 13.7532773665644  12.3660470996933 13.4701628870432  12.3660470996933 13.1209234777607  C 12.3660470996933 12.7716840684783  12.6491615792145 12.4885695889571  12.9984009884969 12.4885695889571  Z M 11.7338337346626 10.8022925391104  C 12.0830182672618 10.8023701360524  12.3660471153071 11.085461886693  12.3660471153071 11.4346464279141  C 12.3660471153071 11.7838858458199  12.0829326287953 12.0670003323316  11.7336932108896 12.0670003323316  C 11.3843681545174 12.0669227197758  11.1013393064721 11.7838309691352  11.1013393064721 11.4346464279141  C 11.1013393064721 11.0854070100084  11.3844537929838 10.8022925234966  11.7336932108896 10.8022925234966  Z M 13.7712779567788 11.2941233458589  C 13.7712779567788 10.9449388046378  14.0543068048241 10.6618470539972  14.4034913374233 10.6617694570552  C 14.7528712791021 10.6617694414414  15.0359857656138 10.9448839279531  15.0359857656138 11.2941233458589  C 15.0359857656138 11.64330788708  14.7529569175685 11.9263996377206  14.4037723849693 11.9264772346626  C 14.0543924432906 11.9264772502764  13.7712779567788 11.6433627637646  13.7712779567788 11.2941233458589  Z M 14.7549395858896 10.0294155396009  C 14.7549395858896 9.68023100700304  15.0379684269443 9.39713926335299  15.3871529509202 9.39706166641104  C 15.7363829829323 9.39713920453453  16.0194922341453 9.68018556208625  16.0196473634969 10.0294155682515  C 16.0196473634969 10.3786549488834  15.7365328839757 10.6617694284046  15.3872934746932 10.6617694284046  C 15.0380540654108 10.6617694284046  14.7549395858896 10.3786549488834  14.7549395858896 10.0294155396009  Z M 16.3708145513804 11.2238617983129  C 16.7200539642629 11.2238617983129  17.0031684467025 11.5069762807525  17.0031684467025 11.856215693635  C 17.0031684467025 12.2054551065175  16.7200539642629 12.4885695889571  16.3708145513804 12.4885695889571  C 16.0215751384979 12.4885695889571  15.7384606560583 12.2054551065175  15.7384606560583 11.856215693635  C 15.7384606560583 11.5069762807525  16.0215751384979 11.2238617983129  16.3708145513804 11.2238617983129  Z M 12.6470932768405 9.46732321395706  C 12.6470932682186 9.1181386752619  12.9301221117979 8.83504692209667  13.2793066418712 8.83496932515337  C 13.6286865749266 8.83496930953955  13.9118010544479 9.11808378906075  13.9118010544479 9.46732319834323  C 13.9118010544479 9.81656260762569  13.6286865749266 10.0996770871469  13.2794471656442 10.0996770871469  C 12.9302077624593 10.0996770871469  12.6470932854638 9.81656261714194  12.6470932768405 9.46732321395706  Z M 15.9495263397239 7.57026154754601  C 16.2986834349302 7.57037793381308  16.5816694779992 7.85345832174564  16.5816694779992 8.20261543634969  C 16.5816694779992 8.55185486503454  16.2985549827493 8.83496936028449  15.9493155540644 8.83496936028449  C 15.5999476731987 8.8348529388863  15.3169616301296 8.55177255095375  15.3169616301296 8.20261543634969  C 15.3169616301296 7.85337600766485  15.6000761253796 7.57026151241489  15.9493155540644 7.57026151241489  Z M 8.29087757668711 6.09476912730061  C 8.29087758388715 5.66792096069099  8.63690639397319 5.32189215644172  9.06375456058282 5.32189215644172  C 9.49070311081725 5.32189214992331  9.83673192301213 5.6679209621182  9.83673192301213 6.09476913381902  C 9.83673192301213 6.52161730551984  9.49070311081725 6.86764611771472  9.06385493911643 6.86764611771472  C 8.636906388882 6.86764611119632  8.29087757668711 6.52161729900143  8.29087757668711 6.09476912730061  Z " fill-rule="nonzero" fill="#000000" stroke="none" transform="matrix(1 0 0 1 642 2990 )" />
  </g>
</svg>