<?xml version="1.0" encoding="utf-8"?>
<svg version="1.1" xmlns:xlink="http://www.w3.org/1999/xlink" width="13px" height="13px" xmlns="http://www.w3.org/2000/svg">
  <g transform="matrix(1 0 0 1 -640 -2902 )">
    <path d="M 9.57285417285156 8.3655625  C 9.41689584570313 8.24879167285156  9.18295834570313 8.24879167285156  9.0661875 8.40475  L 8.16922917285156 9.26252082714843  C 8.04505024911659 9.38373112443638  7.85854841971757 9.41484108448685  7.70175 9.3405  C 6.8572212936497 8.88094653943985  6.08255884557437 8.30328186788296  5.40116667285157 7.62495832714844  C 4.72300113022103 6.94367178316009  4.14547063145179 6.16914381082128  3.68602082714844 5.32477082714844  C 3.61137352109684 5.16788474899747  3.64250570897773 4.9810916365276  3.764 4.85689582714844  L 4.6605625 3.96033332714844  C 4.81652082714844 3.804375  4.81652082714844 3.60922915429687  4.69975 3.45366667285156  L 3.45208332714844 1.93247917285156  C 3.45208332714844 1.90661805761719  3.43902082714844 1.8936875  3.41289582714844 1.8936875  C 3.34178033224777 1.81910253359406  3.24322165291846 1.77689678433258  3.14016666357422 1.77689678433258  C 3.03711167422998 1.77689678433258  2.93855299490066 1.81910253359406  2.8674375 1.8936875  L 1.81452082714844 2.94660417285156  C 1.30785415429687 3.45327084570313  2.5943125 5.87022917285156  4.85570832714844 8.17041667285156  C 7.11670832714844 10.4702083457031  9.57285415429688 11.7182708457031  10.0799166728516 11.2112083271484  L 11.1324375 10.1586875  L 11.1712291728516 10.1195  C 11.2883958457031 9.96354167285156  11.2883958457031 9.6908125  11.09325 9.57404167285156  L 9.57325 8.36516667285156  Z M 8.5199375 7.81970832714844  C 8.94902082714844 7.39102082714844  9.61204167285156 7.35222915429688  10.0795208271484 7.74172917285156  L 11.6003125 8.95060417285156  C 12.1069791728516 9.3405  12.1849583271484 10.0811041728516  11.7950625 10.5877708271484  C 11.7562708271484 10.6269583271484  11.7562708271484 10.66575  11.7170833271484 10.66575  L 10.6641666728516 11.7186666728516  C 9.65083334570312 12.732  6.92195834570312 11.2895833457031  4.30985417285156 8.67747917285156  C 1.69735417285156 6.065375  0.294124999999999 3.37529167285156  1.26866667285156 2.36195832714844  L 2.32158332714844 1.30904167285156  C 2.78945832714844 0.841562499999999  3.5300625 0.841562499999999  3.95875 1.30904167285156  L 4.03672917285156 1.38702082714844  L 5.24520832714844 2.9078125  C 5.6355 3.37529167285156  5.5963125 4.0383125  5.167625 4.46739582714844  L 4.50460417285156 5.13002082714844  C 4.9336875 5.8314375  5.40116667285156 6.45527082714844  5.94702082714844 7.001125  C 6.49327082714844 7.547375  7.11670832714844 8.01485417285156  7.81852082714844 8.44354167285156  L 8.52033332714844 7.81970832714843  Z M 7.15589582714844 2.55670832714844  C 6.92195832714844 2.55670832714844  6.766 2.40075  6.766 2.1668125  C 6.766 1.93327082714844  6.92195832714844 1.77691667285156  7.15589582714844 1.77691667285156  C 9.300125 1.77691667285156  11.0544583271484 3.53125  11.0544583271484 5.675875  C 11.0544583271484 5.90941667285156  10.8985 6.065375  10.6645625 6.065375  C 10.430625 6.065375  10.2746666728516 5.90941667285156  10.2746666728516 5.67547917285156  C 10.2746666728516 3.96033334570312  8.87104167285156 2.55670834570312  7.1555 2.55670832714844  Z M 7.15589582714844 4.11629167285156  C 6.92195832714844 4.11629167285156  6.766 3.96033334570312  6.766 3.72639582714844  C 6.766 3.49245830859375  6.92195832714844 3.3365  7.15589582714844 3.3365  C 8.44235415429688 3.3365  9.49527082714844 4.38941667285156  9.49527082714844 5.675875  C 9.49527082714844 5.90941667285156  9.33891665429688 6.065375  9.10497917285156 6.065375  C 8.8714375 6.065375  8.71508334570313 5.90941667285156  8.71508332714844 5.67547917285156  C 8.71269136889558 4.81513781151858  8.01584136130452 4.11828779563695  7.1555 4.11589582714844  Z " fill-rule="nonzero" fill="#3282f5" stroke="none" transform="matrix(1 0 0 1 640 2902 )" />
  </g>
</svg>