<?xml version="1.0" encoding="utf-8"?>
<svg version="1.1" xmlns:xlink="http://www.w3.org/1999/xlink" width="16px" height="16px" xmlns="http://www.w3.org/2000/svg">
  <g transform="matrix(1 0 0 1 -656 -2862 )">
    <path d="M 10.7879592285156 1.12872229003906  C 9.95934741210937 2.29826345214843  8.7408390625 3.37034531249999  8.7408390625 3.37034528808594  C 8.7408390625 3.37034528808594  7.37664658203125 4.14998989257812  5.18354536132812 4.19889772949219  C 4.59890842285156 4.24744919433594  4.40393044433594 4.24744919433594  3.86787465820312 4.49136467285156  C 2.64936630859375 5.12490942382813  1.33372529296875 6.29450998535156  0.651599389648436 7.1715841796875  C 0.018054638671873 7.95119909667969  1.236236328125 9.60827424316406  2.74688498535156 8.34118471679688  C 4.16037131347656 6.87911723632812  4.35502263183594 6.48916130371094  5.37858271484375 6.87911723632812  C 6.4020537109375 7.26910285644531  8.39985034179687 10.1443597167969  9.13088408203125 10.7778450927734  C 9.86191782226562 11.6061005615234  9.86191782226562 14.2862903808594  9.91049899902344 14.6273978759766  C 9.71584768066406 15.8944577148437  12.1036002441406 16.0894356689453  12.2496406982422 14.5302058349609  C 12.3471296875 13.555316015625  12.2985781982422 12.4832044433594  12.1036002441406 11.7524676513672  C 12.0061112548828 11.36248203125  11.47002578125 9.94935205078125  11.2264963378906 9.70546628417968  C 11.7135849121094 9.75434440917968  12.2986078857422 10.1443597167969  12.3960374755859 10.1929408935547  C 12.9321229492187 10.6314780029297  13.6142191894531 11.3624820556641  13.9067158447266 12.1421266357422  C 14.1016937988281 12.8731306884766  15.1737756835937 12.727119921875  15.5634049560547 12.3371046142578  C 16.0509389648437 11.849956640625  16.0509389648437 10.6803857910156  15.0273788818359 9.55936643066406  C 13.2242335693359 7.5612728515625  12.0546627197266 7.02521706542968  11.2750478027344 6.63555808105468  C 10.54404375 6.2455724609375  9.86191782226562 5.61208708496094  9.86191782226562 5.61208708496094  C 9.86191782226562 5.61208708496094  12.2496406738281 3.90646044921875  12.6882371826172 2.73683022460937  C 13.5167599121094 1.46974069824218  11.8111332763672 -0.0409079589843797  10.7879592285156 1.12872229003906  Z " fill-rule="nonzero" fill="#d81e06" stroke="none" transform="matrix(1 0 0 1 656 2862 )" />
  </g>
</svg>