<?xml version="1.0" encoding="utf-8"?>
<svg version="1.1" xmlns:xlink="http://www.w3.org/1999/xlink" width="20px" height="20px" xmlns="http://www.w3.org/2000/svg">
  <g transform="matrix(1 0 0 1 -683 -2128 )">
    <path d="M 16.4973958333333 10.5859375  C 16.6536458333333 10.4296875  16.7317708333333 10.234375  16.7317708333333 10  C 16.7317708333333 9.765625  16.6536458333333 9.5703125  16.4973958333333 9.4140625  L 15.3125 8.22916666666667  L 10.5989583333333 3.515625  C 10.4427083333333 3.359375  10.2473958333333 3.28125  10.0130208333333 3.28125  C 9.77864583333333 3.28125  9.58333333333333 3.359375  9.42708333333333 3.515625  L 8.2421875 4.70052083333333  C 8.0859375 4.85677083333333  8.0078125 5.05208333333333  8.0078125 5.28645833333333  C 8.0078125 5.52083333333333  8.0859375 5.71614583333333  8.2421875 5.87239583333333  L 10.703125 8.33333333333333  L 4.16666666666667 8.33333333333333  C 3.94097222222222 8.33333333333333  3.74565972222222 8.41579861111111  3.58072916666667 8.58072916666667  C 3.41579861111111 8.74565972222222  3.33333333333333 8.94097222222222  3.33333333333333 9.16666666666667  L 3.33333333333333 10.8333333333333  C 3.33333333333333 11.0590277777778  3.41579861111111 11.2543402777778  3.58072916666667 11.4192708333333  C 3.74565972222222 11.5842013888889  3.94097222222222 11.6666666666667  4.16666666666667 11.6666666666667  L 10.703125 11.6666666666667  L 8.2421875 14.1276041666667  C 8.07725694444444 14.2925347222222  7.99479166666667 14.4878472222222  7.99479166666667 14.7135416666667  C 7.99479166666667 14.9392361111111  8.07725694444444 15.1345486111111  8.2421875 15.2994791666667  L 9.42708333333333 16.484375  C 9.58333333333333 16.640625  9.77864583333333 16.71875  10.0130208333333 16.71875  C 10.2473958333333 16.71875  10.4427083333333 16.640625  10.5989583333333 16.484375  L 15.3125 11.7708333333333  L 16.4973958333333 10.5859375  Z M 18.6588541666667 4.98046875  C 19.5529513888889 6.51258680555555  20 8.18576388888889  20 10  C 20 11.8142361111111  19.5529513888889 13.4874131944444  18.6588541666667 15.01953125  C 17.7647569444444 16.5516493055556  16.5516493055556 17.7647569444444  15.01953125 18.6588541666667  C 13.4874131944444 19.5529513888889  11.8142361111111 20  10 20  C 8.18576388888889 20  6.51258680555556 19.5529513888889  4.98046875 18.6588541666667  C 3.44835069444444 17.7647569444444  2.23524305555556 16.5516493055556  1.34114583333333 15.01953125  C 0.447048611111111 13.4874131944444  0 11.8142361111111  0 10  C 0 8.18576388888889  0.447048611111111 6.51258680555555  1.34114583333333 4.98046875  C 2.23524305555556 3.44835069444444  3.44835069444444 2.23524305555555  4.98046875 1.34114583333333  C 6.51258680555556 0.447048611111109  8.18576388888889 0  10 0  C 11.8142361111111 0  13.4874131944444 0.447048611111109  15.01953125 1.34114583333333  C 16.5516493055556 2.23524305555555  17.7647569444444 3.44835069444444  18.6588541666667 4.98046875  Z " fill-rule="nonzero" fill="#000000" stroke="none" transform="matrix(1 0 0 1 683 2128 )" />
  </g>
</svg>