<?xml version="1.0" encoding="utf-8"?>
<svg version="1.1" xmlns:xlink="http://www.w3.org/1999/xlink" width="175px" height="28px" xmlns="http://www.w3.org/2000/svg">
  <g transform="matrix(1 0 0 1 -1166.5 -479.5 )">
    <path d="M 0 24  C 25.7822164948454 15.6783792339348  30.0314547837484 15.5897435897436  30.0314547837484 15.5897435897436  C 30.0314547837484 15.5897435897436  41.9095674967235 15.7948717948718  46.8401048492792 14.1538461538462  C 51.7706422018349 12.5128205128205  57.9043554336517 12.2469135802469  62.7522935779817 12.7179487179487  C 67.6002317223115 13.1889838556505  69.5508437934902 11.428933206711  73.9580602883355 9.23076923076923  C 78.3652767831809 7.03260525482748  80.5249861507073 8.10889522000634  84.4914809960681 7.7948717948718  C 88.457975841429 7.48084836973725  87.9239690721649 3.2744539411206  94.534793814433 2.96043051598607  C 101.145618556701 2.64640709085153  102.582151639621 6.72871161760051  112.057667103539 7.19974675530232  C 121.533182567456 7.67078189300412  116.31325917769 4.21145932257043  129.314547837484 3.8974358974359  C 142.315836497277 3.58341247230136  138.503276539974 -0.205128205128205  144.997422680412 0.134219689775247  C 151.491568820851 0.4735675846787  151.110052897542 3.37828426717316  154.415465268676 3.69230769230769  C 157.72087763981 4.00633111744223  158.225425950197 7.45045900601457  162.259501965924 7.7948717948718  C 166.293577981651 8.13928458372898  171 6.88572333016777  171 6.88572333016777  " stroke-width="3" stroke="#3399cc" fill="none" transform="matrix(1 0 0 1 1168 481 )" />
  </g>
</svg>