<?xml version="1.0" encoding="utf-8"?>
<svg version="1.1" xmlns:xlink="http://www.w3.org/1999/xlink" width="8px" height="8px" xmlns="http://www.w3.org/2000/svg">
  <g transform="matrix(1 0 0 1 -1412 -947 )">
    <path d="M 1416 948  C 1417.68 948  1419 949.32  1419 951  C 1419 952.68  1417.68 954  1416 954  C 1414.32 954  1413 952.68  1413 951  C 1413 949.32  1414.32 948  1416 948  Z " fill-rule="nonzero" fill="#ffffff" stroke="none" fill-opacity="0" />
    <path d="M 1416 948  C 1417.68 948  1419 949.32  1419 951  C 1419 952.68  1417.68 954  1416 954  C 1414.32 954  1413 952.68  1413 951  C 1413 949.32  1414.32 948  1416 948  Z " stroke-width="2" stroke="#0052d9" fill="none" />
  </g>
</svg>