<?xml version="1.0" encoding="utf-8"?>
<svg version="1.1" xmlns:xlink="http://www.w3.org/1999/xlink" width="17px" height="17px" xmlns="http://www.w3.org/2000/svg">
  <g transform="matrix(1 0 0 1 -208 -1344 )">
    <path d="M 4.2333984375 1.13997395833333  C 5.53569878472222 0.379991319444443  6.95789930555556 0  8.5 0  C 10.0421006944444 0  11.4643012152778 0.379991319444443  12.7666015625 1.13997395833333  C 14.0689019097222 1.89995659722222  15.1000434027778 2.93109809027778  15.8600260416667 4.2333984375  C 16.6200086805556 5.53569878472222  17 6.95789930555555  17 8.5  C 17 10.0421006944444  16.6200086805556 11.4643012152778  15.8600260416667 12.7666015625  C 15.1000434027778 14.0689019097222  14.0689019097222 15.1000434027778  12.7666015625 15.8600260416667  C 11.4643012152778 16.6200086805556  10.0421006944444 17  8.5 17  C 6.95789930555556 17  5.53569878472222 16.6200086805556  4.2333984375 15.8600260416667  C 2.93109809027778 15.1000434027778  1.89995659722222 14.0689019097222  1.13997395833333 12.7666015625  C 0.379991319444444 11.4643012152778  0 10.0421006944444  0 8.5  C 0 6.95789930555555  0.379991319444444 5.53569878472222  1.13997395833333 4.2333984375  C 1.89995659722222 2.93109809027778  2.93109809027778 1.89995659722222  4.2333984375 1.13997395833333  Z M 9.81705729166667 14.0615234375  C 9.88346354166667 13.9914279513889  9.91666666666667 13.9047309027778  9.91666666666667 13.8014322916667  L 9.91666666666667 11.6985677083333  C 9.91666666666667 11.5952690972222  9.88346354166667 11.5085720486111  9.81705729166667 11.4384765625  C 9.75065104166667 11.3683810763889  9.66948784722222 11.3333333333333  9.57356770833333 11.3333333333333  L 7.44856770833333 11.3333333333333  C 7.35264756944444 11.3333333333333  7.26779513888889 11.3702256944444  7.19401041666667 11.4440104166667  C 7.12022569444444 11.5177951388889  7.08333333333333 11.6026475694444  7.08333333333333 11.6985677083333  L 7.08333333333333 13.8014322916667  C 7.08333333333333 13.8973524305556  7.12022569444444 13.9822048611111  7.19401041666667 14.0559895833333  C 7.26779513888889 14.1297743055556  7.35264756944444 14.1666666666667  7.44856770833333 14.1666666666667  L 9.57356770833333 14.1666666666667  C 9.66948784722222 14.1666666666667  9.75065104166667 14.1316189236111  9.81705729166667 14.0615234375  Z M 9.7783203125 10.1878255208333  C 9.84841579861111 10.1324869791667  9.88715277777778 10.0679253472222  9.89453125 9.994140625  L 10.09375 3.12109375  C 10.09375 3.03255208333333  10.0568576388889 2.96614583333333  9.98307291666667 2.921875  C 9.90928819444444 2.86284722222222  9.82074652777778 2.83333333333333  9.71744791666667 2.83333333333333  L 7.28255208333333 2.83333333333333  C 7.17925347222222 2.83333333333333  7.09071180555556 2.86284722222222  7.01692708333333 2.921875  C 6.94314236111111 2.96614583333333  6.90625 3.03255208333333  6.90625 3.12109375  L 7.09440104166667 9.994140625  C 7.09440104166667 10.0679253472222  7.13129340277778 10.1324869791667  7.205078125 10.1878255208333  C 7.27886284722222 10.2431640625  7.36740451388889 10.2708333333333  7.470703125 10.2708333333333  L 9.51822916666667 10.2708333333333  C 9.62152777777778 10.2708333333333  9.70822482638889 10.2431640625  9.7783203125 10.1878255208333  Z " fill-rule="nonzero" fill="#000000" stroke="none" transform="matrix(1 0 0 1 208 1344 )" />
  </g>
</svg>