<?xml version="1.0" encoding="utf-8"?>
<svg version="1.1" xmlns:xlink="http://www.w3.org/1999/xlink" width="20px" height="28px" xmlns="http://www.w3.org/2000/svg">
  <g transform="matrix(1 0 0 1 -896 -215 )">
    <path d="M 19.8995911794118 10.5575208282895  C 19.8995911794118 17.5296886686404  11.0877701738235 27.7699167430263  10.0060795829412 27.7699167430263  C 8.94051173676471 27.7699167430263  0.112567986764706 17.5296886686404  0.112567986764706 10.5575208282895  C 0.112597778534012 4.85385655814765  4.54206507211485 0.230139593503459  10.0060795830882 0.230139593503459  C 15.470115160093 0.230139593503459  19.8995911795588 4.85389087698089  19.8995911795588 10.5575771371877  Z M 15.5024749258824 11.1312673429386  C 15.5024749258824 7.96255274726543  13.0416549098886 5.39380202881579  10.0060795829412 5.39380202881579  C 6.97050425599377 5.39380202881579  4.50968424 7.96255274726543  4.50968424 11.1312673429386  C 4.50968424 14.2999819386118  6.97050425599377 16.8687326570614  10.0060795829412 16.8687326570614  C 13.0416549098886 16.8687326570614  15.5024749258824 14.2999819386118  15.5024749258824 11.1312673429386  Z M 13.3039167729412 11.1312673429386  C 13.3039167729412 13.0324960987995  11.8274247645432 14.5737465286184  10.0060795698529 14.5737465286184  C 8.18473437516267 14.5737465286184  6.7082423667647 13.0324960987995  6.7082423667647 11.1312673429386  C 6.7082423667647 9.2300385870777  8.18473437516267 7.68878815725877  10.0060795698529 7.68878815725877  C 11.8274247645432 7.68878815725877  13.3039167729412 9.2300385870777  13.3039167729412 11.1312673429386  Z " fill-rule="nonzero" fill="#000000" stroke="none" transform="matrix(1 0 0 1 896 215 )" />
  </g>
</svg>