<?xml version="1.0" encoding="utf-8"?>
<svg version="1.1" xmlns:xlink="http://www.w3.org/1999/xlink" width="19px" height="19px" xmlns="http://www.w3.org/2000/svg">
  <g transform="matrix(1 0 0 1 -601 -1154 )">
    <path d="M 18.9724827586207 9.53962393162393  C 18.9724827586207 4.36382905982906  14.7164827586207 0.144205128205128  9.49606896551724 0.144205128205128  C 4.27565517241379 0.144205128205128  0.0196551724137931 4.36382905982906  0.0196551724137931 9.53962393162393  C 0.0196551724137931 14.7154188034188  4.27565517241379 18.9350427350427  9.49606896551724 18.9350427350427  C 14.7164827586207 18.9350427350427  18.9724827586207 14.7154188034188  18.9724827586207 9.53962393162393  Z M 17.9032413793103 9.53962393162393  C 17.882275862069 14.1334017094017  14.1294482758621 17.8749401709402  9.49606896551724 17.8749401709402  C 4.86268965517241 17.8749401709402  1.08889655172414 14.1334017094017  1.08889655172414 9.53962393162393  C 1.08889655172414 4.94584615384615  4.86268965517241 1.20430769230769  9.49606896551724 1.20430769230769  C 14.1294482758621 1.20430769230769  17.9032413793103 4.94584615384615  17.9032413793103 9.53962393162393  Z " fill-rule="nonzero" fill="#ffffff" stroke="none" transform="matrix(1 0 0 1 601 1154 )" />
  </g>
</svg>