<?xml version="1.0" encoding="utf-8"?>
<svg version="1.1" xmlns:xlink="http://www.w3.org/1999/xlink" width="12px" height="17px" xmlns="http://www.w3.org/2000/svg">
  <g transform="matrix(1 0 0 1 -1713 -413 )">
    <path d="M 11.9397547076471 6.40992336003289  C 11.9397547076471 10.6430252631031  6.65266210429412 16.8603065939803  6.00364774976471 16.8603065939803  C 5.36430704205882 16.8603065939803  0.0675407920588234 10.6430252631031  0.0675407920588234 6.40992336003289  C 0.0675586671204074 2.94698433887536  2.72523904326891 0.139727610341386  6.00364774985294 0.139727610341386  C 9.28206909605583 0.139727610341386  11.9397547077353 2.94700517530983  11.9397547077353 6.40995754757823  Z M 9.30148495552941 6.75826945821272  C 9.30148495552941 4.83440702512544  7.82499294593315 3.27480837463816  6.00364774976471 3.27480837463816  C 4.18230255359626 3.27480837463816  2.705810544 4.83440702512544  2.705810544 6.75826945821272  C 2.705810544 8.6821318913  4.18230255359626 10.2417305417873  6.00364774976471 10.2417305417873  C 7.82499294593315 10.2417305417873  9.30148495552941 8.6821318913  9.30148495552941 6.75826945821272  Z M 7.98235006376471 6.75826945821272  C 7.98235006376471 7.91258691712826  7.09645485872593 8.84834610666118  6.00364774191176 8.84834610666118  C 4.9108406250976 8.84834610666118  4.02494542005882 7.91258691712826  4.02494542005882 6.75826945821272  C 4.02494542005882 5.60395199929717  4.9108406250976 4.66819280976425  6.00364774191176 4.66819280976425  C 7.09645485872593 4.66819280976425  7.98235006376471 5.60395199929717  7.98235006376471 6.75826945821272  Z " fill-rule="nonzero" fill="#02a7f0" stroke="none" transform="matrix(1 0 0 1 1713 413 )" />
  </g>
</svg>