<?xml version="1.0" encoding="utf-8"?>
<svg version="1.1" xmlns:xlink="http://www.w3.org/1999/xlink" width="11px" height="11px" xmlns="http://www.w3.org/2000/svg">
  <g transform="matrix(1 0 0 1 -800 -264 )">
    <path d="M 10.9765625 8.5234375  C 10.9921875 8.55989583333333  11 8.61458333333333  11 8.6875  C 11 8.828125  10.9739583333333 9.01171875  10.921875 9.23828125  C 10.8697916666667 9.46484375  10.8151041666667 9.64322916666667  10.7578125 9.7734375  C 10.6484375 10.0338541666667  10.3307291666667 10.3098958333333  9.8046875 10.6015625  C 9.31510416666667 10.8671875  8.83072916666667 11  8.3515625 11  C 8.2109375 11  8.07291666666667 10.9908854166667  7.9375 10.97265625  C 7.80208333333333 10.9544270833333  7.65234375 10.921875  7.48828125 10.875  C 7.32421875 10.828125  7.20182291666667 10.7903645833333  7.12109375 10.76171875  C 7.04036458333333 10.7330729166667  6.89583333333333 10.6796875  6.6875 10.6015625  C 6.47916666666667 10.5234375  6.3515625 10.4765625  6.3046875 10.4609375  C 5.79427083333333 10.2786458333333  5.33854166666667 10.0625  4.9375 9.8125  C 4.27604166666667 9.40104166666667  3.58854166666667 8.83854166666667  2.875 8.125  C 2.16145833333333 7.41145833333333  1.59895833333333 6.72395833333333  1.1875 6.0625  C 0.9375 5.66145833333333  0.721354166666667 5.20572916666667  0.5390625 4.6953125  C 0.5234375 4.6484375  0.4765625 4.52083333333333  0.3984375 4.3125  C 0.3203125 4.10416666666667  0.266927083333333 3.95963541666667  0.23828125 3.87890625  C 0.209635416666667 3.79817708333333  0.171875 3.67578125  0.125 3.51171875  C 0.078125 3.34765625  0.0455729166666667 3.19791666666667  0.02734375 3.0625  C 0.00911458333333333 2.92708333333333  0 2.7890625  0 2.6484375  C 0 2.16927083333333  0.1328125 1.68489583333333  0.3984375 1.1953125  C 0.690104166666667 0.669270833333332  0.966145833333333 0.3515625  1.2265625 0.2421875  C 1.35677083333333 0.184895833333332  1.53515625 0.130208333333332  1.76171875 0.0781249999999998  C 1.98828125 0.0260416666666662  2.171875 0  2.3125 0  C 2.38541666666667 0  2.44010416666667 0.00781250000000022  2.4765625 0.0234374999999994  C 2.5703125 0.0546875000000003  2.70833333333333 0.252604166666667  2.890625 0.6171875  C 2.94791666666667 0.716145833333332  3.02604166666667 0.856770833333332  3.125 1.0390625  C 3.22395833333333 1.22135416666667  3.31510416666667 1.38671875  3.3984375 1.53515625  C 3.48177083333333 1.68359375  3.5625 1.82291666666667  3.640625 1.953125  C 3.65625 1.97395833333333  3.70182291666667 2.0390625  3.77734375 2.1484375  C 3.85286458333333 2.2578125  3.90885416666667 2.35026041666667  3.9453125 2.42578125  C 3.98177083333333 2.50130208333333  4 2.57552083333333  4 2.6484375  C 4 2.75260416666667  3.92578125 2.8828125  3.77734375 3.0390625  C 3.62890625 3.1953125  3.46744791666667 3.33854166666667  3.29296875 3.46875  C 3.11848958333333 3.59895833333333  2.95703125 3.73697916666667  2.80859375 3.8828125  C 2.66015625 4.02864583333333  2.5859375 4.1484375  2.5859375 4.2421875  C 2.5859375 4.2890625  2.59895833333333 4.34765625  2.625 4.41796875  C 2.65104166666667 4.48828125  2.67317708333333 4.54166666666667  2.69140625 4.578125  C 2.70963541666667 4.61458333333333  2.74609375 4.67708333333333  2.80078125 4.765625  C 2.85546875 4.85416666666667  2.88541666666667 4.90364583333333  2.890625 4.9140625  C 3.28645833333333 5.62760416666667  3.73958333333333 6.23958333333333  4.25 6.75  C 4.76041666666667 7.26041666666667  5.37239583333333 7.71354166666667  6.0859375 8.109375  C 6.09635416666667 8.11458333333333  6.14583333333333 8.14453125  6.234375 8.19921875  C 6.32291666666667 8.25390625  6.38541666666667 8.29036458333333  6.421875 8.30859375  C 6.45833333333333 8.32682291666667  6.51171875 8.34895833333333  6.58203125 8.375  C 6.65234375 8.40104166666667  6.7109375 8.4140625  6.7578125 8.4140625  C 6.8515625 8.4140625  6.97135416666667 8.33984375  7.1171875 8.19140625  C 7.26302083333333 8.04296875  7.40104166666667 7.88151041666667  7.53125 7.70703125  C 7.66145833333333 7.53255208333333  7.8046875 7.37109375  7.9609375 7.22265625  C 8.1171875 7.07421875  8.24739583333333 7  8.3515625 7  C 8.42447916666667 7  8.49869791666667 7.01822916666667  8.57421875 7.0546875  C 8.64973958333333 7.09114583333333  8.7421875 7.14713541666667  8.8515625 7.22265625  C 8.9609375 7.29817708333333  9.02604166666667 7.34375  9.046875 7.359375  C 9.17708333333333 7.4375  9.31640625 7.51822916666667  9.46484375 7.6015625  C 9.61328125 7.68489583333333  9.77864583333333 7.77604166666667  9.9609375 7.875  C 10.1432291666667 7.97395833333333  10.2838541666667 8.05208333333333  10.3828125 8.109375  C 10.7473958333333 8.29166666666667  10.9453125 8.4296875  10.9765625 8.5234375  Z " fill-rule="nonzero" fill="#ffffff" stroke="none" transform="matrix(1 0 0 1 800 264 )" />
  </g>
</svg>