<?xml version="1.0" encoding="utf-8"?>
<svg version="1.1" xmlns:xlink="http://www.w3.org/1999/xlink" width="10px" height="7px" xmlns="http://www.w3.org/2000/svg">
  <g transform="matrix(1 0 0 1 -605 -1160 )">
    <path d="M 9.73206349206349 0.280000000000002  C 9.48825396825397 0.0410666666666682  9.08190476190476 0.0410666666666682  8.83809523809524 0.28  L 3.5352380952381 5.4768  L 1.09714285714286 3.08746666666667  C 0.853333333333333 2.84853333333333  0.446984126984127 2.84853333333333  0.203174603174603 3.08746666666667  C -0.0406349206349207 3.3264  -0.0406349206349207 3.72462222222222  0.203174603174603 3.96355555555556  L 3.06793650793651 6.77102222222222  C 3.18984126984127 6.89048888888889  3.37269841269841 6.95022222222222  3.5352380952381 6.95022222222222  C 3.69777777777778 6.95022222222222  3.88063492063492 6.89048888888889  4.00253968253968 6.77102222222222  L 9.73206349206349 1.15608888888889  C 9.97587301587302 0.917155555555557  9.97587301587302 0.518933333333335  9.73206349206349 0.280000000000002  Z " fill-rule="nonzero" fill="#ffffff" stroke="none" transform="matrix(1 0 0 1 605 1160 )" />
  </g>
</svg>