<?xml version="1.0" encoding="utf-8"?>
<svg version="1.1" xmlns:xlink="http://www.w3.org/1999/xlink" width="21px" height="20px" xmlns="http://www.w3.org/2000/svg">
  <g transform="matrix(1 0 0 1 -1666 -303 )">
    <path d="M 14.3908223298725 17  L 14.3908223298725 10.0000142773437  L 17.9434488407689 10.0000142773437  L 17.9434488407689 17.1428612304687  L 19.7822883204153 17.1428612304687  L 19.7822883204153 20  L 1.30863049095395 20  L 1.30863049095395 17  L 14.3908223298725 17  Z M 12.2564043358347 10.0000142773437  L 12.2592464272204 10.0000142773437  L 12.2592464272204 17.1428612304687  L 8.71088308254523 17.1428612304687  L 8.71088308254523 10.0000142773437  L 12.2564043358347 10.0000142773437  Z M 6.57220192228618 10.0000142773437  L 6.57504403310033 10.0000142773437  L 6.57504403310033 17.1428612304687  L 3.02241752220395 17.1428612304687  L 3.02241752220395 10.0000142773437  L 6.57220192228618 10.0000142773437  Z M 10.1816704551809 0.1000284375  C 10.2747952327976 0.0341184611519558  10.3860999732013 -0.000848307120457506  10.4999857978002 2.857421875E-05  C 10.5757430416656 -2.74919916589855E-05  10.6507073646627 0.0155309000162952  10.7202486281867 0.04574279296875  L 10.818301120991 0.1000284375  L 20.2284982028166 6.86144734375  C 20.4188228841972 6.995760027342  20.4962256460477 7.24148308251971  20.4174979308183 7.461446484375  C 20.3557572959228 7.63954363192563  20.2069155705266 7.77296754987939  20.0238669236225 7.814303125  L 19.9101828796258 8  L 1.08978871597451 8  C 0.857350973168288 7.83644974080362  0.647773516006577 7.6859595043874  0.582473645353618 7.461446484375  C 0.518626486886255 7.28217341475787  0.55853832105568 7.08210800737994  0.68621034035773 6.9414472265625  L 0.771473373355263 6.86144734375  L 10.1816704551809 0.1000284375  Z " fill-rule="nonzero" fill="#f59a23" stroke="none" transform="matrix(1 0 0 1 1666 303 )" />
  </g>
</svg>