<?xml version="1.0" encoding="utf-8"?>
<svg version="1.1" xmlns:xlink="http://www.w3.org/1999/xlink" width="332px" height="332px" xmlns="http://www.w3.org/2000/svg">
  <g transform="matrix(1 0 0 1 -1511 -147 )">
    <path d="M 1677 147.5  C 1769.68 147.5  1842.5 220.32  1842.5 313  C 1842.5 405.68  1769.68 478.5  1677 478.5  C 1584.32 478.5  1511.5 405.68  1511.5 313  C 1511.5 220.32  1584.32 147.5  1677 147.5  Z " fill-rule="nonzero" fill="#f59a23" stroke="none" fill-opacity="0.101960784313725" />
    <path d="M 1677 147.5  C 1769.68 147.5  1842.5 220.32  1842.5 313  C 1842.5 405.68  1769.68 478.5  1677 478.5  C 1584.32 478.5  1511.5 405.68  1511.5 313  C 1511.5 220.32  1584.32 147.5  1677 147.5  Z " stroke-width="1" stroke="#f59a23" fill="none" stroke-opacity="0.596078431372549" />
  </g>
</svg>