<?xml version="1.0" encoding="utf-8"?>
<svg version="1.1" xmlns:xlink="http://www.w3.org/1999/xlink" width="38px" height="36px" xmlns="http://www.w3.org/2000/svg">
  <g transform="matrix(1 0 0 1 -591 -1384 )">
    <path d="M 26 30.8571502148437  L 26 18.0000256992187  L 32 18.0000256992187  L 32 30.8571502148437  L 35.7965217226563 30.8571502148437  L 35.7965217226563 36  L 2.36799803125 36  L 2.36799803125 30.8571502148437  L 26 30.8571502148437  Z M 22.1782554648438 18.0000256992187  L 22 18.0000256992187  L 22 30.8571502148437  L 16 30.8571502148437  L 16 18.0000256992187  L 22.1782554648438 18.0000256992187  Z M 11.892555859375 18.0000256992187  L 12 18.0000256992187  L 12 30.8571502148437  L 6 30.8571502148437  L 6 18.0000256992187  L 11.892555859375 18.0000256992187  Z M 18.423975109375 0.1800511875  C 18.5924866117291 0.0614132300735205  18.7938951896023 -0.00152695281682351  18.9999743007813 5.143359375E-05  C 19.1370588372996 -4.9485584986174E-05  19.2727085646277 0.0279556200293314  19.3985451367188 0.08233702734375  L 19.5759734570312 0.1800511875  L 36.6039491289062 12.35060521875  C 36.9483461714044 12.5923680492156  37.0884083118958 13.0346695485355  36.9459486367188 13.430603671875  C 36.8342274878603 13.7511785374661  36.5648948419053 13.9913415897829  36.2336639570312 14.065745625  L 36.0279499726563 14  L 1.97199862890625 14  C 1.55139699906643 14.1056095334465  1.17216160039285 13.8347271078973  1.0539999296875 13.430603671875  C 0.938466976270366 13.1079121465642  1.01068839048171 12.7477944132839  1.24171394921875 12.4946050078125  L 1.3959994375 12.35060521875  L 18.423975109375 0.1800511875  Z " fill-rule="nonzero" fill="#000000" stroke="none" transform="matrix(1 0 0 1 591 1384 )" />
  </g>
</svg>