<?xml version="1.0" encoding="utf-8"?>
<svg version="1.1" xmlns:xlink="http://www.w3.org/1999/xlink" width="24px" height="35px" xmlns="http://www.w3.org/2000/svg">
  <g transform="matrix(1 0 0 1 -695 -1314 )">
    <path d="M 23.8795094152941 13.1969010353618  C 23.8795094152941 21.9121108358004  13.3053242085882 34.7123959287829  12.0072954995294 34.7123959287829  C 10.7286140841176 34.7123959287829  0.135081584117647 21.9121108358004  0.135081584117647 13.1969010353618  C 0.135117334240815 6.06732069768456  5.45047808653782 0.287674491879323  12.0072954997059 0.287674491879323  C 18.5641381921117 0.287674491879323  23.8795094154706 6.06736359622611  23.8795094154706 13.1969714214846  Z M 18.6029699110588 13.9140841786732  C 18.6029699110588 9.95319093408179  15.6499858918663 6.74225253601974  12.0072954995294 6.74225253601974  C 8.36460510719253 6.74225253601974  5.411621088 9.95319093408179  5.411621088 13.9140841786732  C 5.411621088 17.8749774232647  8.36460510719253 21.0859158213268  12.0072954995294 21.0859158213268  C 15.6499858918663 21.0859158213268  18.6029699110588 17.8749774232647  18.6029699110588 13.9140841786732  Z M 15.9647001275294 13.9140841786732  C 15.9647001275294 16.2906201234994  14.1929097174519 18.217183160773  12.0072954838235 18.217183160773  C 9.8216812501952 18.217183160773  8.04989084011764 16.2906201234994  8.04989084011764 13.9140841786732  C 8.04989084011764 11.5375482338471  9.8216812501952 9.61098519657346  12.0072954838235 9.61098519657346  C 14.1929097174519 9.61098519657346  15.9647001275294 11.5375482338471  15.9647001275294 13.9140841786732  Z " fill-rule="nonzero" fill="#70b603" stroke="none" transform="matrix(1 0 0 1 695 1314 )" />
  </g>
</svg>