<?xml version="1.0" encoding="utf-8"?>
<svg version="1.1" xmlns:xlink="http://www.w3.org/1999/xlink" width="17px" height="21px" xmlns="http://www.w3.org/2000/svg">
  <g transform="matrix(1 0 0 1 -14 -130 )">
    <path d="M 16.375 3.35146875  L 15.79225 3.2851875  C 12.723625 2.93803125  10.4149375 2.107875  8.9305 0.81703125  L 8.54003125 0.47775  L 8.11871875 0.7783125  C 5.7923125 2.43928125  3.4915 3.28125  1.28125 3.28125  L 0.625 3.28125  L 0.625 12.46875  C 0.625 15.285375  3.10825 17.84015625  8.21715625 20.2794375  L 8.4855625 20.40740625  L 8.75921875 20.2899375  C 13.813 18.1190625  16.375 15.48815625  16.375 12.46875  L 16.375 3.35146875  Z M 15.0625 4.51696875  L 15.0625 12.46875  C 15.0625 14.8640625  12.860125 17.049375  8.51378125 18.965625  C 4.14971875 16.83740625  1.9375 14.65209375  1.9375 12.46875  L 1.9375 4.57275  C 4.08409375 4.433625  6.276625 3.61528125  8.46915625 2.13346875  C 10.04284375 3.33309375  12.256375 4.1330625  15.0625 4.51696875  Z M 7.87590625 12.43790625  L 5.37821875 9.6114375  C 5.25361164300398 9.47046689367017  5.07450730340454 9.38973774628073  4.886359375 9.38973774628073  C 4.52380355754145 9.38973774628073  4.22989399628073 9.68364730754145  4.22989399628073 10.046203125  C 4.22989399628073 10.206351771254  4.28843633154366 10.3609767205539  4.3945 10.48096875  L 6.8921875 13.3074375  C 7.15075 13.59946875  7.51103125 13.74975  7.87459375 13.74975  C 8.26933413523944 13.7493959674134  8.64321155305112 13.5724481875733  8.89375 13.26740625  L 12.94609375 8.28975  C 13.0414295793267 8.17267488417597  13.093485036023 8.02630992224266  13.093485036023 7.875328125  C 13.093485036023 7.51285637505374  12.7996436249463 7.21901496397698  12.437171875 7.21901496397698  C 12.2397881350335 7.21901496397698  12.0528858361669 7.30784989062164  11.92825 7.46090625  L 7.87590625 12.43790625  Z " fill-rule="nonzero" fill="#ffffff" stroke="none" transform="matrix(1 0 0 1 14 130 )" />
  </g>
</svg>