<?xml version="1.0" encoding="UTF-8"?>
<svg width="13px" height="13px" viewBox="0 0 13 13" version="1.1" xmlns="http://www.w3.org/2000/svg" xmlns:xlink="http://www.w3.org/1999/xlink">
    <title>10</title>
    <g id="后台" stroke="none" stroke-width="1" fill="none" fill-rule="evenodd">
        <g id="餐食管理" transform="translate(-209.000000, -233.000000)" fill="#B56F45" fill-rule="nonzero">
            <g id="编组-6" transform="translate(80.000000, 152.000000)">
                <g id="编组-2" transform="translate(8.000000, 59.000000)">
                    <g id="10" transform="translate(121.500000, 22.766667)">
                        <path d="M11.1333333,4.06666666 C10.8666667,4.06666666 10.6333333,4.29999998 10.6333333,4.56666666 L10.6333333,8.66666666 C10.6333333,9.76666666 9.7,10.7 8.6,10.7 L3.33333333,10.7 C2.03333333,10.7 0.966666656,9.66666667 0.966666672,8.36666666 L0.966666672,2.83333333 C0.966666672,1.83333333 1.8,1 2.8,1 L6.76666667,1 C7.03333334,1 7.26666667,0.766666672 7.26666667,0.5 C7.26666667,0.233333328 7.03333334,0 6.76666667,0 L2.83333333,0 C1.26666666,0 0,1.26666667 0,2.83333333 L0,8.33333333 C0,10.1666667 1.5,11.6666667 3.36666667,11.6666667 L8.63333333,11.6666667 C10.3,11.6666667 11.6666667,10.3 11.6666667,8.63333333 L11.6666667,4.56666666 C11.6333333,4.29999998 11.4,4.06666666 11.1333333,4.06666666 Z M4.96666667,6.83333333 C5.06666667,6.93333333 5.2,6.96666666 5.3,6.96666666 C5.43333333,6.96666666 5.56666667,6.89999998 5.66666667,6.8 L11.1,1.2 C11.3,1 11.3,0.7 11.1,0.5 C10.9,0.3 10.6,0.3 10.4,0.5 L4.93333333,6.13333333 C4.76666666,6.33333333 4.76666666,6.63333333 4.96666667,6.83333333 Z" id="形状"></path>
                    </g>
                </g>
            </g>
        </g>
    </g>
</svg>