<?xml version="1.0" encoding="UTF-8"?>
<svg width="14px" height="14px" viewBox="0 0 14 14" version="1.1" xmlns="http://www.w3.org/2000/svg" xmlns:xlink="http://www.w3.org/1999/xlink">
    <title>9</title>
    <g id="后台" stroke="none" stroke-width="1" fill="none" fill-rule="evenodd">
        <g id="餐食管理-菜品管理" transform="translate(-233.000000, -232.000000)" fill="#B56F45" fill-rule="nonzero">
            <g id="编组-6" transform="translate(80.000000, 152.000000)">
                <g id="编组-2" transform="translate(8.000000, 59.000000)">
                    <g id="9" transform="translate(145.943414, 21.577939)">
                        <path d="M12.1986952,1.6763114 C12.1873984,1.46020202 12.0671952,1.3247489 11.8559609,1.2862489 C11.7061015,1.2589364 11.552414,1.23971765 11.4003827,1.23932702 C10.0536484,1.23579577 8.70689836,1.23728015 7.36014836,1.23726452 C6.83903899,1.23726452 6.83286711,1.23721765 6.83630461,0.722498898 C6.83797649,0.471217648 6.80074211,0.243123898 6.55942961,0.116702023 C6.27060149,-0.0346104773 5.96044524,-0.0388761023 5.67413274,0.104452023 C5.39341399,0.244967648 5.34927336,0.515170773 5.38730461,0.804592648 C5.39494524,0.862748898 5.38361711,0.923514523 5.39222649,0.981420773 C5.42208586,1.18242077 5.34108586,1.24196765 5.13892961,1.24170202 C4.11175774,1.24032702 3.08455461,1.25515515 2.05735149,1.26157702 C1.53863274,1.26482702 1.01980461,1.25713952 0.501163986,1.26451452 C0.228851486,1.26838952 0.0104608608,1.35515515 0.000382735809,1.6845614 C-0.00949226419,2.00745202 0.172413986,2.15904577 0.465835861,2.19992077 C0.593460861,2.21770202 0.727617111,2.22207702 0.854663986,2.2037489 C1.14027336,2.16254577 1.23063274,2.25117077 1.22680461,2.55798327 C1.20825774,4.04626452 1.21842961,5.53488952 1.21842961,7.02340515 C1.21842961,8.50009265 1.21761711,9.97679577 1.21874211,11.4534833 C1.21939836,12.3032176 1.64950774,12.7486239 2.49783586,12.7505458 C4.90778899,12.7560301 7.31775774,12.7554051 9.72771086,12.7508895 C10.5768515,12.7492958 11.0018202,12.3133426 11.0053359,11.4546864 C11.0094296,10.4505458 11.006289,9.44638952 11.006289,8.44223327 C11.006289,6.4811864 11.0140546,4.52007702 10.998164,2.55915515 C10.9956952,2.25501452 11.0804609,2.16320202 11.3686015,2.20382702 C11.5564921,2.2303114 11.7497109,2.2109989 11.9248359,2.1313739 C12.1144296,2.04520202 12.209664,1.8859989 12.1986952,1.6763114 L12.1986952,1.6763114 Z M9.05492961,11.7347645 C7.05767961,11.7419364 5.06042961,11.752077 3.06317961,11.7586877 C2.40411711,11.7608426 2.20072649,11.5539051 2.20027336,10.8892333 C2.19933586,9.50620202 2.19999211,8.12317077 2.19999211,6.74013952 C2.19999211,5.33346765 2.20552336,3.92676452 2.19454867,2.52017077 C2.19275774,2.28298327 2.23813274,2.1996239 2.49782024,2.20076831 C4.90921086,2.21148327 7.32067961,2.21088952 9.73207024,2.2012489 C9.97327336,2.20028015 10.0182109,2.2770614 10.0179452,2.4989364 C10.0146327,5.25303015 10.0228046,8.00713952 10.0234766,10.7612333 C10.023664,11.5163739 9.79975774,11.7320926 9.05492961,11.7347645 L9.05492961,11.7347645 Z M5.21011711,7.04634265 C5.21003899,8.0228114 5.21399211,8.99929577 5.20821086,9.97571765 C5.20571086,10.3984208 4.87733586,10.6336083 4.55271086,10.4577645 C4.33988274,10.3424833 4.31547649,10.1438895 4.31614836,9.92715515 C4.31953899,8.83135827 4.31771086,7.73554577 4.31769524,6.63973327 C4.31769524,5.82601452 4.31749211,5.01229577 4.31777336,4.19857702 C4.31792961,3.7578739 4.46578899,3.5476864 4.77135149,3.55190357 C5.07263274,3.5561864 5.20980461,3.7622489 5.21003899,4.21459265 C5.21052336,5.15853015 5.21017961,6.1024364 5.21011711,7.04634265 L5.21011711,7.04634265 Z M8.06447649,6.99123327 C8.06447649,8.04226452 8.06571086,9.09328015 8.06385149,10.1443114 C8.06313274,10.5487645 7.86978899,10.7953114 7.56917961,10.786577 C7.27778899,10.7781083 7.09432024,10.5430145 7.09399211,10.159077 C7.09221086,8.04521765 7.09213274,5.93135827 7.09402336,3.8174989 C7.09438274,3.41667077 7.26185149,3.20879577 7.57110149,3.20478769 C7.88869524,3.20078015 8.06344524,3.42204577 8.06400774,3.83817077 C8.06542961,4.88917077 8.06447649,5.94020202 8.06447649,6.99123327 L8.06447649,6.99123327 Z" id="形状"></path>
                    </g>
                </g>
            </g>
        </g>
    </g>
</svg>