<?xml version="1.0" encoding="UTF-8"?>
<svg width="50px" height="50px" viewBox="0 0 50 50" version="1.1" xmlns="http://www.w3.org/2000/svg" xmlns:xlink="http://www.w3.org/1999/xlink">
    <title>下午茶</title>
    <g id="后台" stroke="none" stroke-width="1" fill="none" fill-rule="evenodd">
        <g id="编辑菜单" transform="translate(-1777.000000, -216.000000)" fill="#FF6E04" fill-rule="nonzero">
            <g id="编组-3备份-2" transform="translate(1749.000000, 188.000000)">
                <g id="下午茶" transform="translate(28.708333, 28.708333)">
                    <path d="M32.3888889,12.1458333 C34.9443017,12.1458333 37.015873,14.1850364 37.015873,16.7005208 L37.015873,20.875651 L42.4140212,20.875651 C45.8212382,20.875651 48.5833334,23.5945884 48.5833334,26.9485677 L48.5833334,33.0214844 C48.5833334,34.632122 47.9333541,36.1767922 46.7763837,37.315685 C45.6194132,38.4545777 44.0502245,39.0944011 42.4140212,39.0944011 L37.015873,39.0944011 L37.015873,39.4739583 C37.015873,44.5049272 32.8727303,48.5833333 27.7619048,48.5833333 L9.25396826,48.5833333 C4.14314271,48.5833333 0,44.5049272 0,39.4739583 L0,16.7005208 C0,14.1850364 2.07157136,12.1458333 4.62698413,12.1458333 L32.3888889,12.1458333 Z M42.4140212,26.9485677 L37.015873,26.9485677 L37.015873,33.0214844 L42.4140212,33.0214844 L42.4140212,26.9485677 Z" id="形状"></path>
                    <path d="M18.5079365,0 C20.211545,0 21.5925926,1.35946867 21.5925926,3.03645829 L21.5925926,6.07291665 C21.5923319,7.74972474 20.2113607,9.10891015 18.5079366,9.10891015 C16.8045124,9.10891015 15.4235413,7.74972474 15.4232805,6.07291665 L15.4232805,3.03645829 C15.4232805,1.3594687 16.804328,0 18.5079365,0 L18.5079365,0 Z M6.16931222,0 C7.87292069,0 9.2539683,1.3594687 9.2539683,3.03645829 L9.2539683,6.07291665 C9.25413699,7.15784944 8.66624177,8.16043976 7.71177656,8.70295411 C6.75731136,9.24546846 5.58131302,9.24546846 4.62684781,8.70295411 C3.6723826,8.16043976 3.08448738,7.15784944 3.08465607,6.07291665 L3.08465607,3.03645829 C3.08465607,1.35946867 4.46570372,0 6.16931222,0 L6.16931222,0 Z M30.8465609,0 C32.5501694,0 33.931217,1.35946867 33.931217,3.03645829 L33.931217,6.07291665 C33.931217,7.74990624 32.5501694,9.10937488 30.8465609,9.10937488 C29.1429524,9.10937488 27.7619048,7.74990624 27.7619048,6.07291665 L27.7619048,3.03645829 C27.7619048,1.35946867 29.1429524,0 30.8465609,0 L30.8465609,0 Z" id="形状结合" opacity="0.5"></path>
                </g>
            </g>
        </g>
    </g>
</svg>