<?xml version="1.0" encoding="UTF-8"?>
<svg width="32px" height="32px" viewBox="0 0 32 32" version="1.1" xmlns="http://www.w3.org/2000/svg" xmlns:xlink="http://www.w3.org/1999/xlink">
    <title>交班@3x</title>
    <g id="终端" stroke="none" stroke-width="1" fill="none" fill-rule="evenodd">
        <g id="点餐页" transform="translate(-1280.000000, -17.000000)" fill="#FFFFFF">
            <g id="工具栏备份" transform="translate(342.000000, 0.000000)">
                <g id="编组-4" transform="translate(818.000000, 17.000000)">
                    <g id="交班" transform="translate(120.000000, 0.000000)">
                        <path d="M16,0 C7.163444,0 0,7.163444 0,16 C0,24.836556 7.163444,32 16,32 C24.836556,32 32,24.836556 32,16 C32,11.7565362 30.3142906,7.68687356 27.3137085,4.6862915 C24.3131264,1.68570945 20.2434638,0 16,0 Z M15.5576,16.4656 C14.796464,17.5465061 14.3899926,18.8372066 14.3944,20.1592 C14.391874,20.7481461 14.4726745,21.3344885 14.6344,21.9008 C14.7927346,22.4484679 15.017895,22.9745587 15.3048,23.4672 L14.8248,23.4672 C14.4802667,23.4672 14.0778667,23.4554667 13.6176,23.432 C13.1573333,23.4085333 12.6837333,23.3765333 12.1968,23.336 C11.7050667,23.296 11.2189333,23.2493333 10.7384,23.196 C10.2578667,23.1426667 9.82026667,23.0872 9.4256,23.0296 C9.03306667,22.9704 8.69946667,22.912 8.4248,22.8544 C8.24220025,22.8294055 8.06601051,22.7699517 7.9056,22.6792 C7.7752,22.5864 7.676,22.2984 7.6104,21.8136 C7.54933461,21.1913282 7.57626608,20.5635557 7.6904,19.9488 C7.72442248,19.6873275 7.82587801,19.4392025 7.9848,19.2288 C8.13802798,19.0386197 8.32286226,18.876247 8.5312,18.7488 C8.75476468,18.6116651 8.99516938,18.5041015 9.2464,18.4288 C9.508,18.344 9.7768,18.264 10.0504,18.1888 C10.324,18.1136 10.5904,18.0288 10.8464,17.9448 C11.0921916,17.8632252 11.3286986,17.7559658 11.552,17.6248 C11.7646666,17.5022428 11.9602228,17.3521461 12.1336,17.1784 C12.2565388,17.0538394 12.3567181,16.9087148 12.4296,16.7496 C12.488251,16.6111935 12.5181892,16.4623195 12.5176,16.312 C12.5176,16.16 12.5117333,15.9906667 12.5,15.804 C12.4888546,15.5622982 12.3868511,15.3337191 12.2144,15.164 C12.0464,15.004 11.8610667,14.844 11.6584,14.684 C11.5519022,14.5868828 11.464058,14.4711127 11.3992,14.3424 C11.3224488,14.1969767 11.2538103,14.0474144 11.1936,13.8944 C11.1338667,13.7189333 11.0744,13.5381333 11.0152,13.352 C10.9253315,13.3258619 10.8406296,13.2844581 10.7648,13.2296 C10.6783531,13.1571925 10.6002686,13.0753513 10.532,12.9856 C10.4328163,12.8484317 10.3598561,12.6941031 10.3168,12.5304 C10.2608699,12.3553018 10.2367558,12.171601 10.2456,11.988 C10.254613,11.8368564 10.2909328,11.6885958 10.3528,11.5504 C10.4058353,11.4140523 10.4849059,11.2893326 10.5856,11.1832 C10.5856448,10.7387609 10.6096797,10.2946481 10.6576,9.8528 C10.712366,9.44477784 10.795772,9.04111452 10.9072,8.6448 C11.0205056,8.22829724 11.210412,7.83654758 11.4672,7.4896 C11.8721575,6.91209511 12.4384483,6.46685413 13.0952,6.2096 C13.3793972,6.0950966 13.6761166,6.01453928 13.9792,5.9696 C14.2606242,5.92943886 14.5445248,5.90912206 14.8288,5.90879706 C15.1746199,5.90841184 15.5194089,5.94651303 15.8568,6.0224 C16.1856802,6.09427785 16.5070893,6.19686093 16.8168,6.3288 C17.09609,6.44717976 17.3625425,6.59380909 17.612,6.7664 C17.8157709,6.90371964 17.9994047,7.06877466 18.1576,7.2568 C18.4621581,7.61985651 18.6928769,8.0389005 18.8368,8.4904 C18.9735132,8.91033335 19.0751944,9.34087306 19.1408,9.7776 C19.2007323,10.2477436 19.2303934,10.7212524 19.2296,11.1952 C19.3133829,11.2532698 19.3813109,11.3313732 19.4272,11.4224 C19.4811527,11.5211923 19.5202399,11.6274018 19.5432,11.7376 C19.5733308,11.8935181 19.5763079,12.0534687 19.552,12.2104 C19.5402628,12.4195764 19.4886713,12.6245845 19.4,12.8144 C19.3351782,12.943116 19.2470169,13.0586751 19.14,13.1552 C19.0421651,13.243183 18.9264508,13.3089546 18.8008,13.348 C18.7768,13.4176 18.7528,13.4936 18.7288,13.5752 L18.64,13.8152 C18.6168,13.8952 18.5872,13.9848 18.552,14.0784 L18.5464,14.0784 C17.9434251,14.3202406 17.3796831,14.6502359 16.8736,15.0576 C16.3711676,15.462996 15.9281727,15.9369601 15.5576,16.4656 L15.5576,16.4656 Z M17.1112,17.8632 C17.1112,17.8632 19.7336,15.9056 19.7832,15.8632 C19.8589012,15.8096303 19.9520999,15.7867595 20.044,15.7992 C20.204,15.8304 20.1952,16.0152 20.1952,16.0152 L20.1952,17.52 L22.7456,17.52 C23.7694388,17.5255455 24.6321391,18.2857874 24.7664,19.3008 C24.864,19.728 24.592,19.568 24.5752,19.5544 C24.0338231,19.2394394 23.4358247,19.0339454 22.8152,18.9496 L20.204,18.9496 L20.204,20.3424 C20.204,20.3424 20.204,20.5584 20.0528,20.6008 C19.9481181,20.6152164 19.8415129,20.6048026 19.7416,20.5704 L17.0288,18.6304 L17.0288,18.624 C16.9091864,18.539475 16.8407669,18.3999233 16.8472,18.2536 C16.8640885,18.0874019 16.9632466,17.9407682 17.1112,17.8632 L17.1112,17.8632 Z M24.8824,23.2408 C24.8639186,23.403502 24.766326,23.5465979 24.6216,23.6232 C24.6216,23.6232 21.9992,25.5808 21.9496,25.6232 C21.8916747,25.6744767 21.8142227,25.6978584 21.7376,25.6872 C21.5664,25.6656 21.5376,25.4712 21.5376,25.4712 L21.5376,23.9704 L18.9776,23.9704 C17.9433931,23.9575434 17.0774566,23.1831537 16.9496,22.1568 C16.8512,21.7456 17.036,21.8312 17.1168,21.8976 C17.6482399,22.2254372 18.2427205,22.4377712 18.8616,22.5208 C18.8973032,22.5266461 18.9334214,22.5295891 18.9696,22.5296 L21.5496,22.5296 L21.5496,21.136 C21.5591562,21.0199871 21.6383523,20.9214672 21.7496,20.8872 C21.8373956,20.8613648 21.9319432,20.8726411 22.0112,20.9184 L24.7032,22.868 C24.8232296,22.9524608 24.8914988,23.0926241 24.884,23.2392 L24.8824,23.2408 Z" id="形状"></path>
                    </g>
                </g>
            </g>
        </g>
    </g>
</svg>