<?xml version="1.0" encoding="UTF-8"?>
<svg width="52px" height="48px" viewBox="0 0 52 48" version="1.1" xmlns="http://www.w3.org/2000/svg" xmlns:xlink="http://www.w3.org/1999/xlink">
    <title>午餐</title>
    <g id="后台" stroke="none" stroke-width="1" fill="none" fill-rule="evenodd">
        <g id="编辑菜单" transform="translate(-1653.000000, -218.000000)" fill="#FF6E04" fill-rule="nonzero">
            <g id="编组-3备份" transform="translate(1627.000000, 188.000000)">
                <g id="午餐" transform="translate(26.605159, 30.916667)">
                    <path d="M25.446955,0.00283393713 C29.6025711,0.00283393713 33.137032,2.58174193 34.4464156,6.18371121 L38.7040995,6.18371121 C41.9252692,6.18371121 44.5365432,8.72132973 44.5365432,11.8516408 L44.5365432,15.459278 L32.5567038,15.462112 C30.809887,17.3608684 28.2698577,18.5511336 25.446955,18.5511336 C22.621136,18.5511336 20.0811067,17.3608683 18.3372061,15.462112 L6.36028285,15.462112 L6.36028285,11.8516408 C6.36028285,8.72132973 8.97155685,6.18371121 12.1927266,6.18371121 L16.4474943,6.18371121 C17.7965988,2.47804655 21.4021121,0.00062554208 25.446955,0 L25.446955,0.00283393713 Z" id="路径" opacity="0.5"></path>
                    <path d="M47.7152251,12.3674224 C49.4737069,12.3674224 50.8968254,13.7532311 50.8968254,15.459278 L50.8968254,18.5511336 C50.9006177,27.390016 46.0485132,35.558493 38.1704309,39.9759075 L38.1704309,40.7070704 C38.1704309,43.8373815 35.5591569,46.375 32.3379872,46.375 L18.5559227,46.375 C15.334753,46.375 12.723479,43.8373815 12.723479,40.7070704 L12.723479,39.9759075 C4.84651918,35.5577723 -0.00439279811,27.3894312 3.55271368e-15,18.5511336 L3.55271368e-15,15.462112 L0.0175002706,15.1220362 C0.192473565,13.5746914 1.53976807,12.3674224 3.18160104,12.3674224 L47.7152251,12.3674224 Z" id="路径"></path>
                </g>
            </g>
        </g>
    </g>
</svg>