<?xml version="1.0" encoding="UTF-8"?>
<svg width="46px" height="46px" viewBox="0 0 46 46" version="1.1" xmlns="http://www.w3.org/2000/svg" xmlns:xlink="http://www.w3.org/1999/xlink">
    <title>宵夜</title>
    <g id="后台" stroke="none" stroke-width="1" fill="none" fill-rule="evenodd">
        <g id="编辑菜单" transform="translate(-1657.000000, -340.000000)" fill="#FF6E04" fill-rule="nonzero">
            <g id="编组-3备份-4" transform="translate(1627.000000, 310.000000)">
                <g id="宵夜" transform="translate(30.916667, 30.916667)">
                    <path d="M26.6424375,-7.10542736e-15 C29.4156682,3.43404912 31.0774484,7.77420771 31.0774484,12.4951438 C31.0774484,23.6258349 21.8729125,32.6481467 10.5174142,32.6481467 C6.67229939,32.6481467 3.0753725,31.6115856 -7.10542736e-15,29.8099439 C3.29478504,38.2046779 11.5964923,44.1666667 21.3225826,44.1666667 C33.9406022,44.1666667 44.1666667,34.1395253 44.1666667,21.774833 C44.1702623,11.2047311 36.6922513,2.35165376 26.6424375,-7.10542736e-15 Z" id="路径"></path>
                    <path d="M10.1902737,2.61132288 L12.0606757,6.3239037 C12.199607,6.60244462 12.4704572,6.7952867 12.783658,6.8386585 L16.963287,7.4345048 C17.751014,7.54732777 18.0675436,8.49927157 17.4956322,9.04223211 L14.4706167,11.9333207 C14.2440103,12.1483895 14.1396994,12.4621784 14.1936533,12.7689158 L14.9094418,16.851697 C15.0425281,17.6238292 14.2188318,18.2090983 13.5138341,17.8459494 L9.77303016,15.9173818 C9.49246986,15.7728274 9.15795566,15.7728274 8.87739536,15.9173818 L5.13659139,17.8459494 C4.43159372,18.2090983 3.60430053,17.6238292 3.74098375,16.851697 L4.45677221,12.7689158 C4.51020736,12.462691 4.40665849,12.1502853 4.17980884,11.9333207 L1.15479332,9.04223211 C0.582881939,8.49574586 0.899411506,7.54380205 1.6871385,7.4345048 L5.86676755,6.8386585 C6.17970019,6.79282417 6.44946971,6.60243541 6.58974986,6.3239037 L8.46015184,2.61132288 C8.81624761,1.90970504 9.83777485,1.90970504 10.1902737,2.61132288 L10.1902737,2.61132288 Z" id="路径" opacity="0.5"></path>
                </g>
            </g>
        </g>
    </g>
</svg>