<?xml version="1.0" encoding="UTF-8"?>
<svg width="15px" height="21px" viewBox="0 0 15 21" version="1.1" xmlns="http://www.w3.org/2000/svg" xmlns:xlink="http://www.w3.org/1999/xlink">
    <title>密码</title>
    <g id="终端" stroke="none" stroke-width="1" fill="none" fill-rule="evenodd">
        <g id="收银登录页-账号" transform="translate(-537.000000, -383.000000)" fill="#0D1941" fill-rule="nonzero">
            <g id="编组-2" transform="translate(468.000000, 123.000000)">
                <g id="密码" transform="translate(69.000000, 260.000000)">
                    <path d="M3.5,7.5 C3.5,7.77614237 3.27614237,8 3,8 C2.72385763,8 2.5,7.77614237 2.5,7.5 L2.5,5 C2.5,2.23857625 4.73857625,0 7.5,0 C10.2614237,0 12.5,2.23857625 12.5,5 L12.5,7.5 C12.5,7.77614237 12.2761424,8 12,8 C11.7238576,8 11.5,7.77614237 11.5,7.5 L11.5,5 C11.5,2.790861 9.709139,1 7.5,1 C5.290861,1 3.5,2.790861 3.5,5 L3.5,7.5 Z M15,9.5 L15,13 C15,17.1421356 11.6421356,20.5 7.5,20.5 C3.35786438,20.5 0,17.1421356 0,13 L0,9.5 L15,9.5 Z M14,10.5 L1,10.5 L1,13 C1,16.5898509 3.91014913,19.5 7.5,19.5 C11.0898509,19.5 14,16.5898509 14,13 L14,10.5 Z M7.5,12.5 C8.32842712,12.5 9,13.1715729 9,14 L9,15 C9,15.8284271 8.32842712,16.5 7.5,16.5 C6.67157288,16.5 6,15.8284271 6,15 L6,14 C6,13.1715729 6.67157288,12.5 7.5,12.5 Z M7.5,13.5 C7.22385763,13.5 7,13.7238576 7,14 L7,15 C7,15.2761424 7.22385763,15.5 7.5,15.5 C7.77614237,15.5 8,15.2761424 8,15 L8,14 C8,13.7238576 7.77614237,13.5 7.5,13.5 Z" id="形状结合"></path>
                </g>
            </g>
        </g>
    </g>
</svg>