<?xml version="1.0" encoding="UTF-8"?>
<svg width="24px" height="25px" viewBox="0 0 24 25" version="1.1" xmlns="http://www.w3.org/2000/svg" xmlns:xlink="http://www.w3.org/1999/xlink">
    <title>形状</title>
    <g id="终端" stroke="none" stroke-width="1" fill="none" fill-rule="evenodd">
        <g id="点餐页" transform="translate(-21.000000, -21.000000)" fill="#FFFFFF">
            <path d="M44.6833385,36.6774932 L42.8299632,35.114906 C42.9176802,34.5847425 42.9629535,34.0434176 42.9629535,33.5020928 C42.9629535,32.9607679 42.9176802,32.419443 42.8299632,31.8892795 L44.6833385,30.3266923 C44.9691262,30.0867236 45.0738207,29.6960768 44.9464896,29.3444947 L44.9210233,29.271946 C44.4088692,27.8628272 43.6505416,26.5681121 42.6658475,25.424075 L42.6149151,25.365478 C42.3715711,25.0836542 41.9782594,24.9776215 41.6217323,25.1003962 L39.3212832,25.9068028 C38.472409,25.2203806 37.5244995,24.6790558 36.5001913,24.2995703 L36.0559471,21.9277861 C35.9880372,21.5622524 35.6965904,21.2776383 35.3259153,21.2106702 L35.2495166,21.1967186 C33.7753051,20.9344271 32.2246949,20.9344271 30.7504834,21.1967186 L30.6740847,21.2106702 C30.3034096,21.2776383 30.0119628,21.5622524 29.9440529,21.9277861 L29.4969791,24.3107316 C28.4811597,24.6902171 27.5389093,25.2287516 26.6956943,25.9123835 L24.3782677,25.1003962 C24.0245701,24.9776215 23.6284289,25.0808639 23.3850849,25.365478 L23.3341525,25.424075 C22.3494584,26.5709024 21.5911308,27.8656175 21.0789767,29.271946 L21.0535104,29.3444947 C20.9261793,29.6932865 21.0308738,30.0839333 21.3166615,30.3266923 L23.1926734,31.9060215 C23.1049564,32.4306044 23.0625127,32.9663486 23.0625127,33.4993024 C23.0625127,34.0350466 23.1049564,34.5707908 23.1926734,35.0925833 L21.3166615,36.6719125 C21.0308738,36.9118812 20.9261793,37.302528 21.0535104,37.6541102 L21.0789767,37.7266589 C21.5911308,39.1329873 22.3494584,40.4304928 23.3341525,41.5745298 L23.3850849,41.6331268 C23.6284289,41.9149506 24.0217406,42.0209833 24.3782677,41.8982086 L26.6956943,41.0862213 C27.5389093,41.7698532 28.4811597,42.3111781 29.4969791,42.6878732 L29.9440529,45.0708187 C30.0119628,45.4363525 30.3034096,45.7209666 30.6740847,45.7879346 L30.7504834,45.8018863 C31.4890039,45.933032 32.244502,46 33,46 C33.755498,46 34.5138257,45.933032 35.2495166,45.8018863 L35.3259153,45.7879346 C35.6965904,45.7209666 35.9880372,45.4363525 36.0559471,45.0708187 L36.5001913,42.6990345 C37.5244995,42.3195491 38.472409,41.7810146 39.3212832,41.091802 L41.6217323,41.8982086 C41.9754299,42.0209833 42.3715711,41.9177409 42.6149151,41.6331268 L42.6658475,41.5745298 C43.6505416,40.4277024 44.4088692,39.1329873 44.9210233,37.7266589 L44.9464896,37.6541102 C45.0738207,37.310899 44.9691262,36.9202522 44.6833385,36.6774932 L44.6833385,36.6774932 Z M33.0028296,28.3148613 C30.2524772,28.3148613 28.0227676,30.5136447 28.0227676,33.2258497 C28.0227676,35.9380546 30.2524772,38.136838 33.0028296,38.136838 C35.753182,38.136838 37.9828915,35.9380546 37.9828915,33.2258497 C37.9828915,30.5136447 35.753182,28.3148613 33.0028296,28.3148613 Z M35.2438575,35.4357944 C34.6439864,36.0245549 33.8488742,36.3510241 33.0028296,36.3510241 C32.156785,36.3510241 31.3616728,36.0245549 30.7618017,35.4357944 C30.1647602,34.8442435 29.8336992,34.0601596 29.8336992,33.2258497 C29.8336992,32.3915397 30.1647602,31.6074558 30.7618017,31.0159049 C31.3616728,30.424354 32.156785,30.1006753 33.0028296,30.1006753 C33.8488742,30.1006753 34.6439864,30.424354 35.2438575,31.0159049 C35.840899,31.6074558 36.1719599,32.3915397 36.1719599,33.2258497 C36.1719599,34.0601596 35.840899,34.8442435 35.2438575,35.4357944 Z" id="形状"></path>
        </g>
    </g>
</svg>