<?xml version="1.0" encoding="UTF-8"?>
<svg width="15px" height="21px" viewBox="0 0 15 21" version="1.1" xmlns="http://www.w3.org/2000/svg" xmlns:xlink="http://www.w3.org/1999/xlink">
    <title>手机验证码</title>
    <g id="终端" stroke="none" stroke-width="1" fill="none" fill-rule="evenodd">
        <g id="收银登录-验证码备份" transform="translate(-537.000000, -424.000000)" fill="#0D1941" fill-rule="nonzero">
            <g id="编组-2" transform="translate(513.000000, 321.000000)">
                <g id="编组" transform="translate(0.000000, 84.000000)">
                    <g id="编组" transform="translate(24.002550, 19.964277)">
                        <path d="M12.2721047,0 C13.7787247,0 15,1.19406316 15,2.66711305 L15,17.332887 C15,18.8059368 13.7787247,20 12.2721047,20 L2.7278953,20 C1.2212753,20 0,18.8059368 0,17.332887 L0,2.66711305 C0.00228275757,1.19406316 1.22355806,0 2.7278953,0 L12.2721047,0 Z M14,13.5 L1,13.5 L1,17.332887 C1,18.2485458 1.76857947,19 2.7278953,19 L12.2721047,19 C13.2314205,19 14,18.2485458 14,17.332887 L14,13.5 Z M7.8003348,14.6657739 L7.8003348,17.332887 L6.8003348,17.332887 L6.8003348,14.6657739 L7.8003348,14.6657739 Z M12.2721047,1 L2.7278953,1 C1.77059826,1 1.00141927,1.75204035 1,2.66711305 L1,12.5 L14,12.5 L14,2.66711305 C14,1.75145418 13.2314205,1 12.2721047,1 Z" id="形状结合"></path>
                    </g>
                </g>
            </g>
        </g>
    </g>
</svg>