<?xml version="1.0" encoding="UTF-8"?>
<svg width="50px" height="50px" viewBox="0 0 50 50" version="1.1" xmlns="http://www.w3.org/2000/svg" xmlns:xlink="http://www.w3.org/1999/xlink">
    <title>早餐</title>
    <g id="后台" stroke="none" stroke-width="1" fill="none" fill-rule="evenodd">
        <g id="编辑菜单" transform="translate(-1533.000000, -216.000000)">
            <g id="编组-3" transform="translate(1505.000000, 188.000000)">
                <g id="早餐" transform="translate(28.708333, 28.708333)">
                    <path d="M33.2753777,5.57914929 L33.2753777,2.41397382 C33.2753777,1.08037989 32.2165218,-3.55271368e-15 30.9094966,-3.55271368e-15 L9.76546794,-3.55271368e-15 C8.4584427,-3.55271368e-15 7.3995868,1.08037989 7.3995868,2.41397382 L7.39545065,5.57914929 L33.2753777,5.57914929 L33.2753777,5.57914929 Z M24.3578258,28.2333652 L24.3578258,16.1001926 C24.3578258,15.062015 24.7424882,14.0787005 25.4414986,13.3274988 L30.7688673,8.80340804 L5.8071668,8.80340804 L0.665925095,14.2095277 C0.238106112,14.6596063 -0.000796872441,15.2621914 1.99706741e-06,15.8891809 L1.99706741e-06,42.7636307 C1.99706741e-06,44.0972246 1.0588599,45.1776045 2.36588515,45.1776045 L6.24146317,45.1776045 C5.60863132,43.995939 5.40182353,42.7720712 5.40182353,41.687471 C5.40182353,38.4632123 7.1845067,35.5343699 10.1997643,33.2216817 C10.1004966,33.2427829 9.99709267,33.2512234 9.88955262,33.2512234 L7.09764743,33.2512234 C6.22503115,33.2512234 5.5176359,32.5294485 5.5176359,31.639094 C5.5176359,30.7487395 6.22503115,30.0269646 7.09764743,30.0269646 L9.88955262,30.0269646 C10.3085977,30.0269646 10.7104798,30.1968135 11.0067895,30.4991464 C11.3030991,30.8014793 11.4695642,31.2115307 11.4695642,31.639094 C11.4695642,31.9429508 11.3827049,32.2299267 11.2379394,32.4704801 C14.5799533,30.2632977 19.1462694,28.735573 24.3578258,28.2333652 L24.3578258,28.2333652 Z M7.09764743,24.3296488 C6.22503115,24.3296488 5.5176359,23.6078739 5.5176359,22.7175194 C5.5176359,21.8271649 6.22503115,21.10539 7.09764743,21.10539 L18.2114982,21.10539 C19.0841144,21.10539 19.7915097,21.8271649 19.7915097,22.7175194 C19.7915097,23.6078739 19.0841144,24.3296488 18.2114982,24.3296488 L7.09764743,24.3296488 L7.09764743,24.3296488 Z" id="形状" fill="#FC7234"></path>
                    <path d="M39.4217053,14.3276943 L35.1821456,9.41534196 L27.7329289,15.5473419 C27.5922996,15.6992703 27.5178488,15.8934011 27.5178488,16.1001926 L27.5178488,28.0603356 C27.7287928,28.0561154 27.9356006,28.0518951 28.1465445,28.0518951 C32.5267335,28.0518951 36.5760301,28.7566742 40.0131756,29.9932027 L40.0131756,15.9229427 C40.0110611,15.3358065 39.8009958,14.7692417 39.4217053,14.3276943 L39.4217053,14.3276943 Z M35.6371227,31.1790885 C37.2336789,32.7616762 39.0080897,35.3233582 37.9864592,38.2859625 C37.8594549,38.6521509 37.5949514,38.9517813 37.2512446,39.1188159 C36.9075378,39.2858505 36.5128403,39.3065786 36.1541422,39.1764318 C35.4068957,38.9062362 35.0147412,38.0701237 35.2772772,37.3068682 C36.1830953,34.6903231 32.0924372,31.9978139 32.0510756,31.9724925 C31.5588731,31.6601952 31.318976,31.0862433 31.3892907,30.5333927 C30.3304348,30.4405475 29.246762,30.3899047 28.1382722,30.3899047 C27.3854918,30.3899047 26.6409838,30.4152261 25.9088842,30.4574285 C28.0059152,31.892308 31.1121682,34.7409659 30.1029462,38.547617 C29.9334043,39.1858363 29.3654078,39.6287105 28.717334,39.6279969 C28.2705902,39.6292079 27.8488902,39.4176074 27.5770933,39.0558472 C27.3052963,38.694087 27.2145496,38.2236236 27.3317218,37.7837546 C28.1465445,34.7072041 22.9887582,32.090659 22.9349881,32.0653376 C22.4634664,31.837445 22.1780716,31.3774395 22.1284378,30.8836721 C20.1265383,31.2212908 18.261132,31.7277189 16.5735805,32.3649742 C18.3355828,33.2892055 21.2267558,35.390882 20.7593702,39.0624855 C20.6425519,39.8509085 19.9289793,40.3990608 19.1540854,40.2956333 C18.3791915,40.1922058 17.8278198,39.4752175 17.913695,38.6826645 C18.261132,35.9563933 14.4145071,34.5805971 14.3772817,34.5679364 C14.0004015,34.4342295 13.6948276,34.1468978 13.5335059,33.7745324 C9.91850571,35.8129054 7.68498156,38.60248 7.68498156,41.6790306 C7.68498156,47.9165364 16.8424306,48.5833333 28.134136,48.5833333 C39.4258415,48.5833333 48.583312,47.9165364 48.583312,41.6790306 C48.595699,36.9143864 43.2228325,32.8334202 35.6371227,31.1790885 L35.6371227,31.1790885 Z" id="形状" fill="#FF6E04" fill-rule="nonzero" opacity="0.5"></path>
                </g>
            </g>
        </g>
    </g>
</svg>