<?xml version="1.0" encoding="UTF-8"?>
<svg width="54px" height="46px" viewBox="0 0 54 46" version="1.1" xmlns="http://www.w3.org/2000/svg" xmlns:xlink="http://www.w3.org/1999/xlink">
    <title>晚餐</title>
    <g id="后台" stroke="none" stroke-width="1" fill="none" fill-rule="evenodd">
        <g id="编辑菜单" transform="translate(-1531.000000, -340.000000)" fill="#FF6E04" fill-rule="nonzero">
            <g id="编组-3备份-3" transform="translate(1505.000000, 310.000000)">
                <g id="晚餐" transform="translate(26.500000, 30.916667)">
                    <path d="M50.620743,44.1666667 L2.37925697,44.1666667 C1.06522963,44.1666667 0,43.0779921 0,41.7350439 C0,40.3920957 1.06522963,39.3034211 2.37925697,39.3034211 L50.620743,39.3034211 C51.9347704,39.3034211 53,40.3920957 53,41.7350439 C53,43.0779921 51.9347704,44.1666667 50.620743,44.1666667 L50.620743,44.1666667 Z" id="形状" opacity="0.5"></path>
                    <path d="M23.5928427,1.21093407 C25.2054659,-0.40364469 27.7854181,-0.40364469 29.3980413,1.21093407 C31.0106646,2.82551283 31.0636975,5.46169088 29.5173719,7.14264757 C41.7782938,8.66823471 51.2770898,19.3310404 51.2679804,32.2740748 L51.2679804,32.5908379 C51.2679804,33.2888688 50.9966537,33.9583102 50.5137008,34.4518926 C50.0307478,34.945475 49.3757231,35.2227667 48.6927245,35.2227667 L4.28904363,35.2227667 C2.86923801,35.2227667 1.71379424,34.0442216 1.71379424,32.5908379 C1.71379424,19.6082081 11.1647317,8.69385525 23.4735122,7.14264757 C21.9271865,5.46169088 21.9802195,2.82551283 23.5928427,1.21093407 Z M33.872506,13.8435851 C32.920969,13.6712143 32.0128709,14.3198308 31.8442122,15.2923105 C31.6755536,16.2647903 32.3102019,17.1928749 33.2617389,17.3652457 C33.3004816,17.3722331 37.379859,18.2456608 40.4177417,23.5910385 C40.6497312,24.0026607 41.0329406,24.3025685 41.4822526,24.4241475 C41.9315646,24.5457264 42.4097777,24.4789101 42.8106725,24.2385397 C43.2120303,24.0001167 43.5042665,23.6085003 43.6230836,23.1498536 C43.7419007,22.691207 43.6775642,22.2031059 43.4442294,21.792942 C39.5471707,14.9429394 34.1049622,13.8831804 33.872506,13.8435851 Z" id="形状结合"></path>
                </g>
            </g>
        </g>
    </g>
</svg>