<?xml version="1.0" encoding="UTF-8"?>
<svg width="17px" height="19px" viewBox="0 0 17 19" version="1.1" xmlns="http://www.w3.org/2000/svg" xmlns:xlink="http://www.w3.org/1999/xlink">
    <title>用户名</title>
    <g id="终端" stroke="none" stroke-width="1" fill="none" fill-rule="evenodd">
        <g id="收银登录-验证码备份" transform="translate(-537.000000, -341.000000)" fill="#0D1941" fill-rule="nonzero">
            <g id="编组-2" transform="translate(513.000000, 321.000000)">
                <g id="用户名" transform="translate(24.000000, 20.000000)">
                    <path d="M8.5,0 C11.5375661,0 14,2.46243388 14,5.5 C14,8.46347915 11.65622,10.8795391 8.72120714,10.9956328 L8.5,11 C4.35786438,11 1,14.3578644 1,18.5 C1,18.7761424 0.776142375,19 0.5,19 C0.223857625,19 -3.55271368e-15,18.7761424 -3.55271368e-15,18.5 C-3.55271368e-15,14.6870711 2.51058121,11.4605199 5.96885603,10.3832339 C4.20516866,9.4686003 3,7.62504126 3,5.5 C3,2.46243388 5.46243388,0 8.5,0 Z M14.4365494,12.4166256 C16.0646911,14.0056993 17,16.1791267 17,18.5 C17,18.7761424 16.7761424,19 16.5,19 C16.2238576,19 16,18.7761424 16,18.5 C16,16.4513475 15.1753378,14.5350356 13.7380808,13.1322663 C13.5404621,12.9393895 13.536618,12.6228304 13.7294948,12.4252116 C13.9223715,12.2275929 14.2389307,12.2237488 14.4365494,12.4166256 Z M8.5,1 C6.01471863,1 4,3.01471863 4,5.5 C4,7.98528137 6.01471863,10 8.5,10 C10.9852814,10 13,7.98528137 13,5.5 C13,3.01471863 10.9852814,1 8.5,1 Z"></path>
                </g>
            </g>
        </g>
    </g>
</svg>