<?xml version="1.0" encoding="UTF-8"?>
<svg width="64px" height="51px" viewBox="0 0 64 51" version="1.1" xmlns="http://www.w3.org/2000/svg" xmlns:xlink="http://www.w3.org/1999/xlink">
    <title>编组</title>
    <g id="终端" stroke="none" stroke-width="1" fill="none" fill-rule="evenodd">
        <g id="历史单据-查询" transform="translate(-255.000000, -414.000000)" fill="#FC7070" fill-rule="nonzero">
            <g id="编组-6" transform="translate(12.000000, 258.000000)">
                <g id="编组" transform="translate(275.000000, 181.500000) rotate(-30.000000) translate(-275.000000, -181.500000) translate(246.000000, 169.000000)">
                    <path d="M1.88402999,0.84847518 C3.73839208,-0.491639824 6.39083405,0.84847518 8.0965342,0 C9.48143753,0.0713670712 10.9758812,0.0237890237 11.4140427,1.06257639 C9.09804621,1.79210645 3.92617558,1.8079658 1.88402999,0.84847518 Z M12.0321634,0.00792967458 C14.5594164,0.586795919 12.4937979,-0.412343078 14.0351875,1.48284915 L12.0321634,1.48284915 L12.0321634,0.00792967458 Z M29.1517594,1.06257639 C29.7933531,1.01499835 29.6525154,0.158593492 30.1845687,0.00792967458 C40.4735398,0.055507722 45.9583829,-0.0237890237 57.5853114,0.00792967458 C58.500756,1.8396845 56.7637586,5.33667099 58,8.24686156 C57.9843514,8.92881357 57.2879876,8.92881357 56.9671907,9.30150828 L56.9671907,24.9308969 C51.2476182,24.6533583 48.2978524,25.4859741 42.9538469,24.5106241 C43.9318859,23.5907819 44.7612631,23.9951953 45.8566668,24.5106241 C46.6782197,24.5026944 46.6938683,23.6780083 47.3041647,23.4559774 C50.715565,23.6145709 53.1411019,23.4718367 56.5525022,23.4559774 C56.4586104,15.6848963 56.5759751,9.72178103 56.5525022,1.49077882 C43.5719676,1.34804468 38.0558272,1.76831743 25.4195623,1.27667761 C24.9970494,-0.00792967458 26.5462633,0.729530061 26.663628,0.00792967458 C27.1096138,0.753319085 29.0343947,-0.0158593492 29.1517594,1.06257639 Z M25.0126981,1.48284915 C24.3789287,1.28460728 22.907958,1.9348406 22.9392552,1.06257639 C23.5652002,1.26874793 25.036171,0.610584942 25.0126981,1.48284915 Z M1.05465286,2.53749586 C1.15636892,10.4671704 1.11724736,16.1844658 1.46934142,23.4480477 C9.37189716,23.9000392 14.199498,22.8691815 21.4839331,23.8762501 C25.411738,23.685938 26.4601959,23.1625794 30.5210141,23.8762501 C31.2643238,23.3370323 34.5896567,22.8533221 34.4566434,24.5106241 C34.1906167,25.6049192 32.9074295,24.5185538 32.3832005,24.5106241 C19.75476,25.4859741 13.346648,24.6454286 0.0218435925,24.9229672 C0.154856907,17.2232532 -0.306777537,8.4530331 0.436532161,2.53749586 L1.05465286,2.53749586 Z M39.4407305,23.4480477 C39.3468387,23.9000392 39.7380544,23.8524611 40.0588512,23.8683205 L40.0588512,24.9229672 C38.3140295,24.1458591 37.0699638,24.8674595 35.0904127,24.9229672 L35.0904127,23.8683205 C35.473804,23.7810941 36.3344784,24.1617184 36.123222,23.4480477 C36.7335183,24.0665623 38.8226098,24.0665623 39.4407305,23.4480477 Z M42.5391583,24.9308969 L41.0916605,24.9308969 C40.9351742,24.2806636 41.8036729,24.6692176 41.506349,23.8762501 C42.2887803,23.7810941 42.2496587,24.5264835 42.5391583,24.9308969 Z" id="形状"></path>
                    <g id="退单" transform="translate(13.872051, 4.970127)">
                        <path d="M11.616,1.808 L11.616,3.04 L7.088,3.04 L7.088,1.808 L11.616,1.808 Z M7.088,5.456 L7.088,4.16 L11.616,4.16 L11.616,5.456 L7.088,5.456 Z M7.088,10.112 L7.088,6.672 L12.992,6.672 C12.432,7.152 11.648,7.776 10.944,8.224 C10.368,7.792 9.824,7.36 9.312,7.008 L8.304,7.76 C9.968,8.96 11.984,10.752 12.912,11.92 L14.016,11.04 C13.504,10.448 12.72,9.728 11.888,9.008 C12.672,8.56 13.536,7.968 14.304,7.424 L13.168,6.512 L13.056,6.608 L13.056,0.592 L5.584,0.592 L5.584,9.552 C5.584,10.256 5.184,10.624 4.88,10.816 C5.12,11.056 5.44,11.648 5.536,11.984 C5.888,11.76 6.416,11.6 9.728,10.752 C9.696,10.448 9.648,9.904 9.648,9.504 L7.088,10.112 Z M4.064,3.04 C3.584,2.304 2.544,1.248 1.68,0.528 L0.544,1.328 C1.408,2.112 2.432,3.2 2.88,3.936 L4.064,3.04 Z M3.664,5.584 L0.224,5.584 L0.224,6.96 L2.224,6.96 L2.224,11.584 C1.536,11.888 0.752,12.496 0,13.216 L0.896,14.464 C1.712,13.52 2.528,12.64 3.088,12.64 C3.456,12.64 3.968,13.088 4.656,13.472 C5.792,14.064 7.168,14.256 9.056,14.256 C10.592,14.256 13.264,14.144 14.368,14.08 C14.384,13.68 14.608,12.992 14.768,12.624 C13.248,12.8 10.848,12.928 9.104,12.928 C7.392,12.928 5.968,12.816 4.944,12.272 C4.368,11.968 3.984,11.68 3.664,11.52 L3.664,5.584 Z" id="形状"></path>
                        <path d="M19.168,7.92 L19.168,6.48 L22.56,6.48 L22.56,7.92 L19.168,7.92 Z M19.168,3.888 L22.56,3.888 L22.56,5.312 L19.168,5.312 L19.168,3.888 Z M27.648,5.312 L24.096,5.312 L24.096,3.888 L27.648,3.888 L27.648,5.312 Z M27.648,7.92 L24.096,7.92 L24.096,6.48 L27.648,6.48 L27.648,7.92 Z M30.496,10.48 L24.096,10.48 L24.096,9.152 L29.168,9.152 L29.168,2.672 L26.672,2.672 C27.152,2.032 27.664,1.264 28.128,0.544 L26.496,0.032 C26.144,0.832 25.536,1.904 24.992,2.672 L21.296,2.672 L22,2.32 C21.68,1.68 20.944,0.704 20.32,0 L19.04,0.608 C19.568,1.216 20.144,2.048 20.48,2.672 L17.712,2.672 L17.712,9.152 L22.56,9.152 L22.56,10.48 L16.256,10.48 L16.256,11.856 L22.56,11.856 L22.56,14.608 L24.096,14.608 L24.096,11.856 L30.496,11.856 L30.496,10.48 Z" id="形状"></path>
                    </g>
                </g>
            </g>
        </g>
    </g>
</svg>