<?xml version="1.0" encoding="UTF-8"?>
<svg width="16px" height="18px" viewBox="0 0 16 18" version="1.1" xmlns="http://www.w3.org/2000/svg" xmlns:xlink="http://www.w3.org/1999/xlink">
    <title>验证码</title>
    <g id="终端" stroke="none" stroke-width="1" fill="none" fill-rule="evenodd">
        <g id="收银登录-验证码" transform="translate(-536.000000, -384.000000)" fill="#0D1941" fill-rule="nonzero">
            <g id="编组" transform="translate(536.595392, 384.766834)">
                <path d="M8.04987342,0.0734482979 L13.5182279,1.56279192 C14.3944846,1.80141843 15,2.57545075 15,3.45711637 L15,9.16988395 C15,10.5556927 14.413098,11.8808302 13.3762025,12.8356776 L12.933038,13.2384515 L12.6455696,13.4940933 L12.364557,13.7390681 L12.0896203,13.9737436 L11.8207595,14.1981199 L11.5579747,14.412197 C11.2358418,14.6723011 10.9055604,14.9227882 10.5675949,15.1633058 L10.3344304,15.325151 C9.18379747,16.1078932 8.24962025,16.5 7.5,16.5 C6.75037975,16.5 5.81620253,16.1078932 4.66556962,15.325151 L4.43240505,15.1633058 C4.11797467,14.9407687 3.78797469,14.6902764 3.44202531,14.412197 L3.1792405,14.1981199 L2.91037974,13.9737436 L2.63544303,13.7390681 L2.35443037,13.4940933 L1.9207595,13.1067683 L1.62379746,12.8356776 C0.586901973,11.8808302 0,10.5556927 0,9.16988395 L0,3.45711637 C0,2.57545075 0.605515411,1.80141843 1.48177214,1.56279192 L6.95012658,0.0734482979 C7.30973772,-0.024482766 7.69026228,-0.024482766 8.04987342,0.0734482979 Z M7.21288259,1.03831061 L1.74452816,2.52765423 C1.2990691,2.64896381 1,3.03128921 1,3.45711637 L1,9.16988395 C1,10.2748984 1.46899337,11.3337098 2.29800099,12.097132 L2.73149201,12.4911899 L3.01154937,12.7403065 L3.28466294,12.9784673 L3.81083559,13.4228215 L4.06853201,13.6327809 C4.40099095,13.9000166 4.71465291,14.1379513 5.00262345,14.3418127 L5.22803286,14.4983287 C6.23492607,15.183289 6.99663204,15.5 7.5,15.5 C8.00336797,15.5 8.76507395,15.183289 9.76421199,14.5036579 L9.98777241,14.348563 C10.3092451,14.1197827 10.6233863,13.8815365 10.9263796,13.6368986 L11.1800264,13.4303562 L11.4404004,13.2131429 L11.707438,12.9852812 L11.9810396,12.7468317 L12.2621111,12.496928 L12.6987989,12.1000661 C13.5310066,11.3337098 14,10.2748984 14,9.16988395 L14,3.45711637 C14,3.03128921 13.7009309,2.64896381 13.2554432,2.52764641 L7.78711741,1.03831061 C7.59954436,0.987229798 7.40045564,0.987229798 7.21288259,1.03831061 Z M10.5339994,6.05172914 C10.7288814,6.24737062 10.7282658,6.56395251 10.5326243,6.75883458 L7.13879878,10.1394866 L4.42760047,7.95502248 C4.21257069,7.78176889 4.1787044,7.46700303 4.35195799,7.25197325 C4.52521157,7.03694348 4.83997743,7.00307718 5.05500721,7.17633077 L7.06830384,8.79759434 L9.82689393,6.05035411 C10.0225354,5.85547204 10.3391173,5.85608766 10.5339994,6.05172914 Z" id="形状结合"></path>
            </g>
        </g>
    </g>
</svg>