<?xml version="1.0" encoding="utf-8"?>
<svg version="1.1" xmlns:xlink="http://www.w3.org/1999/xlink" width="34px" height="40px" xmlns="http://www.w3.org/2000/svg">
  <g transform="matrix(1 0 0 1 -305 -18 )">
    <path d="M 33 7.35680498550725  C 33.1697831111111 5.16738415458937  31.388457236715 3.38648877294686  29.1994668985507 3.38648877294686  L 26.5050931400966 3.38648877294686  L 26.5050931400966 2.50185256038647  C 26.5050931400966 1.55092243478261  25.7341036135266 0.779932908212561  24.7831734879227 1  L 9.21572846376812 1  C 8.26479833816425 0.779932908212561  7.4938088115942 1.55092243478261  7.4938088115942 2.50185256038647  L 7.4938088115942 3.38648877294686  L 4.7994350531401 3.38648877294686  C 2.61001422222222 3.38648877294686  0.82911884057971 5.167814647343  1 7.35680498550725  L 1 35.7404979710145  C 0.829118801932367 37.9299188019324  2.6104446763285 39.7108141835749  4.7994350531401 39  L 29.1994668985507 39  C 31.3888877294686 39.7108141835749  33.1697831111111 37.9294883091787  33 35.7404979710145  L 33 7.35680498550725  Z M 10.9376480772947 6  L 10.9376480772947 5  L 23.0612538357488 5  L 23.0612538357488 6  L 10.9376480772947 6  Z M 29.7259438454106 7.35680498550725  L 29.7259438454106 35.7404979710145  C 29.7259438454106 36.0310719227053  29.4896103574879 36.2669749178744  29.1994668985507 36  L 4.7994350531401 36  C 4.50886110144928 36.266974879227  4.27295810628019 36.0306413913043  4.27295810628019 35.7404979710145  L 4.27295810628019 7.35680498550725  C 4.27295810628019 7.06623103381643  4.5092915942029 6.83032803864734  4.7994350531401 6.83032807729469  L 7.4938088115942 6.83032807729469  L 7.4938088115942 7.11788865700483  C 7.4938088115942 8.0688187826087  8.26479833816425 8.83980830917874  9.21572846376812 9  L 24.7831734879227 9  C 25.7341036135266 8.83980830917874  26.5050931400966 8.06881878260869  26.5050931400966 7.11788865700483  L 26.5050931400966 6.83032807729469  L 29.1994668985507 6.83032807729469  C 29.4900408502415 6.83032807729469  29.7259438454106 7.06666156521739  29.7259438454106 7.35680498550725  Z M 25.266171942029 13  C 26.2171020676329 12.2259632850242  26.9880915942029 12.9969528115942  26.9880915942029 13.9478829371981  C 26.9880915942029 14.8988130628019  26.2171020676329 15.669802589372  25.266171942029 16  L 8.73272997101449 16  C 7.78179984541063 15.6698025507246  7.01081031884058 14.8988130241546  7.01081035748792 13.9478829371981  C 7.01081039613526 12.9969528502415  7.78179988405797 12.2259632850242  8.73272997101449 13  L 25.266171942029 13  Z M 25.266171942029 20  C 26.2171020676329 19.6978030917874  26.9880915942029 20.4687926183575  26.9880915942029 21.4197227439614  C 26.9880915942029 22.3706528695652  26.2171020676329 23.1416423961353  25.266171942029 23  L 8.73272997101449 23  C 7.78179984541063 23.1416423961353  7.01081031884058 22.3706528695652  7.01081035748792 21.4197227439614  C 7.01081039613526 20.4687926183575  7.78179988405797 19.6978030917874  8.73272997101449 20  L 25.266171942029 20  Z M 25.266171942029 27  C 26.2171020676329 27.1696429371981  26.9880915942029 27.9406324637681  26.9880915942029 28.891562589372  C 26.9880915942029 29.8424927149758  26.2171020676329 30.6134822415459  25.266171942029 30  L 8.73272997101449 30  C 7.78179984541063 30.6134822028985  7.01081031884058 29.8424926763285  7.01081035748792 28.891562589372  C 7.01081039613526 27.9406325024155  7.78179988405797 27.1696429371981  8.73272997101449 27  L 25.266171942029 27  Z " fill-rule="nonzero" fill="#ffffff" stroke="none" transform="matrix(1 0 0 1 305 18 )" />
  </g>
</svg>