<?xml version="1.0" encoding="utf-8"?>
<svg version="1.1" xmlns:xlink="http://www.w3.org/1999/xlink" width="35px" height="36px" xmlns="http://www.w3.org/2000/svg">
  <g transform="matrix(1 0 0 1 -304 -91 )">
    <path d="M 11.217 2.287  C 13.2816666666667 1.38766666666667  15.492 0.937999999999999  17.848 0.938  C 20.204 0.938  22.4206666666667 1.38766666666667  24.498 2.287  C 26.5753333333333 3.18633333333333  28.3803333333333 4.40233333333333  29.913 5.935  C 31.4456666666667 7.46766666666667  32.6616666666667 9.26633333333333  33.561 11.331  C 34.4603333333333 13.3956666666667  34.91 15.606  34.91 17.962  C 34.91 20.318  34.4603333333333 22.5346666666667  33.561 24.612  C 32.6616666666667 26.6893333333333  31.4456666666667 28.4943333333333  29.913 30.027  C 28.3803333333333 31.5596666666667  26.5753333333333 32.7756666666667  24.498 33.675  C 22.4206666666667 34.5743333333333  20.204 35.024  17.848 35.024  C 15.492 35.024  13.2816666666667 34.5743333333333  11.217 33.675  C 9.15233333333334 32.7756666666667  7.35366666666667 31.5596666666667  5.821 30.027  C 4.28833333333333 28.4943333333333  3.07233333333333 26.6893333333333  2.173 24.612  C 1.27366666666667 22.5346666666667  0.824000000000006 20.318  0.824000000000003 17.962  C 0.823999999999999 15.606  1.27366666666667 13.3956666666667  2.173 11.331  C 3.07233333333334 9.26633333333333  4.28833333333334 7.46766666666667  5.821 5.935  C 7.35366666666667 4.40233333333333  9.15233333333333 3.18633333333333  11.217 2.287  Z M 9.526 20  L 26.322 20  C 27.082 20.28  27.766 20.0836666666667  28.374 19.691  C 28.982 19.2983333333333  29.286 18.7093333333333  29.286 17.924  C 29.286 17.164  28.982 16.6003333333333  28.374 16.233  C 27.766 15.8656666666667  27.082 15.682  26.322 16  L 9.526 16  C 8.766 15.682  8.06933333333333 15.8656666666667  7.436 16.233  C 6.80266666666667 16.6003333333333  6.486 17.164  6.486 17.924  C 6.486 18.7093333333333  6.80266666666667 19.2983333333333  7.436 19.691  C 8.06933333333333 20.0836666666667  8.766 20.28  9.526 20  Z " fill-rule="nonzero" fill="#a30014" stroke="none" transform="matrix(1 0 0 1 304 91 )" />
  </g>
</svg>