<?xml version="1.0" encoding="utf-8"?>
<svg version="1.1" xmlns:xlink="http://www.w3.org/1999/xlink" width="33px" height="33px" xmlns="http://www.w3.org/2000/svg">
  <g transform="matrix(1 0 0 1 -306 -193 )">
    <path d="M 33 16.5  C 33 7.38866532421875  25.6113346757813 0  16.5 0  C 7.38866532421875 0  0 7.38866532421875  0 16.5  C 0 25.6113346757813  7.38866532421875 33  16.5 33  C 25.6113346757813 33  33 25.6113346757813  33 16.5  Z M 18.1665996123047 16.5  L 24.2782025449219 22.6123406953125  C 24.5061502138398 22.8342106282471  24.6347333666961 23.1388015617466  24.6347333666961 23.4568996706776  C 24.6347333666961 24.1078067048917  24.1070689585274 24.6354711130604  23.4561619243133 24.6354711130604  C 23.1380638232901 24.6354711130604  22.8334728966705 24.5068879665781  22.6116029648438 24.2789403076172  L 16.5 18.1665996123047  L 10.3883970351563 24.2782025449219  C 10.1665270617795 24.5061505773129  9.86193587713547 24.6347339628496  9.54383747953321 24.6347339628496  C 8.8929304453191 24.6347339628496  8.3652660371504 24.1070695546809  8.3652660371504 23.4561625204668  C 8.3652660371504 23.1380641228645  8.49384942268715 22.8334729382205  8.72179745507813 22.6116029648437  L 14.8334003876953 16.5  L 8.72179745507813 10.3883970351562  C 8.50762511682126 10.1683575122086  8.38778556831833 9.87341919028931  8.38778556831833 9.56635701070114  C 8.38778556831833 8.91544997648703  8.91544997648704 8.38778556831833  9.56635701070114 8.38778556831833  C 9.87341919028932 8.38778556831833  10.1683575122086 8.50762511682125  10.3883970351563 8.72179745507812  L 16.5 14.8334003876953  L 22.6116029648438 8.72179745507813  C 22.8316424877914 8.50762511682127  23.1265808097107 8.38778556831835  23.4336429892988 8.38778556831835  C 24.084550023513 8.38778556831835  24.6122144316817 8.91544997648706  24.6122144316817 9.56635701070117  C 24.6122144316817 9.87341919028933  24.4923748831787 10.1683575122086  24.2782025449219 10.3883970351563  L 18.1665996123047 16.5  Z " fill-rule="nonzero" fill="#a30014" stroke="none" transform="matrix(1 0 0 1 306 193 )" />
  </g>
</svg>