<?xml version="1.0" encoding="utf-8"?>
<svg version="1.1" xmlns:xlink="http://www.w3.org/1999/xlink" width="21px" height="36px" xmlns="http://www.w3.org/2000/svg">
  <g transform="matrix(1 0 0 1 -2318 -1167 )">
    <path d="M 20.639175257732 2.16432865731463  C 20.8797250859107 2.40480961923847  21 2.6813627254509  21 2.9939879759519  C 21 3.3066132264529  20.8797250859107 3.58316633266533  20.639175257732 3.82364729458918  L 6.45876288659794 18  L 20.639175257732 32.1763527054108  C 20.8797250859107 32.4168336673347  21 32.6933867735471  21 33.0060120240481  C 21 33.3186372745491  20.8797250859107 33.5951903807615  20.639175257732 33.8356713426854  L 18.8350515463918 35.6392785571142  C 18.5945017182131 35.8797595190381  18.3178694158076 36  18.0051546391753 36  C 17.692439862543 36  17.4158075601375 35.8797595190381  17.1752577319588 35.6392785571142  L 0.360824742268041 18.8296593186373  C 0.120274914089347 18.5891783567134  0 18.312625250501  0 18  C 0 17.687374749499  0.120274914089347 17.4108216432866  0.360824742268041 17.1703406813627  L 17.1752577319588 0.360721442885772  C 17.4158075601375 0.120240480961923  17.692439862543 0  18.0051546391753 0  C 18.3178694158076 0  18.5945017182131 0.120240480961923  18.8350515463918 0.360721442885772  L 20.639175257732 2.16432865731463  Z " fill-rule="nonzero" fill="#000000" stroke="none" transform="matrix(1 0 0 1 2318 1167 )" />
  </g>
</svg>