<?xml version="1.0" encoding="utf-8"?>
<svg version="1.1" xmlns:xlink="http://www.w3.org/1999/xlink" width="27px" height="27px" xmlns="http://www.w3.org/2000/svg">
  <g transform="matrix(1 0 0 1 -3241 -715 )">
    <path d="M 11.25 20.91796875  C 11.5546875 20.91796875  11.818359375 20.806640625  12.041015625 20.583984375  L 22.833984375 9.791015625  C 23.056640625 9.568359375  23.16796875 9.3046875  23.16796875 9  C 23.16796875 8.6953125  23.056640625 8.431640625  22.833984375 8.208984375  L 21.041015625 6.416015625  C 20.818359375 6.193359375  20.5546875 6.08203125  20.25 6.08203125  C 19.9453125 6.08203125  19.681640625 6.193359375  19.458984375 6.416015625  L 11.25 14.625  L 7.541015625 10.916015625  C 7.318359375 10.693359375  7.0546875 10.58203125  6.75 10.58203125  C 6.4453125 10.58203125  6.181640625 10.693359375  5.958984375 10.916015625  L 4.166015625 12.708984375  C 3.943359375 12.931640625  3.83203125 13.1953125  3.83203125 13.5  C 3.83203125 13.8046875  3.943359375 14.068359375  4.166015625 14.291015625  L 10.458984375 20.583984375  C 10.681640625 20.806640625  10.9453125 20.91796875  11.25 20.91796875  Z M 25.5146484375 1.4853515625  C 26.5048828125 2.4755859375  27 3.66796875  27 5.0625  L 27 21.9375  C 27 23.33203125  26.5048828125 24.5244140625  25.5146484375 25.5146484375  C 24.5244140625 26.5048828125  23.33203125 27  21.9375 27  L 5.0625 27  C 3.66796875 27  2.4755859375 26.5048828125  1.4853515625 25.5146484375  C 0.4951171875 24.5244140625  0 23.33203125  0 21.9375  L 0 5.0625  C 0 3.66796875  0.4951171875 2.4755859375  1.4853515625 1.4853515625  C 2.4755859375 0.495117187499998  3.66796875 0  5.0625 0  L 21.9375 0  C 23.33203125 0  24.5244140625 0.495117187499998  25.5146484375 1.4853515625  Z " fill-rule="nonzero" fill="#666666" stroke="none" transform="matrix(1 0 0 1 3241 715 )" />
  </g>
</svg>