<?xml version="1.0" encoding="utf-8"?>
<svg version="1.1" xmlns:xlink="http://www.w3.org/1999/xlink" width="21px" height="21px" xmlns="http://www.w3.org/2000/svg">
  <g transform="matrix(1 0 0 1 -2603 -1238 )">
    <path d="M 20.0184135977337 0  C 20.4348441926345 0  20.7273371104816 0.193892045454518  20.8958923512748 0.581676136363555  C 21.064447592068 0.989346590909236  20.9950424929179 1.33735795454558  20.6876770538243 1.62571022727259  L 13 8.97869318181807  L 13 20.0454545454545  C 13.3555240793201 20.4630681818181  13.1621813031161 20.7563920454546  12.7754957507082 20.9254261363636  C 12.6466005665723 20.9751420454544  12.5226628895184 21  12.4036827195468 21  C 12.1359773371105 21  11.9128895184136 20.9055397727272  11.7344192634561 20.7166193181819  L 7.92705382436261 16.8984375  C 7.73866855524076 16.7095170454544  7.64447592067987 16.4857954545454  7.64447592067987 16.2272727272726  L 7.64447592067987 8.97869318181807  L 0.312322946175655 1.62571022727259  C 0.00495750708212839 1.33735795454558  -0.0644475920679675 0.989346590909236  0.104107648725218 0.581676136363555  C 0.272662889518404 0.193892045454518  0.565155807365471 0  0.98158640226627 0  L 20.0184135977337 0  Z " fill-rule="nonzero" fill="#000000" stroke="none" transform="matrix(1 0 0 1 2603 1238 )" />
  </g>
</svg>