<?xml version="1.0" encoding="utf-8"?>
<svg version="1.1" xmlns:xlink="http://www.w3.org/1999/xlink" width="32px" height="32px" xmlns="http://www.w3.org/2000/svg">
  <g transform="matrix(1 0 0 1 -2297 -1233 )">
    <path d="M 19.625 19.625  C 21.3108974358974 17.9391025641026  22.1538461538462 15.9102564102564  22.1538461538462 13.5384615384615  C 22.1538461538462 11.1666666666667  21.3108974358974 9.13782051282051  19.625 7.45192307692308  C 17.9391025641026 5.76602564102564  15.9102564102564 4.92307692307692  13.5384615384615 4.92307692307692  C 11.1666666666667 4.92307692307692  9.13782051282051 5.76602564102564  7.45192307692308 7.45192307692308  C 5.76602564102564 9.13782051282051  4.92307692307692 11.1666666666667  4.92307692307692 13.5384615384615  C 4.92307692307692 15.9102564102564  5.76602564102564 17.9391025641026  7.45192307692308 19.625  C 9.13782051282051 21.3108974358974  11.1666666666667 22.1538461538462  13.5384615384615 22.1538461538462  C 15.9102564102564 22.1538461538462  17.9391025641026 21.3108974358974  19.625 19.625  Z M 31.2884615384615 27.8076923076923  C 31.7628205128205 28.2820512820513  32 28.8589743589744  32 29.5384615384615  C 32 30.2051282051282  31.7564102564103 30.7820512820513  31.2692307692308 31.2692307692308  C 30.7820512820513 31.7564102564103  30.2051282051282 32  29.5384615384615 32  C 28.8461538461538 32  28.2692307692308 31.7564102564103  27.8076923076923 31.2692307692308  L 21.2115384615385 24.6923076923077  C 18.9166666666667 26.2820512820513  16.3589743589744 27.0769230769231  13.5384615384615 27.0769230769231  C 11.7051282051282 27.0769230769231  9.95192307692308 26.7211538461538  8.27884615384615 26.0096153846154  C 6.60576923076923 25.2980769230769  5.16346153846154 24.3365384615385  3.95192307692308 23.125  C 2.74038461538462 21.9134615384615  1.77884615384615 20.4711538461538  1.06730769230769 18.7980769230769  C 0.355769230769231 17.125  0 15.3717948717949  0 13.5384615384615  C 0 11.7051282051282  0.355769230769231 9.95192307692308  1.06730769230769 8.27884615384615  C 1.77884615384615 6.60576923076923  2.74038461538462 5.16346153846154  3.95192307692308 3.95192307692308  C 5.16346153846154 2.74038461538462  6.60576923076923 1.77884615384615  8.27884615384615 1.06730769230769  C 9.95192307692308 0.35576923076923  11.7051282051282 0  13.5384615384615 0  C 15.3717948717949 0  17.125 0.35576923076923  18.7980769230769 1.06730769230769  C 20.4711538461538 1.77884615384615  21.9134615384615 2.74038461538462  23.125 3.95192307692308  C 24.3365384615385 5.16346153846154  25.2980769230769 6.60576923076923  26.0096153846154 8.27884615384615  C 26.7211538461538 9.95192307692308  27.0769230769231 11.7051282051282  27.0769230769231 13.5384615384615  C 27.0769230769231 16.3589743589744  26.2820512820513 18.9166666666667  24.6923076923077 21.2115384615385  L 31.2884615384615 27.8076923076923  Z " fill-rule="nonzero" fill="#000000" stroke="none" transform="matrix(1 0 0 1 2297 1233 )" />
  </g>
</svg>