<?xml version="1.0" encoding="utf-8"?>
<svg version="1.1" xmlns:xlink="http://www.w3.org/1999/xlink" width="106px" height="106px" xmlns="http://www.w3.org/2000/svg">
  <g transform="matrix(1 0 0 1 -403 -186 )">
    <path d="M 403 186  L 509 186  L 509 292  L 403 292  L 403 186  " fill-rule="nonzero" fill="#cccccc" stroke="none" />
    <path d="M 410 193  L 502 193  L 502 285  L 410 285  L 410 193  " fill-rule="nonzero" fill="#ffffff" stroke="none" />
    <path d="M 466.07 217.8  C 461.618 217.8  458.12 214.302  458.12 209.85  C 458.12 205.398  461.618 201.9  466.07 201.9  C 470.522 201.9  474.02 205.398  474.02 209.85  C 474.02 214.302  470.522 217.8  466.07 217.8  " fill-rule="nonzero" fill="#cccccc" stroke="none" />
    <path d="M 413 283  L 413 235.15  L 434.75 213.4  L 465.2 230.8  L 482.6 226.45  L 500 230.8  L 500 283  L 413 283  " fill-rule="nonzero" fill="#169bd5" stroke="none" />
  </g>
</svg>