<?xml version="1.0" encoding="utf-8"?>
<svg version="1.1" xmlns:xlink="http://www.w3.org/1999/xlink" width="27px" height="27px" xmlns="http://www.w3.org/2000/svg">
  <g transform="matrix(1 0 0 1 -12 -24 )">
    <path d="M 26.9232954545455 16.9307306463068  C 25.5420143821023 16.400390625  24.5562411221591 15.0700461647727  24.5562411221591 13.5  C 24.5562411221591 11.9299538352273  25.5420143821023 10.599609375  26.9232954545455 10.0692693536932  C 26.5937056107955 8.77488014914773  26.0843394886364 7.55539772727273  25.4191672585227 6.43479225852273  C 24.0648526278409 7.03704279119318  22.4288884943182 6.79134854403409  21.3202681107955 5.67973188920454  C 20.2116477272727 4.57111150568182  19.9659534801136 2.93215110085227  20.5682040127841 1.58083274147727  C 19.4446022727273 0.915660511363636  18.2251198508523 0.406294389204545  16.9307306463068 0.0767045454545455  C 16.3973943536932 1.45798561789773  15.0670498934659 2.44375887784091  13.5 2.44375887784091  C 11.9299538352273 2.44375887784091  10.599609375 1.45798561789773  10.0692693536932 0.0767045454545455  C 8.77488014914773 0.406294389204545  7.55539772727273 0.915660511363636  6.43479225852273 1.58083274147727  C 7.03704279119318 2.93514737215909  6.79134854403409 4.57111150568182  5.68272816051136 5.67973188920454  C 4.57410777698864 6.78835227272727  2.93514737215909 7.03404651988636  1.58382901278409 6.43479225852273  C 0.915660511363636 7.55539772727273  0.406294389204545 8.77488014914773  0.0767045454545455 10.0692693536932  C 1.45798561789773 10.6026056463068  2.44375887784091 11.9329501065341  2.44375887784091 13.5  C 2.44375887784091 15.0700461647727  1.45798561789773 16.400390625  0.0767045454545455 16.9307306463068  C 0.406294389204545 18.2251198508523  0.915660511363636 19.4446022727273  1.58083274147727 20.5652077414773  C 2.93514737215909 19.9629572088068  4.57111150568182 20.2086514559659  5.67973188920454 21.3202681107955  C 6.78835227272727 22.4288884943182  7.03404651988636 24.0678488991477  6.43179598721591 25.4191672585227  C 7.55539772727273 26.0843394886364  8.77488014914773 26.5937056107955  10.0692693536932 26.9232954545455  C 10.6026056463068 25.5420143821023  11.9329501065341 24.5562411221591  13.5 24.5562411221591  C 15.0700461647727 24.5562411221591  16.400390625 25.5420143821023  16.9307306463068 26.9232954545455  C 18.2251198508523 26.5937056107955  19.4446022727273 26.0843394886364  20.5652077414773 25.4191672585227  C 19.9629572088068 24.0648526278409  20.2086514559659 22.4288884943182  21.3172718394886 21.3202681107955  C 22.4258922230114 20.2116477272727  24.0648526278409 19.9659534801136  25.4161709872159 20.5652077414773  C 26.0843394886364 19.4446022727273  26.5937056107955 18.2251198508523  26.9232954545455 16.9307306463068  Z M 17.1854137073864 13.5  C 17.1854137073864 15.5344682173295  15.5344682173295 17.1854137073864  13.5 17.1854137073864  C 11.4655317826705 17.1854137073864  9.81458629261364 15.5344682173295  9.81458629261364 13.5  C 9.81458629261364 11.4655317826705  11.4655317826705 9.81458629261364  13.5 9.81458629261364  C 15.5344682173295 9.81458629261364  17.1854137073864 11.4655317826705  17.1854137073864 13.5  Z " fill-rule="nonzero" fill="#ffffff" stroke="none" transform="matrix(1 0 0 1 12 24 )" />
  </g>
</svg>