<?xml version="1.0" encoding="utf-8"?>
<svg version="1.1" xmlns:xlink="http://www.w3.org/1999/xlink" width="120px" height="177px" xmlns="http://www.w3.org/2000/svg">
  <g transform="matrix(1 0 0 1 -279 -3093 )">
    <path d="M 91 80  L 111.05665137931 80  C 115.76650362069 79.9352088808594  119.59914362069 76.0928375683594  119 71.3704175888672  L 119 8.56479111914063  C 119.599751034483 3.8423713125  115.76650362069 0  111.05665137931 0  L 8.54370724137931 0  C 3.833855 0  0.000607413793103448 3.8423713125  0 8.56479111914063  L 0 177  L 91 177  L 91 80  Z M 113.904553793103 20  L 113.904553793103 29  L 5.69580482758621 29  L 5.69580482758621 20  L 113.904553793103 20  Z M 5.69580482758621 8.56479111914062  C 5.69580482758621 6.99166628320312  6.97152896551724 5.709657703125  8.54370724137931 6  L 111.057258793103 6  C 112.62931932598 5.71133662826123  113.9032144522 6.98873870404529  113.904553793103 8.56479111914063  L 113.904553793103 15  L 5.69580482758621 15  L 5.69580482758621 8.56479111914062  Z M 6 71.3710267177734  L 6 35  L 114 35  L 114 71.3710267177734  C 113.904553793103 72.9441515537109  112.628829655172 74.2261601337891  111.057258793103 75  L 8.54370724137931 75  C 6.97164670850262 74.2244812086528  5.69775158228282 72.9470791328688  6 71.3710267177734  Z M 55.7570448275862 80  C 61.7681356896552 83.540667421875  65.4956803448276 90.0268386445313  65.4956803448276 97.0641821630859  C 65.4956803448276 108.083973999023  56.5516387931034 117.048288861328  45.5627934482759 117.048288861328  C 34.5739481034483 117.048288861328  25.6299065517241 108.083973826172  25.6299065517241 97.0641821630859  C 25.6299065517241 90.0268386445313  29.3574512068965 83.540667421875  35.3685420689655 80  L 55.7570448275862 80  Z M 85 171.289733167969  L 85.4285672413793 171  L 6 171  L 6 79.4096158505859  C 6.59002672413793 79.7293566708984  7.540745 79.9352088808594  8.54309965517241 80  L 26.5453906896552 80  C 22.3822774137931 84.5827181044922  19.9334944827586 90.6352597236328  19.9334943103448 97.0641821630859  C 19.9334943103448 111.229614714844  31.4289843103448 122.757946737305  45.5615784482759 122.757946564453  C 59.6941725862069 122.757946391602  71.1896625862069 111.230223670898  71.1896625862069 97.064182163086  C 71.1896625862069 90.6352597236328  68.7408796551724 84.5827179316406  64.5777663793103 80  L 85 80  L 85 171.289733167969  Z " fill-rule="nonzero" fill="#333333" stroke="none" transform="matrix(1 0 0 1 279 3093 )" />
  </g>
</svg>