<?xml version="1.0" encoding="utf-8"?>
<svg version="1.1" xmlns:xlink="http://www.w3.org/1999/xlink" width="104px" height="131px" xmlns="http://www.w3.org/2000/svg">
  <g transform="matrix(1 0 0 1 -352 -3139 )">
    <path d="M 0.939709506666677 11.4317225842105  C 0.939709506666677 17.7120999355263  6.07531825333334 22.8191197671053  12.3908529333333 22.8191197671053  C 14.4148043866667 22.8191197671053  16.38134732 22.2555195013158  18.1249747466667 21.2388526328947  C 19.81424744 22.2178651026316  21.7490325866666 22.8191197671053  23.8419961866666 22.8191197671053  C 30.1575308666667 22.8191197671053  35.2931396133333 17.7120999355263  35.2931396133333 11.4317225842105  C 35.2931396133333 5.15134523289475  30.1575308666667 0.0443254013157915  23.8419961866667 0.0443254013157915  C 21.7490325866667 0.0443254013157915  19.8142472666667 0.644972639473685  18.1249747466667 1.62459253552632  C 16.3844009333333 0.608533093421051  14.4148042133333 0.0443254013157915  12.3908529333333 0.0443254013157915  C 6.07531825333334 0.0443254013157915  0.939709506666677 5.15134523289474  0.939709506666677 11.4317225842105  Z M 23.8419961866667 5.73802407894737  C 26.9994580266667 5.73802407894737  29.5675678133333 8.29183770789474  29.5675679866667 11.4317225842105  C 29.5675679866667 14.5716076328947  26.9994582 17.1254210894737  23.8419961866667 17.1254210894737  C 20.6845341733333 17.1254210894737  18.11642456 14.5716074605263  18.11642456 11.4317225842105  C 18.11642456 8.29183770789474  20.6845343466667 5.73802407894737  23.8419961866667 5.73802407894737  Z M 6.66528113333334 11.4317225842105  C 6.66528096 8.29183770789474  9.23339092 5.73802407894737  12.3908529333333 5.73802407894737  C 12.89164968 5.73802407894737  13.3814531066667 5.82912320263158  13.8620956933333 5.96273527368422  C 12.9515008133333 7.59098115789474  12.39085276 9.43847260657895  12.3908529333333 11.4317225842105  C 12.3908531066667 13.4249725618421  12.95211164 15.2718565842105  13.8620956933333 16.9007098947368  C 13.3814531066667 17.0343219657895  12.8916495066667 17.1254212618421  12.3908529333333 17.1254210894737  C 9.23339092000001 17.1254210894737  6.66528130666667 14.5716074605263  6.66528113333334 11.4317225842105  Z M 104 91.1435026921053  C 104 69.1661298026316  86.0213995333333 51.2876126381579  63.9209980933333 51.2876126381579  C 41.8205966533333 51.2876126381579  23.8419961866667 69.1661298026316  23.8419961866667 91.1435026921053  C 23.8419961866667 113.120875581579  41.819986 130.999392746053  63.9209980933333 130.999392746053  C 86.0220101866667 130.999392746053  104 113.120875581579  104 91.1435026921053  Z M 98.2744283733333 91.1435026921053  C 98.2744285466667 109.980990705263  82.8639376933333 125.305694068421  63.9209980933333 125.305694068421  C 44.9780586666667 125.305694068421  29.5675679866667 109.980990532895  29.5675679866667 91.1435026921053  C 29.5675679866667 72.3060148513158  44.9780586666667 56.9813113157895  63.9209980933333 56.9813111434211  C 82.86393752 56.9813109710526  98.2744282 72.3060146789474  98.2744283733333 91.1435026921053  Z " fill-rule="nonzero" fill="#333333" stroke="none" transform="matrix(1 0 0 1 352 3139 )" />
  </g>
</svg>