<?xml version="1.0" encoding="utf-8"?>
<svg version="1.1" xmlns:xlink="http://www.w3.org/1999/xlink" width="106px" height="106px" xmlns="http://www.w3.org/2000/svg">
  <g transform="matrix(1 0 0 1 -726 -332 )">
    <path d="M 726 332  L 832 332  L 832 438  L 726 438  L 726 332  " fill-rule="nonzero" fill="#cccccc" stroke="none" />
    <path d="M 733 339  L 825 339  L 825 431  L 733 431  L 733 339  " fill-rule="nonzero" fill="#ffffff" stroke="none" />
    <path d="M 789.07 363.8  C 784.618 363.8  781.12 360.302  781.12 355.85  C 781.12 351.398  784.618 347.9  789.07 347.9  C 793.522 347.9  797.02 351.398  797.02 355.85  C 797.02 360.302  793.522 363.8  789.07 363.8  " fill-rule="nonzero" fill="#cccccc" stroke="none" />
    <path d="M 736 429  L 736 381.15  L 757.75 359.4  L 788.2 376.8  L 805.6 372.45  L 823 376.8  L 823 429  L 736 429  " fill-rule="nonzero" fill="#777777" stroke="none" />
  </g>
</svg>