<?xml version="1.0" encoding="utf-8"?>
<svg version="1.1" xmlns:xlink="http://www.w3.org/1999/xlink" width="58px" height="166px" xmlns="http://www.w3.org/2000/svg">
  <g transform="matrix(1 0 0 1 -398 -3093 )">
    <path d="M 35.192090702381 127.087277729167  C 35.192090702381 120.00219835625  29.4353744107143 114.23616605  22.3624898392857 114.23616605  L 20.936843452381 114.23616605  L 20.936843452381 108.524357816667  L 15.2348660416667 108.524357816667  L 15.2348660416667 114.23616605  L 13.8092196547619 114.23616605  C 6.73572677380952 114.23616605  0.979618619047617 120.002198529167  0.979618791666664 127.0878870875  C 0.979618964285711 134.173575645833  6.73572694642857 139.939608125  13.8092196547619 139.939608125  L 22.3618815297619 139.939608125  C 26.2933568095238 139.939608125  29.4895051547619 143.143704158333  29.489505327381 147.07952075625  C 29.4895055 151.015337354167  26.2933569821429 154.2194333875  22.3618815297619 154.2194333875  L 13.8092196547619 154.2194333875  C 9.877744375 154.2194333875  6.6815960297619 151.015337354167  6.6815960297619 147.07952075625  L 6.6815960297619 145.651416358333  L 0.979618791666664 145.651416358333  L 0.979618791666664 147.07952075625  C 0.979618791666664 154.165209314583  6.73572694642857 159.93124179375  13.8092196547619 159.93124179375  L 15.2348660416667 159.93124179375  L 15.2348660416667 165.643050027083  L 20.936843452381 165.643050027083  L 20.936843452381 159.930632435417  L 22.3624898392857 159.930632435417  C 29.4359827202381 159.930632435417  35.192090875 154.16459995625  35.192090702381 147.078911570833  C 35.1920905297619 139.993223185417  29.4359825476191 134.227190533333  22.3624898392857 134.227190533333  L 13.8098279642857 134.227190533333  C 9.87835268452381 134.227190533333  6.68220433928571 131.0230945  6.68220416666666 127.087277729167  C 6.68220399404762 123.151460958333  9.87835251190476 119.947365097917  13.8098279642857 119.947365097917  L 22.3624898392857 119.947365097917  C 26.2939651190476 119.947365097917  29.4901134642857 123.15146113125  29.4901134642857 127.087277729167  L 29.4901134642857 128.515382127083  L 35.192090702381 128.515382127083  L 35.192090702381 127.087277729167  Z M 11.8136797678571 18.8492719875  L 16 14.2798254354167  L 16 74.2535078979167  L 21 74.2535078979167  L 21 14.2798254354167  L 24.3580297261905 18.8492719875  L 28.9196116547619 15.4221871166667  L 18.0861588154762 0.951054116666665  L 7.25209783928572 15.4221871166667  L 11.8136797678571 18.8492719875  Z M 15.2348660416667 88.5333333333333  L 15.2348660416667 79.9653163041667  L 20.936843452381 79.9653163041667  L 20.936843452381 88.5333333333333  L 15.2348660416667 88.5333333333333  Z M 40.3235663035714 35.9846968604167  L 43 31.4152503083333  L 43 82.8215251  L 49 82.8215251  L 49 31.4152503083333  L 52.8679162619048 35.9846968604167  L 57.4294981904762 32.5576119895833  L 46.5954372142857 18.0864789895833  L 35.761984375 32.5576119895833  L 40.3235663035714 35.9846968604167  Z M 43.744752577381 97.1013503625  L 43.744752577381 88.5333333333333  L 49.4467299880952 88.5333333333333  L 49.4467299880952 97.1013503625  L 43.744752577381 97.1013503625  Z " fill-rule="nonzero" fill="#333333" stroke="none" transform="matrix(1 0 0 1 398 3093 )" />
  </g>
</svg>