<?xml version="1.0" encoding="utf-8"?>
<svg version="1.1" xmlns:xlink="http://www.w3.org/1999/xlink" width="16px" height="16px" xmlns="http://www.w3.org/2000/svg">
  <g transform="matrix(1 0 0 1 -1199 -104 )">
    <path d="M 15.2521246458924 0  C 15.5694050991501 0  15.7922568460812 0.147727272727252  15.9206798866855 0.443181818181756  C 16.0491029272899 0.753787878787989  15.9962228517469 1.01893939393949  15.7620396600566 1.23863636363626  L 10.1756373937677 6.84090909090901  L 10.1756373937677 15.2727272727273  C 10.1756373937677 15.590909090909  10.028328611898 15.814393939394  9.73371104815863 15.9431818181818  C 9.63550519357887 15.9810606060605  9.5410764872521 16  9.4504249291785 16  C 9.24645892351276 16  9.07648725212465 15.9280303030303  8.94050991501416 15.784090909091  L 6.03966005665723 12.875  C 5.89612842304058 12.7310606060605  5.82436260623228 12.560606060606  5.82436260623228 12.3636363636363  L 5.82436260623228 6.84090909090901  L 0.237960339943356 1.23863636363626  C 0.0037771482530502 1.01893939393949  -0.04910292728988 0.753787878787989  0.0793201133144521 0.443181818181756  C 0.207743153918784 0.147727272727252  0.430594900849883 0  0.747875354107634 0  L 15.2521246458924 0  Z " fill-rule="nonzero" fill="#02a7f0" stroke="none" transform="matrix(1 0 0 1 1199 104 )" />
  </g>
</svg>