<?xml version="1.0" encoding="utf-8"?>
<svg version="1.1" xmlns:xlink="http://www.w3.org/1999/xlink" width="8px" height="8px" xmlns="http://www.w3.org/2000/svg">
  <g transform="matrix(1 0 0 1 -1068 -691 )">
    <path d="M 1072 692  C 1073.68 692  1075 693.32  1075 695  C 1075 696.68  1073.68 698  1072 698  C 1070.32 698  1069 696.68  1069 695  C 1069 693.32  1070.32 692  1072 692  Z " fill-rule="nonzero" fill="#ffffff" stroke="none" fill-opacity="0" />
    <path d="M 1072 692  C 1073.68 692  1075 693.32  1075 695  C 1075 696.68  1073.68 698  1072 698  C 1070.32 698  1069 696.68  1069 695  C 1069 693.32  1070.32 692  1072 692  Z " stroke-width="2" stroke="#999999" fill="none" />
  </g>
</svg>