<?xml version="1.0" encoding="utf-8"?>
<svg version="1.1" xmlns:xlink="http://www.w3.org/1999/xlink" width="22px" height="22px" xmlns="http://www.w3.org/2000/svg">
  <g transform="matrix(1 0 0 1 -435 -216 )">
    <path d="M 22 11  C 22 4.928  17.072 0  10.989 0  C 4.917 0  0 4.928  0 11  C 0 17.072  4.917 22  10.989 22  C 17.072 22  22 17.072  22 11  Z M 19.8 11  C 19.8 15.862  15.862 19.8  11 19.8  C 10.9990831900419 19.8000002866375  10.9981663800467 19.8000004299562  10.9972495700438 19.8000004299562  C 6.13866255459481 19.8000004299562  2.19999957004376 15.8613374454052  2.19999957004376 11.0027504299562  C 2.19999957004376 11.0018336199533  2.19999971336251 11.0009168099581  2.2 11  C 2.2 6.138  6.138 2.2  11 2.2  C 15.862 2.2  19.8 6.138  19.8 11  Z " fill-rule="nonzero" fill="#0b0d24" stroke="none" transform="matrix(1 0 0 1 435 216 )" />
  </g>
</svg>