<?xml version="1.0" encoding="utf-8"?>
<svg version="1.1" xmlns:xlink="http://www.w3.org/1999/xlink" width="13px" height="11px" xmlns="http://www.w3.org/2000/svg">
  <g transform="matrix(1 0 0 1 -2684 -151 )">
    <path d="M 7.35531309179687 5.45673417397837  L 12.5191660078125 1.10994115249399  C 12.7633404628906 0.90436023046875  12.7645746279297 0.571231092397837  12.5216153378906 0.364621938100962  C 12.2781054375 0.15754686703726  11.8850909013672 0.156968490309495  11.6409164462891 0.362549428034856  L 6.47573445800781 4.70980836628606  L 1.35553294726563 0.364139960111178  C 1.11316226757813 0.158575099308894  0.71891356640625 0.157530805814303  0.474739129882813 0.363095666616586  C 0.23113428515625 0.56866052741887  0.230545693359375 0.902271643479567  0.47350496484375 1.10888079777644  L 5.59247231054687 5.45350491045673  L 0.431106706054687 9.79764704514724  C 0.18691326953125 10.0032279671725  0.1856980859375 10.3363249827975  0.42861939453125 10.5429662595403  C 0.550080048828125 10.6463029591346  0.710141522460937 10.6984050954026  0.87020299609375 10.6984050954026  C 1.0290493046875 10.6984050954026  1.18795255761719 10.6473472526292  1.30943219335937 10.5450387696064  L 6.47203194433594 6.19985234142128  L 11.6390177265625 10.5850913776292  C 11.7604783808594 10.6884441541466  11.9199892255859 10.7400803736478  12.0800317177734 10.7400803736478  C 12.2395045996094 10.7400803736478  12.3983508896484 10.6884441541466  12.5198115439453 10.5861356711238  C 12.7633214443359 10.3805708103215  12.7639859990234 10.0475380709886  12.5210457089844 9.84092891669171  L 7.35531309179687 5.45673417397837  Z " fill-rule="nonzero" fill="#c9c9c9" stroke="none" transform="matrix(1 0 0 1 2684 151 )" />
  </g>
</svg>