<?xml version="1.0" encoding="utf-8"?>
<svg version="1.1" xmlns:xlink="http://www.w3.org/1999/xlink" width="8px" height="8px" xmlns="http://www.w3.org/2000/svg">
  <g transform="matrix(1 0 0 1 -2433 -360 )">
    <path d="M 2437 362.5  C 2437.84 362.5  2438.5 363.16  2438.5 364  C 2438.5 364.84  2437.84 365.5  2437 365.5  C 2436.16 365.5  2435.5 364.84  2435.5 364  C 2435.5 363.16  2436.16 362.5  2437 362.5  Z " fill-rule="nonzero" fill="#6a708c" stroke="none" />
    <path d="M 2437 361.5  C 2438.4 361.5  2439.5 362.6  2439.5 364  C 2439.5 365.4  2438.4 366.5  2437 366.5  C 2435.6 366.5  2434.5 365.4  2434.5 364  C 2434.5 362.6  2435.6 361.5  2437 361.5  Z " stroke-width="3" stroke="#6a708c" fill="none" stroke-opacity="0.298039215686275" />
  </g>
</svg>