<?xml version="1.0" encoding="utf-8"?>
<svg version="1.1" xmlns:xlink="http://www.w3.org/1999/xlink" width="5px" height="7px" xmlns="http://www.w3.org/2000/svg">
  <g transform="matrix(1 0 0 1 -441 -431 )">
    <path d="M 4.91408934707904 3.33867735470942  C 4.97136311569301 3.38543754175017  5 3.43921175684703  5 3.5  C 5 3.56078824315297  4.97136311569301 3.61456245824983  4.91408934707904 3.66132264529058  L 0.910652920962199 6.92985971943888  C 0.853379152348225 6.97661990647963  0.787514318442153 7  0.713058419243986 7  C 0.638602520045819 7  0.572737686139748 6.97661990647963  0.515463917525773 6.92985971943888  L 0.0859106529209622 6.57915831663327  C 0.0286368843069874 6.53239812959252  0 6.47862391449566  0 6.41783567134268  C 0 6.35704742818971  0.0286368843069874 6.30327321309285  0.0859106529209622 6.2565130260521  L 3.46219931271478 3.5  L 0.0859106529209622 0.743486973947896  C 0.0286368843069874 0.696726786907147  0 0.642952571810287  0 0.582164328657315  C 0 0.521376085504341  0.0286368843069874 0.467601870407481  0.0859106529209622 0.420841683366733  L 0.515463917525773 0.0701402805611223  C 0.572737686139748 0.0233800935203738  0.638602520045819 0  0.713058419243986 0  C 0.787514318442153 0  0.853379152348225 0.0233800935203738  0.910652920962199 0.0701402805611223  L 4.91408934707904 3.33867735470942  Z " fill-rule="nonzero" fill="#000000" stroke="none" transform="matrix(1 0 0 1 441 431 )" />
  </g>
</svg>