<?xml version="1.0" encoding="utf-8"?>
<svg version="1.1" xmlns:xlink="http://www.w3.org/1999/xlink" width="85px" height="105px" xmlns="http://www.w3.org/2000/svg">
  <defs>
    <mask fill="white" id="clip177">
      <path d="M 0 86.7391304347826  L 0 8.26086956521739  C 0 3.63478260869563  0.420382165605093 0  0.955414012738854 0  L 74.0445859872611 0  C 74.5796178343949 0  75 3.63478260869563  75 8.26086956521739  L 75 86.7391304347826  C 75 91.3652173913044  74.5796178343949 95  74.0445859872611 95  L 48.0312680949623 95  L 0.955414012738854 95  C 0.420382165605093 95  0 91.3652173913044  0 86.7391304347826  Z " fill-rule="evenodd" />
    </mask>
    <filter x="380px" y="384px" width="85px" height="105px" filterUnits="userSpaceOnUse" id="filter178">
      <feOffset dx="3" dy="3" in="SourceAlpha" result="shadowOffsetInner" />
      <feGaussianBlur stdDeviation="2.5" in="shadowOffsetInner" result="shadowGaussian" />
      <feComposite in2="shadowGaussian" operator="atop" in="SourceAlpha" result="shadowComposite" />
      <feColorMatrix type="matrix" values="0 0 0 0 0  0 0 0 0 0  0 0 0 0 0  0 0 0 0.349019607843137 0  " in="shadowComposite" />
    </filter>
    <g id="widget179">
      <path d="M 0 86.7391304347826  L 0 8.26086956521739  C 0 3.63478260869563  0.420382165605093 0  0.955414012738854 0  L 74.0445859872611 0  C 74.5796178343949 0  75 3.63478260869563  75 8.26086956521739  L 75 86.7391304347826  C 75 91.3652173913044  74.5796178343949 95  74.0445859872611 95  L 48.0312680949623 95  L 0.955414012738854 95  C 0.420382165605093 95  0 91.3652173913044  0 86.7391304347826  Z " fill-rule="nonzero" fill="#ffffff" stroke="none" transform="matrix(1 0 0 1 382 386 )" />
      <path d="M 0 86.7391304347826  L 0 8.26086956521739  C 0 3.63478260869563  0.420382165605093 0  0.955414012738854 0  L 74.0445859872611 0  C 74.5796178343949 0  75 3.63478260869563  75 8.26086956521739  L 75 86.7391304347826  C 75 91.3652173913044  74.5796178343949 95  74.0445859872611 95  L 48.0312680949623 95  L 0.955414012738854 95  C 0.420382165605093 95  0 91.3652173913044  0 86.7391304347826  Z " stroke-width="2" stroke="#adb0c1" fill="none" transform="matrix(1 0 0 1 382 386 )" mask="url(#clip177)" />
    </g>
  </defs>
  <g transform="matrix(1 0 0 1 -380 -384 )">
    <use xlink:href="#widget179" filter="url(#filter178)" />
    <use xlink:href="#widget179" />
  </g>
</svg>