<?xml version="1.0" encoding="utf-8"?>
<svg version="1.1" xmlns:xlink="http://www.w3.org/1999/xlink" width="23px" height="23px" xmlns="http://www.w3.org/2000/svg">
  <defs>
    <filter x="387px" y="403px" width="23px" height="23px" filterUnits="userSpaceOnUse" id="filter1761">
      <feOffset dx="1" dy="1" in="SourceAlpha" result="shadowOffsetInner" />
      <feGaussianBlur stdDeviation="2.5" in="shadowOffsetInner" result="shadowGaussian" />
      <feComposite in2="shadowGaussian" operator="atop" in="SourceAlpha" result="shadowComposite" />
      <feColorMatrix type="matrix" values="0 0 0 0 0  0 0 0 0 0  0 0 0 0 0  0 0 0 0.698039215686274 0  " in="shadowComposite" />
    </filter>
    <g id="widget1762">
      <path d="M 397.5 407  C 401.14 407  404 409.86  404 413.5  C 404 417.14  401.14 420  397.5 420  C 393.86 420  391 417.14  391 413.5  C 391 409.86  393.86 407  397.5 407  Z " fill-rule="nonzero" fill="#009dd9" stroke="none" />
      <path d="M 397.5 407.5  C 400.86 407.5  403.5 410.14  403.5 413.5  C 403.5 416.86  400.86 419.5  397.5 419.5  C 394.14 419.5  391.5 416.86  391.5 413.5  C 391.5 410.14  394.14 407.5  397.5 407.5  Z " stroke-width="1" stroke="#ffffff" fill="none" />
    </g>
  </defs>
  <g transform="matrix(1 0 0 1 -387 -403 )">
    <use xlink:href="#widget1762" filter="url(#filter1761)" />
    <use xlink:href="#widget1762" />
  </g>
</svg>