<?xml version="1.0" encoding="UTF-8"?>
<svg width="19px" height="17px" viewBox="0 0 19 17" version="1.1" xmlns="http://www.w3.org/2000/svg" xmlns:xlink="http://www.w3.org/1999/xlink">
    <title>icon/一级导航/我的助理备份 7@2x</title>
    <g id="页面-1" stroke="none" stroke-width="1" fill="none" fill-rule="evenodd">
        <g id="6-房间标记" transform="translate(-23.000000, -306.000000)" fill="#5A6172">
            <g id="icon/一级导航/我的助理备份-7" transform="translate(16.000000, 298.000000)">
                <path d="M23.7362593,8.065 C24.6834277,8.065 25.4512593,8.83283165 25.4512593,9.78 L25.4512593,20.8414931 C25.4512593,21.7095139 24.7475894,22.4131838 23.8795686,22.4131838 L15.435,22.413 L11.3893679,24.4367755 C10.8022233,24.7303478 10.117158,24.3434235 10.0428518,23.7139907 L10.0362232,23.6004861 L10.036,22.413 L8.63669069,22.4131838 C7.81689327,22.4131838 7.1436928,21.7855276 7.07142299,20.984549 L7.065,20.8414931 L7.065,9.63669069 C7.065,8.76866989 7.76866989,8.065 8.63669069,8.065 Z M23.581,9.935 L8.935,9.935 L8.935,20.543 L10.9712232,20.5431838 C11.4507247,20.5431838 11.8459224,20.9041314 11.8999328,21.369143 L11.9062232,21.4781838 L11.906,22.087 L14.7976831,20.6418944 C14.8950555,20.5932082 14.9999265,20.5620266 15.1075131,20.5494787 L15.2158278,20.5431838 L23.581,20.543 L23.581,9.935 Z M12.75,11.765 C13.2295015,11.765 13.6246992,12.1259476 13.6787096,12.5909592 L13.685,12.7 L13.685,17.7 C13.685,18.2163862 13.2663862,18.635 12.75,18.635 C12.2704985,18.635 11.8753008,18.2740524 11.8212904,17.8090408 L11.815,17.7 L11.815,12.7 C11.815,12.1836138 12.2336138,11.765 12.75,11.765 Z M16.25,13.765 C16.7295015,13.765 17.1246992,14.1259476 17.1787096,14.5909592 L17.185,14.7 L17.185,17.7 C17.185,18.2163862 16.7663862,18.635 16.25,18.635 C15.7704985,18.635 15.3753008,18.2740524 15.3212904,17.8090408 L15.315,17.7 L15.315,14.7 C15.315,14.1836138 15.7336138,13.765 16.25,13.765 Z M19.75,13.765 C20.2295015,13.765 20.6246992,14.1259476 20.6787096,14.5909592 L20.685,14.7 L20.685,17.7 C20.685,18.2163862 20.2663862,18.635 19.75,18.635 C19.2704985,18.635 18.8753008,18.2740524 18.8212904,17.8090408 L18.815,17.7 L18.815,14.7 C18.815,14.1836138 19.2336138,13.765 19.75,13.765 Z" id="形状结合"></path>
            </g>
        </g>
    </g>
</svg>