<?xml version="1.0" encoding="utf-8"?>
<svg version="1.1" xmlns:xlink="http://www.w3.org/1999/xlink" width="57px" height="51px" xmlns="http://www.w3.org/2000/svg">
  <g transform="matrix(1 0 0 1 -588 -252 )">
    <path d="M 588 252  L 645 252  L 645 303  L 588 303  L 588 252  " fill-rule="nonzero" fill="#cccccc" stroke="none" />
    <path d="M 592 256  L 641 256  L 641 299  L 592 299  L 592 256  " fill-rule="nonzero" fill="#ffffff" stroke="none" />
    <path d="M 621.465 267.3  C 619.323 267.3  617.64 265.617  617.64 263.475  C 617.64 261.333  619.323 259.65  621.465 259.65  C 623.607 259.65  625.29 261.333  625.29 263.475  C 625.29 265.617  623.607 267.3  621.465 267.3  " fill-rule="nonzero" fill="#cccccc" stroke="none" />
    <path d="M 594 298  L 594 276  L 605.5 266  L 621.6 276.526315789474  L 630.8 272  L 640 276.526315789474  L 640 298  L 594 298  " fill-rule="nonzero" fill="#169bd5" stroke="none" />
  </g>
</svg>