<?xml version="1.0" encoding="utf-8"?>
<svg version="1.1" xmlns:xlink="http://www.w3.org/1999/xlink" width="11px" height="9px" xmlns="http://www.w3.org/2000/svg">
  <g transform="matrix(1 0 0 1 -622 -274 )">
    <path d="M 10.9416852678571 5.84933035714286  C 10.9805617559524 5.89174107142857  11 5.94196428571429  11 6  L 11 7.28571428571429  C 11 7.34375  10.9805617559524 7.39397321428571  10.9416852678571 7.43638392857143  C 10.9028087797619 7.47879464285714  10.8567708333333 7.5  10.8035714285714 7.5  L 2.35714285714286 7.5  L 2.35714285714286 8.78571428571428  C 2.35714285714286 8.84375  2.33770461309524 8.89397321428572  2.298828125 8.93638392857143  C 2.25995163690476 8.97879464285714  2.21391369047619 9  2.16071428571429 9  C 2.11160714285714 9  2.0625 8.97767857142857  2.01339285714286 8.93303571428572  L 0.0552455357142857 6.79017857142857  C 0.0184151785714286 6.75  0 6.70089285714286  0 6.64285714285714  C 0 6.58035714285714  0.0184151785714286 6.52901785714286  0.0552455357142857 6.48883928571428  L 2.01953125 4.34598214285714  C 2.05636160714286 4.30580357142857  2.10342261904762 4.28571428571429  2.16071428571429 4.28571428571429  C 2.21391369047619 4.28571428571429  2.25995163690476 4.30691964285714  2.298828125 4.34933035714286  C 2.33770461309524 4.39174107142857  2.35714285714286 4.44196428571428  2.35714285714286 4.5  L 2.35714285714286 5.78571428571428  L 10.8035714285714 5.78571428571428  C 10.8567708333333 5.78571428571428  10.9028087797619 5.80691964285714  10.9416852678571 5.84933035714286  Z M 10.9447544642857 2.203125  C 10.9815848214286 2.24330357142857  11 2.29464285714286  11 2.35714285714286  C 11 2.41964285714286  10.9815848214286 2.47098214285714  10.9447544642857 2.51116071428571  L 8.98046875 4.65401785714286  C 8.94363839285714 4.69419642857143  8.89657738095238 4.71428571428571  8.83928571428572 4.71428571428571  C 8.78608630952381 4.71428571428571  8.74004836309524 4.69308035714286  8.701171875 4.65066964285714  C 8.66229538690476 4.60825892857143  8.64285714285714 4.55803571428571  8.64285714285714 4.5  L 8.64285714285714 3.21428571428571  L 0.196428571428571 3.21428571428571  C 0.143229166666667 3.21428571428571  0.0971912202380952 3.19308035714286  0.0583147321428571 3.15066964285714  C 0.019438244047619 3.10825892857143  0 3.05803571428571  0 3  L 0 1.71428571428571  C 0 1.65625  0.019438244047619 1.60602678571429  0.0583147321428571 1.56361607142857  C 0.0971912202380952 1.52120535714286  0.143229166666667 1.5  0.196428571428571 1.5  L 8.64285714285714 1.5  L 8.64285714285714 0.214285714285715  C 8.64285714285714 0.151785714285714  8.66127232142857 0.100446428571429  8.69810267857143 0.0602678571428574  C 8.73493303571428 0.0200892857142861  8.78199404761905 0  8.83928571428572 0  C 8.88839285714286 0  8.9375 0.0223214285714285  8.98660714285714 0.0669642857142855  L 10.9447544642857 2.203125  Z " fill-rule="nonzero" fill="#ffffff" stroke="none" transform="matrix(1 0 0 1 622 274 )" />
  </g>
</svg>