<?xml version="1.0" encoding="utf-8"?>
<svg version="1.1" xmlns:xlink="http://www.w3.org/1999/xlink" width="11px" height="12px" xmlns="http://www.w3.org/2000/svg">
  <g transform="matrix(1 0 0 1 -601 -272 )">
    <path d="M 9.50245094427835 3.98897203067308  L 8.40356801809278 3.98897203067308  L 8.40356801809278 10.82281130625  L 2.51298598545103 10.82281130625  L 2.51298598545103 3.98897203067308  L 1.41326549091495 3.98897203067308  L 1.41326549091495 11.940905473125  L 9.50245094427835 11.940905473125  L 9.50245094427835 3.98897203067308  Z M 10.9145825045876 1.72210428  L 7.29379677167526 1.72210428  L 7.29379677167526 0.0245100892788462  L 3.66128513926546 0.0245100892788462  L 3.66128513926546 1.72380868860577  L 0.0513877135438144 1.72380868860577  L 0.0513877135438144 3  L 10.9145825045876 3  L 10.9145825045876 1.72295649072115  Z M 4.76100563380154 1.72210428  L 4.76100563380154 1.14260425586538  L 6.19407627742268 1.14260425586538  L 6.19407627742268 1.72210428  L 4.76184318896907 1.72210428  Z M 3.66212270690722 9.43371565990385  L 3.66212270733247 9.43201123860577  L 3.66212270733247 3.99238084774039  L 4.76100563380154 3.99238084774039  L 4.76100563380154 9.43371565990385  L 3.66212270690722 9.43371565990385  Z M 7.29379677167525 9.42860242139423  L 6.19407627742268 9.42860242168269  L 6.19407627742268 3.98897203067308  L 7.29379677167525 3.98897203067308  L 7.29379677167525 9.42860242139423  Z " fill-rule="nonzero" fill="#ffffff" stroke="none" transform="matrix(1 0 0 1 601 272 )" />
  </g>
</svg>