<?xml version="1.0" encoding="utf-8"?>
<svg version="1.1" xmlns:xlink="http://www.w3.org/1999/xlink" width="59px" height="59px" xmlns="http://www.w3.org/2000/svg">
  <g transform="matrix(1 0 0 1 -834 -250 )">
    <path d="M 835 254  A 3 3 0 0 1 838 251 L 889 251  A 3 3 0 0 1 892 254 L 892 305  A 3 3 0 0 1 889 308 L 838 308  A 3 3 0 0 1 835 305 L 835 254  Z " fill-rule="nonzero" fill="#f2f2f2" stroke="none" />
    <path d="M 834.5 254  A 3.5 3.5 0 0 1 838 250.5 L 889 250.5  A 3.5 3.5 0 0 1 892.5 254 L 892.5 305  A 3.5 3.5 0 0 1 889 308.5 L 838 308.5  A 3.5 3.5 0 0 1 834.5 305 L 834.5 254  Z " stroke-width="1" stroke-dasharray="3,1" stroke="#d8d8d8" fill="none" stroke-dashoffset="0.5" />
  </g>
</svg>