<?xml version="1.0" encoding="UTF-8"?>
<svg width="7px" height="16px" viewBox="0 0 7 16" version="1.1" xmlns="http://www.w3.org/2000/svg" xmlns:xlink="http://www.w3.org/1999/xlink">
    <title>1.通用/1.icon图标/填充/拖拽_drag备份</title>
    <g id="后台" stroke="none" stroke-width="1" fill="none" fill-rule="evenodd">
        <g id="餐食管理" transform="translate(-91.000000, -295.000000)">
            <g id="编组-6" transform="translate(80.000000, 152.000000)">
                <g id="编组-2备份" transform="translate(8.000000, 123.000000)">
                    <g id="1.通用/1.icon图标/填充/拖拽_drag备份" transform="translate(1.000000, 20.000000)">
                        <rect id="矩形" fill="#000000" fill-rule="nonzero" opacity="0" x="0" y="0" width="16" height="16"></rect>
                        <path d="M7.91111111,0 C7.37777778,0 6.97777778,0.4 6.97777778,0.933333328 C6.97777778,1.46666666 7.42222222,1.86666667 7.91111111,1.86666667 C8.44444444,1.86666667 8.84444444,1.46666667 8.84444444,0.933333328 C8.88888888,0.4 8.44444444,0 7.91111111,0 Z M7.91111111,4.71111111 C7.37777778,4.71111111 6.97777778,5.11111111 6.97777778,5.64444444 C6.97777778,6.17777777 7.42222222,6.57777778 7.91111111,6.57777778 C8.44444444,6.57777778 8.84444444,6.17777778 8.84444444,5.64444444 C8.88888888,5.11111111 8.44444444,4.71111111 7.91111111,4.71111111 Z M7.91111111,9.42222222 C7.37777778,9.42222222 6.97777778,9.82222222 6.97777778,10.3555556 C6.97777778,10.8888889 7.42222222,11.2888889 7.91111111,11.2888889 C8.44444444,11.2888889 8.84444444,10.8888889 8.84444444,10.3555556 C8.88888888,9.82222223 8.44444444,9.42222222 7.91111111,9.42222222 C7.42222222,9.42222222 7.91111111,9.42222222 7.91111111,9.42222222 Z M7.91111111,14.1333333 C7.37777778,14.1333333 6.97777778,14.5333333 6.97777778,15.0666667 C6.97777778,15.6 7.42222222,16 7.91111111,16 C8.44444444,16 8.84444444,15.6 8.84444444,15.0666667 C8.88888888,14.5333333 8.44444444,14.1333333 7.91111111,14.1333333 C7.42222222,14.1333333 7.91111111,14.1333333 7.91111111,14.1333333 L7.91111111,14.1333333 Z M3.82222222,0 C3.33333333,0 2.88888889,0.4 2.88888889,0.933333328 C2.88888889,1.46666666 3.33333333,1.86666667 3.82222222,1.86666667 C4.35555555,1.86666667 4.75555555,1.46666667 4.75555556,0.933333328 C4.8,0.4 4.35555556,0 3.82222222,0 Z M3.82222222,4.71111111 C3.28888889,4.71111111 2.88888889,5.11111111 2.88888889,5.64444444 C2.88888889,6.17777777 3.33333333,6.57777778 3.82222222,6.57777778 C4.35555555,6.57777778 4.75555555,6.17777778 4.75555556,5.64444444 C4.8,5.11111111 4.35555556,4.71111111 3.82222222,4.71111111 Z M3.82222222,9.42222222 C3.28888889,9.42222222 2.88888889,9.82222222 2.88888889,10.3555556 C2.88888889,10.8888889 3.33333333,11.2888889 3.82222222,11.2888889 C4.35555555,11.2888889 4.75555555,10.8888889 4.75555556,10.3555556 C4.8,9.82222223 4.35555556,9.42222222 3.82222222,9.42222222 Z M3.82222222,14.1333333 C3.28888889,14.1333333 2.88888889,14.5333333 2.88888889,15.0666667 C2.88888889,15.6 3.33333333,16 3.82222222,16 C4.35555555,16 4.75555555,15.6 4.75555556,15.0666667 C4.8,14.5333333 4.35555556,14.1333333 3.82222222,14.1333333 L3.82222222,14.1333333 Z" id="形状" fill="#C0C2C9"></path>
                    </g>
                </g>
            </g>
        </g>
    </g>
</svg>