<?xml version="1.0" encoding="utf-8"?>
<svg version="1.1" xmlns:xlink="http://www.w3.org/1999/xlink" width="29px" height="29px" xmlns="http://www.w3.org/2000/svg">
  <g transform="matrix(1 0 0 1 -3139 -2129 )">
    <path d="M 20.4755859375 20.4755859375  C 21.4888237847222 19.4623480902778  22.1968315972222 18.2760416666667  22.599609375 16.9166666666667  L 20.5416666666667 16.9166666666667  C 20.2144097222222 16.9166666666667  19.9312065972222 16.7970920138889  19.6920572916667 16.5579427083333  C 19.4529079861111 16.3187934027778  19.3333333333333 16.0355902777778  19.3333333333333 15.7083333333333  L 19.3333333333333 13.2916666666667  C 19.3333333333333 12.9644097222222  19.4529079861111 12.6812065972222  19.6920572916667 12.4420572916667  C 19.9312065972222 12.2029079861111  20.2144097222222 12.0833333333333  20.5416666666667 12.0833333333333  L 22.599609375 12.0833333333333  C 22.1968315972222 10.7239583333333  21.4888237847222 9.53765190972222  20.4755859375 8.5244140625  C 19.4623480902778 7.51117621527778  18.2760416666667 6.80316840277778  16.9166666666667 6.400390625  L 16.9166666666667 8.45833333333333  C 16.9166666666667 8.78559027777778  16.7970920138889 9.06879340277778  16.5579427083333 9.30794270833333  C 16.3187934027778 9.54709201388889  16.0355902777778 9.66666666666667  15.7083333333333 9.66666666666667  L 13.2916666666667 9.66666666666667  C 12.9644097222222 9.66666666666667  12.6812065972222 9.54709201388889  12.4420572916667 9.30794270833333  C 12.2029079861111 9.06879340277778  12.0833333333333 8.78559027777778  12.0833333333333 8.45833333333333  L 12.0833333333333 6.400390625  C 10.7239583333333 6.80316840277778  9.53765190972222 7.51117621527778  8.5244140625 8.5244140625  C 7.51117621527778 9.53765190972222  6.80316840277778 10.7239583333333  6.400390625 12.0833333333333  L 8.45833333333333 12.0833333333333  C 8.78559027777778 12.0833333333333  9.06879340277778 12.2029079861111  9.30794270833333 12.4420572916667  C 9.54709201388889 12.6812065972222  9.66666666666667 12.9644097222222  9.66666666666667 13.2916666666667  L 9.66666666666667 15.7083333333333  C 9.66666666666667 16.0355902777778  9.54709201388889 16.3187934027778  9.30794270833333 16.5579427083333  C 9.06879340277778 16.7970920138889  8.78559027777778 16.9166666666667  8.45833333333333 16.9166666666667  L 6.400390625 16.9166666666667  C 6.80316840277778 18.2760416666667  7.51117621527778 19.4623480902778  8.5244140625 20.4755859375  C 9.53765190972222 21.4888237847222  10.7239583333333 22.1968315972222  12.0833333333333 22.599609375  L 12.0833333333333 20.5416666666667  C 12.0833333333333 20.2144097222222  12.2029079861111 19.9312065972222  12.4420572916667 19.6920572916667  C 12.6812065972222 19.4529079861111  12.9644097222222 19.3333333333333  13.2916666666667 19.3333333333333  L 15.7083333333333 19.3333333333333  C 16.0355902777778 19.3333333333333  16.3187934027778 19.4529079861111  16.5579427083333 19.6920572916667  C 16.7970920138889 19.9312065972222  16.9166666666667 20.2144097222222  16.9166666666667 20.5416666666667  L 16.9166666666667 22.599609375  C 18.2760416666667 22.1968315972222  19.4623480902778 21.4888237847222  20.4755859375 20.4755859375  Z M 28.6412760416667 12.4420572916667  C 28.8804253472222 12.6812065972222  29 12.9644097222222  29 13.2916666666667  L 29 15.7083333333333  C 29 16.0355902777778  28.8804253472222 16.3187934027778  28.6412760416667 16.5579427083333  C 28.4021267361111 16.7970920138889  28.1189236111111 16.9166666666667  27.7916666666667 16.9166666666667  L 25.091796875 16.9166666666667  C 24.6260850694444 18.9431423611111  23.6537543402778 20.6958550347222  22.1748046875 22.1748046875  C 20.6958550347222 23.6537543402778  18.9431423611111 24.6260850694444  16.9166666666667 25.091796875  L 16.9166666666667 27.7916666666667  C 16.9166666666667 28.1189236111111  16.7970920138889 28.4021267361111  16.5579427083333 28.6412760416667  C 16.3187934027778 28.8804253472222  16.0355902777778 29  15.7083333333333 29  L 13.2916666666667 29  C 12.9644097222222 29  12.6812065972222 28.8804253472222  12.4420572916667 28.6412760416667  C 12.2029079861111 28.4021267361111  12.0833333333333 28.1189236111111  12.0833333333333 27.7916666666667  L 12.0833333333333 25.091796875  C 10.0568576388889 24.6260850694444  8.30414496527778 23.6537543402778  6.8251953125 22.1748046875  C 5.34624565972222 20.6958550347222  4.37391493055556 18.9431423611111  3.908203125 16.9166666666667  L 1.20833333333333 16.9166666666667  C 0.881076388888889 16.9166666666667  0.597873263888889 16.7970920138889  0.358723958333333 16.5579427083333  C 0.119574652777778 16.3187934027778  0 16.0355902777778  0 15.7083333333333  L 0 13.2916666666667  C 0 12.9644097222222  0.119574652777778 12.6812065972222  0.358723958333333 12.4420572916667  C 0.597873263888889 12.2029079861111  0.881076388888889 12.0833333333333  1.20833333333333 12.0833333333333  L 3.908203125 12.0833333333333  C 4.37391493055556 10.0568576388889  5.34624565972222 8.30414496527778  6.8251953125 6.8251953125  C 8.30414496527778 5.34624565972222  10.0568576388889 4.37391493055555  12.0833333333333 3.908203125  L 12.0833333333333 1.20833333333333  C 12.0833333333333 0.881076388888885  12.2029079861111 0.597873263888885  12.4420572916667 0.358723958333332  C 12.6812065972222 0.119574652777776  12.9644097222222 0  13.2916666666667 0  L 15.7083333333333 0  C 16.0355902777778 0  16.3187934027778 0.119574652777776  16.5579427083333 0.358723958333332  C 16.7970920138889 0.597873263888885  16.9166666666667 0.881076388888885  16.9166666666667 1.20833333333333  L 16.9166666666667 3.908203125  C 18.9431423611111 4.37391493055555  20.6958550347222 5.34624565972222  22.1748046875 6.8251953125  C 23.6537543402778 8.30414496527778  24.6260850694444 10.0568576388889  25.091796875 12.0833333333333  L 27.7916666666667 12.0833333333333  C 28.1189236111111 12.0833333333333  28.4021267361111 12.2029079861111  28.6412760416667 12.4420572916667  Z " fill-rule="nonzero" fill="#000000" stroke="none" transform="matrix(1 0 0 1 3139 2129 )" />
  </g>
</svg>