<?xml version="1.0" encoding="utf-8"?>
<svg version="1.1" xmlns:xlink="http://www.w3.org/1999/xlink" width="21px" height="20px" xmlns="http://www.w3.org/2000/svg">
  <g transform="matrix(1 0 0 1 -354 -87 )">
    <path d="M 0 4.28571428571429  L 10.5 0  L 21 4.28571428571429  L 21 5.71428571428571  L 19.6 5.71428571428571  C 19.6 5.90773809523809  19.5252604166667 6.07514880952381  19.37578125 6.21651785714286  C 19.2263020833333 6.3578869047619  19.0494791666667 6.42857142857143  18.8453125 6.42857142857143  L 2.1546875 6.42857142857143  C 1.95052083333333 6.42857142857143  1.77369791666667 6.3578869047619  1.62421875 6.21651785714286  C 1.47473958333333 6.07514880952381  1.4 5.90773809523809  1.4 5.71428571428571  L 0 5.71428571428571  L 0 4.28571428571429  Z M 2.8 15.7142857142857  L 2.8 7.14285714285714  L 5.6 7.14285714285714  L 5.6 15.7142857142857  L 7 15.7142857142857  L 7 7.14285714285714  L 9.8 7.14285714285714  L 9.8 15.7142857142857  L 11.2 15.7142857142857  L 11.2 7.14285714285714  L 14 7.14285714285714  L 14 15.7142857142857  L 15.4 15.7142857142857  L 15.4 7.14285714285714  L 18.2 7.14285714285714  L 18.2 15.7142857142857  L 18.8453125 15.7142857142857  C 19.0494791666667 15.7142857142857  19.2263020833333 15.7849702380952  19.37578125 15.9263392857143  C 19.5252604166667 16.0677083333333  19.6 16.235119047619  19.6 16.4285714285714  L 19.6 17  L 1.4 17  L 1.4 16.4285714285714  C 1.4 16.235119047619  1.47473958333333 16.0677083333333  1.62421875 15.9263392857143  C 1.77369791666667 15.7849702380952  1.95052083333333 15.7142857142857  2.1546875 15.7142857142857  L 2.8 15.7142857142857  Z M 0.7546875 17.8571428571429  L 20.2453125 17.8571428571429  C 20.4494791666667 17.8571428571429  20.6263020833333 17.9278273809524  20.77578125 18.0691964285714  C 20.9252604166667 18.2105654761905  21 18.3779761904762  21 18.5714285714286  L 21 20  L 0 20  L 0 18.5714285714286  C 0 18.3779761904762  0.0747395833333333 18.2105654761905  0.22421875 18.0691964285714  C 0.373697916666667 17.9278273809524  0.550520833333333 17.8571428571429  0.7546875 17.8571428571429  Z " fill-rule="nonzero" fill="#000000" stroke="none" transform="matrix(1 0 0 1 354 87 )" />
  </g>
</svg>