<?xml version="1.0" encoding="utf-8"?>
<svg version="1.1" xmlns:xlink="http://www.w3.org/1999/xlink" width="26px" height="22px" xmlns="http://www.w3.org/2000/svg">
  <g transform="matrix(1 0 0 1 -552 -85 )">
    <path d="M 14.2813705486088 0.418151054112665  C 14.6604629269876 0.593323582563522  14.9679489673526 0.856082375239808  15.2038286697039 1.20642743214152  C 15.2543743201802 1.28984292181626  15.427071959243 1.57762636131844  15.7219215868924 2.06977775064808  C 16.0167712145417 2.56192913997772  16.3874393180021 3.1833745384658  16.8339258972734 3.93411394611233  C 17.2804124765448 4.68485335375887  17.7816568437032 5.53569134899595  18.3376589987489 6.48662793182359  C 18.8936611537945 7.43756451465123  19.4665118591599 8.40935497004103  20.056211114845 9.40199929799299  C 20.6459103705301 10.394643625945  21.2313974885146 11.3789464046999  21.8126724687983 12.3549076342578  C 22.3939474490821 13.3308688638157  22.9246767789862 14.2275853784408  23.4048604585106 15.0450571781332  C 23.8850441380351 15.8625289778256  24.2978336168601 16.5632190915334  24.6432288949857 17.1471275192565  C 24.9886241731113 17.7310359469797  25.2287160128736 18.1314302976289  25.3635044142724 18.348310571204  C 25.6162326666537 18.765388019769  25.7720817555899 19.1824654684297  25.8310516810811 19.5995429171859  C 25.8900216065724 20.0166203659422  25.8647487813343 20.3919900697655  25.7552332053668 20.7256520286557  C 25.6457176293993 21.059313987546  25.4519593026058 21.3304143291324  25.1739582249864 21.5389530534149  C 24.895957147367 21.7474917776973  24.5547740066523 21.8434195908329  24.1504088028422 21.8267364928214  C 23.9482262009372 21.8267364928214  23.5185881719856 21.8225657183664  22.8614947159875 21.8142241694563  C 22.2044012599893 21.8058826205462  21.4125194025924 21.8017118460911  20.4858491437966 21.8017118460911  L 17.3267459894169 21.8017118460911  L 13.7632776314204 21.8017118460911  C 12.5501820201834 21.8017118460911  11.3455106839615 21.8058826205462  10.1492636227544 21.8142241694563  C 8.95301656154743 21.8225657183664  7.84101225116637 21.8267364928214  6.81325069161128 21.8267364928214  L 4.10905839151793 21.8267364928214  L 2.3905062754218 21.8267364928214  C 1.75026136945361 21.8267364928214  1.25744127740671 21.7182963562251  0.912045999281083 21.5014160830325  C 0.56665072115546 21.28453580984  0.334983156504816 21.0050939192479  0.21704330532915 20.6630904112562  C 0.0991034541534855 20.3210869032646  0.0864670415344209 19.949887973992  0.179134067471957 19.5494936234385  C 0.271801093409494 19.149099272885  0.436074457457328 18.7737295690617  0.671954159615461 18.4233845119687  C 0.789894010791126 18.2398704346078  1.02156157544177 17.8645007308801  1.36695685356739 17.2972754007858  C 1.71235213169302 16.7300500706916  2.12935374802554 16.0418722804446  2.61796170256496 15.2327420300448  C 3.10656965710437 14.4236117796451  3.64572326212005 13.531066039475  4.23542251761198 12.5551048095345  C 4.82512177310391 11.579143579594  5.42324530370742 10.5864992518334  6.0297931094225 9.57717182625255  C 6.63634091513758 8.56784440067173  7.22604017062951 7.58771239637184  7.79889087589829 6.6367758133529  C 8.37174158116707 5.68583923033396  8.88562236094462 4.82665968609114  9.34053321523093 4.05923718062444  C 9.79544406951724 3.29181467515775  10.1745364479926 2.65785695330454  10.4778103506569 2.15736401506481  L 11.0085396806576 1.28150137290618  C 11.2444193828157 0.914473218184293  11.5519054231808 0.635031327592191  11.9309978017527 0.443175701129866  C 12.3100901803246 0.251320074667542  12.7018189715156 0.155392261436379  13.1061841753257 0.155392261436379  C 13.5105493791357 0.155392261436379  13.9022781702301 0.242978525661808  14.2813705486088 0.418151054112665  Z M 14.5720080389439 12.6927403676987  L 14.5720080389439 6.11125822800033  C 14.5720080389439 5.91106105262792  14.5256745259752 5.72337620081194  14.4330075000376 5.54820367255238  C 14.3403404741001 5.37303114429282  14.2181884854169 5.21454171375778  14.0665515339882 5.07273538094726  C 13.9149145825594 4.93092904813674  13.7422169434966 4.81831813698976  13.5484586167997 4.73490264750632  C 13.3547002901029 4.65148715802288  13.1567298258019 4.60977941318551  12.9545472238969 4.60977941299421  C 12.56703057031 4.60977941299421  12.2089988794687 4.75992729452352  11.880452151373 5.06022305758213  C 11.5519054232774 5.36051882064074  11.3876320592295 5.70252232853673  11.3876320592295 6.08623358127007  L 11.3876320592295 12.6426910739513  C 11.3876320592295 13.0264023266846  11.5519054232774 13.3725766090356  11.880452151373 13.6812139210043  C 12.2089988794687 13.989851232973  12.56703057031 14.1441698889574  12.9545472238969 14.1441698889574  C 13.358912427707 14.1441698889574  13.7295805310707 13.9981927818831  14.0665515339882 13.7062385677346  C 14.4035225369056 13.414284353586  14.5720080385575 13.0764516202408  14.5720080389439 12.6927403676987  Z M 14.0665515339882 16.0710677018211  C 13.763277630551 15.7707719395277  13.3926095271873 15.6206240579984  12.9545472238969 15.6206240572332  C 12.5164849198337 15.6206240572332  12.1416046787693 15.7707719387625  11.8299065007036 16.0710677018211  C 11.5182083226379 16.3713634648798  11.3623592337016 16.7383916196016  11.3623592338948 17.1721521659868  C 11.362359234088 17.6059127123719  11.5182083230243 17.9771116417402  11.8299065007036 18.2857489540915  C 12.1416046783829 18.5943862664428  12.5164849194473 18.7487049224271  12.9545472238969 18.7487049220445  C 13.3926095283465 18.7487049216619  13.7632776317102 18.5943862656776  14.0665515339882 18.2857489540915  C 14.3698254362661 17.9771116425054  14.5214623876949 17.6059127131371  14.5214623882745 17.1721521659868  C 14.5214623888541 16.7383916188364  14.3698254374253 16.3713634641146  14.0665515339882 16.0710677018211  Z " fill-rule="nonzero" fill="#000000" stroke="none" transform="matrix(1 0 0 1 552 85 )" />
  </g>
</svg>