<?xml version="1.0" encoding="utf-8"?>
<svg version="1.1" xmlns:xlink="http://www.w3.org/1999/xlink" width="17px" height="30px" xmlns="http://www.w3.org/2000/svg">
  <g transform="matrix(1 0 0 1 -907 -329 )">
    <path d="M 16.9895775195313 21.826228569128  C 16.9940809215386 23.9972572254742  16.1281111675107 26.0794867262142  14.5854131738281 27.6070562504248  C 13.0478009326675 29.1446080220455  10.9607136674268 30.0058051740597  8.78625215820312 29.9999705448598  C 6.61179063883435 30.0058051818631  4.52470336160964 29.1446080292547  2.98709111328125 27.6070562504248  C 1.44458553497705 26.0793911980836  0.578776637371881 23.9971875903234  0.58334345703125 21.826228569128  C 0.58334345703125 19.7053973093041  1.40167598632812 17.6887326403206  3 16.1712341288633  L 3 4.93332848009396  C 2.8629245703125 3.52499653989994  3.57792388671875 2.19124785097423  4.79750603515625 1.27166541801137  C 5.89083831054688 0.447499566203664  7.3058369140625 0  8.78625215820312 0  C 10.2670840625 0  11.6820826660156 0.447499566203664  12.7754149414063 1.27166541801137  C 13.9949970898437 2.19124785097423  14.70999640625 3.52499653989994  14.70999640625 4.93332848009396  L 14.70999640625 16.1708174687109  C 16.1741999593918 17.6890337123124  16.9915219066508 19.7165777381547  16.9895775195313 21.8258119089755  Z M 12.8349982226562 16.968316689904  L 12.8349982226562 4.93332848009396  C 12.8349982226562 4.13541259874837  12.4116652929687 3.34583003763875  11.6466660253906 2.76874728903114  C 10.8875001171875 2.19666452084637  9.87041776367188 1.87499816637796  8.78625215820312 1.87499816637796  C 7.70250321289063 1.87499816637796  6.68500419921875 2.19666452084637  5.926254921875 2.76874728903114  C 5.16125565429688 3.34541337748633  4.73792275390625 4.13541262804524  5 4.93332848009396  L 5 16.968316689904  L 4.44208970703125 17.2462330838366  C 3.17483926204816 18.4321093760291  2.45646898945445 20.0906529486547  2.458341640625 21.826228569128  C 2.458341640625 23.5095602528908  3.11459099609375 25.0878920255083  4.3104231640625 26.2787242020743  C 5.49660074191776 27.4661828813728  7.10784776782193 28.130811028341  8.78625215820312 28.1249724077787  C 10.4647917186911 28.1308759261621  12.0761921936798 27.4662463536623  13.2624978125 26.2787242020743  C 14.4518525668762 25.1029028888539  15.1191521272704 23.498681724222  15.1145793359375 21.826228569128  C 15.1145793359375 20.0845636144164  14.3999967089844 18.4378985514107  13.1308312695312 17.2462330838366  L 12.8349982226562 16.968316689904  Z " fill-rule="nonzero" fill="#000000" stroke="none" transform="matrix(1 0 0 1 907 329 )" />
  </g>
</svg>