<?xml version="1.0" encoding="utf-8"?>
<svg version="1.1" xmlns:xlink="http://www.w3.org/1999/xlink" width="29px" height="18px" xmlns="http://www.w3.org/2000/svg">
  <g transform="matrix(1 0 0 1 -89 -1118 )">
    <path d="M 3.625 0.900000000000001  L 3.625 10.8  L 28.09375 10.8  C 28.3391927083333 10.8  28.5515950520833 10.8890625  28.73095703125 11.0671875  C 28.9103190104167 11.2453125  29 11.45625  29 11.7  L 29 18  L 25.375 18  L 25.375 14.4  L 3.625 14.4  L 3.625 18  L 0 18  L 0 0.900000000000001  C 0 0.656249999999999  0.0896809895833333 0.445312499999999  0.26904296875 0.267187500000001  C 0.448404947916667 0.0890624999999989  0.660807291666667 0  0.90625 0  L 2.71875 0  C 2.96419270833333 0  3.17659505208333 0.0890624999999989  3.35595703125 0.267187500000001  C 3.53531901041667 0.445312499999999  3.625 0.656249999999999  3.625 0.900000000000001  Z M 10.71923828125 8.8453125  C 11.42724609375 8.1421875  11.78125 7.29375  11.78125 6.3  C 11.78125 5.30625  11.42724609375 4.4578125  10.71923828125 3.7546875  C 10.01123046875 3.0515625  9.15690104166667 2.7  8.15625 2.7  C 7.15559895833333 2.7  6.30126953125 3.0515625  5.59326171875 3.7546875  C 4.88525390625 4.4578125  4.53125 5.30625  4.53125 6.3  C 4.53125 7.29375  4.88525390625 8.1421875  5.59326171875 8.8453125  C 6.30126953125 9.5484375  7.15559895833333 9.9  8.15625 9.9  C 9.15690104166667 9.9  10.01123046875 9.5484375  10.71923828125 8.8453125  Z M 12.6875 10  L 29 10  L 29 9  C 29 7.509375  28.468994140625 6.23671875  27.406982421875 5.18203125  C 26.344970703125 4.12734375  25.0634765625 3.6  23.5625 3.6  L 13.59375 3.6  C 13.3483072916667 3.6  13.1359049479167 3.6890625  12.95654296875 3.8671875  C 12.7771809895833 4.0453125  12.6875 4.25625  12.6875 4.5  L 12.6875 10  Z " fill-rule="nonzero" fill="#000000" stroke="none" transform="matrix(1 0 0 1 89 1118 )" />
  </g>
</svg>