<?xml version="1.0" encoding="utf-8"?>
<svg version="1.1" xmlns:xlink="http://www.w3.org/1999/xlink" width="19px" height="26px" xmlns="http://www.w3.org/2000/svg">
  <g transform="matrix(1 0 0 1 -276 -1114 )">
    <path d="M 6.23571428571428 3.85212053571428  C 5.80238095238095 4.29222470238095  5.28095238095238 4.51227678571428  4.67142857142857 4.51227678571428  C 4.06190476190476 4.51227678571428  3.53809523809524 4.29222470238095  3.1 3.85212053571428  C 2.66190476190476 3.41201636904762  2.44285714285714 2.87760416666666  2.44285714285714 2.24888392857143  C 2.44285714285714 1.62983630952381  2.66190476190476 1.10026041666666  3.1 0.66015625  C 3.53809523809524 0.220052083333335  4.06190476190476 0  4.67142857142857 0  C 5.28095238095238 0  5.80238095238095 0.220052083333335  6.23571428571428 0.66015625  C 6.66904761904762 1.10026041666666  6.88571428571429 1.62983630952381  6.88571428571429 2.24888392857143  C 6.88571428571429 2.87760416666666  6.66904761904762 3.41201636904762  6.23571428571428 3.85212053571428  Z M 12.4428571428571 13.40625  C 12.5095238095238 13.531994047619  12.5428571428571 13.6722470238095  12.5428571428571 13.8270089285714  C 12.5428571428571 14.3106398809524  12.4 14.6370907738095  12.1142857142857 14.8063616071429  C 11.8285714285714 14.9756324404762  11.5261904761905 15.007068452381  11.2071428571429 14.9006696428571  C 10.8880952380952 14.7942708333333  10.6619047619048 14.6298363095238  10.5285714285714 14.4073660714286  L 5.28571428571429 8.05245535714286  C 5.21904761904762 7.93638392857143  5.15238095238095 7.86142113095238  5.08571428571429 7.82756696428572  C 5.01904761904762 7.79371279761904  4.96666666666667 7.78645833333333  4.92857142857143 7.80580357142857  L 4.88571428571429 7.84933035714286  C 4.81904761904762 7.92671130952381  4.83809523809524 8.02827380952381  4.94285714285714 8.15401785714286  L 6.68571428571429 10.1707589285714  L 6.7 15.3069196428571  L 4.4 21.9375  C 3.76190476190476 23.7946428571429  3.32380952380952 24.9263392857143  3.08571428571429 25.3325892857143  C 2.94285714285714 25.5840773809524  2.80952380952381 25.7388392857143  2.68571428571429 25.796875  C 2.20952380952381 26.0483630952381  1.71904761904762 26.0531994047619  1.21428571428571 25.8113839285714  C 0.938095238095238 25.6856398809524  0.740476190476191 25.4776785714286  0.621428571428571 25.1875  C 0.502380952380952 24.8973214285714  0.457142857142857 24.6216517857143  0.485714285714286 24.3604910714286  C 0.504761904761905 24.196056547619  1.44285714285714 21.2072172619048  3.3 15.3939732142857  L 3.37142857142857 9.35825892857143  L 2.15714285714286 11.7377232142857  L 2.65714285714286 14.9587053571429  C 2.6952380952381 15.1908482142857  2.69047619047619 15.3939732142857  2.64285714285714 15.5680803571429  C 2.5952380952381 15.7421875  2.52857142857143 15.8751860119048  2.44285714285714 15.9670758928571  C 2.35714285714286 16.0589657738095  2.26666666666667 16.1363467261905  2.17142857142857 16.19921875  C 2.07619047619048 16.2620907738095  1.9952380952381 16.2983630952381  1.92857142857143 16.3080357142857  L 1.82857142857143 16.3370535714286  C 1.64761904761905 16.3660714285714  1.48333333333333 16.3515625  1.33571428571429 16.2935267857143  C 1.18809523809524 16.2354910714286  1.07380952380952 16.1581101190476  0.992857142857143 16.0613839285714  C 0.911904761904762 15.9646577380952  0.845238095238095 15.8582589285714  0.792857142857143 15.7421875  C 0.740476190476191 15.6261160714286  0.704761904761905 15.5318080357143  0.685714285714286 15.4592633928571  C 0.666666666666667 15.38671875  0.657142857142857 15.3407738095238  0.657142857142857 15.3214285714286  L 0 10.9832589285714  L 3.01428571428571 5.45535714285714  C 3.23333333333333 5.12648809523809  3.77142857142857 4.96205357142857  4.62857142857143 4.96205357142857  C 5.34285714285714 4.96205357142857  5.85238095238095 5.15550595238095  6.15714285714286 5.54241071428572  L 12.2142857142857 13.1015625  C 12.2809523809524 13.1499255952381  12.347619047619 13.2321428571429  12.4142857142857 13.3482142857143  L 12.4571428571429 13.3917410714286  L 12.4428571428571 13.40625  Z M 5.48571428571429 19.6741071428571  L 6.78571428571429 16.0033482142857  C 7.1952380952381 17.0963541666667  7.61666666666667 18.1845238095238  8.05 19.2678571428571  C 8.48333333333333 20.3511904761905  8.81428571428571 21.1636904761905  9.04285714285714 21.7053571428571  L 9.38571428571429 22.5033482142857  C 9.72857142857143 23.4029017857143  9.92857142857143 24.0074404761905  9.98571428571429 24.3169642857143  C 10.0904761904762 24.9940476190476  9.91904761904762 25.4631696428571  9.47142857142857 25.7243303571429  C 9.13809523809524 25.9371279761905  8.82380952380953 26.0145089285714  8.52857142857143 25.9564732142857  C 8.23333333333333 25.8984375  7.99047619047619 25.7920386904762  7.8 25.6372767857143  C 7.60952380952381 25.4825148809524  7.47142857142857 25.313244047619  7.38571428571429 25.1294642857143  L 7.37142857142857 25.1294642857143  C 7.31428571428571 24.9747023809524  7.27619047619048 24.8537946428571  7.25714285714286 24.7667410714286  L 5.48571428571429 19.6741071428571  Z M 12.6571428571429 14.7555803571429  L 18.5571428571429 24.5926339285714  C 18.852380952381 25.0665922619048  19 25.3422619047619  19 25.4196428571429  C 19 25.468005952381  18.9857142857143 25.5018601190476  18.9571428571429 25.5212053571429  C 18.8714285714286 25.569568452381  18.802380952381 25.567150297619  18.75 25.5139508928571  C 18.697619047619 25.4607514880952  18.6238095238095 25.3350074404762  18.5285714285714 25.13671875  C 18.4333333333333 24.9384300595238  18.3571428571429 24.7909226190476  18.3 24.6941964285714  C 17.2142857142857 23.030505952381  15.2 19.8337053571429  12.2571428571429 15.1037946428571  C 12.2857142857143 15.1134672619048  12.3190476190476 15.108630952381  12.3571428571429 15.0892857142857  C 12.3952380952381 15.0699404761905  12.4285714285714 15.0505952380952  12.4571428571429 15.03125  L 12.5 15.0022321428571  C 12.6047619047619 14.9151785714286  12.6571428571429 14.8329613095238  12.6571428571429 14.7555803571429  Z " fill-rule="nonzero" fill="#000000" stroke="none" transform="matrix(1 0 0 1 276 1114 )" />
  </g>
</svg>