<?xml version="1.0" encoding="utf-8"?>
<svg version="1.1" xmlns:xlink="http://www.w3.org/1999/xlink" width="23px" height="31px" xmlns="http://www.w3.org/2000/svg">
  <g transform="matrix(1 0 0 1 -452 -1231 )">
    <path d="M 22.8845298563235 11.6886837741776  C 22.8845298563235 19.4078695974232  12.7509356998971 30.7452649654934  11.5069915203824 30.7452649654934  C 10.2815884972794 30.7452649654934  0.129453184779411 19.4078695974232  0.129453184779411 11.6886837741776  C 0.129487445314114 5.37391261794918  5.22337483293208 0.254797407093115  11.5069915205515 0.254797407093115  C 17.790632434107 0.254797407093115  22.8845298564926 5.37395061380027  22.8845298564926 11.6887461161721  Z M 17.8278461647647 12.323903129682  C 17.8278461647647 8.81568339875815  14.9979031463719 5.97170938904605  11.5069915203824 5.97170938904605  C 8.01607989439284 5.97170938904605  5.186136876 8.81568339875815  5.186136876 12.323903129682  C 5.186136876 15.8321228606059  8.01607989439284 18.676096870318  11.5069915203824 18.676096870318  C 14.9979031463719 18.676096870318  17.8278461647647 15.8321228606059  17.8278461647647 12.323903129682  Z M 15.2995042888824 12.323903129682  C 15.2995042888824 14.428834966528  13.6015384792247 16.1352193709704  11.5069915053309 16.1352193709704  C 9.41244453143707 16.1352193709704  7.71447872177941 14.428834966528  7.71447872177941 12.323903129682  C 7.71447872177941 10.218971292836  9.41244453143707 8.51258688839364  11.5069915053309 8.51258688839364  C 13.6015384792247 8.51258688839364  15.2995042888824 10.218971292836  15.2995042888824 12.323903129682  Z " fill-rule="nonzero" fill="#000000" stroke="none" transform="matrix(1 0 0 1 452 1231 )" />
  </g>
</svg>