<?xml version="1.0" encoding="utf-8"?>
<svg version="1.1" xmlns:xlink="http://www.w3.org/1999/xlink" width="23px" height="23px" xmlns="http://www.w3.org/2000/svg">
  <g transform="matrix(1 0 0 1 -716 -1107 )">
    <path d="M 13.2819010416667 5.884765625  C 13.3717447916667 5.974609375  13.4166666666667 6.08940972222222  13.4166666666667 6.22916666666667  L 13.4166666666667 12.9375  C 13.4166666666667 13.0772569444444  13.3717447916667 13.1920572916667  13.2819010416667 13.2819010416667  C 13.1920572916667 13.3717447916667  13.0772569444444 13.4166666666667  12.9375 13.4166666666667  L 8.14583333333333 13.4166666666667  C 8.00607638888889 13.4166666666667  7.89127604166667 13.3717447916667  7.80143229166667 13.2819010416667  C 7.71158854166667 13.1920572916667  7.66666666666667 13.0772569444444  7.66666666666667 12.9375  L 7.66666666666667 11.9791666666667  C 7.66666666666667 11.8394097222222  7.71158854166667 11.724609375  7.80143229166667 11.634765625  C 7.89127604166667 11.544921875  8.00607638888889 11.5  8.14583333333333 11.5  L 11.5 11.5  L 11.5 6.22916666666667  C 11.5 6.08940972222222  11.544921875 5.974609375  11.634765625 5.884765625  C 11.724609375 5.794921875  11.8394097222222 5.75  11.9791666666667 5.75  L 12.9375 5.75  C 13.0772569444444 5.75  13.1920572916667 5.794921875  13.2819010416667 5.884765625  Z M 18.552734375 15.587890625  C 19.2814670138889 14.3400607638889  19.6458333333333 12.9774305555556  19.6458333333333 11.5  C 19.6458333333333 10.0225694444444  19.2814670138889 8.65993923611111  18.552734375 7.412109375  C 17.8240017361111 6.16427951388889  16.8357204861111 5.17599826388889  15.587890625 4.447265625  C 14.3400607638889 3.71853298611111  12.9774305555556 3.35416666666667  11.5 3.35416666666667  C 10.0225694444444 3.35416666666667  8.65993923611111 3.71853298611111  7.412109375 4.447265625  C 6.16427951388889 5.17599826388889  5.17599826388889 6.16427951388889  4.447265625 7.412109375  C 3.71853298611111 8.65993923611111  3.35416666666667 10.0225694444444  3.35416666666667 11.5  C 3.35416666666667 12.9774305555556  3.71853298611111 14.3400607638889  4.447265625 15.587890625  C 5.17599826388889 16.8357204861111  6.16427951388889 17.8240017361111  7.412109375 18.552734375  C 8.65993923611111 19.2814670138889  10.0225694444444 19.6458333333333  11.5 19.6458333333333  C 12.9774305555556 19.6458333333333  14.3400607638889 19.2814670138889  15.587890625 18.552734375  C 16.8357204861111 17.8240017361111  17.8240017361111 16.8357204861111  18.552734375 15.587890625  Z M 21.4576822916667 5.7275390625  C 22.4858940972222 7.48947482638889  23 9.41362847222222  23 11.5  C 23 13.5863715277778  22.4858940972222 15.5105251736111  21.4576822916667 17.2724609375  C 20.4294704861111 19.0343967013889  19.0343967013889 20.4294704861111  17.2724609375 21.4576822916667  C 15.5105251736111 22.4858940972222  13.5863715277778 23  11.5 23  C 9.41362847222222 23  7.48947482638889 22.4858940972222  5.7275390625 21.4576822916667  C 3.96560329861111 20.4294704861111  2.57052951388889 19.0343967013889  1.54231770833333 17.2724609375  C 0.514105902777778 15.5105251736111  0 13.5863715277778  0 11.5  C 0 9.41362847222222  0.514105902777778 7.48947482638889  1.54231770833333 5.7275390625  C 2.57052951388889 3.96560329861111  3.96560329861111 2.57052951388889  5.7275390625 1.54231770833333  C 7.48947482638889 0.514105902777776  9.41362847222222 0  11.5 0  C 13.5863715277778 0  15.5105251736111 0.514105902777776  17.2724609375 1.54231770833333  C 19.0343967013889 2.57052951388889  20.4294704861111 3.96560329861111  21.4576822916667 5.7275390625  Z " fill-rule="nonzero" fill="#aaaaaa" stroke="none" transform="matrix(1 0 0 1 716 1107 )" />
  </g>
</svg>