<?xml version="1.0" encoding="utf-8"?>
<svg version="1.1" xmlns:xlink="http://www.w3.org/1999/xlink" width="30px" height="30px" xmlns="http://www.w3.org/2000/svg">
  <g transform="matrix(1 0 0 1 -742 -327 )">
    <path d="M 29.875 15  C 29.875 6.7921875  23.2078125 0.125  15 0.125  C 6.7921875 0.125  0.125 6.7921875  0.125 15  C 0.125 23.2078125  6.7921875 29.875  15 29.875  C 23.2078125 29.875  29.875 23.2078125  29.875 15  Z M 14.46875 23.4734375  L 14.46875 27.7234375  C 7.8546875 27.4578125  2.5421875 22.11875  2.2765625 15.53125  L 6.5265625 15.53125  C 6.7921875 19.8078125  10.21875 23.2078125  14.46875 23.4734375  Z M 14.46875 17.0453125  L 14.46875 21.3484375  C 11.3875 21.0828125  8.9171875 18.6125  8.6515625 15.53125  L 12.9546875 15.53125  C 13.140625 16.275  13.725 16.859375  14.46875 17.0453125  Z M 14.46875 8.6515625  L 14.46875 12.9546875  C 13.725 13.140625  13.1671875 13.725  12.9546875 14.46875  L 8.6515625 14.46875  C 8.9171875 11.3875  11.3875 8.9171875  14.46875 8.6515625  Z M 14.46875 2.2765625  L 14.46875 6.5265625  C 10.1921875 6.7921875  6.7921875 10.21875  6.5265625 14.46875  L 2.2765625 14.46875  C 2.5421875 7.8546875  7.88125 2.5421875  14.46875 2.2765625  Z M 15.5046875 8.6515625  L 15.53125 8.6515625  C 16.115625 8.7046875  16.6734375 8.8375  17.178125 9.0234375  C 17.3375 8.2796875  17.7625 7.6421875  18.346875 7.190625  C 17.4703125 6.81875  16.5140625 6.5796875  15.53125 6.5  L 15.53125 2.25  C 18.5859375 2.3828125  21.375 3.578125  23.5 5.490625  L 21.9859375 7.03125  C 22.278125 7.2171875  22.5703125 7.45625  22.7828125 7.7484375  L 24.2703125 6.2609375  C 26.315625 8.4125  27.6171875 11.3078125  27.75 14.46875  L 23.5 14.46875  C 23.446875 13.4859375  23.2078125 12.5296875  22.8359375 11.653125  C 22.384375 12.2375  21.746875 12.6625  21.003125 12.821875  C 21.1890625 13.353125  21.321875 13.884375  21.375 14.46875  L 17.071875 14.46875  C 16.9921875 14.203125  16.8859375 13.990625  16.7265625 13.778125  L 18.29375 12.2109375  C 18.028125 11.9984375  17.7890625 11.70625  17.5765625 11.4140625  L 15.903125 13.0875  C 15.7703125 13.034375  15.6640625 12.98125  15.5046875 12.9546875  L 15.5046875 8.6515625  Z M 15.53125 21.3484375  L 15.53125 17.071875  C 16.275 16.8859375  16.8859375 16.3015625  17.071875 15.53125  L 21.3484375 15.53125  C 21.0828125 18.6125  18.6125 21.0828125  15.53125 21.3484375  Z M 27.7234375 15.53125  C 27.4578125 22.1453125  22.1453125 27.4578125  15.53125 27.7234375  L 15.53125 23.4734375  C 19.8078125 23.2078125  23.2078125 19.78125  23.4734375 15.53125  L 27.7234375 15.53125  Z M 22.4109375 9.7140625  C 22.4109375 10.8828125  21.4546875 11.8390625  20.2859375 11.8390625  C 19.1171875 11.8390625  18.1609375 10.8828125  18.1609375 9.7140625  C 18.1609375 8.5453125  19.1171875 7.5890625  20.2859375 7.5890625  C 21.4546875 7.5890625  22.4109375 8.5453125  22.4109375 9.7140625  Z " fill-rule="nonzero" fill="#000000" stroke="none" transform="matrix(1 0 0 1 742 327 )" />
  </g>
</svg>