<?xml version="1.0" encoding="utf-8"?>
<svg version="1.1" xmlns:xlink="http://www.w3.org/1999/xlink" width="6px" height="12px" xmlns="http://www.w3.org/2000/svg">
  <g transform="matrix(1 0 0 1 -737 -91 )">
    <path d="M 5.80208333333333 5.47265625  C 5.93402777777778 5.62109375  6 5.796875  6 6  C 6 6.203125  5.93402777777778 6.37890625  5.80208333333333 6.52734375  L 1.13541666666667 11.77734375  C 1.00347222222222 11.92578125  0.847222222222222 12  0.666666666666667 12  C 0.486111111111111 12  0.329861111111111 11.92578125  0.197916666666667 11.77734375  C 0.0659722222222222 11.62890625  0 11.453125  0 11.25  L 0 0.75  C 0 0.546874999999998  0.0659722222222222 0.371093749999998  0.197916666666667 0.22265625  C 0.329861111111111 0.0742187499999991  0.486111111111111 0  0.666666666666667 0  C 0.847222222222222 0  1.00347222222222 0.0742187499999991  1.13541666666667 0.22265625  L 5.80208333333333 5.47265625  Z " fill-rule="nonzero" fill="#000000" stroke="none" transform="matrix(1 0 0 1 737 91 )" />
  </g>
</svg>