<?xml version="1.0" encoding="utf-8"?>
<svg version="1.1" xmlns:xlink="http://www.w3.org/1999/xlink" width="17px" height="24px" xmlns="http://www.w3.org/2000/svg">
  <g transform="matrix(1 0 0 1 -912 -331 )">
    <path d="M 7.53666518554687 19.5816456835937  C 7.53666518554687 18.0574805078125  6.61833275390625 16.7474817578125  5.30250067382813 16.1683156738281  L 5.30250067382813 3.82916098632812  C 5.30250067382813 3.19874494140625  4.62333465820312 2.6874954296875  3.78625215820312 2.6874954296875  C 2.94916965820313 2.6874954296875  2.27042030273438 3.19874494140625  2.27042030273438 3.82916098632812  L 2.27042030273438 16.1683156738281  C 0.954588251953126 16.7474817871094  0.0366724804687522 18.0578971679688  0.0366724511718761 19.5816456835937  C 0.0366724511718761 21.6420603613281  1.71542083007813 23.312475390625  3.78666881835938 23.312475390625  C 5.85750014648437 23.312475390625  7.53666518554687 21.6420603613281  7.53666518554687 19.5816456835937  Z M 13.6304092382813 7.37499088867187  C 12.189993984375 7.37499088867187  11.0520783984375 6.05999215820312  11.0520784277344 4.46874370117188  C 11.0520784277344 3.75124439453125  11.4795780175781 2.87374524414063  12.1929106347656 1.86499624023438  C 12.530899170256 1.38879011760825  12.8952159490797 0.931829207949272  13.2841595800781 0.49624755859375  L 13.629992578125 0.117081279296875  L 13.9762422363281 0.49624755859375  L 14.0733254882813 0.605414130859375  C 14.4259863180469 1.00803875385943  14.7578089339793 1.4284493889339  15.0674911816406 1.86499624023438  C 15.3170742773438 2.217912578125  15.5345740722656 2.56166221679687  15.7116572167969 2.89082857421875  C 16.029990234375 3.48249466796875  16.2083233886719 4.00791083007812  16.2083234179687 4.46874370117187  C 16.2083234179687 6.05999215820312  15.0704078613281 7.37499088867187  13.6304092382813 7.37499088867187  Z M 13.6304092382813 1.5312465625  C 13.4008261230469 1.80874629882812  13.1720763574219 2.10457934570312  12.9583265625 2.40624572265625  C 12.3529104785156 3.2624948828125  11.9895774902344 4.00832749023438  11.9895775195313 4.46874370117187  C 11.9895775195313 5.56999263671875  12.7404101367188 6.437491796875  13.6304092382813 6.437491796875  C 14.5199917089844 6.437491796875  15.270824296875 5.56999263671875  15.2708243261719 4.46874370117187  C 15.2708243261719 4.195410625  15.1374911132813 3.8020776953125  14.8858246875 3.33457814453125  C 14.710216339906 3.01369049804338  14.5154185857929 2.70368379331811  14.3024919140625 2.40624572265625  C 14.0894975241411 2.10626834329635  13.8653119653865 1.81439625270664  13.6304092382813 1.5312465625  Z " fill-rule="nonzero" fill="#000000" stroke="none" transform="matrix(1 0 0 1 912 331 )" />
  </g>
</svg>