<?xml version="1.0" encoding="utf-8"?>
<svg version="1.1" xmlns:xlink="http://www.w3.org/1999/xlink" width="502px" height="42px" xmlns="http://www.w3.org/2000/svg">
  <g transform="matrix(1 0 0 1 -398.5 -1301.5 )">
    <path d="M 0 38  C 75.0850515463918 24.8241004537301  87.4600262123198 24.6837606837607  87.4600262123198 24.6837606837607  C 87.4600262123198 24.6837606837607  122.052424639581 25.008547008547  136.411533420708 22.4102564102564  C 150.770642201835 19.8119658119658  168.633736876951 19.3909465020576  182.752293577982 20.1367521367521  C 196.870850279013 20.8825577714467  202.551580170515 18.0958109106257  215.386631716907 14.6153846153846  C 228.221683263299 11.1349583201435  234.511363175744 12.8390840983434  246.062909567497 12.3418803418803  C 257.614455959249 11.8446765854173  256.059278350515 5.18455207344095  275.311855670103 4.68734831697795  C 294.564432989691 4.19014456051492  298.748020564511 10.6537933945341  326.343381389253 11.3995990292287  C 353.938742213995 12.1454046639232  338.736860061342 6.66814392740318  376.600262123198 6.17094017094017  C 414.463664185054 5.67373641447715  403.360419397117 -0.324786324786325  422.273195876289 0.212514508810808  C 441.185972355461 0.749815342407941  440.074890894597 5.34895008969084  449.701179554391 5.84615384615385  C 459.327468214184 6.34335760261687  460.796854521625 11.7965600928564  472.545216251638 12.3418803418803  C 484.293577981652 12.8872005909042  498 10.9023952727656  498 10.9023952727656  " stroke-width="3" stroke="#3399cc" fill="none" transform="matrix(1 0 0 1 400 1303 )" />
  </g>
</svg>