<?xml version="1.0" encoding="utf-8"?>
<svg version="1.1" xmlns:xlink="http://www.w3.org/1999/xlink" width="19px" height="19px" xmlns="http://www.w3.org/2000/svg">
  <g transform="matrix(1 0 0 1 -1149 -980 )">
    <path d="M 9.66590073529412 4.62666590073529  L 9.66590073529412 10.4746668198529  L 13.8963694852941 10.4746668198529  C 14.2628649471507 10.4746668198529  14.5599724264706 10.7717742991728  14.5599724264706 11.1382697610294  C 14.5599724264706 11.504765222886  14.2628649471507 11.8018727022059  13.8963694852941 11.8018727022059  L 9.00229779411765 11.8018727022059  C 8.63580233226103 11.8018727022059  8.33869485294118 11.504765222886  8.33869485294118 11.1382697610294  C 8.33869485294118 11.1348065831801  8.33871559053309 11.1313434053309  8.33877780330882 11.1279009650735  C 8.3387236878444 11.1244449621451  8.33869603691122 11.1209885954981  8.33869485294118 11.1175321691176  L 8.33869485294118 4.62666590073529  C 8.33869485294118 4.26017043887868  8.63580233226103 3.96306295955882  9.00229779411765 3.96306295955882  C 9.36879325597427 3.96306295955882  9.66590073529412 4.26017043887868  9.66590073529412 4.62666590073529  Z M 18.7904411764706 9.5  C 18.7904411764706 14.6309779411765  14.6309779411765 18.7904411764706  9.5 18.7904411764706  C 4.36902205882353 18.7904411764706  0.209558823529412 14.6309779411765  0.209558823529412 9.5  C 0.209558823529412 4.36902205882353  4.36902205882353 0.209558823529412  9.5 0.209558823529412  C 14.6309779411765 0.209558823529412  18.7904411764706 4.36902205882353  18.7904411764706 9.5  Z M 1.53676470588235 9.5  C 1.53676470588235 13.8979662798713  5.10203372012868 17.4632352941176  9.5 17.4632352941176  C 13.8979662798713 17.4632352941176  17.4632352941176 13.8979662798713  17.4632352941176 9.5  C 17.4632352941176 5.10203372012868  13.8979662798713 1.53676470588235  9.5 1.53676470588235  C 5.10203372012868 1.53676470588235  1.53676470588235 5.10203372012868  1.53676470588235 9.5  Z " fill-rule="nonzero" fill="#d7d7d7" stroke="none" transform="matrix(1 0 0 1 1149 980 )" />
  </g>
</svg>