<?xml version="1.0" encoding="utf-8"?>
<svg version="1.1" xmlns:xlink="http://www.w3.org/1999/xlink" width="61px" height="52px" xmlns="http://www.w3.org/2000/svg">
  <g transform="matrix(1 0 0 1 -916 -936 )">
    <path d="M 33.5062924409669 0.988357036993571  C 34.3957014825478 1.40240119515014  35.1171110387888 2.023467432385  35.67052110969 2.85155574869813  C 35.7891089819612 3.04871963338388  36.1942842120701 3.72893503584359  36.8860468000167 4.89220195607728  C 37.5778093879633 6.05546887631097  38.4474537845434 7.5243398181919  39.4949799897569 9.29881478172006  C 40.5425061949704 11.0732897452482  41.7185025948422 13.0843613703541  43.0229691893723 15.3320296570376  C 44.3274357839025 17.5796979437211  45.6714316695674 19.8766572019152  47.0549568463671 22.2229074316198  C 48.4384820231668 24.5691576613244  49.8121248768996 26.8956915020179  51.1758854075653 29.2025089537002  C 52.539645938231 31.5093264053825  53.7848185968522 33.6288381672237  54.9114033834288 35.5610442392239  C 56.0379881700053 37.4932503112242  57.0064557934025 39.1494269436244  57.8168062536203 40.5295741364246  C 58.6271567138381 41.9097213292247  59.1904491071264 42.8561079762137  59.5066834334852 43.3687340773914  C 60.0996227948413 44.3545535012723  60.4652687342687 45.3403729253792  60.6036212517673 46.3261923497122  C 60.741973769266 47.3120117740453  60.6826798331304 48.1992492558094  60.4257394433605 48.9879047950045  C 60.1687990535906 49.7765603341996  59.7142122099598 50.4173429597674  59.0619789124681 50.9102526717078  C 58.4097456149764 51.4031623836483  57.6092774771457 51.6299008510595  56.660574498976 51.5904680739415  C 56.1862230098911 51.5904680739415  55.1782260958124 51.580609879775  53.6365837567398 51.5608934914421  C 52.0949414176672 51.5411771031092  50.2370647522359 51.5313189089427  48.0629537604458 51.5313189089427  L 40.6512117444012 51.5313189089427  L 32.2907667506402 51.5313189089427  C 29.4446578165842 51.5313189089427  26.6183135277557 51.5411771031092  23.8117338841546 51.5608934914421  C 21.0051542405536 51.580609879775  18.3962210508134 51.5904680739415  15.9849343149342 51.5904680739415  L 9.64048314933054 51.5904680739415  L 5.60849549233576 51.5904680739415  C 4.10638244371809 51.5904680739415  2.95015068930035 51.3341550238048  2.13980022908254 50.8215289235314  C 1.32944976886473 50.3089028232581  0.785922021030529 49.6484038091313  0.509216985579929 48.8400318811511  C 0.232511950129331 48.0316599531709  0.202864982061526 47.1542806657993  0.420276081376515 46.2078940190364  C 0.637687180691506 45.2615073722736  1.02309776557296 44.3742698905095  1.57650783602089 43.5461815737442  C 1.85321287147149 43.1124210272547  2.39674061930569 42.2251835457167  3.2070910795235 40.8844691291302  C 4.01744153974132 39.5437547125437  4.99579148575223 37.917152662869  6.14214091755624 36.004662980106  C 7.28849034936026 34.092173297343  8.5534276534355 31.9825197296682  9.93695282978195 29.6757022770816  C 11.3204780061284 27.368884824495  12.7237678279289 25.0226345952425  14.1468222951836 22.6369515893242  C 15.5698767624382 20.2512685834059  16.9534019387846 17.9345929368789  18.2973978242229 15.6869246497432  C 19.6413937096612 13.4392563626075  20.8470370776008 11.4084683489427  21.9143279280418 9.59456060874869  C 22.9816187784828 7.78065286855468  23.8710278202903 6.28220734417436  24.5825550534643 5.09922403560774  L 25.8277277123121 3.02900324505096  C 26.38113778276 2.16148215207197  27.102547339001 1.50098313794518  27.9919563810352 1.04750620267059  C 28.8813654230693 0.594029267396008  29.8004214331712 0.367290799758714  30.749124411341 0.367290799758714  C 31.6978273895107 0.367290799758714  32.616883399386 0.574312878837  33.5062924409669 0.988357036993571  Z M 34 30.0010226872878  L 34 14.4447921752735  C 34.188172706753 13.971598851666  34.0794671570956 13.52798011101  33.8620560577806 13.1139359533056  C 33.6446449584656 12.6998917956012  33.3580576004013 12.3252804143366  33.0022939835876 11.9901018095117  C 32.6465303667739 11.6549232046868  32.241355136665 11.3887519601576  31.7867682932609 11.191588075924  C 31.3321814498567 10.9944241916904  30.8677122836122 10.8958422493476  30.3933607945273 10.8958422488954  C 29.4841871072658 10.8958422488954  28.6441896787535 11.250737241601  27.8733685089906 11.9605272270123  C 27.1025473392277 12.6703172124236  26.7171367543462 13.4786891401777  27 14.3856430102747  L 27 29.8827243566121  C 26.7171367543462 30.7896782267091  27.1025473392277 31.6079083486296  27.8733685089906 32.3374147223738  C 28.6441896787535 33.066921096118  29.4841871072658 33.4316742829901  30.3933607945273 33.4316742829901  C 31.3420637726971 33.4316742829901  32.2117081690505 33.086637484451  33.0022939835876 32.3965638873726  C 33.7928797981247 31.7064902902943  34.1881727058465 30.9079765569327  34 30.0010226872878  Z M 33.0022939835876 37.9861600224863  C 32.2907667486005 37.2763700388837  31.4211223522471 36.9214750461781  30.3933607945273 36.9214750443695  C 29.3655992349945 36.9214750443695  28.4860725155741 37.2763700370751  27.7547806362661 37.9861600224863  C 27.0234887569581 38.6959500078976  26.6578428175307 39.5634711008766  26.657842817984 40.5887233014233  C 26.6578428184372 41.61397550197  27.0234887578646 42.4913547895677  27.7547806362661 43.2208611642162  C 28.4860725146676 43.9503675388647  29.365599234088 44.3151207257368  30.3933607945273 44.3151207248325  C 31.4211223549667 44.3151207239281  32.2907667513201 43.9503675370561  33.0022939835876 43.2208611642162  C 33.7138212158551 42.4913547913763  34.0695848326687 41.6139755037787  34.0695848340286 40.5887233014233  C 34.0695848353884 39.563471099068  33.7138212185747 38.695950006089  33.0022939835876 37.9861600224863  Z " fill-rule="nonzero" fill="#d9001b" stroke="none" transform="matrix(1 0 0 1 916 936 )" />
  </g>
</svg>