<?xml version="1.0" encoding="utf-8"?>
<svg version="1.1" xmlns:xlink="http://www.w3.org/1999/xlink" width="502px" height="116px" xmlns="http://www.w3.org/2000/svg">
  <g transform="matrix(1 0 0 1 -398.5 -1265.5 )">
    <path d="M 0 112  C 75.0850515463918 75.358024691358  104.605670103093 90.5679012345679  104.605670103093 90.5679012345679  C 104.605670103093 90.5679012345679  136.693298969072 119.604938271605  142.469072164948 79.5061728395062  C 148.244845360825 39.4074074074074  160.438144329897 35.9506172839506  174.556701030928 38.0246913580247  C 188.675257731959 40.0987654320988  202.79381443299 35.9506172839506  215.628865979381 26.2716049382716  C 228.463917525773 16.5925925925926  237.448453608247 15.9012345679012  249 14.5185185185185  C 260.551546391753 13.1358024691358  256.059278350515 20.7407407407407  275.311855670103 19.358024691358  C 294.564432989691 17.9753086419753  284.296391752577 6.91358024691358  311.89175257732 8.98765432098765  C 339.487113402062 11.0617283950617  326.65206185567 17.9753086419753  364.515463917526 16.5925925925926  C 402.378865979381 15.2098765432099  380.559278350515 -12.4444444444444  422.273195876289 6.91358024691358  C 463.987113402062 26.2716049382716  453.077319587629 29.037037037037  462.703608247423 30.4197530864198  C 472.329896907216 31.8024691358025  492.865979381443 13.1358024691358  494.791237113402 26.2716049382716  C 496.716494845361 39.4074074074074  498 36.641975308642  498 36.641975308642  " stroke-width="3" stroke="#6a708c" fill="none" transform="matrix(1 0 0 1 400 1267 )" />
  </g>
</svg>