<?xml version="1.0" encoding="utf-8"?>
<svg version="1.1" xmlns:xlink="http://www.w3.org/1999/xlink" width="9px" height="16px" xmlns="http://www.w3.org/2000/svg">
  <g transform="matrix(1 0 0 1 -1115 -982 )">
    <path d="M 8.74690027270047 15.7745383928571  C 9.01415095445165 15.5152575414541  9.01415095445165 15.0965986447704  8.74690027270047 14.837706505102  L 1.67628033055719 8.04003887117347  L 8.72628031950177 1.16229349489796  C 8.99353100125295 0.90340137117347  8.99353100125295 0.484742474489796  8.72628031950177 0.225461607142857  C 8.59885011948284 0.101129665379081  8.4248813910026 0.0311261791768838  8.24332883899617 0.0311261791768838  C 8.06177628698974 0.0311261791768838  7.8878075585095 0.101129665379081  7.76037735849057 0.225461607142857  L 0.278975738870873 7.54130223214286  C 0.258760099130307 7.56151603954082  0.258760099130307 7.56151603954082  0.258760115713444 7.58134110331633  C 0.135040446270637 7.70106898915816  0.0529649635170987 7.88066082589286  0.0529649635170987 8.04003887117347  C 0.0529649635170987 8.21924198022959  0.114824806530071 8.37862002551021  0.258355802255306 8.51817299107143  L 7.78099731168927 15.7745383928571  C 8.04784367998231 16.0338192442602  8.47964960753243 16.0338192442602  8.74730458615861 15.7745383928571  Z " fill-rule="nonzero" fill="#999999" stroke="none" transform="matrix(1 0 0 1 1115 982 )" />
  </g>
</svg>