<?xml version="1.0" encoding="utf-8"?>
<svg version="1.1" xmlns:xlink="http://www.w3.org/1999/xlink" width="39px" height="33px" xmlns="http://www.w3.org/2000/svg">
  <g transform="matrix(1 0 0 1 -80 -995 )">
    <path d="M 21.4220558229133 0.627226581168997  C 21.9906943904814 0.889985373845283  22.4519234510289 1.28412356285971  22.8057430045559 1.80964114821228  C 22.8815614802703 1.93476438272438  23.1406079388645 2.36643954197766  23.5828823803386 3.10466662597212  C 24.0251568218126 3.84289370996658  24.5811589770031 4.7750618076987  25.2508888459101 5.9011709191685  C 25.9206187148171 7.0272800306383  26.6724852655549 8.30353702349393  27.5064884981233 9.72994189773539  C 28.3404917306917 11.1563467719768  29.1997677887398 12.6140324550615  30.0843166722675 14.1029989469895  C 30.9688655557952 15.5919654389174  31.8470962327719 17.0684196070498  32.7190087031975 18.5323614513866  C 33.5909211736231 19.9963032957235  34.3870151684793 21.3413780676612  35.1072906877659 22.5675857671998  C 35.8275662070526 23.7937934667384  36.4467504252901 24.8448286373001  36.9648433424786 25.7206912788848  C 37.482936259667 26.5965539204695  37.8430740193103 27.1971454464433  38.0452566214086 27.5224658568061  C 38.4243489999805 28.1480820296535  38.6581226333849 28.7736982026445  38.7465775216217 29.3993143757789  C 38.8350324098586 30.0249305489134  38.7971231720014 30.5879851046482  38.6328498080501 31.0884780429836  C 38.4685764440989 31.588970981319  38.1779389539087 31.9956214936986  37.7609373374796 32.3084295801223  C 37.3439357210505 32.621237666546  36.8321610099784 32.7651293862493  36.2256132042633 32.7401047392321  C 35.9223393014058 32.7401047392321  35.2778822579784 32.7338485775495  34.2922420739812 32.7213362541844  C 33.306601889984 32.7088239308193  32.1187791038885 32.7025677691367  30.7287737156949 32.7025677691367  L 25.9901189841254 32.7025677691367  L 20.6449164471306 32.7025677691367  C 18.8252730302752 32.7025677691367  17.0182660259422 32.7088239308193  15.2238954341317 32.7213362541844  C 13.4295248423211 32.7338485775495  11.7615183767496 32.7401047392321  10.2198760374169 32.7401047392321  L 6.1635875872769 32.7401047392321  L 3.5857594131327 32.7401047392321  C 2.62539205418042 32.7401047392321  1.88616191611006 32.5774445343377  1.36806899892163 32.2521241245488  C 0.84997608173319 31.9268037147599  0.502474734757223 31.5076408788718  0.325564957993725 30.9946356168843  C 0.148655181230228 30.4816303548969  0.129700562301631 29.924831960988  0.268701101207936 29.3242404351577  C 0.407701640114241 28.7236489093275  0.654111686185993 28.1605943535926  1.00793123942319 27.635076767953  C 1.18484101618669 27.3598056519116  1.53234236316266 26.7967510963202  2.05043528035109 25.9459131011788  C 2.56852819753953 25.0950751060373  3.19403062203831 24.0628084206668  3.92694255384743 22.8491130450673  C 4.65985448565656 21.6354176694677  5.46858489318007 20.2965990592125  6.35313377641797 18.8326572143018  C 7.23768265965587 17.3687153693911  8.13486795556113 15.8797488777501  9.04468966413375 14.3657577393788  C 9.95451137270637 12.8517666010076  10.8390602559443 11.3815685945578  11.6983363138474 9.95516372002935  C 12.5576123717506 8.52875884550095  13.3284335414169 7.23998952913671  14.0107998228464 6.08885577093667  C 14.6931661042759 4.93772201273662  15.2618046719889 3.98678542995681  15.7167155259854 3.23604602259722  L 16.5128095209864 1.92225205935926  C 16.8666290742236 1.37170982727644  17.3278581347711 0.952546991388286  17.896496702629 0.664763551694799  C 18.4651352704869 0.376980112001312  19.0527284572734 0.233088392154568  19.6592762629885 0.233088392154568  C 20.2658240687036 0.233088392154568  20.8534172553452 0.364467788492712  21.4220558229133 0.627226581168997  Z M 21.8580120584159 19.0391105515481  L 21.8580120584159 9.16688734200049  C 21.8580120584159 8.86659157894188  21.7885117889627 8.5850643012179  21.6495112500564 8.32230550882857  C 21.5105107111501 8.05954671643923  21.3272827281254 7.82181257063667  21.0998273009822 7.60910307142089  C 20.8723718738391 7.39639357220511  20.6133254152449 7.22747720548464  20.3226879251996 7.10235397125948  C 20.0320504351543 6.97723073703432  19.7350947387029 6.91466911977827  19.4318208358454 6.91466911949132  C 18.850545855465 6.91466911949132  18.3134983192031 7.13989094178528  17.8206782270596 7.5903345863732  C 17.3278581349161 8.04077823096112  17.0814480888443 8.55378349280509  17.0814480888443 9.12935037190511  L 17.0814480888443 18.9640366109269  C 17.0814480888443 19.5396034900269  17.3278581349161 20.0588649135534  17.8206782270596 20.5218208815065  C 18.3134983192031 20.9847768494595  18.850545855465 21.216254833436  19.4318208358454 21.216254833436  C 20.0383686415604 21.216254833436  20.5943707966061 20.9972891728247  21.0998273009822 20.5593578516019  C 21.6052838053584 20.1214265303791  21.8580120578363 19.6146774303611  21.8580120584159 19.0391105515481  Z M 21.0998273009822 24.1066015527317  C 20.6449164458265 23.6561579092916  20.0889142907809 23.4309360869976  19.4318208358454 23.4309360858498  C 18.7747273797506 23.4309360858498  18.212407018154 23.6561579081438  17.7448597510554 24.1066015527317  C 17.2773124839568 24.5570451973196  17.0435388505524 25.1075874294025  17.0435388508422 25.7582282489802  C 17.043538851132 26.4088690685579  17.2773124845364 26.9656674626103  17.7448597510554 27.4286234311372  C 18.2124070175744 27.8915793996641  18.774727379171 28.1230573836407  19.4318208358454 28.1230573830668  C 20.0889142925197 28.1230573824929  20.6449164475653 27.8915793985163  21.0998273009822 27.4286234311372  C 21.5547381543992 26.9656674637581  21.7821935815423 26.4088690697057  21.7821935824117 25.7582282489802  C 21.7821935832811 25.1075874282547  21.5547381561379 24.5570451961718  21.0998273009822 24.1066015527317  Z " fill-rule="nonzero" fill="#ffffff" stroke="none" transform="matrix(1 0 0 1 80 995 )" />
  </g>
</svg>