<?xml version="1.0" encoding="utf-8"?>
<svg version="1.1" xmlns:xlink="http://www.w3.org/1999/xlink" width="38px" height="38px" xmlns="http://www.w3.org/2000/svg">
  <g transform="matrix(1 0 0 1 -588 -1114 )">
    <path d="M 9 30.9708295036765  L 8.26309359681373 31  L 30 31  L 30 20.1229587928922  C 29.9499578737745 14.1575176164216  25.0675283394608 9.27508808210784  19.1065257352941 9.27508808210784  C 13.1410845588235 9.27508808210784  8.25865502450981 14.1575176164216  9 20.1229587928922  L 9 30.9708295036765  Z M 15.1917049632353 23.4341337316177  C 15.1695121017157 23.3941865808824  15.1739506740196 23.3409237132353  15.2050206801471 23.3054151348039  L 20.2339231004902 16.6431181066176  C 20.4070274203431 16.4123123468137  20.7709903492647 16.5765395220588  20.7177274816176 16.8606081495098  L 19.8832758884804 21.1571461397059  L 22.7772250306373 21.152707567402  C 22.8260493259804 21.152707567402  22.8704350490196 21.1793390012255  22.8926279105392 21.2237247242647  C 22.9148207720588 21.2681104473039  22.9103821997549 21.321373314951  22.8793121936275 21.3613204656863  L 17.8504097732843 28.0147403492647  C 17.6773054534314 28.2455461090686  17.3133425245098 28.0813189338235  17.3666053921569 27.7972503063726  L 18.2010569852941 23.5007123161765  L 15.3071078431373 23.5051508884804  C 15.2582835477941 23.5051508884804  15.2138978247549 23.4785194546569  15.1917049632353 23.4341337316177  Z M 7.3931334252451 5.69759880514706  L 8.69807368259804 7.53960631127451  C 9.02208946078431 7.97902496936274  9.67455958946078 8.08555070465686  10.2160654105392 7.75709635416667  C 10.6554840686274 7.43308057598039  10.7620098039216 6.6740847120098  10.4335554534314 6.23910462622549  L 9.12861519607843 4.50362285539216  C 8.80459941789215 3.9576784620098  8.15656786151961 3.85115272671569  7.61062346813725 4.17960707720588  C 7.17120481004902 4.6145871629902  7.0646790747549 5.26261871936275  7.3931334252451 5.69759880514706  Z M 18.0235140931373 3.85559129901961  C 18.0190755208333 4.50806142769608  18.4584941789216 4.93860294117647  19.1065257352941 4.93860294117647  C 19.7589958639706 4.93860294117647  20.189537377451 4.50806142769608  20.189537377451 3.85559129901961  L 20.189537377451 1.68512944240196  C 20.189537377451 1.03265931372549  19.7589958639706 0.602117800245097  19.1065257352941 0.602117800245097  C 18.4540556066177 0.602117800245097  18.0235140931373 1.03709788602941  18.0235140931373 1.68512944240196  L 18.0235140931373 3.85559129901961  Z M 6.0970703125 33  L 6.0970703125 35.3073146446078  C 6.0970703125 36.4968520220588  7.07355621936275 37.4777765012255  8.26753216911765 37  L 29.9543964460784 37  C 31.1439338235294 37.4777765012255  32.1248583026961 36.5012905943627  32.1248583026961 35.3073146446078  L 32.1248583026961 33  L 6.0970703125 33  Z M 4.57907858455883 15.3514935661765  C 4.79213005514706 14.6990234375  4.47255284926471 14.1575176164216  3.92660845588235 13.9400275735294  L 1.86711090686275 13.2875574448529  C 1.21464077818627 13.0745059742647  0.677573529411765 13.3940831801471  0.455644914215686 13.9400275735294  C 0.242593443627451 14.5924977022059  0.562170649509804 15.1295649509804  1.10811504289216 15.3514935661765  L 3.16761259191177 16.0039636948529  C 3.82008272058824 16.1104894301471  4.35714996936275 15.7864736519608  4.57907858455883 15.3514935661765  Z M 36.8918849571078 15.5689836090686  C 37.4333907781863 15.4624578737745  37.7574065563725 14.809987745098  37.5443550857843 14.1575176164216  C 37.3268650428922 13.6115732230392  36.6788334865196 13.2875574448529  36.1328890931373 13.5050474877451  L 34.0733915441176 14.1575176164216  C 33.5274471507353 14.3750076593137  33.203431372549 15.0230392156863  33.4209214154412 15.5689836090686  C 33.6384114583333 16.114928002451  34.2864430147059 16.4389437806373  34.8323874080882 16.2214537377451  L 36.8918849571078 15.5689836090686  Z M 27.6729702818627 6.35006893382353  C 27.3489545036765 6.78061044730392  27.4554802389706 7.53960631127451  27.8904603247549 7.86806066176471  C 28.4319661458333 8.19207643995098  29.0799977022059 8.08111213235294  29.4084520526961 7.65057061887255  L 30.713392310049 5.91508884803922  C 31.0329695159314 5.37358302696079  30.9264437806373 4.72555147058823  30.4959022671569 4.39709712009804  C 29.9543964460784 4.07308134191176  29.3063648897059 4.1840456495098  28.9779105392157 4.6145871629902  L 27.6729702818627 6.35006893382353  Z " fill-rule="nonzero" fill="#f59a23" stroke="none" transform="matrix(1 0 0 1 588 1114 )" />
  </g>
</svg>