<?xml version="1.0" encoding="utf-8"?>
<svg version="1.1" xmlns:xlink="http://www.w3.org/1999/xlink" width="24px" height="24px" xmlns="http://www.w3.org/2000/svg">
  <g transform="matrix(1 0 0 1 -393 -1224 )">
    <path d="M 23.7455357142857 11.3973214285714  C 23.9151785714286 11.5669642857143  24 11.7678571428571  24 12  C 24 12.2321428571429  23.9151785714286 12.4330357142857  23.7455357142857 12.6026785714286  L 20.3169642857143 16.03125  C 20.1473214285714 16.2008928571429  19.9464285714286 16.2857142857143  19.7142857142857 16.2857142857143  C 19.4821428571429 16.2857142857143  19.28125 16.2008928571429  19.1116071428571 16.03125  C 18.9419642857143 15.8616071428571  18.8571428571429 15.6607142857143  18.8571428571429 15.4285714285714  L 18.8571428571429 13.7142857142857  L 13.7142857142857 13.7142857142857  L 13.7142857142857 18.8571428571429  L 15.4285714285714 18.8571428571429  C 15.6607142857143 18.8571428571429  15.8616071428571 18.9419642857143  16.03125 19.1116071428571  C 16.2008928571429 19.28125  16.2857142857143 19.4821428571429  16.2857142857143 19.7142857142857  C 16.2857142857143 19.9464285714286  16.2008928571429 20.1473214285714  16.03125 20.3169642857143  L 12.6026785714286 23.7455357142857  C 12.4330357142857 23.9151785714286  12.2321428571429 24  12 24  C 11.7678571428571 24  11.5669642857143 23.9151785714286  11.3973214285714 23.7455357142857  L 7.96875 20.3169642857143  C 7.79910714285714 20.1473214285714  7.71428571428572 19.9464285714286  7.71428571428572 19.7142857142857  C 7.71428571428572 19.4821428571429  7.79910714285714 19.28125  7.96875 19.1116071428571  C 8.13839285714286 18.9419642857143  8.33928571428572 18.8571428571429  8.57142857142857 18.8571428571429  L 10.2857142857143 18.8571428571429  L 10.2857142857143 13.7142857142857  L 5.14285714285714 13.7142857142857  L 5.14285714285714 15.4285714285714  C 5.14285714285714 15.6607142857143  5.05803571428571 15.8616071428571  4.88839285714286 16.03125  C 4.71875 16.2008928571429  4.51785714285714 16.2857142857143  4.28571428571429 16.2857142857143  C 4.05357142857143 16.2857142857143  3.85267857142857 16.2008928571429  3.68303571428571 16.03125  L 0.254464285714286 12.6026785714286  C 0.0848214285714286 12.4330357142857  0 12.2321428571429  0 12  C 0 11.7678571428571  0.0848214285714286 11.5669642857143  0.254464285714286 11.3973214285714  L 3.68303571428571 7.96875  C 3.85267857142857 7.79910714285714  4.05357142857143 7.71428571428571  4.28571428571429 7.71428571428571  C 4.51785714285714 7.71428571428571  4.71875 7.79910714285714  4.88839285714286 7.96875  C 5.05803571428571 8.13839285714286  5.14285714285714 8.33928571428571  5.14285714285714 8.57142857142857  L 5.14285714285714 10.2857142857143  L 10.2857142857143 10.2857142857143  L 10.2857142857143 5.14285714285714  L 8.57142857142857 5.14285714285714  C 8.33928571428572 5.14285714285714  8.13839285714286 5.05803571428571  7.96875 4.88839285714286  C 7.79910714285714 4.71875  7.71428571428572 4.51785714285714  7.71428571428572 4.28571428571429  C 7.71428571428572 4.05357142857143  7.79910714285714 3.85267857142857  7.96875 3.68303571428571  L 11.3973214285714 0.254464285714286  C 11.5669642857143 0.0848214285714306  11.7678571428571 0  12 0  C 12.2321428571429 0  12.4330357142857 0.0848214285714306  12.6026785714286 0.254464285714286  L 16.03125 3.68303571428571  C 16.2008928571429 3.85267857142857  16.2857142857143 4.05357142857143  16.2857142857143 4.28571428571429  C 16.2857142857143 4.51785714285714  16.2008928571429 4.71875  16.03125 4.88839285714286  C 15.8616071428571 5.05803571428571  15.6607142857143 5.14285714285714  15.4285714285714 5.14285714285714  L 13.7142857142857 5.14285714285714  L 13.7142857142857 10.2857142857143  L 18.8571428571429 10.2857142857143  L 18.8571428571429 8.57142857142857  C 18.8571428571429 8.33928571428571  18.9419642857143 8.13839285714286  19.1116071428571 7.96875  C 19.28125 7.79910714285714  19.4821428571429 7.71428571428571  19.7142857142857 7.71428571428571  C 19.9464285714286 7.71428571428571  20.1473214285714 7.79910714285714  20.3169642857143 7.96875  L 23.7455357142857 11.3973214285714  Z " fill-rule="nonzero" fill="#000000" stroke="none" transform="matrix(1 0 0 1 393 1224 )" />
  </g>
</svg>