<?xml version="1.0" encoding="utf-8"?>
<svg version="1.1" xmlns:xlink="http://www.w3.org/1999/xlink" width="23px" height="23px" xmlns="http://www.w3.org/2000/svg">
  <g transform="matrix(1 0 0 1 -810 -1107 )">
    <path d="M 17.8190104166667 9.58333333333333  C 17.8190104166667 9.84288194444444  17.7241753472222 10.0674913194444  17.5345052083333 10.2571614583333  L 11.2154947916667 16.576171875  C 11.0258246527778 16.7658420138889  10.8012152777778 16.8606770833333  10.5416666666667 16.8606770833333  C 10.2821180555556 16.8606770833333  10.0575086805556 16.7658420138889  9.86783854166667 16.576171875  L 5.46549479166667 12.173828125  C 5.27582465277778 11.9841579861111  5.18098958333333 11.7595486111111  5.18098958333333 11.5  C 5.18098958333333 11.2404513888889  5.27582465277778 11.0158420138889  5.46549479166667 10.826171875  L 6.99283854166667 9.298828125  C 7.18250868055556 9.10915798611111  7.40711805555556 9.01432291666667  7.66666666666667 9.01432291666667  C 7.92621527777778 9.01432291666667  8.15082465277778 9.10915798611111  8.34049479166667 9.298828125  L 10.5416666666667 11.5  L 14.6595052083333 7.38216145833333  C 14.8491753472222 7.19249131944444  15.0737847222222 7.09765625  15.3333333333333 7.09765625  C 15.5928819444444 7.09765625  15.8174913194444 7.19249131944444  16.0071614583333 7.38216145833333  L 17.5345052083333 8.90950520833333  C 17.7241753472222 9.09917534722222  17.8190104166667 9.32378472222222  17.8190104166667 9.58333333333333  Z M 18.552734375 15.587890625  C 19.2814670138889 14.3400607638889  19.6458333333333 12.9774305555556  19.6458333333333 11.5  C 19.6458333333333 10.0225694444444  19.2814670138889 8.65993923611111  18.552734375 7.412109375  C 17.8240017361111 6.16427951388889  16.8357204861111 5.17599826388889  15.587890625 4.447265625  C 14.3400607638889 3.71853298611111  12.9774305555556 3.35416666666667  11.5 3.35416666666667  C 10.0225694444444 3.35416666666667  8.65993923611111 3.71853298611111  7.412109375 4.447265625  C 6.16427951388889 5.17599826388889  5.17599826388889 6.16427951388889  4.447265625 7.412109375  C 3.71853298611111 8.65993923611111  3.35416666666667 10.0225694444444  3.35416666666667 11.5  C 3.35416666666667 12.9774305555556  3.71853298611111 14.3400607638889  4.447265625 15.587890625  C 5.17599826388889 16.8357204861111  6.16427951388889 17.8240017361111  7.412109375 18.552734375  C 8.65993923611111 19.2814670138889  10.0225694444444 19.6458333333333  11.5 19.6458333333333  C 12.9774305555556 19.6458333333333  14.3400607638889 19.2814670138889  15.587890625 18.552734375  C 16.8357204861111 17.8240017361111  17.8240017361111 16.8357204861111  18.552734375 15.587890625  Z M 21.4576822916667 5.7275390625  C 22.4858940972222 7.48947482638889  23 9.41362847222222  23 11.5  C 23 13.5863715277778  22.4858940972222 15.5105251736111  21.4576822916667 17.2724609375  C 20.4294704861111 19.0343967013889  19.0343967013889 20.4294704861111  17.2724609375 21.4576822916667  C 15.5105251736111 22.4858940972222  13.5863715277778 23  11.5 23  C 9.41362847222222 23  7.48947482638889 22.4858940972222  5.7275390625 21.4576822916667  C 3.96560329861111 20.4294704861111  2.57052951388889 19.0343967013889  1.54231770833333 17.2724609375  C 0.514105902777778 15.5105251736111  0 13.5863715277778  0 11.5  C 0 9.41362847222222  0.514105902777778 7.48947482638889  1.54231770833333 5.7275390625  C 2.57052951388889 3.96560329861111  3.96560329861111 2.57052951388889  5.7275390625 1.54231770833333  C 7.48947482638889 0.514105902777776  9.41362847222222 0  11.5 0  C 13.5863715277778 0  15.5105251736111 0.514105902777776  17.2724609375 1.54231770833333  C 19.0343967013889 2.57052951388889  20.4294704861111 3.96560329861111  21.4576822916667 5.7275390625  Z " fill-rule="nonzero" fill="#aaaaaa" stroke="none" transform="matrix(1 0 0 1 810 1107 )" />
  </g>
</svg>