<?xml version="1.0" encoding="utf-8"?>
<svg version="1.1" xmlns:xlink="http://www.w3.org/1999/xlink" width="88px" height="88px" xmlns="http://www.w3.org/2000/svg">
  <g transform="matrix(1 0 0 1 -281 -281 )">
    <path d="M 282 285  A 3 3 0 0 1 285 282 L 365 282  A 3 3 0 0 1 368 285 L 368 365  A 3 3 0 0 1 365 368 L 285 368  A 3 3 0 0 1 282 365 L 282 285  Z " fill-rule="nonzero" fill="#f2f2f2" stroke="none" />
    <path d="M 281.5 285  A 3.5 3.5 0 0 1 285 281.5 L 365 281.5  A 3.5 3.5 0 0 1 368.5 285 L 368.5 365  A 3.5 3.5 0 0 1 365 368.5 L 285 368.5  A 3.5 3.5 0 0 1 281.5 365 L 281.5 285  Z " stroke-width="1" stroke-dasharray="3,1" stroke="#d8d8d8" fill="none" stroke-dashoffset="0.5" />
  </g>
</svg>