<?xml version="1.0" encoding="utf-8"?>
<svg version="1.1" xmlns:xlink="http://www.w3.org/1999/xlink" width="15px" height="15px" xmlns="http://www.w3.org/2000/svg">
  <g transform="matrix(1 0 0 1 -25 -333 )">
    <path d="M 14.4951923076923 5.37807183364839  C 14.8317307692308 5.43478260869565  15 5.57971014492754  15 5.81285444234405  C 15 5.95148078134846  14.921875 6.10270951480781  14.765625 6.26654064272212  L 11.4933894230769 9.6124763705104  L 12.2686298076923 14.3383742911153  C 12.2746394230769 14.3824826717076  12.2776442307692 14.4454946439824  12.2776442307692 14.5274102079395  C 12.2776442307692 14.6597353497164  12.24609375 14.7715816005041  12.1829927884615 14.8629489603025  C 12.1198918269231 14.9543163201008  12.0282451923077 15  11.9080528846154 15  C 11.7938701923077 15  11.6736778846154 14.9621928166352  11.5474759615385 14.8865784499055  L 7.5 12.65595463138  L 3.45252403846154 14.8865784499055  C 3.3203125 14.9621928166352  3.20012019230769 15  3.09194711538462 15  C 2.96574519230769 15  2.87109375 14.9543163201008  2.80799278846154 14.8629489603025  C 2.74489182692308 14.7715816005041  2.71334134615385 14.6597353497164  2.71334134615385 14.5274102079395  C 2.71334134615385 14.4896030245747  2.71935096153846 14.4265910522999  2.73137019230769 14.3383742911153  L 3.50661057692308 9.6124763705104  L 0.225360576923077 6.26654064272212  C 0.0751201923076923 6.09640831758034  0 5.94517958412098  0 5.81285444234405  C 0 5.57971014492754  0.168269230769231 5.43478260869565  0.504807692307692 5.37807183364839  L 5.03004807692308 4.68809073724008  L 7.05829326923077 0.387523629489602  C 7.17247596153846 0.1291745431632  7.31971153846154 0  7.5 0  C 7.68028846153846 0  7.82752403846154 0.1291745431632  7.94170673076923 0.387523629489602  L 9.96995192307692 4.68809073724008  L 14.4951923076923 5.37807183364839  Z " fill-rule="nonzero" fill="#000000" stroke="none" transform="matrix(1 0 0 1 25 333 )" />
  </g>
</svg>