<?xml version="1.0" encoding="utf-8"?>
<svg version="1.1" xmlns:xlink="http://www.w3.org/1999/xlink" width="12px" height="15px" xmlns="http://www.w3.org/2000/svg">
  <g transform="matrix(1 0 0 1 -419 -1103 )">
    <path d="M 5.29261363636364 0.159040178571429  C 5.40056818181818 0.265066964285712  5.45454545454545 0.390624999999999  5.45454545454545 0.535714285714285  L 5.45454545454545 5.89285714285714  C 5.45454545454545 6.23325892857143  5.35369318181818 6.54296875  5.15198863636364 6.82198660714286  C 4.95028409090909 7.10100446428571  4.6875 7.29631696428571  4.36363636363636 7.40792410714286  L 4.36363636363636 13.9285714285714  C 4.36363636363636 14.21875  4.25568181818182 14.4698660714286  4.03977272727273 14.6819196428571  C 3.82386363636364 14.8939732142857  3.56818181818182 15  3.27272727272727 15  L 2.18181818181818 15  C 1.88636363636364 15  1.63068181818182 14.8939732142857  1.41477272727273 14.6819196428571  C 1.19886363636364 14.4698660714286  1.09090909090909 14.21875  1.09090909090909 13.9285714285714  L 1.09090909090909 7.40792410714286  C 0.767045454545455 7.29631696428571  0.504261363636364 7.10100446428571  0.302556818181818 6.82198660714286  C 0.100852272727273 6.54296875  0 6.23325892857143  0 5.89285714285714  L 0 0.535714285714285  C 0 0.390624999999999  0.0539772727272727 0.265066964285712  0.161931818181818 0.159040178571429  C 0.269886363636364 0.0530133928571441  0.397727272727273 0  0.545454545454545 0  C 0.693181818181818 0  0.821022727272727 0.0530133928571441  0.928977272727273 0.159040178571429  C 1.03693181818182 0.265066964285712  1.09090909090909 0.390624999999999  1.09090909090909 0.535714285714285  L 1.09090909090909 4.01785714285714  C 1.09090909090909 4.16294642857143  1.14488636363636 4.28850446428571  1.25284090909091 4.39453125  C 1.36079545454545 4.50055803571428  1.48863636363636 4.55357142857143  1.63636363636364 4.55357142857143  C 1.78409090909091 4.55357142857143  1.91193181818182 4.50055803571428  2.01988636363636 4.39453125  C 2.12784090909091 4.28850446428571  2.18181818181818 4.16294642857143  2.18181818181818 4.01785714285714  L 2.18181818181818 0.535714285714285  C 2.18181818181818 0.390624999999999  2.23579545454546 0.265066964285712  2.34375 0.159040178571429  C 2.45170454545455 0.0530133928571441  2.57954545454545 0  2.72727272727273 0  C 2.875 0  3.00284090909091 0.0530133928571441  3.11079545454545 0.159040178571429  C 3.21875 0.265066964285712  3.27272727272727 0.390624999999999  3.27272727272727 0.535714285714285  L 3.27272727272727 4.01785714285714  C 3.27272727272727 4.16294642857143  3.32670454545455 4.28850446428571  3.43465909090909 4.39453125  C 3.54261363636364 4.50055803571428  3.67045454545455 4.55357142857143  3.81818181818182 4.55357142857143  C 3.96590909090909 4.55357142857143  4.09375 4.50055803571428  4.20170454545455 4.39453125  C 4.30965909090909 4.28850446428571  4.36363636363636 4.16294642857143  4.36363636363636 4.01785714285714  L 4.36363636363636 0.535714285714285  C 4.36363636363636 0.390624999999999  4.41761363636364 0.265066964285712  4.52556818181818 0.159040178571429  C 4.63352272727273 0.0530133928571441  4.76136363636364 0  4.90909090909091 0  C 5.05681818181818 0  5.18465909090909 0.0530133928571441  5.29261363636364 0.159040178571429  Z M 11.8380681818182 0.159040178571429  C 11.9460227272727 0.265066964285712  12 0.390624999999999  12 0.535714285714285  L 12 13.9285714285714  C 12 14.21875  11.8920454545455 14.4698660714286  11.6761363636364 14.6819196428571  C 11.4602272727273 14.8939732142857  11.2045454545455 15  10.9090909090909 15  L 9.81818181818182 15  C 9.52272727272727 15  9.26704545454546 14.8939732142857  9.05113636363636 14.6819196428571  C 8.83522727272727 14.4698660714286  8.72727272727273 14.21875  8.72727272727273 13.9285714285714  L 8.72727272727273 9.64285714285714  L 6.81818181818182 9.64285714285714  C 6.74431818181818 9.64285714285714  6.68039772727273 9.61635044642857  6.62642045454546 9.56333705357143  C 6.57244318181818 9.51032366071428  6.54545454545454 9.44754464285714  6.54545454545454 9.375  L 6.54545454545454 2.67857142857143  C 6.54545454545454 1.94196428571429  6.8125 1.31138392857143  7.34659090909091 0.786830357142856  C 7.88068181818182 0.262276785714288  8.52272727272727 0  9.27272727272727 0  L 11.4545454545455 0  C 11.6022727272727 0  11.7301136363636 0.0530133928571441  11.8380681818182 0.159040178571429  Z " fill-rule="nonzero" fill="#ffffff" stroke="none" transform="matrix(1 0 0 1 419 1103 )" />
  </g>
</svg>