<?xml version="1.0" encoding="utf-8"?>
<svg version="1.1" xmlns:xlink="http://www.w3.org/1999/xlink" width="15px" height="15px" xmlns="http://www.w3.org/2000/svg">
  <g transform="matrix(1 0 0 1 -655 -1103 )">
    <path d="M 0.301003344481605 11.7857142857143  L 14.6989966555184 11.7857142857143  L 14.9916387959866 14.4056919642857  C 15.0083612040134 14.5619419642857  14.963768115942 14.7014508928571  14.8578595317726 14.82421875  C 14.7519509476031 14.94140625  14.6181716833891 15  14.4565217391304 15  L 0.543478260869565 15  C 0.381828316610925 15  0.248049052396878 14.94140625  0.142140468227425 14.82421875  C 0.036231884057971 14.7014508928571  -0.00836120401337793 14.5619419642857  0.00836120401337793 14.4056919642857  L 0.301003344481605 11.7857142857143  Z M 13.7458193979933 4.423828125  C 13.8461538461538 4.51590401785714  13.9046822742475 4.62890625  13.9214046822742 4.76283482142857  L 14.6404682274247 11  L 0.359531772575251 11  L 1.07859531772575 4.76283482142857  C 1.09531772575251 4.62890625  1.15384615384615 4.51590401785714  1.25418060200669 4.423828125  C 1.35451505016722 4.33175223214286  1.47435897435897 4.28571428571429  1.61371237458194 4.28571428571429  L 3.75418060200669 4.28571428571429  L 3.75418060200669 5.35714285714286  C 3.75418060200669 5.65290178571428  3.85869565217391 5.90541294642857  4.06772575250836 6.11467633928571  C 4.27675585284281 6.32393973214286  4.52898550724638 6.42857142857143  4.82441471571906 6.42857142857143  C 5.11984392419175 6.42857142857143  5.37207357859532 6.32393973214286  5.58110367892977 6.11467633928571  C 5.79013377926421 5.90541294642857  5.89464882943144 5.65290178571428  5.89464882943144 5.35714285714286  L 5.89464882943144 4.28571428571429  L 9.10535117056856 4.28571428571429  L 9.10535117056856 5.35714285714286  C 9.10535117056856 5.65290178571428  9.20986622073579 5.90541294642857  9.41889632107023 6.11467633928571  C 9.62792642140468 6.32393973214286  9.88015607580825 6.42857142857143  10.1755852842809 6.42857142857143  C 10.4710144927536 6.42857142857143  10.7232441471572 6.32393973214286  10.9322742474916 6.11467633928571  C 11.1413043478261 5.90541294642857  11.2458193979933 5.65290178571428  11.2458193979933 5.35714285714286  L 11.2458193979933 4.28571428571429  L 13.3862876254181 4.28571428571429  C 13.525641025641 4.28571428571429  13.6454849498328 4.33175223214286  13.7458193979933 4.423828125  Z M 9.77006688963211 0.941685267857144  C 10.3971571906355 1.56947544642857  10.7107023411371 2.32700892857143  10.7107023411371 3.21428571428571  L 10.7107023411371 5.35714285714286  C 10.7107023411371 5.50223214285714  10.6577480490524 5.62779017857143  10.5518394648829 5.73381696428571  C 10.4459308807135 5.83984375  10.3205128205128 5.89285714285714  10.1755852842809 5.89285714285714  C 10.0306577480491 5.89285714285714  9.90523968784838 5.83984375  9.79933110367893 5.73381696428571  C 9.69342251950948 5.62779017857143  9.64046822742475 5.50223214285714  9.64046822742475 5.35714285714286  L 9.64046822742475 3.21428571428571  C 9.64046822742475 2.62276785714286  9.4314381270903 2.11774553571429  9.0133779264214 1.69921875  C 8.59531772575251 1.28069196428571  8.09085841694537 1.07142857142857  7.5 1.07142857142857  C 6.90914158305463 1.07142857142857  6.40468227424749 1.28069196428571  5.9866220735786 1.69921875  C 5.5685618729097 2.11774553571429  5.35953177257525 2.62276785714286  5.35953177257525 3.21428571428571  L 5.35953177257525 5.35714285714286  C 5.35953177257525 5.50223214285714  5.30657748049052 5.62779017857143  5.20066889632107 5.73381696428571  C 5.09476031215162 5.83984375  4.96934225195095 5.89285714285714  4.82441471571906 5.89285714285714  C 4.67948717948718 5.89285714285714  4.55406911928651 5.83984375  4.44816053511706 5.73381696428571  C 4.3422519509476 5.62779017857143  4.28929765886288 5.50223214285714  4.28929765886288 5.35714285714286  L 4.28929765886288 3.21428571428571  C 4.28929765886288 2.32700892857143  4.60284280936455 1.56947544642857  5.22993311036789 0.941685267857144  C 5.85702341137124 0.313895089285715  6.61371237458194 0  7.5 0  C 8.38628762541806 0  9.14297658862876 0.313895089285715  9.77006688963211 0.941685267857144  Z " fill-rule="nonzero" fill="#ffffff" stroke="none" transform="matrix(1 0 0 1 655 1103 )" />
  </g>
</svg>