<?xml version="1.0" encoding="utf-8"?>
<svg version="1.1" xmlns:xlink="http://www.w3.org/1999/xlink" width="12px" height="12px" viewBox="1798 1061  12 12" xmlns="http://www.w3.org/2000/svg">
  <path d="M 1804 1061  C 1807.36 1061  1810 1063.64  1810 1067  C 1810 1070.36  1807.36 1073  1804 1073  C 1800.64 1073  1798 1070.36  1798 1067  C 1798 1063.64  1800.64 1061  1804 1061  Z " fill-rule="nonzero" fill="#f0f0f0" stroke="none" />
  <path d="M 1804 1061.5  C 1807.08 1061.5  1809.5 1063.92  1809.5 1067  C 1809.5 1070.08  1807.08 1072.5  1804 1072.5  C 1800.92 1072.5  1798.5 1070.08  1798.5 1067  C 1798.5 1063.92  1800.92 1061.5  1804 1061.5  Z " stroke-width="1" stroke="#797979" fill="none" />
  <path d="M 1804 1070  C 1802.32 1070  1801 1068.68  1801 1067  C 1801 1065.32  1802.32 1064  1804 1064  C 1805.68 1064  1807 1065.32  1807 1067  C 1807 1068.68  1805.68 1070  1804 1070  " fill-rule="nonzero" fill="#797979" stroke="none" />
</svg>