<?xml version="1.0" encoding="utf-8"?>
<svg version="1.1" xmlns:xlink="http://www.w3.org/1999/xlink" width="12px" height="12px" viewBox="1898 1061  12 12" xmlns="http://www.w3.org/2000/svg">
  <path d="M 1904 1061  C 1907.36 1061  1910 1063.64  1910 1067  C 1910 1070.36  1907.36 1073  1904 1073  C 1900.64 1073  1898 1070.36  1898 1067  C 1898 1063.64  1900.64 1061  1904 1061  Z " fill-rule="nonzero" fill="#f0f0f0" stroke="none" />
  <path d="M 1904 1061.5  C 1907.08 1061.5  1909.5 1063.92  1909.5 1067  C 1909.5 1070.08  1907.08 1072.5  1904 1072.5  C 1900.92 1072.5  1898.5 1070.08  1898.5 1067  C 1898.5 1063.92  1900.92 1061.5  1904 1061.5  Z " stroke-width="1" stroke="#797979" fill="none" />
  <path d="M 1904 1070  C 1902.32 1070  1901 1068.68  1901 1067  C 1901 1065.32  1902.32 1064  1904 1064  C 1905.68 1064  1907 1065.32  1907 1067  C 1907 1068.68  1905.68 1070  1904 1070  " fill-rule="nonzero" fill="#797979" stroke="none" />
</svg>