<?xml version="1.0" encoding="utf-8"?>
<svg version="1.1" xmlns:xlink="http://www.w3.org/1999/xlink" width="12px" height="12px" viewBox="1678 1061  12 12" xmlns="http://www.w3.org/2000/svg">
  <path d="M 1684 1061  C 1687.36 1061  1690 1063.64  1690 1067  C 1690 1070.36  1687.36 1073  1684 1073  C 1680.64 1073  1678 1070.36  1678 1067  C 1678 1063.64  1680.64 1061  1684 1061  Z " fill-rule="nonzero" fill="#ffffff" stroke="none" />
  <path d="M 1684 1061.5  C 1687.08 1061.5  1689.5 1063.92  1689.5 1067  C 1689.5 1070.08  1687.08 1072.5  1684 1072.5  C 1680.92 1072.5  1678.5 1070.08  1678.5 1067  C 1678.5 1063.92  1680.92 1061.5  1684 1061.5  Z " stroke-width="1" stroke="#797979" fill="none" />
  <path d="M 1684 1070  C 1682.32 1070  1681 1068.68  1681 1067  C 1681 1065.32  1682.32 1064  1684 1064  C 1685.68 1064  1687 1065.32  1687 1067  C 1687 1068.68  1685.68 1070  1684 1070  " fill-rule="nonzero" fill="#797979" stroke="none" />
</svg>