<?xml version="1.0" encoding="utf-8"?>
<svg version="1.1" xmlns:xlink="http://www.w3.org/1999/xlink" width="33px" height="38px" xmlns="http://www.w3.org/2000/svg">
  <g transform="matrix(1 0 0 1 -401 -3705 )">
    <path d="M 27.25 33.83361328125  L 27 33.833193359375  L 27 21.291806640625  C 27.25 15.364189453125  22.4276171875 10.541806640625  16.5 10.541806640625  C 10.5723828125 10.541806640625  5.75 15.364189453125  6 21.291806640625  L 6 33.83361328125  L 0.375 33.83361328125  L 0.375 37  L 32.625 37  L 32.625 33.83361328125  L 27.25 33.83361328125  Z M 9.333193359375 33.833193359375  L 9.333193359375 21.291806640625  C 9.333193359375 17.339921875  12.548115234375 14.125  16.5 14.125  C 20.451884765625 14.125  23.666806640625 17.339921875  23.666806640625 21.291806640625  L 23.666806640625 33.83361328125  L 9.333193359375 33.83361328125  Z M 16.0750390625 19.14474609375  C 16.0750390625 18.402744140625  15.473291015625 17.80099609375  14.7312890625 17.80099609375  C 13.989287109375 17.80099609375  13.3875390625 18.402744140625  13.3875390625 19.14474609375  L 13.3875390625 23.53125  C 13.3875390625 24.273251953125  13.989287109375 24.875  14.7312890625 24.875  C 15.473291015625 24.875  16.0750390625 24.273251953125  16.0750390625 23.53125  L 16.0750390625 19.14474609375  Z M 15.098720703125 7.7237109375  C 15.098720703125 7.73798828125  15.110478515625 7.74974609375  15.12517578125 7.74974609375  L 17.760185546875 7.74974609375  C 17.7748828125 7.74974609375  17.786640625 7.73798828125  17.786640625 7.723291015625  L 17.786640625 0.899140625  C 17.786640625 0.884443359375001  17.7748828125 0.872685546875001  17.760185546875 0.872685546875001  L 15.12517578125 0.872685546875001  C 15.110478515625 0.872685546875001  15.098720703125 0.884443359375001  15.098720703125 0.899140625  L 15.098720703125 7.7237109375  Z M 2.329736328125 6.431611328125  L 7.15505859375 11.2577734375  C 7.16513671875 11.2678515625  7.18193359375 11.2678515625  7.19201171875 11.2577734375  L 9.055205078125 9.394580078125  C 9.065283203125 9.384501953125  9.065283203125 9.367705078125  9.055205078125 9.357626953125  L 4.2298828125 4.53146484375  C 4.21962449446255 4.52139171732188  4.20318800553745 4.52139171732188  4.1929296875 4.53146484375  L 2.329736328125 6.394658203125  C 2.319658203125 6.404736328125  2.319658203125 6.421533203125  2.329736328125 6.431611328125  Z M 23.829736328125 9.39416015625  L 25.6929296875 11.2577734375  C 25.7030078125 11.2678515625  25.7198046875 11.2678515625  25.7298828125 11.2577734375  L 30.555625 6.43203125  C 30.565703125 6.421953125  30.565703125 6.40515625  30.555625 6.395078125  L 28.692431640625 4.531884765625  C 28.6821733225875 4.52181163919689  28.6657368336625 4.52181163919689  28.655478515625 4.531884765625  L 23.829736328125 9.35720703125  C 23.819658203125 9.36728515625  23.819658203125 9.38408203125  23.829736328125 9.39416015625  Z " fill-rule="nonzero" fill="#000000" stroke="none" transform="matrix(1 0 0 1 401 3705 )" />
  </g>
</svg>