<?xml version="1.0" encoding="utf-8"?>
<svg version="1.1" xmlns:xlink="http://www.w3.org/1999/xlink" width="12px" height="12px" viewBox="1510 4811  12 12" xmlns="http://www.w3.org/2000/svg">
  <path d="M 1516 4811  C 1519.36 4811  1522 4813.64  1522 4817  C 1522 4820.36  1519.36 4823  1516 4823  C 1512.64 4823  1510 4820.36  1510 4817  C 1510 4813.64  1512.64 4811  1516 4811  Z " fill-rule="nonzero" fill="#ffffff" stroke="none" />
  <path d="M 1516 4811.5  C 1519.08 4811.5  1521.5 4813.92  1521.5 4817  C 1521.5 4820.08  1519.08 4822.5  1516 4822.5  C 1512.92 4822.5  1510.5 4820.08  1510.5 4817  C 1510.5 4813.92  1512.92 4811.5  1516 4811.5  Z " stroke-width="1" stroke="#797979" fill="none" />
  <path d="M 1516 4820  C 1514.32 4820  1513 4818.68  1513 4817  C 1513 4815.32  1514.32 4814  1516 4814  C 1517.68 4814  1519 4815.32  1519 4817  C 1519 4818.68  1517.68 4820  1516 4820  " fill-rule="nonzero" fill="#797979" stroke="none" />
</svg>