<?xml version="1.0" encoding="utf-8"?>
<svg version="1.1" xmlns:xlink="http://www.w3.org/1999/xlink" width="16px" height="14px" xmlns="http://www.w3.org/2000/svg">
  <g transform="matrix(1 0 0 1 -215 -2244 )">
    <path d="M 15.03125 7  C 15.03125 6.60625  14.709375 6.2859375  14.3171875 6.2859375  L 3.4078125 6.2859375  L 7.9140625 1.7796875  C 8.1921875 1.5015625  8.1921875 1.046875  7.9140625 0.76875  C 7.6359375 0.490625  7.18125 0.490625  6.903125 0.76875  L 1.1765625 6.4953125  C 0.8984375 6.7734375  0.8984375 7.228125  1.1765625 7.50625  L 6.903125 13.2328125  C 7.18125 13.5109375  7.6359375 13.5109375  7.9140625 13.2328125  C 8.1921875 12.9546875  8.1921875 12.5  7.9140625 12.221875  L 3.4078125 7.7140625  L 14.3171875 7.7140625  C 14.7109375 7.7140625  15.03125 7.3921875  15.03125 7  Z " fill-rule="nonzero" fill="#000000" stroke="none" transform="matrix(1 0 0 1 215 2244 )" />
  </g>
</svg>