<?xml version="1.0" encoding="utf-8"?>
<svg version="1.1" xmlns:xlink="http://www.w3.org/1999/xlink" width="17px" height="17px" xmlns="http://www.w3.org/2000/svg">
  <g transform="matrix(1 0 0 1 -1897 -2167 )">
    <path d="M 2.344 1.156  L 8.5 7.312  L 14.656 1.156  C 14.8135385949647 0.99846140503531  15.0272067824037 0.909957143950384  15.25 0.909957143950384  C 15.7139428586005 0.909957143950384  16.0900428560496 1.28605714139949  16.0900428560496 1.75  C 16.0900428560496 1.97279321759627  16.0015385949647 2.18646140503531  15.844 2.344  L 9.688 8.5  L 15.844 14.656  C 16.0015385949647 14.8135385949647  16.0900428560496 15.0272067824037  16.0900428560496 15.25  C 16.0900428560496 15.7139428586005  15.7139428586005 16.0900428560496  15.25 16.0900428560496  C 15.0272067824037 16.0900428560496  14.8135385949647 16.0015385949647  14.656 15.844  L 8.5 9.688  L 2.344 15.844  C 2.18646140503531 16.0015385949647  1.97279321759627 16.0900428560496  1.75 16.0900428560496  C 1.28605714139949 16.0900428560496  0.909957143950384 15.7139428586005  0.909957143950384 15.25  C 0.909957143950384 15.0272067824037  0.998461405035313 14.8135385949647  1.156 14.656  L 7.312 8.5  L 1.156 2.344  C 0.998461405035312 2.18646140503531  0.909957143950383 1.97279321759627  0.909957143950383 1.75  C 0.909957143950383 1.28605714139949  1.28605714139949 0.909957143950383  1.75 0.909957143950383  C 1.97279321759627 0.909957143950383  2.18646140503531 0.998461405035312  2.344 1.156  Z " fill-rule="nonzero" fill="#797979" stroke="none" transform="matrix(1 0 0 1 1897 2167 )" />
  </g>
</svg>