<?xml version="1.0" encoding="utf-8"?>
<svg version="1.1" xmlns:xlink="http://www.w3.org/1999/xlink" width="11px" height="11px" xmlns="http://www.w3.org/2000/svg">
  <g transform="matrix(1 0 0 1 -355 -2424 )">
    <path d="M 5.81249999511719 1.06250000488281  L 5.81249999511719 5.18750000488281  L 9.93749999511719 5.18750000488281  C 10.1249999951172 5.18750000488281  10.2499999902344 5.3125  10.2500000048828 5.5  C 10.2500000195313 5.6875  10.1250000097656 5.81249999511719  9.93749999511719 5.81249999511719  L 5.81249999511719 5.81249999511719  L 5.81249999511719 9.93749999511719  C 5.81249999511719 10.1249999951172  5.6875 10.2499999902344  5.5 10.2500000048828  C 5.3125 10.2500000195313  5.18750000488281 10.1250000097656  5.18750000488281 9.93749999511719  L 5.18750000488281 5.81249999511719  L 1.06250000488281 5.81249999511719  C 0.875000004882812 5.81249999511719  0.750000009765625 5.6875  0.749999995117187 5.5  C 0.74999998046875 5.3125  0.874999990234375 5.18750000488281  1.06250000488281 5.18750000488281  L 5.18750000488281 5.18750000488281  L 5.18750000488281 1.06250000488281  C 5.18750000488281 0.875000004882812  5.3125 0.750000009765625  5.5 0.749999995117187  C 5.6875 0.74999998046875  5.81249999511719 0.874999990234375  5.81249999511719 1.06250000488281  Z " fill-rule="nonzero" fill="#02a7f0" stroke="none" transform="matrix(1 0 0 1 355 2424 )" />
  </g>
</svg>