<?xml version="1.0" encoding="utf-8"?>
<svg version="1.1" xmlns:xlink="http://www.w3.org/1999/xlink" width="9px" height="15px" xmlns="http://www.w3.org/2000/svg">
  <g transform="matrix(1 0 0 1 -216 -2467 )">
    <path d="M 3.3125 13.4375  C 3.3125 12.781661859375  2.780838140625 12.25  2.125 12.25  C 1.469161859375 12.25  0.9375 12.781661859375  0.9375 13.4375  C 0.9375 14.093338140625  1.469161859375 14.625  2.125 14.625  C 2.780838140625 14.625  3.3125 14.093338140625  3.3125 13.4375  Z M 3.3125 7.5  C 3.3125 6.844161859375  2.780838140625 6.3125  2.125 6.3125  C 1.469161859375 6.3125  0.9375 6.844161859375  0.9375 7.5  C 0.9375 8.155838140625  1.469161859375 8.6875  2.125 8.6875  C 2.780838140625 8.6875  3.3125 8.155838140625  3.3125 7.5  Z M 3.3125 1.5625  C 3.3125 0.906661915039062  2.780838140625 0.375  2.125 0.375  C 1.469161859375 0.375  0.9375 0.906661915039062  0.9375 1.5625  C 0.9375 2.21833808496094  1.469161859375 2.75  2.125 2.75  C 2.780838140625 2.75  3.3125 2.21833808496094  3.3125 1.5625  Z M 8.0625 13.4375  C 8.0625 12.781661859375  7.53083808496094 12.25  6.875 12.25  C 6.219161859375 12.25  5.6875 12.781661859375  5.6875 13.4375  C 5.6875 14.093338140625  6.219161859375 14.625  6.875 14.625  C 7.53083808496094 14.625  8.0625 14.093338140625  8.0625 13.4375  Z M 8.0625 7.5  C 8.0625 6.844161859375  7.53083808496094 6.3125  6.875 6.3125  C 6.219161859375 6.3125  5.6875 6.844161859375  5.6875 7.5  C 5.6875 8.155838140625  6.219161859375 8.6875  6.875 8.6875  C 7.53083808496094 8.6875  8.0625 8.155838140625  8.0625 7.5  Z M 8.0625 1.5625  C 8.0625 0.906661915039062  7.53083808496094 0.375  6.875 0.375  C 6.219161859375 0.375  5.6875 0.906661915039062  5.6875 1.5625  C 5.6875 2.21833808496094  6.219161859375 2.75  6.875 2.75  C 7.53083808496094 2.75  8.0625 2.21833808496094  8.0625 1.5625  Z " fill-rule="nonzero" fill="#bbbbbb" stroke="none" transform="matrix(1 0 0 1 216 2467 )" />
  </g>
</svg>