<?xml version="1.0" encoding="utf-8"?>
<svg version="1.1" xmlns:xlink="http://www.w3.org/1999/xlink" width="27px" height="27px" xmlns="http://www.w3.org/2000/svg">
  <g transform="matrix(1 0 0 1 -757 -2423 )">
    <path d="M 26.9767764441964 13.5859104457965  C 26.9767764743304 6.20871269137168  20.9430501930804 0.228351663716814  13.4999845714286 0.228351663716814  C 6.05691897991071 0.228351663716814  0.0231618716517848 6.20871269137168  0.0231618716517848 13.5859104457965  C 0.0231618716517848 20.9630776460177  6.05694980691964 26.9434998119469  13.4999845714286 26.9434998119469  C 20.9430501629464 26.9434998119469  26.9767764441964 20.9630776460177  26.9767764441964 13.5859104457965  Z M 9.48489081026786 13.5843517632743  C 9.48489081026786 14.7236922676991  8.55305059821429 15.6472861061947  7.40353741071429 15.6472861061947  C 6.25405505022322 15.6472861061947  5.32218401116072 14.7236617134956  5.32218401116072 13.5843517632743  C 5.32218401116072 12.4450418130531  6.25402422321429 11.521417420354  7.40353741071429 11.521417420354  C 8.55305059821429 11.521417420354  9.48489081026786 12.4450112588496  9.48489081026786 13.5843517632743  Z M 15.6979297868304 13.5843517632743  C 15.6979297868304 14.7236922676991  14.7660587477679 15.6472861061947  13.6165763872768 15.6472861061947  C 12.4670940267857 15.6472861061947  11.5352229877232 14.7236617134956  11.5352229877232 13.5843517632743  C 11.5352229877232 12.4450418130531  12.4670631997768 11.521417420354  13.6165763872768 11.521417420354  C 14.7660895747768 11.521417420354  15.6979297868304 12.4450112588496  15.6979297868304 13.5843517632743  Z M 21.8494504988839 13.5843517632743  C 21.8494504988839 14.7236922676991  20.9176102868304 15.6472861061947  19.7680970993304 15.6472861061947  C 18.6186147388393 15.6472861061947  17.6867436997768 14.7236617134956  17.6867436997768 13.5843517632743  C 17.6867436997768 12.4450418130531  18.6186147388393 11.521417420354  19.7680970993304 11.521417420354  C 20.9175794598214 11.521417420354  21.8494504988839 12.4450112588496  21.8494504988839 13.5843517632743  Z " fill-rule="nonzero" fill="#555555" stroke="none" transform="matrix(1 0 0 1 757 2423 )" />
  </g>
</svg>