<?xml version="1.0" encoding="utf-8"?>
<svg version="1.1" xmlns:xlink="http://www.w3.org/1999/xlink" width="102px" height="63px" xmlns="http://www.w3.org/2000/svg">
  <defs>
    <mask fill="white" id="clip226">
      <path d="M 0 48.3913043478261  L 0 4.60869565217391  C 0 2.02782608695651  0.515668789808915 0  1.17197452229299 0  L 90.828025477707 0  C 91.4843312101911 0  92 2.02782608695651  92 4.60869565217391  L 92 48.3913043478261  C 92 50.9721739130435  91.4843312101911 53  90.828025477707 53  L 58.9183555298205 53  L 1.17197452229299 53  C 0.515668789808915 53  0 50.9721739130435  0 48.3913043478261  Z " fill-rule="evenodd" />
    </mask>
    <filter x="681px" y="2452px" width="102px" height="63px" filterUnits="userSpaceOnUse" id="filter227">
      <feOffset dx="3" dy="3" in="SourceAlpha" result="shadowOffsetInner" />
      <feGaussianBlur stdDeviation="2.5" in="shadowOffsetInner" result="shadowGaussian" />
      <feComposite in2="shadowGaussian" operator="atop" in="SourceAlpha" result="shadowComposite" />
      <feColorMatrix type="matrix" values="0 0 0 0 0  0 0 0 0 0  0 0 0 0 0  0 0 0 0.349019607843137 0  " in="shadowComposite" />
    </filter>
    <g id="widget228">
      <path d="M 0 48.3913043478261  L 0 4.60869565217391  C 0 2.02782608695651  0.515668789808915 0  1.17197452229299 0  L 90.828025477707 0  C 91.4843312101911 0  92 2.02782608695651  92 4.60869565217391  L 92 48.3913043478261  C 92 50.9721739130435  91.4843312101911 53  90.828025477707 53  L 58.9183555298205 53  L 1.17197452229299 53  C 0.515668789808915 53  0 50.9721739130435  0 48.3913043478261  Z " fill-rule="nonzero" fill="#ffffff" stroke="none" transform="matrix(1 0 0 1 683 2454 )" />
      <path d="M 0 48.3913043478261  L 0 4.60869565217391  C 0 2.02782608695651  0.515668789808915 0  1.17197452229299 0  L 90.828025477707 0  C 91.4843312101911 0  92 2.02782608695651  92 4.60869565217391  L 92 48.3913043478261  C 92 50.9721739130435  91.4843312101911 53  90.828025477707 53  L 58.9183555298205 53  L 1.17197452229299 53  C 0.515668789808915 53  0 50.9721739130435  0 48.3913043478261  Z " stroke-width="2" stroke="#adb0c1" fill="none" transform="matrix(1 0 0 1 683 2454 )" mask="url(#clip226)" />
    </g>
  </defs>
  <g transform="matrix(1 0 0 1 -681 -2452 )">
    <use xlink:href="#widget228" filter="url(#filter227)" />
    <use xlink:href="#widget228" />
  </g>
</svg>