<?xml version="1.0" encoding="utf-8"?>
<svg version="1.1" xmlns:xlink="http://www.w3.org/1999/xlink" width="6px" height="10px" xmlns="http://www.w3.org/2000/svg">
  <g transform="matrix(1 0 0 1 -772 -2440 )">
    <path d="M 0.566724436741768 0.106026785714286  L 5.89081455805893 5.8203125  C 5.99826689774697 5.93191964285714  6.02253032928943 6.06026785714286  5.96360485268631 6.20535714285714  C 5.90467937608319 6.35416666666667  5.80242634315425 6.42857142857143  5.65684575389948 6.42857142857143  L 3.67071057192374 6.42857142857143  L 4.7157712305026 9.08482142857143  C 4.75043327556326 9.17782738095238  4.75043327556326 9.26897321428571  4.7157712305026 9.35825892857143  C 4.68110918544194 9.44754464285714  4.62218370883882 9.51264880952381  4.53899480069324 9.55357142857143  L 3.61871750433276 9.97209821428571  C 3.53206239168111 10.0093005952381  3.4471403812825 10.0093005952381  3.36395147313692 9.97209821428571  C 3.28076256499133 9.93489583333333  3.22010398613518 9.87165178571429  3.18197573656846 9.78236607142857  L 2.18890814558059 7.26004464285714  L 0.566724436741768 9.00111607142857  C 0.500866551126517 9.07180059523809  0.422876949740035 9.10714285714286  0.332755632582322 9.10714285714286  C 0.291161178509532 9.10714285714286  0.249566724436742 9.09784226190476  0.207972270363951 9.07924107142857  C 0.0693240901213172 9.01599702380952  0 8.90625  0 8.75  L 0 0.357142857142857  C 0 0.200892857142857  0.0693240901213172 0.0911458333333326  0.207972270363951 0.027901785714286  C 0.249566724436742 0.00930059523809534  0.291161178509532 0  0.332755632582322 0  C 0.4263431542461 0  0.504332755632582 0.0353422619047628  0.566724436741768 0.106026785714286  Z " fill-rule="nonzero" fill="#000000" stroke="none" transform="matrix(1 0 0 1 772 2440 )" />
  </g>
</svg>