<?xml version="1.0" encoding="utf-8"?>
<svg version="1.1" xmlns:xlink="http://www.w3.org/1999/xlink" width="20px" height="20px" xmlns="http://www.w3.org/2000/svg">
  <g transform="matrix(1 0 0 1 -322 -1234 )">
    <path d="M 19.6568252509539 2.90458988719145  C 19.7953355984102 3.04466333162106  19.8728119891137 3.23470459459288  19.8720954723982 3.4326246135383  C 19.8720954723982 3.62480051034897  19.8009317666958 3.81697642932415  19.6586043333357 3.96245538784698  L 9.37544825131095 14.3399542157152  L 5.67493533366472 14.3399542157152  L 5.67493533366472 10.6006062441417  L 15.9527541470368 0.223107416273522  C 16.0919412046269 0.0828348477331524  16.2809179700097 0.00458412833283446  16.4775864963069 0.00578700224401443  C 16.6661703305772 0.00578700224401443  16.8565332476774 0.0776284575245162  17.0006397629713 0.221311368537857  L 19.6568252509539 2.90458988719145  Z M 8.75988216042287 12.4702802408976  L 17.712276864354 3.4326246135383  L 16.4775864963069 2.18617528983126  L 7.52519179259985 11.2238309169644  L 7.52519179259985 12.4702802408976  L 8.75988216042287 12.4702802408976  Z M 10.6119177017398 2.18617528983126  L 10.6136968056289 2.18617528983126  C 10.6136968056305 2.70197727543446  10.1995027841212 3.12011600191047  9.68856856540922 3.12011600191047  C 9.68797553761134 3.12011600191047  9.68738250995121 3.12011542626381  9.6867894832499 3.12011427497129  L 2 3.12011427497129  L 2 18  L 16.7853695415269 18  L 16.7853695415269 10.2880959058009  C 16.7853695415269 9.77179968801913  17.199961824193 9.35325890742292  17.7113873229391 9.35325890742292  C 18.2228128216851 9.35325890742292  18.6374051043512 9.77179968801913  18.6374051043512 10.2880959058009  L 18.6374051043512 18.7025268603375  C 18.6374051043512 19.3904088406962  18.0858863466237 19.9489761842707  17.4027147363041 20  L 1.35173995258865 20  C 0.670534169910632 19.9479852761301  0.118827959975316 19.3902210310429  0.118828667147408 18.7025268603375  L 0.118828667147408 2.49868564988427  C 0.118828667147408 1.81080366952558  0.670347424874856 1.25223632595106  1.35173995258865 1.25223632617722  L 9.68678948324991 1.25223632617722  C 10.1977236850761 1.25223633829343  10.6119176898616 1.67037504798764  10.6119177017398 2.18617528983126  Z " fill-rule="nonzero" fill="#000000" stroke="none" transform="matrix(1 0 0 1 322 1234 )" />
  </g>
</svg>