<?xml version="1.0" encoding="utf-8"?>
<svg version="1.1" xmlns:xlink="http://www.w3.org/1999/xlink" width="13px" height="13px" xmlns="http://www.w3.org/2000/svg">
  <g transform="matrix(1 0 0 1 -2493 -977 )">
    <path d="M 7.35531309179687 6.44886766015625  L 12.5191660078125 1.31174863476563  C 12.7633404628906 1.06878936328125  12.7645746279297 0.675091291015625  12.5216153378906 0.4309168359375  C 12.2781054375 0.186191751953126  11.8850909013672 0.185508215820313  11.6409164462891 0.428467505859376  L 6.47573445800781 5.56613716015625  L 1.35553294726563 0.430347225585937  C 1.11316226757813 0.187406935546875  0.71891356640625 0.186172770507812  0.474739129882813 0.429113060546875  C 0.23113428515625 0.672053350585937  0.230545693359375 1.06632103320312  0.47350496484375 1.31049548828125  L 5.59247231054687 6.4450512578125  L 0.431106706054687 11.5790374169922  C 0.18691326953125 11.8219966884766  0.1856980859375 12.2156567978516  0.42861939453125 12.4598692158203  C 0.550080048828125 12.58199440625  0.710141522460937 12.6435696582031  0.87020299609375 12.6435696582031  C 1.0290493046875 12.6435696582031  1.18795255761719 12.5832285712891  1.30943219335937 12.4623185458984  L 6.47203194433594 7.32709822167969  L 11.6390177265625 12.5096534462891  C 11.7604783808594 12.6317976367188  11.9199892255859 12.6928222597656  12.0800317177734 12.6928222597656  C 12.2395045996094 12.6928222597656  12.3983508896484 12.6317976367188  12.5198115439453 12.5108876113281  C 12.7633214443359 12.2679473212891  12.7639859990234 11.8743631748047  12.5210457089844 11.6301887197266  L 7.35531309179687 6.44886766015625  Z " fill-rule="nonzero" fill="#c9c9c9" stroke="none" transform="matrix(1 0 0 1 2493 977 )" />
  </g>
</svg>