<?xml version="1.0" encoding="utf-8"?>
<svg version="1.1" xmlns:xlink="http://www.w3.org/1999/xlink" width="12px" height="13px" xmlns="http://www.w3.org/2000/svg">
  <g transform="matrix(1 0 0 1 -538 -3561 )">
    <path d="M 10.3663101210309 4.3213863665625  L 9.16752874701031 4.3213863665625  L 9.16752874701031 11.7247122484375  L 2.74143925685567 11.7247122484375  L 2.74143925685567 4.3213863665625  L 1.54174417190722 4.3213863665625  L 1.54174417190722 12.9359809292188  L 10.3663101210309 12.9359809292188  L 10.3663101210309 4.3213863665625  Z M 11.906817277732 1.86561297  L 7.95686920546392 1.86561297  L 7.95686920546392 0.0265525967187501  L 3.99412924283505 0.0265525967187501  L 3.99412924283505 1.86745941265625  L 0.0560593238659794 1.86745941265625  L 0.0560593238659794 3  L 11.906817277732 3  L 11.906817277732 1.86653619828125  Z M 5.1938243277835 1.86561297  L 5.1938243277835 1.2378212771875  L 6.75717412082474 1.2378212771875  L 6.75717412082474 1.86561297  L 5.1947380243299 1.86561297  Z M 3.99504295298969 10.2198586315625  L 3.99504295345361 10.2180121751563  L 3.99504295345361 4.32507925171875  L 5.1938243277835 4.32507925171875  L 5.1938243277835 10.2198586315625  L 3.99504295298969 10.2198586315625  Z M 7.95686920546391 10.2143192898438  L 6.75717412082474 10.2143192901563  L 6.75717412082474 4.3213863665625  L 7.95686920546391 4.3213863665625  L 7.95686920546391 10.2143192898438  Z " fill-rule="nonzero" fill="#000000" stroke="none" transform="matrix(1 0 0 1 538 3561 )" />
  </g>
</svg>