<?xml version="1.0" encoding="utf-8"?>
<svg version="1.1" xmlns:xlink="http://www.w3.org/1999/xlink" width="42px" height="23px" xmlns="http://www.w3.org/2000/svg">
  <g transform="matrix(1 0 0 1 -238 -3712 )">
    <path d="M 15.1226666796875 0.333333320312509  L 15.124 0.3333333203125  L 15.288 0.337333320312499  C 15.9013333203125 0.351999999999999  16.2146666796875 0.766666640625001  16.3666666796875 0.966666679687499  L 16.4106666796875 1.024  C 17.7186309423244 2.66368204231544  19.3976868605091 3.96890352512118  21.3093333203125 4.832  C 22.612 5.4226666796875  24 5.7386666796875  25.552 5.8013333203125  C 26.8293333203125 5.854666640625  28.1413333203125 5.8013333203125  29.4106666796875 5.7506666796875  C 30.344 5.713333359375  31.308 5.6746666796875  32.2666666796875 5.676  C 35.261333359375 5.6813333203125  37.8826666796875 6.5653333203125  40.0573333203125 8.304  C 40.534666640625 8.6853333203125  40.934666640625 9.0453333203125  40.9933333203125 9.588  C 41.044 10.0626666796875  40.798666640625 10.4293333203125  40.608 10.664  L 40.576 10.704  L 38.192 13.496  L 38.1626666796875 13.5253333203125  C 37.352 14.328  36.5306666796875 15.152  35.736 15.948  L 34.22 17.468  C 32.7206431228215 18.9699816976387  31.2228645227748 20.4735380873324  29.7266666796875 21.9786666796875  L 29.7106666796875 21.992  C 29.553333359375 22.152  29.356 22.3493333203125  29.0506666796875 22.4413333203125  C 28.8183860125607 22.5110392744362  28.569368862683 22.5002328791946  28.344 22.4106666796875  L 5.764 14.168  C 5.8773333203125 13.9493333203125  5.884 13.8826666796875  5.7773333203125 13.6546666796875  C 5.9733281204866 13.4925415271827  6.1561260066977 13.3150938228796  6.324 13.124  L 6.388 13.0573333203125  C 6.8266666796875 12.630666640625  8.9573333203125 10.7853333203125  11.9386666796875 12.1226666796875  C 12.296 12.2826666796875  12.665333359375 12.452  13.024 12.616  C 14.864 13.456  16.768 14.3266666796875  18.5613333203125 14.7466666796875  C 20.162666640625 15.121333359375  21.504 15.089333359375  22.6213333203125 14.6453333203125  C 22.7413333203125 15.252  23.318666640625 15.658666640625  23.932 15.56  L 27.0066666796875 15.0626666796875  C 27.633333359375 14.961333359375  28.06 14.369333359375  27.9586666796875 13.7413333203125  L 27.6266666796875 11.6746666796875  C 27.5257247943091 11.0479016758574  26.9362446445947 10.6213041958705  26.3093333203125 10.7213333203125  L 23.2333333203125 11.2186666796875  C 22.6063126964713 11.3208936495218  22.1804068155895 11.9114354171311  22.2813333203125 12.5386666796875  L 22.3346666796875 12.8626666796875  C 20.26 14.016  16.9506666796875 12.5026666796875  13.7426666796875 11.036  L 12.6453333203125 10.5373333203125  C 10.324 9.4973333203125  8.376 9.9373333203125  7.152 10.4906666796875  C 5.8373333203125 11.085333359375  5.0653333203125 11.944  5.0266666796875 11.972  C 4.84686114348085 12.1070316173832  4.69322939057703 12.2737672455154  4.5733333203125 12.464  C 4.3613333203125 12.3946666796875  4.1853333203125 12.404  4.0133333203125 12.568  C 3.6133333203125 12.1146666796875  3.1333333203125 11.6506666796875  2.816 11.176  C 2.4146666796875 10.6533333203125  2.0333333203125 10.0546666796875  1.616 9.29333332031251  C 1.5293333203125 9.13333332031251  1.436 8.95866664062501  1.332 8.76000000000001  C 1.1053333203125 8.32800000000001  0.871999999999996 7.75733332031251  1.0786666796875 7.17733332031251  C 1.284 6.60400000000001  1.812 6.31600000000001  2.252 6.12933332031251  C 4.9253333203125 4.99600000000001  7.5986666796875 3.85866664062501  10.272 2.72266667968751  L 14.5653333203125 0.564000000000007  L 14.848 0.446666679687507  L 15.1226666796875 0.333333320312509  Z M 24.4786666796875 12.34  L 25.476 12.1813333203125  C 25.68 12.1493333203125  25.8653333203125 12.248  25.8893333203125 12.4  L 26.088 13.604  C 26.1133333203125 13.7573333203125  25.968 13.908  25.7653333203125 13.94  L 24.7666666796875 14.1  C 24.564 14.132  24.3786666796875 14.0333333203125  24.3533333203125 13.88  L 24.156 12.676  C 24.1293333203125 12.5226666796875  24.276 12.3733333203125  24.4786666796875 12.34  Z " fill-rule="nonzero" fill="#333333" stroke="none" transform="matrix(1 0 0 1 238 3712 )" />
  </g>
</svg>