<?xml version="1.0" encoding="utf-8"?>
<svg version="1.1" xmlns:xlink="http://www.w3.org/1999/xlink" width="8px" height="8px" xmlns="http://www.w3.org/2000/svg">
  <g transform="matrix(1 0 0 1 -1282 -16 )">
    <path d="M 1286 16.0833333333333  C 1288.19333333333 16.0833333333333  1289.91666666667 17.8066666666667  1289.91666666667 20  C 1289.91666666667 22.1933333333333  1288.19333333333 23.9166666666667  1286 23.9166666666667  C 1283.80666666667 23.9166666666667  1282.08333333333 22.1933333333333  1282.08333333333 20  C 1282.08333333333 17.8066666666667  1283.80666666667 16.0833333333333  1286 16.0833333333333  Z " fill-rule="nonzero" fill="#ffffff" stroke="none" fill-opacity="0" />
    <path d="M 1286 16.5416666666667  C 1287.93666666667 16.5416666666667  1289.45833333333 18.0633333333333  1289.45833333333 20  C 1289.45833333333 21.9366666666667  1287.93666666667 23.4583333333333  1286 23.4583333333333  C 1284.06333333333 23.4583333333333  1282.54166666667 21.9366666666667  1282.54166666667 20  C 1282.54166666667 18.0633333333333  1284.06333333333 16.5416666666667  1286 16.5416666666667  Z " stroke-width="1.08333333333333" stroke="#000000" fill="none" />
  </g>
</svg>