<?xml version="1.0" encoding="utf-8"?>
<svg version="1.1" xmlns:xlink="http://www.w3.org/1999/xlink" width="20px" height="18px" xmlns="http://www.w3.org/2000/svg">
  <g transform="matrix(1 0 0 1 -1769 -181 )">
    <path d="M 6.25 0.249999990234375  L 6.25 1.5  L 13.75 1.5  L 13.75 0.249999990234375  L 16.2499999902344 0.249999990234375  L 16.2499999902344 1.5  L 20 1.5  L 20 17.7500000097656  L 0 17.7500000097656  L 0 1.5  L 3.75000000976562 1.5  L 3.75000000976562 0.249999990234375  L 6.25 0.249999990234375  Z M 17.5 4  L 2.5 4  L 2.5 15  L 17.5 15  L 17.5 4  Z M 3.75000000976562 5.25  L 7.50000000976562 5.25  L 7.50000000976562 7.74999999023438  L 3.75000000976562 7.74999999023438  L 3.75000000976562 5.25  Z " fill-rule="nonzero" fill="#aaaaaa" stroke="none" transform="matrix(1 0 0 1 1769 181 )" />
  </g>
</svg>