<?xml version="1.0" encoding="utf-8"?>
<svg version="1.1" xmlns:xlink="http://www.w3.org/1999/xlink" width="9px" height="11px" xmlns="http://www.w3.org/2000/svg">
  <g transform="matrix(1 0 0 1 -226 -593 )">
    <path d="M 4.5 11  L 1.44046456618089 7.77795023242188  C 0.629523148751377 6.92596816025611  0.173380135362476 5.76621400950723  0.173380135362476 4.55635879101562  C 0.173380135362476 3.34650357252402  0.629523148751377 2.18674942177514  1.44046456618089 1.33476734960938  C 3.1301104293119 -0.444922446289062  5.86988958082933 -0.444922446289062  7.55953543381911 1.33476734960938  C 8.37061016046247 2.18676725070372  8.82683800440051 3.34661991893295  8.82683800440051 4.55658795410156  C 8.82683800440051 5.76655598927017  8.37061016046247 6.9264086574994  7.55953543381911 7.77840855859375  L 4.5 11  Z M 4.5 5.95838585546875  C 5.21690062279702 5.95838585546875  5.79806340482272 5.34278379747116  5.79806340482272 4.58340017480469  C 5.79806340482272 3.82401655213821  5.21690062279702 3.20841449414062  4.5 3.20841449414062  C 3.78309937720298 3.20841449414062  3.20193659517728 3.82401655213821  3.20193659517728 4.58340017480469  C 3.20193659517728 5.34278379747116  3.78309937720298 5.95838585546875  4.5 5.95838585546875  Z " fill-rule="nonzero" fill="#3d3d3d" stroke="none" transform="matrix(1 0 0 1 226 593 )" />
  </g>
</svg>