<?xml version="1.0" encoding="utf-8"?>
<svg version="1.1" xmlns:xlink="http://www.w3.org/1999/xlink" width="16px" height="16px" xmlns="http://www.w3.org/2000/svg">
  <g transform="matrix(1 0 0 1 -2346 -451 )">
    <path d="M 13.5 16  C 13.5 15.7234375  13.3875 15.4734375  13.2078125 15.2921875  C 13.071875 15.15625  12.896875 15.059375  12.7015625 15.0203125  C 12.584375 14.996875  12.5 14.896875  12.5 14.778125  L 12.5 9.034375  C 12.5 6.55  10.4671875 4.490625  7.9828125 4.5  C 5.50625 4.509375  3.5 6.5203125  3.5 9  L 3.5 14.778125  C 3.5 14.896875  3.415625 14.996875  3.2984375 15.0203125  C 2.8421875 15.1140625  2.5 15.5171875  2.5 16  L 13.5 16  Z M 6.25 11.0421875  L 8.8640625 7.25  L 8.5609375 9.9578125  L 9.75 9.9578125  L 7.1375 13.75  L 7.440625 11.0421875  L 6.25 11.0421875  Z M 8.5 2.75  C 8.5 3.0265625  8.2765625 3.25  8 3.25  C 7.7234375 3.25  7.5 3.0265625  7.5 2.75  L 7.5 0.5  C 7.5 0.2234375  7.7234375 0  8 0  C 8.2765625 0  8.5 0.2234375  8.5 0.5  L 8.5 2.75  Z M 4.5578125 3.94375  C 4.6953125 4.1828125  4.6140625 4.4875  4.375 4.6265625  C 4.1359375 4.7640625  3.8296875 4.6828125  3.6921875 4.44375  L 2.5671875 2.4953125  C 2.4296875 2.25625  2.5109375 1.95  2.75 1.8125  C 2.9890625 1.675  3.2953125 1.75625  3.4328125 1.9953125  L 4.5578125 3.94375  Z M 11.4421875 3.94375  C 11.3046875 4.1828125  11.3859375 4.4875  11.625 4.6265625  C 11.8640625 4.7640625  12.1703125 4.6828125  12.3078125 4.44375  L 13.4328125 2.4953125  C 13.5703125 2.25625  13.4890625 1.95  13.25 1.8125  C 13.0109375 1.675  12.7046875 1.75625  12.5671875 1.9953125  L 11.4421875 3.94375  Z M 2.809375 6.340625  C 3.0765625 6.4109375  3.234375 6.684375  3.1640625 6.9515625  C 3.0921875 7.21875  2.81875 7.3765625  2.5515625 7.3046875  L 0.378125 6.7234375  C 0.1109375 6.6515625  -0.046875 6.378125  0.0234375 6.1109375  C 0.0953125 5.84375  0.36875 5.6859375  0.6359375 5.7578125  L 2.809375 6.340625  Z M 13.1890625 6.3390625  C 12.9234375 6.4109375  12.765625 6.684375  12.8359375 6.9515625  C 12.9078125 7.21875  13.18125 7.3765625  13.4484375 7.3046875  L 15.621875 6.721875  C 15.8890625 6.65  16.046875 6.3765625  15.975 6.109375  C 15.903125 5.8421875  15.6296875 5.684375  15.3625 5.75625  L 13.1890625 6.3390625  Z " fill-rule="nonzero" fill="#d9001b" stroke="none" transform="matrix(1 0 0 1 2346 451 )" />
  </g>
</svg>