<?xml version="1.0" encoding="utf-8"?>
<svg version="1.1" xmlns:xlink="http://www.w3.org/1999/xlink" width="24px" height="19px" xmlns="http://www.w3.org/2000/svg">
  <g transform="matrix(1 0 0 1 -1305 -277 )">
    <path d="M 20.5501858736059 10.8550272798129  C 20.5600991325898 10.8747726682255  20.5650557620818 10.9043907508444  20.5650557620818 10.9438815276695  L 20.5650557620818 18.0522213561964  C 20.5650557620818 18.3089114055599  20.4708798017348 18.5310470252013  20.2825278810409 18.7186282151208  C 20.094175960347 18.9062094050403  19.8711276332094 19  19.6133828996283 19  L 13.9033457249071 19  L 13.9033457249071 13.3133281371785  L 10.0966542750929 13.3133281371785  L 10.0966542750929 19  L 4.38661710037175 19  C 4.12887236679058 19  3.90582403965304 18.9062094050403  3.71747211895911 18.7186282151208  C 3.52912019826518 18.5310470252013  3.43494423791822 18.3089114055599  3.43494423791822 18.0522213561964  L 3.43494423791822 10.9438815276695  C 3.43494423791822 10.9340088334632  3.43742255266419 10.9191997921538  3.44237918215613 10.8994544037412  C 3.44733581164808 10.8797090153287  3.44981412639405 10.8648999740192  3.44981412639405 10.8550272798129  L 12 3.83554169914263  L 20.5501858736059 10.8550272798129  Z M 23.9851301115242 9.57404520654716  C 23.9950433705081 9.70732657833203  23.9603469640644 9.82333073525591  23.8810408921933 9.92205767731878  L 22.9591078066914 11.0179267342167  C 22.8798017348203 11.1067809820733  22.7757125154895 11.1610808002078  22.6468401486989 11.1808261886204  L 22.6022304832714 11.1808261886204  C 22.4733581164808 11.1808261886204  22.3692688971499 11.1462717588984  22.2899628252788 11.0771628994544  L 12 2.5323460639127  L 1.71003717472119 11.0771628994544  C 1.5910780669145 11.1561444531047  1.47211895910781 11.1906988828267  1.35315985130112 11.1808261886204  C 1.22428748451053 11.1610808002078  1.12019826517968 11.1067809820733  1.04089219330855 11.0179267342167  L 0.118959107806691 9.92205767731878  C 0.0396530359355638 9.82333073525591  0.00495662949194551 9.70732657833203  0.0148698884758364 9.57404520654716  C 0.0247831474597275 9.44076383476228  0.0793060718711277 9.33463237204469  0.178438661710037 9.25565081839439  L 10.8698884758364 0.385035074045207  C 11.1871127633209 0.128345024681734  11.5638166047088 0  12 0  C 12.4361833952912 0  12.8128872366791 0.128345024681734  13.1301115241636 0.385035074045207  L 16.7583643122677 3.40607950116913  L 16.7583643122677 0.518316445830085  C 16.7583643122677 0.380098726942061  16.8029739776952 0.266562743569758  16.8921933085502 0.177708495713173  C 16.9814126394052 0.0888542478565866  17.09541511772 0.0444271239282933  17.2342007434944 0.0444271239282933  L 20.089219330855 0.0444271239282933  C 20.2280049566295 0.0444271239282933  20.3420074349442 0.0888542478565866  20.4312267657993 0.177708495713173  C 20.5204460966543 0.266562743569758  20.5650557620818 0.380098726942061  20.5650557620818 0.518316445830085  L 20.5650557620818 6.56040530007794  L 23.82156133829 9.25565081839439  C 23.9206939281289 9.33463237204469  23.9752168525403 9.44076383476228  23.9851301115242 9.57404520654716  Z " fill-rule="nonzero" fill="#000000" stroke="none" transform="matrix(1 0 0 1 1305 277 )" />
  </g>
</svg>